<svg width="297" height="139" viewBox="0 0 297 139" fill="none" xmlns="http://www.w3.org/2000/svg">
<path d="M162.278 109.166C162.701 109.188 163.048 109.305 163.32 109.515C163.612 109.741 163.759 110.027 163.761 110.373L163.813 122.231C163.792 122.435 163.631 122.626 163.332 122.802C163.012 122.964 162.724 123.038 162.466 123.026C162.044 123.004 161.643 122.841 161.266 122.539C160.891 122.253 160.717 121.917 160.745 121.53L160.923 117.099C159.777 117.45 158.198 117.881 156.185 118.393C156.109 119.262 156.041 120.02 155.983 120.668C155.956 120.946 155.97 121.254 156.025 121.591L156.178 122.359C156.227 122.661 156.164 122.89 155.989 123.046C155.832 123.199 155.453 123.334 154.852 123.451C154.267 123.546 153.813 123.557 153.49 123.482C153.168 123.407 152.974 123.165 152.907 122.757C152.875 122.562 152.936 121.485 153.09 119.528C153.226 117.573 153.438 115.023 153.725 111.877L152.982 111.178C152.92 111.134 152.884 111.076 152.872 111.005C152.843 110.828 153.015 110.654 153.388 110.483C153.758 110.295 154.29 110.144 154.982 110.031C155.39 109.964 155.708 110.013 155.935 110.176C156.178 110.319 156.334 110.494 156.404 110.701C156.492 110.905 156.599 111.225 156.725 111.66C156.615 112.991 156.515 114.219 156.425 115.346L158.339 114.841L159.773 114.416L161.052 114.042L161.247 109.882C161.259 109.624 161.366 109.443 161.568 109.337C161.749 109.216 161.985 109.159 162.278 109.166ZM176.704 118.401C176.815 118.856 176.946 119.263 177.096 119.622C177.077 119.734 176.935 119.867 176.668 120.02C176.42 120.17 176.197 120.261 176.002 120.293C175.363 120.397 174.885 120.375 174.569 120.226C174.274 120.092 174.096 119.839 174.035 119.466C173.977 119.111 173.954 118.75 173.967 118.383C173.664 118.98 173.159 119.518 172.454 119.998C171.764 120.457 171.187 120.725 170.726 120.8C169.536 120.995 168.486 120.811 167.573 120.249C166.679 119.685 166.107 118.639 165.857 117.112C165.622 115.674 165.739 114.269 166.207 112.899C166.691 111.507 167.473 110.331 168.556 109.37C169.635 108.391 170.912 107.782 172.386 107.541C172.67 107.494 173.056 107.513 173.543 107.597C174.028 107.664 174.532 107.846 175.054 108.143C175.592 108.42 176.067 108.816 176.479 109.332C176.621 109.309 176.802 109.352 177.02 109.462C177.239 109.572 177.36 109.699 177.383 109.841C177.409 110 177.408 110.164 177.381 110.333L176.704 118.401ZM174.287 111.14C174.116 110.767 173.85 110.473 173.486 110.259C173.141 110.042 172.844 109.954 172.596 109.995C171.779 110.128 171.054 110.547 170.422 111.252C169.805 111.937 169.344 112.741 169.04 113.666C168.735 114.591 168.645 115.435 168.77 116.198C168.892 116.944 169.081 117.542 169.337 117.992C169.593 118.442 169.978 118.626 170.493 118.541C170.937 118.469 171.421 118.253 171.946 117.894C172.488 117.531 172.945 117.092 173.316 116.576C173.702 116.039 173.926 115.51 173.987 114.99L174.287 111.14ZM198.772 109.761C198.995 111.128 198.79 112.383 198.157 113.525C197.541 114.665 196.647 115.604 195.473 116.343C194.3 117.082 193.03 117.563 191.663 117.787C190.864 117.917 190.061 117.912 189.254 117.77C188.447 117.629 187.766 117.366 187.211 116.983C186.653 116.582 186.328 116.098 186.235 115.53C186.168 115.121 186.242 114.79 186.455 114.537C186.669 114.283 186.998 114.12 187.442 114.047C187.69 114.006 187.931 114.031 188.165 114.12C188.416 114.207 188.741 114.354 189.139 114.562C189.618 114.812 190.031 115 190.38 115.125C190.743 115.23 191.129 115.249 191.537 115.182C192.443 115.034 193.219 114.707 193.865 114.2C194.529 113.69 195.007 113.102 195.299 112.434C195.606 111.746 195.71 111.1 195.611 110.496C195.512 109.893 195.197 109.416 194.666 109.065C194.132 108.697 193.446 108.517 192.609 108.526C192.375 108.765 192.155 108.929 191.951 109.017C191.765 109.102 191.529 109.168 191.245 109.214C190.801 109.287 190.374 109.238 189.963 109.068C189.553 108.899 189.319 108.636 189.261 108.281C189.194 107.873 189.356 107.527 189.747 107.244C190.136 106.944 190.784 106.564 191.694 106.106C192.843 105.553 193.723 105.027 194.334 104.526C194.942 104.007 195.21 103.362 195.138 102.589C195.074 102.199 194.828 101.92 194.4 101.753C193.969 101.568 193.469 101.523 192.901 101.615C191.729 101.807 190.771 102.301 190.026 103.097C189.807 103.315 189.659 103.531 189.585 103.744C189.51 103.956 189.465 104.182 189.45 104.422C189.407 104.721 189.325 104.944 189.204 105.091C189.1 105.236 188.852 105.34 188.462 105.404C187.894 105.497 187.456 105.441 187.149 105.236C186.842 105.031 186.647 104.671 186.563 104.156C186.467 103.57 186.696 102.913 187.252 102.184C187.825 101.452 188.611 100.795 189.609 100.212C190.625 99.627 191.728 99.237 192.918 99.0425C194.409 98.7986 195.627 98.9458 196.572 99.484C197.517 100.022 198.083 100.868 198.272 102.022C198.406 102.839 198.181 103.696 197.599 104.593C197.031 105.47 196.229 106.194 195.192 106.764C196.198 106.782 197.011 107.077 197.634 107.65C198.256 108.223 198.635 108.926 198.772 109.761ZM208.036 115.273C206.828 115.471 205.742 115.347 204.776 114.904C203.81 114.46 203.026 113.786 202.422 112.883C201.816 111.961 201.415 110.905 201.221 109.716C201.116 109.077 201.077 108.445 201.102 107.821C201.174 104.802 201.82 102.29 203.042 100.285C204.263 98.2808 206.215 97.0594 208.896 96.621C210.565 96.3481 211.921 96.6731 212.965 97.5961C214.006 98.5014 214.694 99.9748 215.028 102.017C215.333 103.881 215.314 105.771 214.971 107.686C214.625 109.584 213.876 111.246 212.724 112.674C211.587 114.082 210.024 114.948 208.036 115.273ZM207.542 112.756C208.607 112.582 209.486 111.937 210.179 110.821C210.889 109.702 211.353 108.36 211.571 106.793C211.806 105.223 211.803 103.701 211.562 102.228C211.234 100.222 210.236 99.3549 208.567 99.6278C207.591 99.7875 206.763 100.415 206.086 101.51C205.405 102.588 204.931 103.868 204.663 105.352C204.41 106.815 204.383 108.151 204.58 109.358C204.786 110.618 205.137 111.536 205.632 112.112C206.142 112.666 206.779 112.881 207.542 112.756ZM224.862 112.521C223.655 112.719 222.568 112.596 221.603 112.152C220.637 111.709 219.852 111.035 219.249 110.131C218.642 109.209 218.242 108.154 218.047 106.964C217.943 106.325 217.903 105.693 217.929 105.069C218 102.05 218.647 99.5381 219.868 97.5336C221.09 95.5292 223.041 94.3078 225.722 93.8694C227.391 93.5965 228.748 93.9215 229.792 94.8445C230.833 95.7497 231.521 97.2232 231.854 99.2649C232.159 101.129 232.14 103.019 231.797 104.934C231.451 106.832 230.702 108.495 229.55 109.923C228.413 111.33 226.851 112.196 224.862 112.521ZM224.369 110.005C225.434 109.83 226.313 109.185 227.005 108.07C227.716 106.951 228.18 105.608 228.397 104.041C228.633 102.471 228.63 100.95 228.389 99.4762C228.061 97.4699 227.062 96.6033 225.394 96.8762C224.417 97.0359 223.59 97.6633 222.912 98.7585C222.232 99.8359 221.758 101.117 221.49 102.6C221.237 104.064 221.209 105.399 221.407 106.606C221.613 107.867 221.963 108.785 222.459 109.36C222.968 109.915 223.605 110.129 224.369 110.005ZM241.689 109.77C240.481 109.967 239.395 109.844 238.429 109.401C237.463 108.957 236.679 108.283 236.075 107.379C235.469 106.458 235.068 105.402 234.874 104.213C234.769 103.573 234.73 102.942 234.755 102.318C234.827 99.2984 235.473 96.7865 236.695 94.782C237.917 92.7776 239.868 91.5562 242.549 91.1178C244.218 90.8448 245.574 91.1699 246.618 92.0929C247.66 92.9981 248.347 94.4716 248.681 96.5133C248.986 98.3775 248.967 100.267 248.624 102.183C248.278 104.08 247.529 105.743 246.377 107.171C245.24 108.578 243.677 109.445 241.689 109.77ZM241.195 107.253C242.26 107.079 243.139 106.434 243.832 105.318C244.542 104.199 245.006 102.856 245.224 101.29C245.459 99.7198 245.457 98.1981 245.216 96.7245C244.887 94.7183 243.889 93.8517 242.22 94.1246C241.244 94.2843 240.417 94.9117 239.739 96.0069C239.058 97.0843 238.584 98.3649 238.316 99.8488C238.064 101.312 238.036 102.647 238.233 103.855C238.439 105.115 238.79 106.033 239.285 106.608C239.795 107.163 240.432 107.378 241.195 107.253ZM254.903 105.832C254.903 105.941 254.822 106.948 254.659 108.852C254.517 110.771 254.397 111.985 254.297 112.493C254.258 112.7 254.068 112.877 253.728 113.024C253.39 113.188 253.142 113.284 252.982 113.31C252.591 113.374 252.251 113.302 251.962 113.094C251.655 112.889 251.452 112.539 251.353 112.045L251.967 104.097C252.222 101.193 252.419 98.7185 252.558 96.6723C252.54 96.5657 252.432 96.2918 252.232 95.8506C252.132 95.5752 252.036 95.3176 251.942 95.0778C251.848 94.8379 251.782 94.6573 251.744 94.5359C251.741 94.2993 251.889 94.0839 252.185 93.8896C252.499 93.6924 252.798 93.5705 253.082 93.5241C253.508 93.4544 253.95 93.5371 254.408 93.7721C254.883 94.0043 255.182 94.329 255.305 94.7464L255.339 95.4519C255.975 94.327 256.915 93.663 258.157 93.4597C259.169 93.2943 260.08 93.4005 260.889 93.7786C261.713 94.136 262.389 94.7 262.916 95.4706C263.44 96.2234 263.783 97.097 263.946 98.0912C264.164 99.4228 264.111 100.717 263.788 101.972C263.465 103.228 262.848 104.305 261.937 105.201C261.023 106.079 259.839 106.638 258.383 106.876C257.921 106.951 257.302 106.898 256.524 106.715C255.744 106.514 255.204 106.22 254.903 105.832ZM255.176 102.314C255.175 102.533 255.182 102.687 255.197 102.776C255.287 103.217 255.493 103.584 255.814 103.878C256.154 104.169 256.526 104.381 256.93 104.516C257.332 104.632 257.657 104.67 257.906 104.63C258.687 104.502 259.323 104.097 259.813 103.415C260.318 102.713 260.659 101.901 260.836 100.979C261.011 100.039 261.033 99.1692 260.902 98.3703C260.78 97.6246 260.468 97.0011 259.967 96.4997C259.481 95.9777 258.936 95.766 258.332 95.8648C257.657 95.9751 257.123 96.2174 256.728 96.5918C256.349 96.9456 255.933 97.4693 255.481 98.1629L255.176 102.314ZM273.743 102.805C273.232 103.472 272.714 103.985 272.19 104.345C271.668 104.722 271.052 104.968 270.342 105.084C269.17 105.276 268.205 105.06 267.447 104.437C266.706 103.81 266.238 102.893 266.04 101.686C265.982 101.331 265.971 100.932 266.008 100.488L266.656 93.2458C266.699 92.8377 266.839 92.5232 267.076 92.3021C267.328 92.0604 267.765 91.8887 268.386 91.7871C269.309 91.6361 269.813 91.818 269.897 92.3329C269.932 92.546 269.925 92.8934 269.876 93.3754L269.259 100.804C269.241 101.026 269.249 101.243 269.284 101.457C269.345 101.829 269.492 102.115 269.725 102.314C269.958 102.513 270.287 102.578 270.714 102.508C271.264 102.418 271.833 102.161 272.419 101.737C273.006 101.313 273.484 100.833 273.852 100.299L274.014 98.1127C274.119 96.6372 274.259 95.0376 274.433 93.3139C274.512 92.5718 274.666 91.9541 274.895 91.4609C275.139 90.947 275.599 90.6349 276.273 90.5246C277.214 90.3707 277.731 90.5779 277.824 91.146C277.839 91.2348 277.831 91.3545 277.801 91.5053C277.786 91.6354 277.776 91.7462 277.773 91.8379L277.491 95.6301C277.201 99.6515 277.002 102.227 276.895 103.356C276.724 105.207 276.428 106.687 276.008 107.794C275.587 108.902 274.969 109.751 274.154 110.34C273.357 110.926 272.275 111.331 270.908 111.554C270.038 111.696 269.298 111.69 268.69 111.534C268.099 111.375 267.641 111.14 267.316 110.829C267.01 110.514 266.832 110.206 266.783 109.905C266.64 109.035 267.048 108.521 268.007 108.364C268.274 108.321 268.495 108.339 268.672 108.42C268.867 108.497 269.07 108.619 269.279 108.785C269.586 108.99 269.856 109.138 270.09 109.227C270.341 109.314 270.662 109.325 271.052 109.261C271.354 109.212 271.671 109.032 272.003 108.723C272.335 108.413 272.636 107.963 272.904 107.372C273.171 106.782 273.356 106.068 273.456 105.231L273.743 102.805ZM287.091 99.0641C287.543 98.261 287.867 97.2875 288.063 96.1435C288.258 94.9995 288.272 93.9127 288.104 92.8829C287.845 91.3028 287.059 90.6202 285.745 90.835C285.017 90.954 284.408 91.4091 283.918 92.2003C283.427 92.9914 283.087 93.922 282.898 94.992C282.711 96.0798 282.69 97.0676 282.836 97.9553C282.92 98.4702 283.112 98.9218 283.413 99.3101C283.716 99.7162 284.066 100.015 284.461 100.205C284.839 100.398 285.197 100.468 285.534 100.412C286.102 100.319 286.621 99.87 287.091 99.0641ZM289.353 83.1357C290.01 83.0283 290.552 83.0492 290.977 83.1983C291.402 83.3475 291.644 83.5997 291.702 83.9547C291.746 84.221 291.698 84.4294 291.558 84.5798C291.419 84.7302 291.188 84.8774 290.865 85.0213C290.166 85.3179 289.121 85.6711 287.73 86.0809C285.909 86.6521 284.717 87.0566 284.155 87.2944C286.059 87.5664 287.517 88.0662 288.529 88.7939C288.842 88.925 289.143 89.0945 289.432 89.3024C290.45 90.0656 291.101 91.3172 291.386 93.0571C291.586 94.2821 291.457 95.6067 290.997 97.0308C290.537 98.455 289.819 99.6935 288.843 100.746C287.846 101.784 286.726 102.405 285.483 102.608C283.921 102.864 282.618 102.53 281.573 101.607C280.529 100.684 279.872 99.3969 279.602 97.7458C279.376 96.361 279.491 95.0023 279.947 93.6699C280.422 92.3345 281.175 91.1996 282.207 90.2652C282.542 89.9735 282.892 89.7157 283.256 89.4921L282.8 89.3753C281.83 89.1328 281.109 88.9044 280.637 88.69C280.167 88.4933 279.903 88.2175 279.845 87.8624C279.761 87.3475 279.867 86.9382 280.164 86.6345C280.461 86.3308 280.982 86.0085 281.729 85.6677C282.51 85.3211 283.736 84.8472 285.406 84.246C287.079 83.6626 288.395 83.2925 289.353 83.1357Z" fill="#C28DD1"/>
<path d="M47.5084 28.7616C45.2158 28.5242 51.4129 25.9252 51.5436 25.8711C66.2918 19.7614 82.2277 15.4666 98.0741 11.8364C116.4 7.63816 134.83 4.78797 153.768 3.33898C178.353 1.45793 205.134 0.819758 229.091 6.47327C250.629 11.5559 268.699 23.429 273.73 41.8908C276.002 50.2276 276 58.5077 276 67" stroke="#C28DD1" stroke-width="3" stroke-linecap="round"/>
<path d="M1.86938 125.197C7.46606 126.554 12.8028 128.675 18.5167 129.561C22.396 130.163 26.3705 130.403 30.2921 130.577C48.2874 131.377 66.3059 130.081 84.2284 128.961C96.164 128.215 107.76 126.452 119.393 123.72C123.218 122.821 126.946 121.842 130.707 120.718C132.4 120.212 134.821 120.252 136.11 118.963" stroke="#F49563" stroke-width="3" stroke-linecap="round"/>
<path d="M180.08 55.3712C179.694 48.7948 178.047 41.2821 179.936 34.7736C181.786 28.4044 187.751 23.9581 193.785 21.7484C195.398 21.1577 197.119 21.2957 198.806 21.2957C201.085 21.2957 200.822 24.6043 200.822 26.0902C200.822 27.6493 201.023 29.3745 200.801 30.9258C200.69 31.7038 199.202 33.3434 199.958 33.1275C202.302 32.4577 204.32 31.2357 206.831 30.8434C209.738 30.3891 212.687 30.0114 215.637 30.185C216.96 30.2628 216.427 34.2466 216.358 35.1852C216.168 37.7507 214.279 39.9855 213.209 42.2225C209.872 49.2005 202.465 55.2975 195.266 57.9639C191.31 59.429 187.401 62.0381 183.044 62.0381" stroke="#F49563" stroke-width="3" stroke-linecap="round"/>
</svg>
