<svg width="268" height="185" viewBox="0 0 268 185" fill="none" xmlns="http://www.w3.org/2000/svg">
<path d="M125 178C123.741 174.02 121.371 170.443 120.042 166.488C118.524 161.973 117.206 157.403 116 152.813C114.958 148.849 114.608 144.798 113.958 140.775C113.668 138.979 113.89 136.607 113 135" stroke="#F49563" stroke-width="3" stroke-linecap="round"/>
<path d="M214 169C214 166.289 214 163.577 214 160.866C214 154.641 212.775 148.738 211.967 142.602C211.234 137.044 210.551 131.524 209.267 126.103C209.046 125.172 208.74 121.426 208 121" stroke="#F49563" stroke-width="3" stroke-linecap="round"/>
<path d="M112 134C113.912 129.893 116.852 127.514 121.075 125.483C127.673 122.31 134.258 119.017 141.583 117.592C148.135 116.318 154.475 115.567 161.155 115.251C169.183 114.871 177.269 115.017 185.305 115.085C186.629 115.096 188.117 115.437 189.394 115.749C191.529 116.27 193.707 116.687 195.86 117.15C197.906 117.59 199.848 118.696 201.897 119.049C202.642 119.177 202.69 119.504 203.222 119.989C203.803 120.518 204.664 120.448 205.228 120.892C205.771 121.321 206.654 121.398 207 122.054" stroke="#F49563" stroke-width="3" stroke-linecap="round"/>
<path d="M113 135.745C120.243 137.841 128.3 137.941 135.765 137.983C145.224 138.035 154.692 137.965 164.15 137.805C168.211 137.736 172.317 137.712 176.356 137.201C182.246 136.457 187.926 135.053 193.465 132.939C196.406 131.817 198.365 130.733 200.374 128.393C202.778 125.592 205.681 123.55 209 122" stroke="#F49563" stroke-width="3" stroke-linecap="round"/>
<path d="M130 133C129.982 129.69 129.855 126.569 129.118 123.339C128.735 121.662 128.176 119.959 127.892 118.276C127.636 116.759 127 115.562 127 114" stroke="#C28DD1" stroke-width="3" stroke-linecap="round"/>
<path d="M137 132C136.334 129.044 136.501 126.061 136.045 123.056C135.346 118.444 134 113.712 134 109" stroke="#C28DD1" stroke-width="3" stroke-linecap="round"/>
<path d="M130 133C132.295 132.652 134.75 132.643 137 132" stroke="#C28DD1" stroke-width="3" stroke-linecap="round"/>
<path d="M127 112C127 111.412 127.121 110.5 127.347 109.962C127.627 109.296 128.584 109.563 129.153 109.335C130.429 108.823 130.87 107.749 131.375 106.548C131.724 105.719 131.844 105.888 132 106.67" stroke="#C28DD1" stroke-width="3" stroke-linecap="round"/>
<path d="M128.104 104C128.442 103.325 128.748 102.631 128.543 101.83C128.333 101.008 127.537 100.262 127.156 99.5029C126.722 98.6371 126.495 97.8626 126.279 96.9158C126.067 95.9904 125.888 94.7853 126.086 93.8188C126.213 93.1941 126.442 92.6149 126.603 92.0014C126.639 91.8656 126.676 91 126.761 91C126.976 91 127.444 92.9924 127.472 93.1419C127.795 94.8479 128.567 96.8273 129.526 98.214C129.745 98.5305 129.842 98.3127 129.842 98.826C129.842 99.2526 130 99.6395 130 100.087C130 100.967 129.684 101.639 129.684 102.498" stroke="#C28DD1" stroke-width="3" stroke-linecap="round"/>
<path d="M154 126C154.639 125.921 155.304 125.064 155.887 124.757C157.012 124.163 158.367 124.03 159.604 124.03C160.746 124.03 161.969 123.845 163 124.389" stroke="#C28DD1" stroke-width="3" stroke-linecap="round"/>
<path d="M154 124C154 122.345 153.779 120.703 153.596 119.057C153.413 117.414 152.756 115.791 152.374 114.179C151.91 112.224 151.707 110.221 151.273 108.256C150.899 106.567 150.182 105.282 150.182 103.518C150.182 102.661 150 101.86 150 101" stroke="#C28DD1" stroke-width="3" stroke-linecap="round"/>
<path d="M163 122C162.456 118.109 160.542 114.791 159.615 111.035C159.138 109.101 159.127 107.024 159.154 105.035C159.179 103.198 159.789 100.674 159 99" stroke="#C28DD1" stroke-width="3" stroke-linecap="round"/>
<path d="M150 101C151.103 100.61 151.822 98.6923 152.966 98.6923C154.636 98.6923 156.383 98.5363 158 98" stroke="#C28DD1" stroke-width="3" stroke-linecap="round"/>
<path d="M155.001 96C154.939 95.5878 154.354 95.0992 154.09 94.7342C153.461 93.8646 153.025 92.6648 153.001 91.6814C152.956 89.8468 154.201 88.1788 154.201 86.3205C154.201 85.3401 155.382 86.9071 155.512 87.0651C156.15 87.8429 156.6 88.484 156.6 89.4146C156.6 90.8016 157 92.1581 157 93.5263C157 93.927 155.93 94.2478 155.4 94.5108" stroke="#C28DD1" stroke-width="3" stroke-linecap="round"/>
<path d="M183 128C183 125.961 182.158 123.872 182.158 121.811C182.158 119.576 181.52 117.318 181.269 115.089C180.965 112.388 179.552 109.932 179.222 107.241C179.126 106.457 179.304 105.744 179 105" stroke="#C28DD1" stroke-width="3" stroke-linecap="round"/>
<path d="M192 126C192 121.198 188.694 117.175 188.093 112.5C187.823 110.404 188.226 108.262 188.226 106.167C188.226 104.444 188.226 102.722 188.226 101" stroke="#C28DD1" stroke-width="3" stroke-linecap="round"/>
<path d="M186 100.559C185.525 100.344 184.963 100.033 184.41 100.001C183.84 99.9668 183.333 101.598 183.069 102.039C182.556 102.894 182.12 103.695 181.824 104.635C181.691 105.058 181.441 104.997 181 104.997" stroke="#C28DD1" stroke-width="3" stroke-linecap="round"/>
<path d="M181.607 97C181.553 96.4578 181.128 95.8469 180.895 95.3825C180.547 94.6902 180.321 93.9592 180.111 93.2112C179.913 92.5091 180.04 91.5975 180.04 90.8641C180.04 90.4338 180.232 90.302 180.435 89.9674C180.667 89.586 180.718 89.0611 180.847 88.6312C181.049 87.9577 181.428 87.2931 181.599 86.6269C181.643 86.4541 181.55 84.965 181.694 85.0006C182.257 85.1397 183.183 86.679 183.577 87.1719C183.858 87.5224 183.864 87.858 183.886 88.2972C183.92 88.9728 184.163 89.5796 183.815 90.2751C183.683 90.5391 183.698 90.9201 183.601 91.2157C183.453 91.6698 183.077 92.0244 182.857 92.4464C182.167 93.774 182.319 95.2046 182.319 96.6835" stroke="#C28DD1" stroke-width="3" stroke-linecap="round"/>
<path d="M182 128C182.973 126.771 183.746 125 185.287 125C186.526 125 187.723 125.279 188.901 125.75C189.645 126.047 190.554 126.929 191.368 126.875C191.71 126.852 191.887 125.687 192 125.375" stroke="#C28DD1" stroke-width="3" stroke-linecap="round"/>
<path d="M129 178.487C134.028 181.243 140.397 181.66 146.002 182.361C150.522 182.926 155.056 183.01 159.604 182.999C168.85 182.976 178.088 182.265 187.207 180.75C191.703 180.004 196.323 179.328 200.681 177.947C201.871 177.57 203.071 177.222 204.262 176.846C205.536 176.443 206.712 175.798 207.978 175.372C211.351 174.236 215.025 173.357 217.224 170.282C217.834 169.428 218.497 168.666 219.12 167.828C219.312 167.569 219.712 167.145 220 167" stroke="#F49563" stroke-width="3" stroke-linecap="round"/>
<path d="M123 147.701C125.988 146.644 128.507 146.549 131.516 147.61C137.048 149.563 142.661 151.483 148.58 151.831C150.851 151.964 153.204 152.14 155.463 151.818C158.826 151.338 162.089 150.366 165.458 149.892C169.926 149.264 174.194 148.514 178.398 146.878C179.183 146.572 179.849 146.27 180.697 146.132C181.888 145.939 182.636 146.435 183.509 147.176C186.033 149.32 188.798 150.198 191.818 148.375C194.161 146.961 197.17 145.748 198.614 143.332C199.262 142.248 199.65 141.191 200 140" stroke="#F49563" stroke-width="3" stroke-linecap="round"/>
<path d="M129 157.965C130.878 159.074 132.73 159.991 134.838 160.627C137.188 161.336 139.616 161.659 142.045 162.011C146.635 162.676 151.25 163.488 155.883 163.832C157.535 163.954 159.305 164.126 160.947 163.857C162.867 163.543 164.804 162.689 166.455 161.72C167.587 161.056 168.528 160.15 169.688 159.521C170.462 159.1 171.349 159.143 172.207 159.04C173.311 158.908 174.404 158.829 175.519 158.901C177.227 159.01 178.664 159.75 180.24 160.304C182.631 161.146 184.529 160.26 186.779 159.445C189.368 158.506 192.09 157.908 194.574 156.739C195.619 156.247 196.723 155.841 197.575 155.045C199.065 153.653 199.942 151.686 201 150" stroke="#F49563" stroke-width="3" stroke-linecap="round"/>
<path d="M130 169.486C133.274 170.075 135.963 172.134 139.103 173.084C141.116 173.693 143.418 173.888 145.51 173.963C148.952 174.087 152.483 173.916 155.852 173.179C161.191 172.011 166.407 169.966 171.931 169.858C175.873 169.781 179.397 172.039 183.29 172.475C187.137 172.907 190.452 171.963 193.896 170.244C197.141 168.624 201.356 166.869 203.615 163.9C204.807 162.334 205.866 160.669 207.11 159.146C208.11 157.923 209 156.621 209 155" stroke="#F49563" stroke-width="3" stroke-linecap="round"/>
<path d="M142 124C142.046 123.884 142.87 122.685 143.096 123.079C143.203 123.264 143.215 123.519 143.2 123.717C143.173 124.074 142.179 123.428 142.119 123.383C141.959 123.262 143.63 123.21 144 123.341" stroke="#C28DD1" stroke-width="3" stroke-linecap="round"/>
<path d="M169 120.053C169.832 120.053 171.373 119.77 171.886 120.509C172.226 120.999 171.737 121 171.328 121C171.065 121 170.859 120.896 170.741 120.684C170.53 120.305 170.865 120.29 171.201 120.29" stroke="#C28DD1" stroke-width="3" stroke-linecap="round"/>
<path d="M160 132C160.709 131.646 160.687 130.329 161.519 130.036C162.106 129.83 162.985 130.529 163 131.323C163.009 131.795 162.132 131.088 161.899 131.023C161.79 130.993 161.414 130.857 161.674 130.694" stroke="#C28DD1" stroke-width="3" stroke-linecap="round"/>
<path d="M174.026 126.365C174.026 126.154 173.94 125.096 174.08 125.036C174.703 124.773 174.993 126.014 175 126.606C175.012 127.629 174.326 126.388 174.326 125.953" stroke="#F49563" stroke-width="3" stroke-linecap="round"/>
<path d="M196.241 123C196.444 123.168 197 123.542 197 123.968C197 124.074 196.23 123.881 196.139 123.875C195.734 123.847 196.343 123.762 196.343 123.471" stroke="#F49563" stroke-width="3" stroke-linecap="round"/>
<path d="M145 131C145.147 131 146.731 131 146.985 131C147.144 131 145.976 131 145.726 131" stroke="#F49563" stroke-width="3" stroke-linecap="round"/>
<path d="M123 131C123 131 123 131.095 123 131.697C123 131.834 123 132.079 123 131.975C123 131.889 123 131.592 123 131.465" stroke="#F49563" stroke-width="3" stroke-linecap="round"/>
<path d="M173 131C172.89 131 172.7 131 172.242 131C172.094 131 172 131 172 131" stroke="#F49563" stroke-width="3" stroke-linecap="round"/>
<path d="M2 166.379C2 162.616 2.94137 158.874 4.60802 155.478C5.35844 153.949 5.86801 152.138 7.05556 150.832C8.61596 149.116 9.83496 147.256 11.1181 145.302C12.1007 143.806 12.9022 142.186 14.1875 140.914C15.3875 139.727 16.7634 139.164 18.1597 138.323C19.3893 137.582 20.8082 137.169 22.1319 136.635C22.9851 136.291 24.2727 136 25.2014 136C26.4389 136 26.8195 136.287 27.4985 137.211C27.9896 137.88 28 138.913 28 139.753C28 140.858 27.7111 141.562 27.0972 142.473C26.6318 143.164 26.24 143.907 25.7932 144.617C25.272 145.446 24.5149 146.2 23.8372 146.901C22.5125 148.271 21.2647 149.668 20.0154 151.11C18.3879 152.989 16.5872 154.629 15.2207 156.729C14.2761 158.181 13.1875 159.567 12.1111 160.929C11.1865 162.098 10.1066 163.13 9.22222 164.334C8.31846 165.564 7.03974 166.377 6.0625 167.451C5.52308 168.044 4.01607 168.344 3.79552 167.362C3.61039 166.537 2.31813 166.273 2 165.486" stroke="#F49563" stroke-width="3" stroke-linecap="round"/>
<path d="M12 171.654C12 170.404 13.1595 168.527 13.9404 167.585C15.3769 165.851 16.6426 163.986 18.1333 162.3C19.3213 160.956 20.7267 159.368 21.6534 157.848C23.1439 155.402 25.2753 153.509 27.1335 151.356C27.8565 150.518 28.7401 149.818 29.4542 148.964C30.2088 148.06 30.7744 146.913 31.5701 146.071C33.133 144.416 34.202 142.271 35.9483 140.766C37.3198 139.584 38.3221 139.001 40.1607 139.001C41.8326 139.001 43.0456 138.917 44.1196 140.452C44.8879 141.55 44.9972 142.65 44.9972 143.953C44.9972 145.04 45.063 145.889 44.5584 146.865C43.9548 148.032 43.1266 149.115 42.3644 150.179C40.9545 152.149 39.0812 153.832 37.762 155.887C35.1928 159.887 32.7932 163.805 29.4542 167.163C27.9216 168.704 26.0574 170.032 24.1009 170.958C21.4182 172.228 18.6754 173.061 15.8711 174.037C15.1488 174.289 14.4878 174.758 13.7552 174.969C12.8408 175.231 12.887 173.774 12.8776 173.066C12.8447 170.586 13.0531 168.109 13.0531 165.653" stroke="#F49563" stroke-width="3" stroke-linecap="round"/>
<path d="M17.4212 172C16.9093 171.425 16.812 169.803 17.4212 169.195C17.8404 168.776 18.2511 168.781 18.7997 168.701C19.483 168.602 20.1137 168.494 20.8154 168.494C21.2563 168.494 21.6923 168.631 22.1289 168.61C23.4534 168.549 24.3377 167.396 24.7038 166.299C24.9756 165.484 24.9119 164.643 24.9119 163.792C24.9119 163.04 24.5665 161.484 25.237 161.013C25.7202 160.673 26.336 160.597 26.7846 160.286C27.1768 160.014 27.4063 159.844 27.903 159.844C28.5994 159.844 29.3094 159.897 29.9707 159.701C30.9472 159.412 32.5196 158.855 32.5196 157.623C32.5196 156.004 32.3274 153.903 33.8136 152.883C34.3317 152.527 34.77 152.085 35.4262 152.019C35.7219 151.99 36.055 152.079 36.33 151.955C36.9908 151.655 37.6292 151.703 38.1961 151.136C38.5234 150.81 39.6229 150.073 39.4121 149.494C39.2519 149.054 38.6058 148.928 38.6058 148.448C38.6058 148.14 38.4315 147.916 38.3782 147.623C38.1954 146.619 39.2682 146.173 40.0038 145.76C40.5988 145.426 41.3007 145 42 145" stroke="#C28DD1" stroke-width="3" stroke-linecap="round"/>
<path d="M5 165C5 164.357 5.04271 163.726 5.2987 163.127C5.55797 162.52 6.09999 161.82 6.16883 161.147C6.24049 160.445 6.88204 159.689 7.33766 159.22C7.57275 158.978 7.86492 158.637 8.15584 158.471C8.30711 158.384 8.50728 158.422 8.62987 158.317C8.88524 158.098 9.49489 158.333 9.76623 158.109C10.1645 157.781 10.7838 157.56 10.9351 156.999C11.0764 156.475 11.2551 155.924 11.1883 155.373C11.1011 154.655 11.0281 154.252 11.3636 153.56C11.6475 152.975 11.7527 152.366 12.2208 151.901C12.7554 151.37 13.3268 150.861 13.8247 150.309C14.1205 149.981 14.5354 150.068 14.9351 150.068C15.6155 150.068 16.4869 149.727 16.9481 149.252C17.5641 148.617 18.2549 148.222 18.6169 147.352C18.7902 146.935 19.026 146.683 19.026 146.215C19.026 145.868 18.9562 145.593 18.9156 145.258C18.7458 143.859 20.0708 142.687 21.3117 142.455C21.6485 142.392 21.9646 142.176 22.2987 142.127C22.5617 142.088 22.8161 142.189 23 142" stroke="#C28DD1" stroke-width="3" stroke-linecap="round"/>
<path d="M231.831 65C232.574 62.7442 232.848 60.8277 232.795 58.4513C232.715 54.8677 230.424 52.0652 227.893 49.6973C224.753 46.759 221.118 44.5524 217.716 41.9591C215.674 40.4035 214.169 38.2256 214.02 35.6108C213.659 29.3192 218.35 25.901 223.072 22.794C225.757 21.0274 228.279 19.186 230.746 17.1274C231.833 16.2196 233.355 15.2874 234 14" stroke="#C28DD1" stroke-width="3" stroke-linecap="round"/>
<path d="M232 34C238.296 33.1391 244.488 31.3372 249.234 26.4127C250.479 25.1215 252.088 23.5726 252.611 21.7143C253.17 19.7275 253.105 16.1923 252.553 14.2222C251.254 9.5869 247.518 7.33657 244.264 4.57143C243.738 4.12431 242.525 2.79522 242.525 2" stroke="#C28DD1" stroke-width="3" stroke-linecap="round"/>
<path d="M245.734 63C245.734 62.0959 245.491 61.189 245.225 60.3336C244.768 58.8617 244.725 57.2284 244.077 55.8188C243.28 54.0877 242.45 52.2049 241.302 50.6778C240.369 49.4374 239.189 48.3038 238.343 47.0114C237.849 46.2551 238.023 45.114 238.059 44.2642C238.127 42.6445 239.178 40.7991 240.366 39.6888C241.951 38.2087 244.729 38.07 246.72 37.5475C248.296 37.1337 249.958 36.9796 251.589 37.0021C253.631 37.0303 253.552 38.0695 253.967 39.7191C254.054 40.0634 254.107 40.5758 254.557 40.416C255.015 40.2533 255.41 39.9052 255.807 39.6383C256.573 39.1239 257.395 38.908 258.267 38.6384C259.71 38.1925 261.174 37.8709 262.628 37.4768C263.865 37.1415 264.781 37.7353 265.413 38.8202C266.936 41.4314 265.159 45.2491 263.868 47.5063C261.185 52.1977 257.554 54.8847 252.687 57.0005" stroke="#F49563" stroke-width="3" stroke-linecap="round"/>
</svg>
