<svg width="136" height="31" fill="none" xmlns="http://www.w3.org/2000/svg"><path d="M.396 28.74a1 1 0 001.208 1.594L.396 28.74zM135.997 2.072a1 1 0 00-.925-1.07l-8.976-.65a1 1 0 00-.145 1.995l7.979.578-.578 7.98a1 1 0 101.995.144l.65-8.977zM3.238 29.117a1 1 0 10-1.18-1.614l1.18 1.614zm2.08-3.919a1 1 0 101.127 1.653l-1.126-1.653zm4.465-.532a1 1 0 00-1.062-1.694l1.062 1.694zm2.375-3.752a1 1 0 00.99 1.737l-.99-1.737zm4.451-.133A1 1 0 0015.701 19l.908 1.781zm2.761-3.535a1 1 0 10.814 1.827l-.814-1.827zm4.447.33a1 1 0 00-.708-1.871l.708 1.87zm3.112-3.184a1 1 0 10.59 1.91l-.59-1.91zm4.362.88a1 1 0 10-.462-1.945l.462 1.946zm3.515-2.743a1 1 0 00.324 1.974l-.324-1.974zm4.216 1.478a1 1 0 10-.181-1.992l.181 1.992zm3.875-2.216a1 1 0 00.04 2l-.04-2zm3.964 2.052a1 1 0 00.092-1.998l-.092 1.998zm4.13-1.687a1 1 0 10-.212 1.989l.212-1.989zm3.693 2.51a1 1 0 00.313-1.976l-.313 1.975zm4.28-1.262a1 1 0 10-.39 1.961l.39-1.961zm3.484 2.796a1 1 0 00.447-1.95l-.447 1.95zm4.345-1.02a1 1 0 00-.476 1.942l.476-1.942zm3.397 2.9a1 1 0 00.48-1.94l-.48 1.94zm4.347-1.004a1 1 0 00-.457 1.947l.457-1.947zm3.464 2.82a1 1 0 10.407-1.959l-.407 1.958zm4.29-1.227a1 1 0 00-.33 1.973l.33-1.973zm3.673 2.537a1 1 0 10.225-1.987l-.225 1.987zm4.137-1.667a1 1 0 10-.097 1.998l.097-1.998zm3.965 2.049a1 1 0 10-.05-2l.05 2zm3.852-2.25a1 1 0 10.207 1.99l-.207-1.99zm4.234 1.404a1 1 0 00-.369-1.966l.369 1.966zm3.438-2.838a1 1 0 00.523 1.93l-.523-1.93zm4.396.718a1 1 0 10-.667-1.885l.667 1.886zm2.974-3.322a1 1 0 10.797 1.835l-.797-1.835zm4.465.098a1 1 0 00-.912-1.78l.912 1.78zm2.563-3.688a1 1 0 001.011 1.726l-1.011-1.726zm4.419-.387a1 1 0 00-1.095-1.674l1.095 1.674zm2.142-3.897a1 1 0 001.167 1.624l-1.167-1.624zm4.425-.818a1 1 0 00-1.231-1.577l1.231 1.577zm1.818-4.042a1 1 0 101.283 1.534l-1.283-1.534zM1.604 30.334c.548-.415 1.093-.82 1.634-1.217l-1.18-1.614c-.551.403-1.105.815-1.662 1.237l1.208 1.594zm4.84-3.483a107.393 107.393 0 013.339-2.185l-1.062-1.694a105.04 105.04 0 00-3.402 2.226l1.126 1.653zm6.704-4.2a84.124 84.124 0 013.461-1.87L15.701 19a86.27 86.27 0 00-3.543 1.914l.99 1.737zm7.036-3.578a68.453 68.453 0 013.633-1.498l-.708-1.87a70.674 70.674 0 00-3.739 1.541l.814 1.827zm7.335-2.77a58.527 58.527 0 013.772-1.03l-.462-1.946a60.498 60.498 0 00-3.9 1.065l.59 1.91zm7.61-1.8a54.662 54.662 0 013.893-.496l-.181-1.992c-1.326.121-2.67.29-4.035.514l.324 1.974zm7.808-.713a58.841 58.841 0 013.924.053l.092-1.998a60.899 60.899 0 00-4.056-.054l.04 2zm7.842.355c1.314.14 2.615.316 3.905.52l.313-1.975a79.42 79.42 0 00-4.006-.534l-.212 1.989zm7.794 1.22c1.299.26 2.59.54 3.875.835l.447-1.95c-1.3-.297-2.609-.582-3.93-.846l-.392 1.961zm7.744 1.757c1.294.318 2.58.64 3.873.959l.48-1.942c-1.286-.318-2.58-.641-3.877-.96l-.476 1.943zm7.763 1.901c1.302.306 2.609.6 3.921.872l.407-1.958c-1.291-.268-2.58-.558-3.87-.86l-.458 1.946zm7.881 1.619c1.324.22 2.657.412 4.003.564l.225-1.987a74.785 74.785 0 01-3.898-.55l-.33 1.973zm8.043.895a54.82 54.82 0 004.062.05l-.05-1.999a53.31 53.31 0 01-3.915-.049l-.097 1.998zm8.121-.21a49.997 49.997 0 004.027-.585l-.369-1.966c-1.305.245-2.593.43-3.865.563l.207 1.989zm7.988-1.493a53.53 53.53 0 003.873-1.212l-.667-1.885a51.867 51.867 0 01-3.729 1.167l.523 1.93zm7.644-2.7a64.433 64.433 0 003.668-1.736l-.912-1.78a62.01 62.01 0 01-3.553 1.682l.797 1.835zm7.242-3.698a81.034 81.034 0 003.408-2.113l-1.095-1.674a79.311 79.311 0 01-3.324 2.06l1.011 1.727zm6.717-4.386c1.073-.77 2.158-1.584 3.258-2.442l-1.231-1.577c-1.079.842-2.143 1.64-3.194 2.395l1.167 1.624zm6.359-4.95c.524-.438 1.05-.886 1.579-1.344l-1.308-1.512a120.7 120.7 0 01-1.554 1.322l1.283 1.534z" fill="#F5A276"/><path d="M.396 28.74a1 1 0 001.208 1.594L.396 28.74zM135.997 2.072a1 1 0 00-.925-1.07l-8.976-.65a1 1 0 00-.145 1.995l7.979.578-.578 7.98a1 1 0 101.995.144l.65-8.977zM3.238 29.117a1 1 0 10-1.18-1.614l1.18 1.614zm2.08-3.919a1 1 0 101.127 1.653l-1.126-1.653zm4.465-.532a1 1 0 00-1.062-1.694l1.062 1.694zm2.375-3.752a1 1 0 00.99 1.737l-.99-1.737zm4.451-.133A1 1 0 0015.701 19l.908 1.781zm2.761-3.535a1 1 0 10.814 1.827l-.814-1.827zm4.447.33a1 1 0 00-.708-1.871l.708 1.87zm3.112-3.184a1 1 0 10.59 1.91l-.59-1.91zm4.362.88a1 1 0 10-.462-1.945l.462 1.946zm3.515-2.743a1 1 0 00.324 1.974l-.324-1.974zm4.216 1.478a1 1 0 10-.181-1.992l.181 1.992zm3.875-2.216a1 1 0 00.04 2l-.04-2zm3.964 2.052a1 1 0 00.092-1.998l-.092 1.998zm4.13-1.687a1 1 0 10-.212 1.989l.212-1.989zm3.693 2.51a1 1 0 00.313-1.976l-.313 1.975zm4.28-1.262a1 1 0 10-.39 1.961l.39-1.961zm3.484 2.796a1 1 0 00.447-1.95l-.447 1.95zm4.345-1.02a1 1 0 00-.476 1.942l.476-1.942zm3.397 2.9a1 1 0 00.48-1.94l-.48 1.94zm4.347-1.004a1 1 0 00-.457 1.947l.457-1.947zm3.464 2.82a1 1 0 10.407-1.959l-.407 1.958zm4.29-1.227a1 1 0 00-.33 1.973l.33-1.973zm3.673 2.537a1 1 0 10.225-1.987l-.225 1.987zm4.137-1.667a1 1 0 10-.097 1.998l.097-1.998zm3.965 2.049a1 1 0 10-.05-2l.05 2zm3.852-2.25a1 1 0 10.207 1.99l-.207-1.99zm4.234 1.404a1 1 0 00-.369-1.966l.369 1.966zm3.438-2.838a1 1 0 00.523 1.93l-.523-1.93zm4.396.718a1 1 0 10-.667-1.885l.667 1.886zm2.974-3.322a1 1 0 10.797 1.835l-.797-1.835zm4.465.098a1 1 0 00-.912-1.78l.912 1.78zm2.563-3.688a1 1 0 001.011 1.726l-1.011-1.726zm4.419-.387a1 1 0 00-1.095-1.674l1.095 1.674zm2.142-3.897a1 1 0 001.167 1.624l-1.167-1.624zm4.425-.818a1 1 0 00-1.231-1.577l1.231 1.577zm1.818-4.042a1 1 0 101.283 1.534l-1.283-1.534zM1.604 30.334c.548-.415 1.093-.82 1.634-1.217l-1.18-1.614c-.551.403-1.105.815-1.662 1.237l1.208 1.594zm4.84-3.483a107.393 107.393 0 013.339-2.185l-1.062-1.694a105.04 105.04 0 00-3.402 2.226l1.126 1.653zm6.704-4.2a84.124 84.124 0 013.461-1.87L15.701 19a86.27 86.27 0 00-3.543 1.914l.99 1.737zm7.036-3.578a68.453 68.453 0 013.633-1.498l-.708-1.87a70.674 70.674 0 00-3.739 1.541l.814 1.827zm7.335-2.77a58.527 58.527 0 013.772-1.03l-.462-1.946a60.498 60.498 0 00-3.9 1.065l.59 1.91zm7.61-1.8a54.662 54.662 0 013.893-.496l-.181-1.992c-1.326.121-2.67.29-4.035.514l.324 1.974zm7.808-.713a58.841 58.841 0 013.924.053l.092-1.998a60.899 60.899 0 00-4.056-.054l.04 2zm7.842.355c1.314.14 2.615.316 3.905.52l.313-1.975a79.42 79.42 0 00-4.006-.534l-.212 1.989zm7.794 1.22c1.299.26 2.59.54 3.875.835l.447-1.95c-1.3-.297-2.609-.582-3.93-.846l-.392 1.961zm7.744 1.757c1.294.318 2.58.64 3.873.959l.48-1.942c-1.286-.318-2.58-.641-3.877-.96l-.476 1.943zm7.763 1.901c1.302.306 2.609.6 3.921.872l.407-1.958c-1.291-.268-2.58-.558-3.87-.86l-.458 1.946zm7.881 1.619c1.324.22 2.657.412 4.003.564l.225-1.987a74.785 74.785 0 01-3.898-.55l-.33 1.973zm8.043.895a54.82 54.82 0 004.062.05l-.05-1.999a53.31 53.31 0 01-3.915-.049l-.097 1.998zm8.121-.21a49.997 49.997 0 004.027-.585l-.369-1.966c-1.305.245-2.593.43-3.865.563l.207 1.989zm7.988-1.493a53.53 53.53 0 003.873-1.212l-.667-1.885a51.867 51.867 0 01-3.729 1.167l.523 1.93zm7.644-2.7a64.433 64.433 0 003.668-1.736l-.912-1.78a62.01 62.01 0 01-3.553 1.682l.797 1.835zm7.242-3.698a81.034 81.034 0 003.408-2.113l-1.095-1.674a79.311 79.311 0 01-3.324 2.06l1.011 1.727zm6.717-4.386c1.073-.77 2.158-1.584 3.258-2.442l-1.231-1.577c-1.079.842-2.143 1.64-3.194 2.395l1.167 1.624zm6.359-4.95c.524-.438 1.05-.886 1.579-1.344l-1.308-1.512a120.7 120.7 0 01-1.554 1.322l1.283 1.534z" fill="#C28DD1"/></svg>