<svg width="42" height="41" fill="none" xmlns="http://www.w3.org/2000/svg"><path d="M26.337 39.381c-2.63-1.503-5.257-3.187-7.555-5.17-3.383-2.917-6.153-6.577-8.983-10.011-3.188-3.87-6.258-7.798-7.298-12.82-.6-2.891-1.084-6.004 1.17-8.257 1.968-1.968 5.892-.963 8.046.094 2.483 1.218 4.304 2.995 6.152 5.006 1.083 1.177 2.254 2.363 2.527 4 .087.525.136 1.227-.374 1.555-.206.133-.784.259-.936-.023-.512-.95.13-2.543.667-3.322 1.255-1.822 3.485-2.541 5.532-3.04 2.036-.497 4.077-.865 6.152-.34 2.838.72 5.258 3.57 6.714 5.965 3.01 4.952 1.808 11.12-.655 16.047" stroke="#F49563" stroke-width="3" stroke-linecap="round"/><path d="M26.337 39.381c-2.63-1.503-5.257-3.187-7.555-5.17-3.383-2.917-6.153-6.577-8.983-10.011-3.188-3.87-6.258-7.798-7.298-12.82-.6-2.891-1.084-6.004 1.17-8.257 1.968-1.968 5.892-.963 8.046.094 2.483 1.218 4.304 2.995 6.152 5.006 1.083 1.177 2.254 2.363 2.527 4 .087.525.136 1.227-.374 1.555-.206.133-.784.259-.936-.023-.512-.95.13-2.543.667-3.322 1.255-1.822 3.485-2.541 5.532-3.04 2.036-.497 4.077-.865 6.152-.34 2.838.72 5.258 3.57 6.714 5.965 3.01 4.952 1.808 11.12-.655 16.047" stroke="#C28DD1" stroke-width="3" stroke-linecap="round"/></svg>