<svg width="49" height="25" fill="none" xmlns="http://www.w3.org/2000/svg"><path d="M2 13c0 1.707.885 3.272 1.605 4.773C4.44 19.515 5.085 21.283 6 23" stroke="#BECFBC" stroke-width="3" stroke-linecap="round"/><path d="M3 18.25c.047-.43 1.74-1.524 2.099-1.888 1.324-1.35 2.048-2.503 2.07-4.472.004-.292-.269-1.858.246-1.889 1.096-.065 2.272 2.513 2.82 3.25C12.322 16.05 14.09 19.08 16 22m3-1c0-.789.274-1.756.494-2.498.604-2.042.99-4.207 1.383-6.31.388-2.084 1.064-4.02 1.63-6.026.313-1.112 1.454-1.809 1.937-.296.694 2.17.974 4.473 1.68 6.644.582 1.793 1.466 4.76 2.876 5.936" stroke="#BECFBC" stroke-width="3" stroke-linecap="round"/><path d="M25.288 3.756c-2.039-.578-4.005-.876-6.157-.71-2.741.21-2.602 1.88-.916 3.751 1.398 1.552 3.383 4.382 5.73 4.194 1.138-.09 1.681-2.411 1.937-3.27.327-1.099-.13-2.151-.13-3.242M35.17 19c-.428-.107-.822-3.97-.877-4.525-.289-2.927-.313-5.88-.283-8.818.008-.809.074-3.099.928-3.595 1.24-.72 3.528 5.031 3.892 5.65.076.13 2.173 3.239 2.37 2.496.476-1.789-.04-3.683.362-5.47.378-1.679 1.149-.294 1.507.57 1.209 2.91 2.46 5.786 3.931 8.572" stroke="#BECFBC" stroke-width="3" stroke-linecap="round"/></svg>