<svg width="43" height="42" fill="none" xmlns="http://www.w3.org/2000/svg"><path d="M9.083 25.755c1.186-2.763-.198-7.73-1.452-10.633C6.36 12.184 3.954 10.35 2 8.108" stroke="#F49563" stroke-width="3" stroke-linecap="round"/><path d="M9.083 25.755c1.186-2.763-.198-7.73-1.452-10.633C6.36 12.184 3.954 10.35 2 8.108" stroke="#C28DD1" stroke-width="3" stroke-linecap="round"/><path d="M14.236 18.61c-.617-3.51 1.057-6.722 2.75-9.818 1.403-2.568 2.597-5.136 5.13-6.792" stroke="#F49563" stroke-width="3" stroke-linecap="round"/><path d="M14.236 18.61c-.617-3.51 1.057-6.722 2.75-9.818 1.403-2.568 2.597-5.136 5.13-6.792" stroke="#C28DD1" stroke-width="3" stroke-linecap="round"/><path d="M8.975 39.594A29.586 29.586 0 0125.4 24.198c3.072-1.168 6.132-2.058 9.458-2.117 2.06-.037 4.046 1.165 5.825 2.23" stroke="#F49563" stroke-width="3" stroke-linecap="round"/><path d="M8.975 39.594A29.586 29.586 0 0125.4 24.198c3.072-1.168 6.132-2.058 9.458-2.117 2.06-.037 4.046 1.165 5.825 2.23" stroke="#C28DD1" stroke-width="3" stroke-linecap="round"/></svg>