<svg width="62" height="62" fill="none" xmlns="http://www.w3.org/2000/svg"><path d="M44.473 5.92c.994 1.654 1.986 3.313 2.975 4.975 1.46 2.454 2.249 4.714 2.132 7.638 0 .037-.02.055-.055.055h-18.43a.078.078 0 01-.077-.075c-.108-2.567.506-4.957 1.84-7.171a2158.3 2158.3 0 013.236-5.35.108.108 0 00-.023-.137c-.806-.682-1.084-1.45-.833-2.305.33-1.125 1.233-1.487 2.314-1.489 1.914-.004 3.827-.004 5.739-.001 2.127.003 2.985 2.55 1.196 3.791-.026.019-.031.042-.014.07zM21.347 9.884c2.257-1.822 5.381-2.152 7.923-.7.042.024.05.057.026.098a16.646 16.646 0 00-1.905 4.608.06.06 0 01-.013.024.056.056 0 01-.072.01l-5.955-3.971a.042.042 0 01-.004-.069zm5.327 8.704H10.412a.043.043 0 01-.037-.02.044.044 0 01-.002-.043c.961-1.94 1.934-3.882 2.918-5.825.782-1.545 2.128-1.731 3.514-.809 3.327 2.215 6.627 4.415 9.9 6.6.097.065.087.097-.03.097zm-20.2 12.418c-1.467.023-2.335-.858-2.33-2.276.005-1.185.006-2.37.002-3.553-.006-1.644.761-2.442 2.413-2.442h48.634c.66 0 1.133.06 1.42.177.905.373 1.237 1.146 1.237 2.118l.005 3.682c.002 1.43-.84 2.317-2.338 2.293a.074.074 0 00-.074.062c-1.032 6.205-2.067 12.41-3.105 18.612-.319 1.9-1.12 3.346-3.093 3.888-.414.114-1.038.17-1.872.17-10.746-.003-21.492-.003-32.237.002-1.151 0-1.953-.061-2.407-.183-1.223-.328-2.101-1.077-2.635-2.246-.18-.395-.34-1.012-.478-1.85a4744.272 4744.272 0 00-3.067-18.392c-.007-.042-.032-.063-.075-.062zm18.315 2.009a2.002 2.002 0 00-2.002-2.002h-.104a2.002 2.002 0 00-2.002 2.002v12.502a2.002 2.002 0 002.002 2.001h.104a2.001 2.001 0 002.002-2.001V33.015zm8.264 0a2.002 2.002 0 00-2.001-2.002h-.104a2.001 2.001 0 00-2.002 2.002v12.502a2.002 2.002 0 002.002 2.001h.104a2.002 2.002 0 002.001-2.001V33.015zm8.255-.001a2.003 2.003 0 00-2.006-2h-.104a2.003 2.003 0 00-2 2.007l.022 12.497a2.003 2.003 0 002.007 2h.104a2.003 2.003 0 001.999-2.007l-.022-12.497z" fill="#FC8343"/></svg>