<svg width="46" height="55" fill="none" xmlns="http://www.w3.org/2000/svg"><path d="M32.03 6.22c6.768-3.956 14.958 2.216 13.47 9.771-.63 3.194-2.93 5.665-5.959 6.83a.096.096 0 00-.066.097v3.78c0 .036.012.069.036.096 1.47 1.64 2.026 3.383 2.024 5.555l-.003 4.34c0 1.15-.04 1.956-.12 2.417-.338 1.975-1.666 4.274-3.702 4.92a.124.124 0 00-.082.076c-2.9 7.26-9.475 11.485-17.313 10.224-5.724-.92-9.961-4.965-12.034-10.201a.18.18 0 00-.115-.106c-1.932-.604-3.21-2.738-3.625-4.595-.114-.515-.174-1.317-.18-2.406a411.77 411.77 0 01-.002-5.533c.024-2.046 1.006-4.423 2.029-6.167a.197.197 0 00.028-.102V20.83c0-.042-.02-.07-.058-.085-8.545-3.204-7.94-14.955.622-17.492 2.97-.88 5.69-.06 8.06 1.791a.1.1 0 00.14-.017C17.97 1.43 22.143-.17 26.514 1.5c2.476.948 3.968 2.489 5.412 4.695.027.041.062.05.105.024zm2.625 34.61c.471-.116.983-.2 1.374-.43 1.58-.927 1.4-2.585 1.386-4.224-.024-2.889-2.336-5.172-4.914-6.139-1.033-.389-2.2-.282-3.284-.276a.156.156 0 00-.108.041c-1.206 1.085-2.988 1.533-4.59 1.735-3.538.45-7.121.395-10.676.645-1.747.122-5.31.47-5.358 2.905a59.705 59.705 0 00-.008 1.823c.017 1.553.02 2.593 1.271 3.422.422.28.962.37 1.473.49a.195.195 0 01.143.135c1.712 5.807 6.52 10.032 12.827 9.4 4.689-.471 8.178-3.806 9.848-8.068.179-.458.355-.918.528-1.38a.124.124 0 01.088-.079z" fill="#FC8343"/></svg>