<svg width="26" height="40" fill="none" xmlns="http://www.w3.org/2000/svg"><path d="M2 19.704c1.482.64 3.345.123 4.773-.439 3.026-1.19 4.595-3.255 5.773-6.211C13.972 9.474 14 5.798 14 2" stroke="#F49563" stroke-width="3" stroke-linecap="round"/><path d="M2 19.704c1.482.64 3.345.123 4.773-.439 3.026-1.19 4.595-3.255 5.773-6.211C13.972 9.474 14 5.798 14 2" stroke="#BECFBC" stroke-width="3" stroke-linecap="round"/><path d="M14.404 2c-.45 1.55-.403 3.353-.403 4.963 0 3.545.053 7.046.463 10.568.177 1.523.292 2.86 1.955 3.172 2.16.404 4.396.279 6.581.279" stroke="#F49563" stroke-width="3" stroke-linecap="round"/><path d="M14.404 2c-.45 1.55-.403 3.353-.403 4.963 0 3.545.053 7.046.463 10.568.177 1.523.292 2.86 1.955 3.172 2.16.404 4.396.279 6.581.279" stroke="#BECFBC" stroke-width="3" stroke-linecap="round"/><path d="M11.399 37c.802-2.344.576-4.85.56-7.288-.016-2.45-.414-4.754-2.52-6.366-1.219-.932-2.704-1.294-4.028-2.037-.8-.45-1.533-1.03-2.411-1.309" stroke="#F49563" stroke-width="3" stroke-linecap="round"/><path d="M11.399 37c.802-2.344.576-4.85.56-7.288-.016-2.45-.414-4.754-2.52-6.366-1.219-.932-2.704-1.294-4.028-2.037-.8-.45-1.533-1.03-2.411-1.309" stroke="#BECFBC" stroke-width="3" stroke-linecap="round"/><path d="M11 38c0-1.954.689-3.862 1.211-5.722.691-2.462 1.867-4.935 3.283-7.051 1.01-1.51 2.021-2.528 3.91-2.555C20.991 22.65 22.51 22.654 24 22" stroke="#F49563" stroke-width="3" stroke-linecap="round"/><path d="M11 38c0-1.954.689-3.862 1.211-5.722.691-2.462 1.867-4.935 3.283-7.051 1.01-1.51 2.021-2.528 3.91-2.555C20.991 22.65 22.51 22.654 24 22" stroke="#BECFBC" stroke-width="3" stroke-linecap="round"/></svg>