<svg width="50" height="17" fill="none" xmlns="http://www.w3.org/2000/svg"><path d="M1.871 14.982c2.968-3.428 6.65-6.118 10.774-8.218 3.34-1.701 7.307-3.478 11.188-3.326 3.552.14 7.61 2.436 8.181 5.896.33 1.995-2.319 2.901-3.985 3.201-1.053.19-1.71.284-2.656-.29-1.784-1.082-.395-2.668.736-3.774 5.424-5.305 14.886-8.526 22.259-6.127" stroke="#F49563" stroke-width="3" stroke-linecap="round"/><path d="M1.871 14.982c2.968-3.428 6.65-6.118 10.774-8.218 3.34-1.701 7.307-3.478 11.188-3.326 3.552.14 7.61 2.436 8.181 5.896.33 1.995-2.319 2.901-3.985 3.201-1.053.19-1.71.284-2.656-.29-1.784-1.082-.395-2.668.736-3.774 5.424-5.305 14.886-8.526 22.259-6.127" stroke="#BECFBC" stroke-width="3" stroke-linecap="round"/></svg>