<svg width="62" height="62" fill="none" xmlns="http://www.w3.org/2000/svg"><path d="M28.43 46.464c0 .01.003.019.01.025a.033.033 0 00.025.011h5.018c.061 0 .092-.03.092-.092l-.001-27.177c0-1.113.041-1.917.124-2.415.54-3.22 3.088-5.851 6.366-6.38.447-.072 1.252-.108 2.417-.11 5.629-.004 11.256-.005 16.882-.002a.063.063 0 01.063.063c.002 12.036.002 24.071-.001 36.106 0 2.368-1.668 4.46-3.954 5.015-.453.111-1.256.167-2.408.167-5.852.003-11.703.003-17.553 0a.105.105 0 00-.094.054c-2.066 3.317-6.78 3.377-8.83-.004a.104.104 0 00-.09-.05l-8.331.003a.09.09 0 01-.065-.027.093.093 0 01-.026-.065V38.444a.152.152 0 01.101-.145c3.013-1.066 4.971-3.843 5.067-7.036.084-2.808-1.03-6.09-2.32-8.56-1.054-2.015-3.137-4.844-5.722-4.6-1.936.182-3.515 1.955-4.468 3.498-1.653 2.676-2.637 5.537-2.954 8.583-.376 3.631 1.676 6.856 5.098 8.137a.076.076 0 01.037.028c.01.013.014.029.014.045v13.188c0 .06-.03.09-.09.09-1.623.008-3.268.01-4.934.007-2.9-.005-5.327-2.242-5.328-5.186-.002-12.017-.002-24.038-.001-36.064 0-.07.035-.105.105-.105 5.906-.002 11.835-.002 17.785.002 3.9.002 7.209 2.637 7.847 6.49.077.465.115 1.27.115 2.416-.002 9.076-.001 18.154.004 27.232zm25.82-25.735a.052.052 0 00-.052-.052H38.803a.052.052 0 00-.053.052v5.042a.052.052 0 00.053.052h15.395a.052.052 0 00.052-.052V20.73zm0 12.918a.074.074 0 00-.074-.074H38.825a.074.074 0 00-.074.074v5.03a.074.074 0 00.074.074h15.352a.074.074 0 00.074-.074v-5.03z" fill="#FC8343"/></svg>