<svg width="947" height="68" fill="none" xmlns="http://www.w3.org/2000/svg"><path d="M532.238 27.015c3.381 0 6.423-3.79 9.995-4.187 4.885-.543 9.651-2.06 14.575-2.06m25.403.001h9.671c1.85 0 5.04.229 6.571 1.249m17.49 5.414c1.276 0 1.499.333 2.499.833m19.573 6.246c1.25 0 2.564.781 3.748 1.342 3.078 1.458 6.202 1.426 9.486 2.082 4.634.927 9.935 1.574 14.668 1.574m17.074-5.83c7.146 0 12.842-4.581 19.99-4.581m18.74-5.831c2.196 0 4.173-.752 6.339-.833 1.787-.066 4.925-.232 6.571-.925 2.383-1.003 6.191-.74 8.745-.74h7.08m15.209-.112c10.807-.251 21.632-.657 32.501-.657 10.461 0 20.556 2.63 30.968 2.63 4.127 0 8.694.855 12.781 1.46 5.112.757 10.354.676 15.447 1.497 9.145 1.475 18.214 1.884 27.28 3.944 19.56 4.446 39.696 9.33 57.188 18.077m-7.918 1.076h7.997m2.781-1.738c-.846-3.857-3.971-5.362-6.606-7.997" stroke="#C28DD1" stroke-width="3" stroke-linecap="round"/><path d="M2 48.76c14.402 1.92 28.827 1.908 43.312 2.942 13.431.96 26.852.791 40.297 1.308 9.979.384 20.188 1.05 30.049-.835 7.165-1.37 17.71-3.06 20.712-10.974 2.4-6.328-2.379-10.436-6.977-14.025-6.421-5.013-13.331-9.441-20.966-12.39C85.591 5.961 59.606 1.667 35.211 1.667c-9.714 0-24.718.963-29.214 11.882-1.937 4.703-.446 10.77 2.47 14.68 7.795 10.447 21.168 18.041 32.776 23.363 18.99 8.707 41.54 11.524 62.097 13.045 18.083 1.337 36.206 1.126 54.322 1.126" stroke="#F49563" stroke-width="3" stroke-linecap="round"/></svg>