<svg width="21" height="21" fill="none" xmlns="http://www.w3.org/2000/svg"><path d="M10.4 4.021c1.953 0 3.27.844 4.021 1.549l2.936-2.866C15.553 1.028 13.207 0 10.4 0a10.39 10.39 0 00-9.29 5.732l3.362 2.611C5.316 5.836 7.65 4.021 10.4 4.021zm9.984 6.61c0-.855-.069-1.479-.22-2.126H10.4v3.86h5.732c-.116.958-.74 2.403-2.126 3.374l3.282 2.542c1.964-1.814 3.096-4.484 3.096-7.65z" fill="#fff"/><path d="M4.484 12.457a6.402 6.402 0 01-.347-2.057c0-.717.127-1.41.335-2.057L1.109 5.731A10.409 10.409 0 000 10.4c0 1.675.404 3.259 1.11 4.668l3.374-2.611z" fill="#fff"/><path d="M10.4 20.8c2.808 0 5.165-.925 6.887-2.52l-3.282-2.541c-.878.612-2.057 1.04-3.605 1.04-2.75 0-5.084-1.815-5.916-4.322L1.12 15.068C2.83 18.466 6.332 20.8 10.4 20.8z" fill="#fff"/></svg>