<svg width="184" height="195" fill="none" xmlns="http://www.w3.org/2000/svg"><path d="M51.723 141.501c-.143-.917-.491-1.968-.045-2.854a13.38 13.38 0 011.708-2.591c2-2.37 4.247-4.025 7.09-5.3 1.453-.65 3-.928 4.47-1.512 1.043-.414 2.236-.885 3.348-1.059 1.098-.171 2.1-.685 3.2-.857l5.032-.785c1.416-.221 2.87-.558 4.301-.661 1.454-.106 2.87.494 4.317.528 1.097.026 2.138.317 3.213.512.814.148 1.681.127 2.46.431 2.834 1.106 3.894 4.425 4.326 7.193m-12.367 34.216c.195-.907.246-2.014.979-2.681a13.413 13.413 0 012.521-1.81c2.715-1.498 5.406-2.24 8.517-2.413 1.589-.089 3.133.205 4.714.185 1.123-.014 2.405-.027 3.506.208 1.086.233 2.206.111 3.294.344l4.981 1.066c1.401.3 2.88.505 4.254.92 1.395.421 2.502 1.487 3.842 2.037 1.016.416 1.883 1.06 2.818 1.627.707.429 1.524.719 2.143 1.281 2.251 2.047 2.054 5.525 1.468 8.265m-14.196-46.65c.362-.855.62-1.932 1.466-2.449a13.372 13.372 0 012.817-1.302c2.949-.961 5.731-1.182 8.819-.767 1.577.213 3.038.792 4.595 1.071 1.105.197 2.367.426 3.404.864 1.023.433 2.146.525 3.171.958l4.69 1.985c1.32.558 2.734 1.039 4.004 1.705 1.292.677 2.178 1.932 3.391 2.724.918.601 1.649 1.396 2.46 2.129.614.554 1.362.994 1.864 1.662 1.825 2.434.976 5.813-.115 8.393m-56.858-12.405c-1.684.262-3.347.142-5.043.224-1.724.084-3.393.669-5.125.598-1.197-.049-2.488.343-3.665.527l-7.81 1.218c-6.993 1.092-14.014 1.985-20.997 3.075m72.882 37.59c-1.665-.356-3.176-1.063-4.789-1.593-1.64-.538-3.408-.588-5-1.274-1.1-.474-2.446-.569-3.612-.818l-7.728-1.654c-6.922-1.481-13.798-3.157-20.71-4.636m67.997-19.768c-1.569-.664-2.919-1.642-4.404-2.467-1.509-.838-3.236-1.22-4.67-2.193-.992-.673-2.295-1.019-3.393-1.484l-7.279-3.08c-6.519-2.758-12.956-5.7-19.465-8.454" stroke="#F49563" stroke-width="3" stroke-linecap="round"/><path d="M52.392 142.848c.522-.279 1.186-.406 1.745-.545.818-.204 1.756-.52 2.612-.351.62.123 1.212.37 1.844.448 1.184.147 2.44-.218 3.552-.567 1.309-.411 2.575-.963 3.878-1.404 1.578-.534 3.206-.598 4.86-.67.815-.035 1.67.466 2.447.392 1.542-.147 2.925-.585 4.443-.979 1.612-.418 3.267-.797 4.938-.853 1.645-.055 3.238.223 4.882.069.619-.058 1.28.136 1.886.042 1.178-.184 2.188-1.224 3.39-1.443 1.26-.228 4.282-.15 4.895 1.43.129.331-.39.861-.337 1.283.05.384.021.781-.164 1.11-.079.141-.4.111-.54.141-.249.054-.505.35-.736.483-.544.313-.984.827-1.342 1.325-.363.505-.458 1.15-1.156 1.315-1.597.379-3.306.04-4.86-.402-2.139-.607-4.131-.173-6.255.374-1.055.272-2.255.517-3.346.567-1.16.053-1.52-.653-2.398-1.16-1.037-.6-2.055.719-2.764 1.294-1.326 1.073-2.83 1.618-4.524 1.707-2.641.139-5.564-1.151-8.06.092-1.317.656-3.335 2.02-4.794.938-.885-.657-1.779-.547-2.808-.386-.717.112-.968.59-1.457.069-.381-.407-.591-.892-.73-1.44-.16-.628-.647-1.524-.093-2.039m31.52 26.572c.588-.074 1.254.045 1.825.115.837.102 1.826.141 2.565.606.535.337 1 .779 1.561 1.077 1.054.561 2.358.67 3.52.741 1.37.083 2.75.021 4.124.075 1.665.065 3.208.588 4.778 1.112.774.258 1.394 1.032 2.145 1.241 1.493.414 2.941.499 4.5.674 1.655.186 3.336.424 4.917.969 1.555.537 2.944 1.366 4.534 1.81.599.167 1.148.585 1.747.713 1.165.249 2.481-.361 3.682-.135 1.259.237 4.052 1.391 4.06 3.086.001.354-.673.664-.773 1.077-.092.376-.26.737-.55.978-.125.103-.415-.04-.555-.061-.252-.039-.598.146-.861.187-.62.098-1.214.421-1.727.758-.519.342-.839.91-1.55.815-1.626-.217-3.101-1.145-4.394-2.112-1.781-1.333-3.797-1.639-5.975-1.888-1.083-.123-2.291-.323-3.328-.667-1.102-.365-1.187-1.153-1.825-1.941-.754-.931-2.176-.063-3.044.22-1.622.528-3.222.5-4.835-.022-2.517-.815-4.785-3.065-7.56-2.797-1.465.142-3.837.695-4.813-.837-.592-.93-1.466-1.147-2.484-1.365-.71-.152-1.115.205-1.385-.456-.211-.517-.234-1.045-.168-1.606.076-.644-.058-1.655.642-1.938m29.783-38.051c.591.039 1.222.281 1.77.457.803.258 1.766.483 2.405 1.078.462.432.835.953 1.33 1.353.929.748 2.19 1.101 3.318 1.39 1.329.34 2.696.539 4.035.85 1.623.378 3.04 1.182 4.484 1.993.711.399 1.174 1.276 1.873 1.622 1.388.688 2.794 1.045 4.292 1.51 1.59.494 3.197 1.045 4.646 1.878 1.427.82 2.634 1.895 4.112 2.631.557.277 1.017.791 1.581 1.029 1.098.465 2.505.114 3.642.562 1.191.47 3.717 2.129 3.406 3.795-.065.348-.786.526-.962.912-.161.353-.394.675-.725.857-.141.078-.399-.117-.533-.165-.24-.085-.614.031-.88.022-.628-.02-1.272.185-1.839.419-.574.238-.996.736-1.676.509-1.556-.52-2.83-1.709-3.917-2.902-1.499-1.645-3.421-2.325-5.514-2.98-1.039-.325-2.188-.749-3.142-1.282-1.013-.566-.949-1.356-1.427-2.249-.565-1.057-2.125-.472-3.031-.358-1.692.213-3.258-.116-4.744-.933-2.318-1.274-4.122-3.911-6.898-4.17-1.465-.137-3.899-.041-4.568-1.729-.407-1.025-1.224-1.402-2.183-1.808-.669-.283-1.134-.008-1.275-.709-.11-.547-.033-1.07.138-1.609.196-.618.254-1.636.996-1.782" stroke="#C28DD1" stroke-width="3" stroke-linecap="round"/><path d="M96.45 145.042c-.341.08-.657.247-.988.357-.993.33-2.09.445-3.124.583-3.02.402-6.026.899-9.045 1.305-3.582.481-7.186.774-10.765 1.286-.665.095-1.32.211-1.99.26-1.19.087-2.519.231-3.667.572-1.423.423-2.878.601-4.35.831-.315.049-1.888.38-2.126.18-.237-.199-1.088-.176-1.416-.184-1.155-.031-2.333.127-3.463.062-.403-.023-.798-.026-1.202-.071-.436-.048-.115.402-.022.566.285.503.286 1.142.544 1.681.118.245.242.68.283.946.053.342.494.495.77.689 1.359.958 2.905 1.701 4.621 2.007 1.517.27 3.059-.058 4.584-.046 2.756.023 5.46-.697 8.202-.881 1.627-.109 3.23-.502 4.849-.7 1.271-.156 2.532-.3 3.8-.498 1.116-.174 2.231-.321 3.325-.597 1.442-.364 2.841-.854 4.278-1.219 2.117-.538 3.82-1.56 5.497-2.838 1.108-.844 1.975-2.757 1.774-4.045m26.463 42.772c-.348-.047-.702-.004-1.05-.02-1.046-.047-2.111-.331-3.127-.572-2.963-.705-5.948-1.315-8.913-2.015-3.517-.831-6.988-1.847-10.513-2.648-.655-.149-1.309-.275-1.953-.469-1.142-.344-2.433-.684-3.628-.776-1.48-.114-2.902-.468-4.36-.78-.311-.066-1.898-.32-2.05-.592-.15-.27-.952-.553-1.256-.678-1.068-.442-2.224-.715-3.257-1.18-.367-.165-.735-.31-1.096-.496-.39-.201-.252.334-.223.521.086.571-.141 1.169-.093 1.764.022.271-.018.722-.074.984-.072.339.285.64.473.92.926 1.38 2.104 2.627 3.598 3.526 1.32.795 2.877 1.039 4.297 1.596 2.565 1.006 5.349 1.301 7.975 2.11 1.559.48 3.197.686 4.779 1.079 1.243.309 2.471.626 3.727.895 1.104.236 2.198.497 3.319.63 1.476.176 2.958.218 4.43.391 2.17.255 4.125-.09 6.149-.684 1.337-.393 2.83-1.87 3.103-3.144m24.223-30.699c-.332-.112-.688-.137-1.027-.218-1.018-.243-2.01-.722-2.963-1.151-2.778-1.25-5.594-2.412-8.374-3.658-3.298-1.478-6.515-3.129-9.827-4.58-.615-.27-1.233-.517-1.828-.829-1.057-.552-2.262-1.13-3.418-1.446-1.431-.39-2.762-1.005-4.134-1.586-.294-.124-1.805-.672-1.902-.968-.096-.294-.832-.722-1.106-.902-.966-.635-2.05-1.121-2.976-1.773-.33-.231-.664-.442-.984-.693-.345-.271-.31.28-.317.469-.023.578-.359 1.122-.423 1.716-.03.269-.154.705-.259.952-.135.319.16.682.292.992.65 1.53 1.571 2.976 2.869 4.141 1.147 1.029 2.63 1.562 3.919 2.377 2.331 1.471 5.009 2.285 7.435 3.574 1.441.765 3.011 1.276 4.49 1.96 1.163.538 2.31 1.08 3.493 1.581 1.039.439 2.065.902 3.14 1.244 1.417.451 2.864.772 4.278 1.219 2.082.658 4.068.688 6.167.485 1.387-.133 3.132-1.302 3.64-2.502M133.39 3.103c-9.34-2.075-18.936-1.381-27.235 3.446-3.195 1.859-6.698 4.013-9.364 6.583-8.197 7.906-13.04 20.417-15.162 31.37-1.214 6.268-.908 11.62 3.042 16.636 2.643 3.356 6.191 5.93 9.886 8.01 10.527 5.92 23.689 11.709 35.862 12.238 10.531.458 21.059.07 27.022-10.052 2.611-4.434 4.454-10.325 5.893-15.282.593-2.04.91-5.419.333-7.51-.713-2.584-.76-5.124-.76-7.794" stroke="#F49563" stroke-width="3" stroke-linecap="round"/><path d="M132.021 2.897c1.031 0 2.051.747 3.088.913.786.125 1.621.303 2.389.513 1.273.347 2.305.751 3.494 1.335 1.409.691 3.241 1.71 4.113 3.02m.457.82c-2.339 4.745-5.204 9.096-8.437 13.274-1.968 2.542-4.456 4.897-6.094 7.67-.534.904-.824 1.965-1.385 2.876-.307.5-.293 1.875-.958 1.875m34.332 4.551c-4.167-.211-8.307-1.17-12.407-1.888-3.871-.679-7.794-1.034-11.702-1.437-2.922-.3-5.863-.744-8.804-.744m16.761-10.471c2.336-1.275 4.185-3.569 6.214-5.257 2.547-2.12 4.774-4.398 6.787-7.03 1.319-1.726 2.874-3.28 4.087-5.084.553-.822 1.361-1.631 1.836-2.464.208-.364 1.038-.877 1.412-1.098.474-.278 1.978-1.297 1.978-1.804m.422-.283c2.006 0 3.887 1.574 5.312 2.825 1.073.941 2.236 1.845 3.099 2.997 2.142 2.855 3.47 6.505 3.845 10.042.193 1.828.313 3.613.313 5.46m-35.023 2.825c3.898-.637 7.987-.52 11.926-.769 3.78-.238 7.6.192 11.361-.36 2.555-.376 5.182-.528 7.751-.738 1.301-.106 2.694-.392 3.986-.392" stroke="#F49563" stroke-width="3" stroke-linecap="round"/><path d="M177.225 22.009c0-.907.196-2.118-.061-3.003-.17-.585-.665-1.152-1.066-1.586-.582-.628-1.119-1.607-1.138-2.477-.012-.58.515-1.234.23-1.794-.296-.581-.95-1.079-1.455-1.465-.624-.479-1.241-.99-1.886-1.439-.602-.418-1.25-.88-1.942-1.132-.134-.048-.065-.443-.065-.547 0-.703.323-1.1.787-1.564.298-.298.689-.703.689-1.137m-.803 17.445c-.667-.858-1.311-1.565-1.502-2.653-.062-.356-.322-.818.133-.922.471-.107.701-.16.808-.713.21-1.077-.051-2.073-.717-2.932-.82-1.057-2.11-1.435-2.861-2.576-.594-.901-.908-2.048-.908-3.123m-3.678 13.26c-.089.078.128-1.138.152-1.35.037-.33.019-.67.019-1.002 0-.707-.065-1.17-.789-1.478-.209-.09-.855-.089-.989-.21-.096-.086-.027-.631-.014-.75.033-.303.256-.66.38-.937.181-.402.278-.86.385-1.288m-44.595 7.244c-.993-1.301-2.334-2.324-3.185-3.73-.508-.84-1.124-2.012-1.023-3.026.104-1.038 1.405-1.279 2.199-1.279.525 0 .898.15 1.345.414.142.084.37.329.37.12 0-.812.9-1.86 1.469-2.374 1.459-1.314 3.259-1.422 4.997-.435 1.607.912 2.432 2.922 1.862 4.68-.406 1.254-1.589 2.584-2.646 3.376M101.151 43.67c-1.109 0-2.173.435-3.282.485-1.799.08-3.367-.678-4.643-1.954-.992-.993-1.088-2.05-1.088-3.402 0-1.023 1.67-1.438 2.45-1.546.421-.059 1.038-.154 1.447.005.053.02.329.253.12.24-.272-.017.013-1.04.054-1.176.207-.676.738-1.362 1.143-1.938.307-.436.532-.73 1.083-.702 1.174.062 2.363.642 3.381 1.192.675.365 1.336.846 1.181 1.698-.105.575-.674.93-1.062 1.318m25.866 31.45c-.236-1.334-.721-2.428-.566-3.821.118-1.056 1.03-1.176 1.938-1.176 1.053 0 1.579.56 1.9 1.557.059.184.081.404.06.599-.014.12-.469.098-.349.098.799 0 1.614-.3 2.406-.175 1.114.176 1.552 1.481 1.306 2.488-.422 1.728-2.131 2.452-3.668 2.917-1.382.419-2.964.64-4.398.844m-4.437-19.341c-.649-1.358-1.48-2.666-2.042-4.061-.165-.41-.278-.909-.251-1.354.066-1.05.738-.984 1.614-.984.8 0 1.514.068 2.284.291.152.044.995.23 1.021.447.015.13 0 .653 0 .556 0-.689.341-.934 1.039-1.085.627-.135 1.401-.22 2.033-.073.9.21 1.138 1.114 1.176 1.938.08 1.695-1.217 3.629-2.561 4.572-1.217.854-2.581.868-3.984 1.148m23.138 1.723c-.92-1.11-2.193-2.243-2.58-3.687a16.99 16.99 0 01-.333-1.518c-.082-.474-.162-1.183.224-1.541.286-.266.694-.236 1.062-.269.989-.088 1.97-.223 2.958-.324.472-.047 1.002-.112 1.459.055.167.061.759.31.784.538.004.038-.198-.177-.21-.187-.133-.12-.094-.364-.077-.529.045-.454.538-.594.898-.396.387.212.627.799.77 1.19.312.854.267 1.9.292 2.798.021.796-.174 1.556-.743 2.147-.616.64-1.502 1.115-2.289 1.495-2.039.986-4.238 1.416-6.4 2.034m-37.087-2.298c-.714-.38-1.361-.39-2.138-.196-1.081.27-2.384.994-3.186 1.76-.449.428-1.137 1.116-1.158 1.782-.028.862.724 1.126 1.495 1.249 1.251.2 2.562.164 3.824.164.297 0 .69.072.958-.091.143-.087.271-.486.364-.346.095.14-.004.66-.036.806-.124.57-.419 1.146-.447 1.723-.031.648-.02 1.124.506 1.555 1.048.857 2.616.873 3.902.93 1.004.044 3.095.26 3.414-1.067.188-.78.302-1.908-.077-2.648-.352-.687-.709-1.378-1.003-2.093-.402-.978-1.446-1.597-2.316-2.115-.642-.383-1.234-.922-1.887-1.249M39.846 74.39c-7.774-.327-16.571-3.64-23.284-7.573-2.748-1.61-4.927-4.204-6.35-7.035-2.195-4.369-6.54-10.671-5.944-15.834.496-4.302 9.712-5.845 13.03-5.811 4.114.042 9.79 3.288 12.863 5.925 2.17 1.863-.213 3.429-.911.942-1.407-5.014-2.041-8.026 3.4-10.456 2.03-.907 3.141-1.759 5.28-.502 3.994 2.345 8.341 7.55 10.197 11.67 3.942 8.746-1.434 19.455-3.769 27.996" stroke="#C28DD1" stroke-width="3" stroke-linecap="round"/><path d="M20.449 27.053c-3.442-3.317-7.728-7.143-12.076-9.123-2-.91-4.539-1.587-6.373-2.617" stroke="#F49563" stroke-width="3" stroke-linecap="round"/><path d="M15.204 22.18c-1.04-3.224-2.808-6.668-2.841-10.127-.034-3.438 1.885-6.947 3.17-10.053m30.473 80.967c2.161 3.425 5.658 6.58 7.129 10.335m2.67 7.004c-2.054-1.619-4.074-3.177-6.671-3.748-1.636-.36-3.35-.502-4.912-1.108m12.443.385c1.854-3.885-.012-8.533 2.529-12.34" stroke="#F49563" stroke-width="3" stroke-linecap="round"/></svg>