<svg width="184" height="221" fill="none" xmlns="http://www.w3.org/2000/svg"><path d="M17.336 213.185c-1.515-5.302-4.365-10.067-5.964-15.336-1.825-6.015-3.41-12.104-4.861-18.217-1.253-5.282-1.674-10.678-2.456-16.038-.349-2.393-.082-5.552-1.153-7.693m132.16 44.204V189.48c0-8.131-1.841-15.841-3.057-23.856-1.101-7.26-2.128-14.47-4.06-21.551-.331-1.216-.791-6.109-1.904-6.665M2 155.45c2.46-5.582 6.243-8.816 11.677-11.577 8.49-4.313 16.963-8.789 26.387-10.725 8.431-1.733 16.59-2.753 25.184-3.183 10.33-.516 20.734-.318 31.073-.225 1.704.015 3.62.478 5.262.902 2.747.708 5.549 1.275 8.32 1.904 2.632.598 5.131 2.102 7.768 2.581.958.174 1.02.619 1.704 1.278.747.72 1.856.624 2.581 1.228.699.583 1.835.688 2.281 1.579" stroke="#F49563" stroke-width="3" stroke-linecap="round"/><path d="M2.25 156.908c9.36 2.729 19.772 2.859 29.418 2.914 12.224.068 24.459-.023 36.68-.232 5.249-.089 10.554-.121 15.773-.786 7.612-.969 14.952-2.797 22.11-5.551 3.8-1.461 6.331-2.873 8.927-5.92 3.108-3.648 6.859-6.308 11.148-8.326" stroke="#F49563" stroke-width="3" stroke-linecap="round"/><path d="M23.239 153.788c-.022-4.46-.178-8.664-1.085-13.016-.47-2.259-1.158-4.554-1.506-6.821-.315-2.045-1.097-3.656-1.097-5.761m14.1 24.513c-1.059-4.015-.793-8.067-1.518-12.148-1.113-6.263-3.254-12.69-3.254-19.09m-4.121 32.54c2.845-.378 5.888-.388 8.677-1.085m-13.45-26.682c0-.814.169-2.076.482-2.82.388-.922 1.718-.552 2.507-.868 1.771-.709 2.384-2.195 3.085-3.857.484-1.146.652-.913.868.169m-4.989-2.82c.464-.877.884-1.78.603-2.82-.289-1.068-1.382-2.039-1.904-3.025-.596-1.125-.909-2.132-1.206-3.363-.29-1.202-.536-2.769-.265-4.025.176-.812.49-1.565.711-2.362.05-.176.1-1.302.217-1.302.296 0 .938 2.59.976 2.784.444 2.218 1.503 4.79 2.82 6.593.301.411.434.128.434.795 0 .555.217 1.057.217 1.639 0 1.144-.434 2.018-.434 3.134m31.483 29.678c.817-.096 1.666-1.135 2.41-1.507 1.438-.719 3.168-.879 4.748-.879 1.46 0 3.022-.225 4.34.433m-10.847-.433c0-2.138-.263-4.261-.482-6.388-.218-2.123-1.002-4.22-1.458-6.303-.554-2.526-.796-5.114-1.314-7.652-.445-2.184-1.301-3.843-1.301-6.123 0-1.107-.217-2.143-.217-3.254m15.835 27.333c-.766-5.174-3.466-9.586-4.772-14.582-.673-2.571-.689-5.334-.651-7.978.035-2.444.896-5.801-.217-8.027m-10.629 2.17c1.375-.367 2.272-2.169 3.7-2.169 2.083 0 4.262-.147 6.279-.651m-4.123-2.17c-.066-.6-.702-1.312-.988-1.844-.682-1.266-1.155-3.014-1.181-4.447-.049-2.672 1.302-5.102 1.302-7.81 0-1.427 1.281.855 1.422 1.086.692 1.133 1.18 2.067 1.18 3.422 0 2.02.435 3.997.435 5.99 0 .583-1.161 1.051-1.736 1.434m35.845 42.659c0-2.577-.867-5.217-.867-7.821 0-2.826-.657-5.68-.916-8.497-.314-3.413-1.769-6.517-2.11-9.918-.098-.991.085-1.892-.228-2.832m15.618 26.465c0-6.25-4.181-11.487-4.941-17.571-.341-2.728.169-5.516.169-8.244v-6.724m-2.17-.651c-.597-.317-1.304-.772-2-.82-.718-.049-1.355 2.343-1.687 2.989-.646 1.255-1.194 2.43-1.567 3.808-.168.62-.482.53-1.036.53m.434-10.195c-.083-.744-.73-1.581-1.085-2.218-.529-.949-.873-1.951-1.193-2.976-.3-.963-.109-2.213-.109-3.218 0-.59.293-.77.603-1.23.353-.522.43-1.242.627-1.831.307-.924.884-1.835 1.145-2.748.067-.237-.075-2.278.144-2.23.858.191 2.268 2.301 2.868 2.977.428.48.437.94.47 1.543.052.926.422 1.758-.108 2.711-.201.362-.178.885-.325 1.29-.227.622-.799 1.109-1.133 1.687-1.052 1.82-.82 3.781-.82 5.809" stroke="#C28DD1" stroke-width="3" stroke-linecap="round"/><path d="M92.424 146.306c1.302-1.386 2.337-3.383 4.4-3.383 1.659 0 3.262.315 4.839.846.997.335 2.213 1.329 3.304 1.268.458-.025.695-1.339.846-1.691" stroke="#C28DD1" stroke-width="3" stroke-linecap="round"/><path d="M22.878 212.932c6.591 3.578 14.94 4.12 22.288 5.03 5.926.733 11.868.843 17.83.828 12.122-.029 24.231-.953 36.185-2.919 5.894-.969 11.95-1.847 17.663-3.639 1.56-.49 3.133-.941 4.694-1.43 1.671-.523 3.213-1.36 4.872-1.913 4.422-1.474 9.238-2.616 12.12-6.608.801-1.108 1.67-2.097 2.486-3.185.252-.337.776-.886 1.154-1.075m-126.992-25.81c3.943-1.434 7.267-1.564 11.236-.124 7.3 2.649 14.707 5.253 22.518 5.724 2.997.181 6.102.419 9.082-.017 4.438-.65 8.744-1.969 13.19-2.612 5.895-.852 11.527-1.869 17.074-4.088 1.036-.415 1.915-.825 3.033-1.011 1.572-.262 2.559.41 3.71 1.415 3.332 2.908 6.98 4.099 10.965 1.627 3.092-1.918 7.063-3.564 8.968-6.841.855-1.47 1.368-2.904 1.829-4.519m-94.641 23.74c2.497 1.541 4.96 2.817 7.763 3.701 3.126.986 6.355 1.437 9.584 1.926 6.104.925 12.242 2.054 18.403 2.532 2.197.171 4.55.41 6.735.035 2.553-.437 5.128-1.624 7.324-2.972 1.505-.923 2.757-2.183 4.3-3.059 1.03-.586 2.21-.526 3.35-.669 1.468-.183 2.92-.292 4.404-.193 2.272.152 4.183 1.181 6.278 1.952 3.18 1.171 5.704-.062 8.696-1.196 3.444-1.305 7.063-2.138 10.366-3.763 1.39-.684 2.858-1.249 3.992-2.356 1.981-1.936 3.147-4.672 4.554-7.017" stroke="#F49563" stroke-width="3" stroke-linecap="round"/><path d="M23.883 201.331c4.25.765 7.741 3.443 11.817 4.678 2.613.791 5.601 1.045 8.317 1.143 4.468.161 9.052-.062 13.426-1.02 6.931-1.519 13.701-4.177 20.874-4.317 5.117-.101 9.692 2.835 14.745 3.402 4.994.562 9.297-.665 13.769-2.901 4.211-2.106 9.683-4.387 12.617-8.247 1.547-2.036 2.921-4.201 4.537-6.181 1.297-1.59 2.453-3.282 2.453-5.39" stroke="#F49563" stroke-width="3" stroke-linecap="round"/><path d="M40.066 140.841c.04-.144.761-1.628.959-1.14.093.229.103.544.09.79-.023.442-.892-.358-.945-.414-.14-.149 1.321-.214 1.645-.052m32.985-3.147c1.102 0 3.142-.418 3.821.673.45.724-.196.726-.738.726-.348 0-.62-.154-.777-.467-.28-.56.165-.582.609-.582m-14.687 15.269c1.184-.474 1.148-2.238 2.539-2.629.98-.276 2.45.659 2.473 1.722.015.633-1.449-.315-1.839-.401-.183-.041-.81-.223-.375-.441" stroke="#C28DD1" stroke-width="3" stroke-linecap="round"/><path d="M82.726 143.755c0-.238-.134-1.435.085-1.503.968-.298 1.42 1.105 1.43 1.775.02 1.157-1.049-.246-1.049-.739m27.859-3.729c.464.29 1.736.938 1.736 1.677 0 .183-1.761-.151-1.969-.162-.927-.048.466-.196.466-.699m-67.488 10.606c.118-.394 1.389-.92 1.593-.375.127.339-.81.259-1.01.259m-30.072.583c.513 0 .966.095.932.699-.008.137-.255.383-.401.279-.12-.086-.065-.384-.065-.512m67.021-1.515c-.294 1.163-.805 1.748-2.033 1.748-.396 0-.648.099-.648-.349M3 60.261c0-4.88 1.208-9.732 3.347-14.136.963-1.983 1.617-4.332 3.142-6.025 2.002-2.225 3.567-4.638 5.214-7.171 1.26-1.94 2.29-4.04 3.94-5.69 1.54-1.54 3.305-2.27 5.097-3.36 1.579-.961 3.4-1.497 5.099-2.19 1.095-.445 2.747-.823 3.94-.823 1.587 0 2.076.372 2.947 1.57.63.867.644 2.208.644 3.296 0 1.434-.37 2.346-1.159 3.528-.597.896-1.1 1.859-1.673 2.78-.67 1.076-1.64 2.052-2.51 2.962-1.7 1.777-3.302 3.588-4.906 5.458-2.089 2.437-4.4 4.563-6.154 7.287-1.212 1.883-2.61 3.68-3.99 5.446-1.188 1.516-2.573 2.855-3.708 4.416-1.16 1.595-2.802 2.649-4.056 4.042-.692.77-2.626 1.158-2.91-.116-.237-1.069-1.896-1.412-2.304-2.433m12.746 8.343c0-1.641 1.531-4.106 2.562-5.343 1.897-2.276 3.568-4.725 5.536-6.94 1.569-1.764 3.424-3.848 4.648-5.844 1.968-3.21 4.782-5.696 7.235-8.523.955-1.1 2.121-2.019 3.064-3.141.996-1.186 1.743-2.692 2.794-3.798 2.063-2.172 3.475-4.989 5.78-6.965 1.811-1.552 3.134-2.317 5.562-2.317 2.207 0 3.809-.11 5.227 1.905 1.014 1.441 1.159 2.885 1.159 4.596 0 1.428.087 2.543-.58 3.824-.797 1.532-1.89 2.954-2.896 4.351-1.862 2.586-4.335 4.796-6.077 7.493-3.392 5.252-6.56 10.397-10.969 14.805a25.547 25.547 0 01-7.068 4.983c-3.542 1.667-7.163 2.76-10.866 4.042-.953.33-1.826.947-2.793 1.223-1.208.345-1.147-1.569-1.16-2.497-.043-3.257.233-6.51.233-9.733" stroke="#F49563" stroke-width="3" stroke-linecap="round"/><path d="M22.911 66.79c-.659-.741-.784-2.83 0-3.614.54-.539 1.067-.533 1.773-.636.88-.127 1.69-.267 2.593-.267.567 0 1.128.176 1.69.15 1.703-.078 2.84-1.564 3.312-2.977.35-1.049.267-2.133.267-3.229 0-.968-.444-2.973.419-3.58.621-.437 1.413-.536 1.99-.937.505-.35.8-.568 1.439-.568.896 0 1.81.068 2.66-.184 1.256-.372 3.279-1.09 3.279-2.677 0-2.086-.248-4.791 1.664-6.106.666-.458 1.23-1.028 2.074-1.112.38-.038.81.077 1.163-.084.85-.386 1.671-.324 2.4-1.054.422-.42 1.836-1.37 1.565-2.116-.206-.566-1.038-.728-1.038-1.346 0-.397-.224-.685-.292-1.063-.235-1.293 1.145-1.868 2.09-2.4.766-.43 1.669-.979 2.569-.979M7.252 57.455c0-.804.055-1.593.385-2.342.334-.76 1.032-1.634 1.12-2.476.093-.877.92-1.822 1.506-2.409.303-.303.68-.729 1.054-.937.195-.108.453-.06.61-.192.33-.274 1.115.02 1.464-.26.513-.41 1.311-.686 1.506-1.388.182-.655.412-1.344.326-2.032-.112-.899-.206-1.402.226-2.267.366-.731.501-1.493 1.104-2.074.688-.664 1.425-1.3 2.066-1.991.38-.41.915-.301 1.43-.301.877 0 2-.427 2.593-1.02.794-.794 1.683-1.288 2.15-2.376.223-.52.527-.836.527-1.422 0-.433-.09-.777-.143-1.196-.218-1.75 1.488-3.214 3.087-3.505.434-.078.84-.348 1.271-.41.339-.048.667.079.904-.158m102.571 64.163c1.073-3.264 1.468-6.037 1.392-9.476-.115-5.185-3.423-9.24-7.078-12.667-4.535-4.252-9.784-7.445-14.698-11.197-2.947-2.251-5.121-5.403-5.337-9.186-.52-9.104 6.254-14.05 13.073-18.546 3.878-2.556 7.519-5.22 11.081-8.2 1.571-1.313 3.768-2.662 4.699-4.525" stroke="#C28DD1" stroke-width="3" stroke-linecap="round"/><path d="M130.994 48.005c9.829-1.238 19.496-3.829 26.905-10.908 1.942-1.857 4.455-4.083 5.271-6.755.873-2.856.771-7.938-.091-10.77-2.028-6.665-7.86-9.9-12.939-13.875-.821-.643-2.716-2.554-2.716-3.697" stroke="#C28DD1" stroke-width="3" stroke-linecap="round"/><path d="M152.671 90.36c0-1.308-.348-2.62-.73-3.856-.657-2.129-.718-4.49-1.65-6.53-1.145-2.502-2.338-5.225-3.988-7.434-1.339-1.793-3.035-3.433-4.25-5.301-.711-1.094-.46-2.744-.409-3.973.098-2.342 1.607-5.01 3.316-6.617 2.277-2.14 6.268-2.34 9.128-3.096 2.266-.598 4.653-.821 6.996-.789 2.934.041 2.822 1.544 3.418 3.93.125.497.2 1.238.847 1.007.659-.235 1.226-.739 1.797-1.125 1.099-.743 2.281-1.056 3.534-1.446 2.073-.644 4.177-1.11 6.266-1.68 1.778-.484 3.093.374 4.002 1.943 2.189 3.776-.365 9.297-2.22 12.561-3.856 6.785-9.073 10.67-16.066 13.73" stroke="#F49563" stroke-width="3" stroke-linecap="round"/></svg>