<svg width="116" height="31" fill="none" xmlns="http://www.w3.org/2000/svg"><path d="M39.327 22.11a2.324 2.324 0 01-1.465-.42 1.37 1.37 0 01-.553-1.15v-8.13a.229.229 0 01.255-.255h1.474c.166 0 .245.088.245.255v7.5c0 .333.15.5.456.5.13.005.26-.01.386-.044.176 0 .272.053.281.21l.132 1.097a.23.23 0 01-.118.246.228.228 0 01-.093.026c-.323.107-.66.163-1 .167zm8.29-.938a4.131 4.131 0 01-5.263 0 3.51 3.51 0 010-4.939 4.15 4.15 0 015.263 0 3.561 3.561 0 010 4.93v.01zm-3.877-1.158a1.868 1.868 0 002.509 0 1.964 1.964 0 000-2.579 1.869 1.869 0 00-2.509 0 1.966 1.966 0 000 2.58zm12.983-4.5c.166 0 .245.088.245.254v6.29a2.859 2.859 0 01-.974 2.255 3.684 3.684 0 01-2.552.877c-.842.03-1.671-.2-2.378-.658a2.63 2.63 0 01-1.149-1.754c0-.176 0-.255.237-.255h1.474a.324.324 0 01.29.202c.095.266.285.488.534.623.304.157.642.235.983.228a1.552 1.552 0 001.132-.404 1.49 1.49 0 00.412-1.096v-.553a2.939 2.939 0 01-1.825.57 3.404 3.404 0 01-2.491-.956 3.51 3.51 0 010-4.877 3.43 3.43 0 012.491-.948 2.948 2.948 0 011.869.606v-.14a.229.229 0 01.245-.255l1.457-.009zm-3.404 5.018a1.543 1.543 0 001.202-.518 2.15 2.15 0 000-2.631 1.536 1.536 0 00-1.193-.51 1.58 1.58 0 00-1.22.518 1.86 1.86 0 00-.473 1.316c-.016.479.15.946.464 1.307a1.59 1.59 0 001.22.518zm11.221.64a4.15 4.15 0 01-5.264 0 3.57 3.57 0 010-4.939 4.158 4.158 0 015.263 0 3.561 3.561 0 010 4.93v.01zm-3.887-1.158a1.756 1.756 0 001.263.483 1.754 1.754 0 001.255-.483 1.99 1.99 0 000-2.579 1.755 1.755 0 00-1.255-.482 1.755 1.755 0 00-1.263.482 1.992 1.992 0 000 2.58zm8.045-5.991a1.272 1.272 0 01-1.676 0 1.063 1.063 0 010-1.544 1.298 1.298 0 011.676 0 1.061 1.061 0 010 1.544zm.184 8.088a2.36 2.36 0 01-1.465-.421 1.385 1.385 0 01-.544-1.15v-4.772a.229.229 0 01.255-.254H68.6c.167 0 .246.088.246.254v4.14c0 .334.15.5.448.5.132.006.266-.01.394-.043.176 0 .272.053.28.21l.133 1.097a.23.23 0 01-.118.246.227.227 0 01-.093.026 3.323 3.323 0 01-1.009.167zm6.641-6.808a3.441 3.441 0 012.509.948 3.597 3.597 0 010 4.904 3.411 3.411 0 01-2.51.956 3.016 3.016 0 01-1.833-.57v3.167c0 .166-.087.245-.254.245H71.96a.21.21 0 01-.246-.245v-7.194a.456.456 0 00-.517-.517h-.29c-.193 0-.29-.07-.29-.211v-1.035a.28.28 0 01.203-.29c.303-.11.624-.163.947-.158a1.624 1.624 0 011.588.878 2.959 2.959 0 012.167-.878zm-1.369 4.711a1.675 1.675 0 002.421 0c.33-.367.503-.849.483-1.342a1.868 1.868 0 00-.483-1.342 1.676 1.676 0 00-2.42 0 1.94 1.94 0 00-.466 1.342c-.018.49.148.969.465 1.342zm8.983 2.097a4.228 4.228 0 01-2.254-.544 2.143 2.143 0 01-1.018-1.553c0-.175.062-.263.255-.263h1.29a.334.334 0 01.289.193c.184.474.666.71 1.438.71.27.013.538-.041.781-.157a.508.508 0 00.298-.43c0-.228-.14-.386-.42-.491a4.75 4.75 0 00-1.027-.22 9.74 9.74 0 01-1.228-.219 2.017 2.017 0 01-1.027-.588 1.879 1.879 0 01.378-2.72 3.614 3.614 0 012.123-.56 3.878 3.878 0 012.07.517 1.957 1.957 0 01.965 1.377c0 .176-.08.264-.237.264h-1.298a.272.272 0 01-.264-.158.878.878 0 00-.456-.465 1.545 1.545 0 00-.754-.176 1.528 1.528 0 00-.746.15.44.44 0 00-.28.403.561.561 0 00.42.517c.337.128.688.216 1.044.264.41.054.818.13 1.22.228.393.089.75.293 1.026.587a1.658 1.658 0 01.43 1.202 1.754 1.754 0 01-.816 1.527 3.833 3.833 0 01-2.202.605zm12.291-.439a.24.24 0 01-.044.179.232.232 0 01-.158.093 3.37 3.37 0 01-.991.167 1.947 1.947 0 01-1.755-.763 3.176 3.176 0 01-2.237.763 2.719 2.719 0 01-2.053-.798 2.876 2.876 0 01-.78-2.115v-3.43c0-.166.079-.254.245-.254h1.474c.167 0 .246.088.246.254v3.167c-.016.395.118.78.377 1.08a1.32 1.32 0 001.009.412 1.454 1.454 0 001.052-.386 1.4 1.4 0 00.395-1.044v-3.229c0-.166.08-.254.246-.254h1.491c.167 0 .246.088.246.254V19.9c0 .342.149.509.438.509.136.005.272-.01.404-.044a.227.227 0 01.29.21l.105 1.097zm13.939 0a.222.222 0 01.003.096.236.236 0 01-.04.088.212.212 0 01-.073.062.21.21 0 01-.092.026 3.4 3.4 0 01-1.009.167 2.343 2.343 0 01-1.465-.421 1.36 1.36 0 01-.437-.501 1.353 1.353 0 01-.15-.648v-2.062a1.556 1.556 0 00-.369-1.079 1.244 1.244 0 00-.982-.412 1.102 1.102 0 00-.878.386c-.231.294-.35.661-.333 1.035v3.237c0 .167-.079.254-.246.254h-1.482a.229.229 0 01-.244-.152.236.236 0 01-.011-.102v-3.167c.02-.39-.102-.772-.342-1.079a1.137 1.137 0 00-.877-.412 1.272 1.272 0 00-.965.386c-.25.284-.38.656-.36 1.035v3.237a.224.224 0 01-.064.19.229.229 0 01-.19.064h-1.43c-.166 0-.246-.087-.246-.254v-4.132a.448.448 0 00-.128-.389.454.454 0 00-.39-.129h-.289c-.193 0-.29-.07-.29-.21V15.75a.282.282 0 01.203-.29c.303-.11.624-.164.947-.158a1.65 1.65 0 011.562.807 2.964 2.964 0 012.228-.807 2.519 2.519 0 012.079.93 2.89 2.89 0 012.298-.93 2.772 2.772 0 012.079.799 2.868 2.868 0 01.781 2.114v1.693c0 .333.149.5.43.5.136.006.272-.008.404-.044.181 0 .278.07.289.21l.079 1.097zM6.5 14.373a12.01 12.01 0 0123.309 0h-1.053a8.5 8.5 0 00-4.974 1.518 2.51 2.51 0 01-.263.167h-.123a2.51 2.51 0 01-.263-.167 8.921 8.921 0 00-9.957 0 2.51 2.51 0 01-.263.167h-.123a2.51 2.51 0 01-.263-.167 8.5 8.5 0 00-4.974-1.518H6.5zm20.361 5.5a2.96 2.96 0 011.895-.622h1.413v-2.816h-1.413a5.597 5.597 0 00-3.36 1.07 3.193 3.193 0 01-3.79 0 5.966 5.966 0 00-6.816 0 3.193 3.193 0 01-3.79 0 5.597 5.597 0 00-3.403-1.07H6.14v2.816h1.412a2.956 2.956 0 011.895.623 5.947 5.947 0 006.807 0c.541-.42 1.21-.64 1.895-.623.685-.02 1.355.2 1.895.623a5.965 5.965 0 006.816 0zm0 5.036c.54-.42 1.21-.64 1.895-.623h1.413V21.47h-1.413a5.597 5.597 0 00-3.36 1.07 3.193 3.193 0 01-3.79 0 5.966 5.966 0 00-6.816 0 3.193 3.193 0 01-3.79 0 5.598 5.598 0 00-3.403-1.07H6.14v2.816h1.412a2.956 2.956 0 011.895.623 5.948 5.948 0 006.807 0c.541-.42 1.21-.64 1.895-.623a2.939 2.939 0 011.895.623 5.965 5.965 0 006.816 0z" fill="#394149"/></svg>