<svg width="128" height="31" fill="none" xmlns="http://www.w3.org/2000/svg"><g clip-path="url(#clip0_42_457)" fill="#394149"><path d="M37.85 21.682h8.988v-2.696h-5.793V8.83H37.85v12.85zm14.312-1.798c-1.281 0-1.949-1.114-1.949-2.785 0-1.672.668-2.804 1.949-2.804 1.281 0 1.967 1.132 1.967 2.804 0 1.67-.686 2.785-1.967 2.785zm.018 2.085c2.978 0 4.927-2.103 4.927-4.87 0-2.768-1.95-4.871-4.927-4.871-2.96 0-4.945 2.103-4.945 4.87 0 2.768 1.985 4.871 4.945 4.871zm10.08 2.894c1.372 0 2.581-.306 3.394-1.024.74-.665 1.227-1.672 1.227-3.056V12.48h-2.816v.988h-.036c-.541-.773-1.371-1.258-2.598-1.258-2.292 0-3.88 1.905-3.88 4.601 0 2.822 1.93 4.367 4.006 4.367 1.119 0 1.823-.449 2.364-1.06h.072v.917c0 1.114-.523 1.761-1.768 1.761-.975 0-1.462-.413-1.624-.899h-2.852c.289 1.924 1.967 2.966 4.512 2.966zm-.017-5.86c-1.101 0-1.823-.898-1.823-2.282 0-1.402.722-2.3 1.823-2.3 1.227 0 1.877 1.042 1.877 2.282 0 1.294-.596 2.3-1.877 2.3zm10.426.881c-1.281 0-1.95-1.114-1.95-2.785 0-1.672.669-2.804 1.95-2.804s1.967 1.132 1.967 2.804c0 1.67-.686 2.785-1.967 2.785zm.018 2.085c2.978 0 4.926-2.103 4.926-4.87 0-2.768-1.948-4.871-4.926-4.871-2.96 0-4.945 2.103-4.945 4.87 0 2.768 1.985 4.871 4.945 4.871zm5.786-.287h2.941V12.48h-2.941v9.202zm0-10.478h2.941V8.83h-2.941v2.373zM82.69 24.72h2.942v-3.99h.036c.578.772 1.426 1.24 2.617 1.24 2.418 0 4.024-1.906 4.024-4.89 0-2.767-1.498-4.87-3.952-4.87-1.263 0-2.166.557-2.797 1.384h-.054V12.48H82.69v12.24zm4.837-5.015c-1.263 0-1.985-1.025-1.985-2.516 0-1.492.65-2.625 1.93-2.625 1.264 0 1.86 1.043 1.86 2.625 0 1.563-.686 2.516-1.805 2.516zm9.571 2.265c2.418 0 4.205-1.043 4.205-3.056 0-2.355-1.913-2.768-3.537-3.038-1.173-.215-2.22-.305-2.22-.952 0-.575.56-.845 1.281-.845.812 0 1.372.252 1.48 1.079h2.707c-.144-1.816-1.552-2.948-4.169-2.948-2.183 0-3.988 1.006-3.988 2.947 0 2.157 1.715 2.589 3.32 2.858 1.228.216 2.347.306 2.347 1.133 0 .593-.56.916-1.444.916-.974 0-1.588-.45-1.696-1.366h-2.78c.09 2.031 1.787 3.271 4.494 3.271zm8.201-.019c1.281 0 2.093-.503 2.761-1.402h.054v1.133h2.816V12.48h-2.942v5.14c0 1.096-.614 1.851-1.624 1.851-.939 0-1.39-.557-1.39-1.564V12.48h-2.923v6.04c0 2.048 1.119 3.432 3.248 3.432zm6.91-.269h2.942v-5.159c0-1.096.541-1.869 1.461-1.869.885 0 1.3.575 1.3 1.564v5.464h2.941v-5.159c0-1.096.524-1.869 1.462-1.869.884 0 1.299.575 1.299 1.564v5.464h2.942v-5.985c0-2.067-1.047-3.487-3.14-3.487-1.191 0-2.184.503-2.906 1.617h-.036c-.469-.988-1.389-1.617-2.598-1.617-1.336 0-2.22.629-2.798 1.582h-.054V12.48h-2.815v9.202zM19.903 1.48L16.946.691l-2.493 9.263-2.25-8.363-2.957.79 2.431 9.035-6.055-6.03-2.165 2.156 6.642 6.615-8.271-2.208-.793 2.946 9.037 2.411a6.097 6.097 0 01-.158-1.383c0-3.368 2.742-6.099 6.124-6.099 3.381 0 6.123 2.73 6.123 6.099 0 .473-.054.933-.156 1.375l8.213 2.192.792-2.946-9.073-2.421 8.272-2.207-.793-2.946-9.073 2.421 6.055-6.03-2.164-2.156-6.55 6.523 2.219-8.248z"/><path d="M21.997 17.332a6.08 6.08 0 01-1.523 2.795l5.95 5.926 2.165-2.156-6.592-6.565zm-1.584 2.858a6.125 6.125 0 01-2.736 1.61l2.165 8.048 2.957-.79-2.386-8.869zm-2.846 1.64a6.158 6.158 0 01-3.163-.028l-2.167 8.055 2.958.79 2.372-8.817zm-3.267-.057a6.128 6.128 0 01-2.688-1.636l-5.965 5.94 2.165 2.157 6.488-6.462zm-2.738-1.688a6.078 6.078 0 01-1.485-2.76l-8.24 2.198.792 2.946 8.933-2.384z"/></g><defs><clipPath id="clip0_42_457"><path fill="#fff" transform="translate(.797)" d="M0 0h126.324v30.704H0z"/></clipPath></defs></svg>