<svg width="44" height="43" fill="none" xmlns="http://www.w3.org/2000/svg"><path d="M19.287 1.504a4 4 0 015.426 0l1.145 1.057a4 4 0 003.406 1l1.535-.27a4 4 0 014.564 2.933l.392 1.508a4 4 0 002.325 2.683l1.437.603a4 4 0 012.254 4.935l-.486 1.481a4 4 0 00.506 3.514l.883 1.284a4 4 0 01-.773 5.37l-1.209.983a4 4 0 00-1.474 3.23l.049 1.557a4 4 0 01-3.554 4.1l-1.548.174a4 4 0 00-2.986 1.919l-.802 1.337a4 4 0 01-5.205 1.528l-1.397-.691a4 4 0 00-3.55 0l-1.397.691a4 4 0 01-5.205-1.528l-.801-1.337a4 4 0 00-2.987-1.92l-1.548-.173a4 4 0 01-3.554-4.1l.05-1.558a4 4 0 00-1.475-3.229l-1.21-.983a4 4 0 01-.772-5.37l.884-1.284a4 4 0 00.505-3.514l-.486-1.48a4 4 0 012.254-4.936l1.437-.603a4 4 0 002.325-2.682l.392-1.509A4 4 0 0113.2 3.291l1.535.27a4 4 0 003.406-1l1.145-1.057z" fill="#FBD5D2"/></svg>