<svg width="136" height="31" viewBox="0 0 136 31" fill="none" xmlns="http://www.w3.org/2000/svg">
<path d="M0.396472 28.7397C-0.0438875 29.073 -0.130661 29.7002 0.202658 30.1406C0.535977 30.5809 1.16317 30.6677 1.60353 30.3344L0.396472 28.7397ZM135.997 2.07227C136.037 1.52143 135.623 1.04253 135.072 1.00262L126.096 0.352152C125.545 0.312237 125.066 0.726423 125.026 1.27726C124.986 1.8281 125.4 2.30701 125.951 2.34692L133.93 2.92511L133.352 10.9042C133.312 11.455 133.726 11.9339 134.277 11.9738C134.828 12.0138 135.307 11.5996 135.347 11.0487L135.997 2.07227ZM3.23834 29.1173C3.68401 28.7912 3.78087 28.1654 3.45468 27.7198C3.12849 27.2741 2.50278 27.1772 2.05711 27.5034L3.23834 29.1173ZM5.31862 25.1981C4.86223 25.5091 4.74439 26.1312 5.0554 26.5876C5.36642 27.044 5.98852 27.1618 6.4449 26.8508L5.31862 25.1981ZM9.78304 24.6663C10.2509 24.3729 10.3924 23.7557 10.099 23.2878C9.80562 22.8199 9.18846 22.6784 8.72055 22.9718L9.78304 24.6663ZM12.1575 20.9138C11.6777 21.1874 11.5106 21.7981 11.7842 22.2779C12.0577 22.7576 12.6684 22.9248 13.1482 22.6512L12.1575 20.9138ZM16.6094 20.7814C17.1014 20.5305 17.2969 19.9283 17.046 19.4363C16.7952 18.9443 16.1929 18.7488 15.7009 18.9996L16.6094 20.7814ZM19.3701 17.2462C18.8656 17.471 18.6389 18.0622 18.8637 18.5667C19.0885 19.0711 19.6797 19.2979 20.1842 19.0731L19.3701 17.2462ZM23.8174 17.5754C24.3339 17.3798 24.5941 16.8026 24.3986 16.2861C24.203 15.7696 23.6258 15.5094 23.1093 15.7049L23.8174 17.5754ZM26.9287 14.3917C26.401 14.5547 26.1053 15.1147 26.2684 15.6423C26.4314 16.17 26.9913 16.4656 27.519 16.3026L26.9287 14.3917ZM31.2909 15.2727C31.8283 15.1453 32.1606 14.6064 32.0332 14.069C31.9058 13.5316 31.3668 13.1993 30.8295 13.3267L31.2909 15.2727ZM34.8059 12.5293C34.2609 12.6187 33.8915 13.133 33.9809 13.678C34.0703 14.223 34.5846 14.5924 35.1296 14.503L34.8059 12.5293ZM39.0222 14.007C39.5722 13.957 39.9775 13.4705 39.9274 12.9205C39.8773 12.3705 39.3908 11.9652 38.8408 12.0153L39.0222 14.007ZM42.8969 11.7906C42.3447 11.8018 41.9061 12.2585 41.9173 12.8107C41.9285 13.3628 42.3852 13.8014 42.9374 13.7902L42.8969 11.7906ZM46.8607 13.843C47.4124 13.8685 47.8803 13.442 47.9059 12.8903C47.9314 12.3386 47.5049 11.8707 46.9532 11.8451L46.8607 13.843ZM50.991 12.1561C50.4418 12.0976 49.9492 12.4953 49.8907 13.0445C49.8322 13.5937 50.2299 14.0863 50.7791 14.1448L50.991 12.1561ZM54.6839 14.6651C55.2294 14.7514 55.7416 14.3793 55.828 13.8338C55.9144 13.2883 55.5422 12.7761 54.9967 12.6897L54.6839 14.6651ZM58.9649 13.4038C58.4233 13.2956 57.8966 13.6469 57.7884 14.1885C57.6802 14.7301 58.0315 15.2569 58.5731 15.365L58.9649 13.4038ZM62.4483 16.2002C62.9866 16.3235 63.523 15.9872 63.6464 15.4488C63.7697 14.9105 63.4333 14.3741 62.895 14.2507L62.4483 16.2002ZM66.7931 15.1799C66.2567 15.0483 65.7152 15.3765 65.5836 15.9128C65.4521 16.4492 65.7803 16.9907 66.3166 17.1223L66.7931 15.1799ZM70.1897 18.0808C70.7258 18.2134 71.2679 17.8862 71.4005 17.3501C71.5331 16.814 71.2059 16.2719 70.6698 16.1393L70.1897 18.0808ZM74.5375 17.0762C73.9999 16.95 73.4617 17.2835 73.3354 17.8212C73.2092 18.3589 73.5427 18.8971 74.0804 19.0233L74.5375 17.0762ZM78.0013 19.8954C78.542 20.0078 79.0714 19.6605 79.1838 19.1198C79.2961 18.579 78.9489 18.0496 78.4081 17.9372L78.0013 19.8954ZM82.2906 18.6689C81.7459 18.578 81.2306 18.9459 81.1396 19.4906C81.0487 20.0354 81.4166 20.5507 81.9614 20.6416L82.2906 18.6689ZM85.964 21.2062C86.5128 21.2684 87.008 20.8739 87.0702 20.3252C87.1324 19.7764 86.7379 19.2811 86.1892 19.2189L85.964 21.2062ZM90.1012 19.539C89.5496 19.5121 89.0806 19.9375 89.0538 20.4892C89.0269 21.0408 89.4523 21.5098 90.004 21.5366L90.1012 19.539ZM94.066 21.5878C94.6182 21.5742 95.0547 21.1156 95.041 20.5634C95.0274 20.0113 94.5688 19.5748 94.0167 19.5884L94.066 21.5878ZM97.9181 19.3386C97.3688 19.3959 96.9699 19.8876 97.0272 20.4369C97.0845 20.9862 97.5762 21.3851 98.1255 21.3278L97.9181 19.3386ZM102.152 20.7419C102.694 20.6402 103.052 20.1177 102.95 19.5749C102.849 19.0321 102.326 18.6744 101.783 18.7761L102.152 20.7419ZM105.59 17.9037C105.057 18.0483 104.742 18.5976 104.886 19.1307C105.031 19.6637 105.58 19.9785 106.113 19.8339L105.59 17.9037ZM109.986 18.6225C110.507 18.4381 110.78 17.8666 110.595 17.346C110.411 16.8254 109.839 16.5529 109.319 16.7373L109.986 18.6225ZM112.96 15.3005C112.453 15.5207 112.221 16.1098 112.441 16.6163C112.662 17.1228 113.251 17.3549 113.757 17.1347L112.96 15.3005ZM117.425 15.3981C117.916 15.1464 118.111 14.5438 117.859 14.0522C117.607 13.5607 117.005 13.3662 116.513 13.6179L117.425 15.3981ZM119.988 11.7099C119.512 11.989 119.352 12.6016 119.631 13.0782C119.91 13.5547 120.523 13.7148 120.999 13.4356L119.988 11.7099ZM124.407 11.3226C124.869 11.0202 124.998 10.4005 124.696 9.9383C124.394 9.47613 123.774 9.34657 123.312 9.64892L124.407 11.3226ZM126.549 7.42597C126.101 7.7483 125.998 8.37316 126.321 8.82162C126.643 9.27008 127.268 9.37233 127.716 9.05L126.549 7.42597ZM130.974 6.60809C131.409 6.26835 131.487 5.63995 131.147 5.20453C130.807 4.7691 130.179 4.69153 129.743 5.03127L130.974 6.60809ZM132.792 2.56582C132.368 2.92026 132.312 3.55094 132.667 3.97449C133.021 4.39804 133.652 4.45407 134.075 4.09963L132.792 2.56582ZM1.60353 30.3344C2.15203 29.9192 2.69695 29.5136 3.23834 29.1173L2.05711 27.5034C1.50693 27.9061 0.953404 28.3181 0.396472 28.7397L1.60353 30.3344ZM6.4449 26.8508C7.57299 26.0821 8.68551 25.3545 9.78304 24.6663L8.72055 22.9718C7.60086 23.6739 6.46709 24.4154 5.31862 25.1981L6.4449 26.8508ZM13.1482 22.6512C14.3189 21.9836 15.4724 21.3611 16.6094 20.7814L15.7009 18.9996C14.5354 19.5939 13.3546 20.2312 12.1575 20.9138L13.1482 22.6512ZM20.1842 19.0731C21.4142 18.5249 22.6249 18.0268 23.8174 17.5754L23.1093 15.7049C21.8804 16.1702 20.6343 16.6829 19.3701 17.2462L20.1842 19.0731ZM27.519 16.3026C28.7962 15.9081 30.053 15.5662 31.2909 15.2727L30.8295 13.3267C29.548 13.6305 28.2483 13.9841 26.9287 14.3917L27.519 16.3026ZM35.1296 14.503C36.4468 14.2869 37.7436 14.1235 39.0222 14.007L38.8408 12.0153C37.5154 12.136 36.1711 12.3054 34.8059 12.5293L35.1296 14.503ZM42.9374 13.7902C44.262 13.7633 45.5689 13.7831 46.8607 13.843L46.9532 11.8451C45.6195 11.7833 44.2682 11.7628 42.8969 11.7906L42.9374 13.7902ZM50.7791 14.1448C52.0931 14.2849 53.3938 14.4608 54.6839 14.6651L54.9967 12.6897C53.6767 12.4807 52.3422 12.3001 50.991 12.1561L50.7791 14.1448ZM58.5731 15.365C59.872 15.6245 61.1626 15.9056 62.4483 16.2002L62.895 14.2507C61.5954 13.9529 60.2861 13.6677 58.9649 13.4038L58.5731 15.365ZM66.3166 17.1223C67.611 17.4397 68.897 17.7611 70.1897 18.0808L70.6698 16.1393C69.3843 15.8214 68.0891 15.4977 66.7931 15.1799L66.3166 17.1223ZM74.0804 19.0233C75.3825 19.329 76.6888 19.6227 78.0013 19.8954L78.4081 17.9372C77.1166 17.6689 75.8277 17.3791 74.5375 17.0762L74.0804 19.0233ZM81.9614 20.6416C83.285 20.8625 84.6183 21.0537 85.964 21.2062L86.1892 19.2189C84.8824 19.0709 83.584 18.8848 82.2906 18.6689L81.9614 20.6416ZM90.004 21.5366C91.3429 21.6018 92.6961 21.6217 94.066 21.5878L94.0167 19.5884C92.6986 19.621 91.3944 19.602 90.1012 19.539L90.004 21.5366ZM98.1255 21.3278C99.4503 21.1897 100.792 20.9967 102.152 20.7419L101.783 18.7761C100.478 19.0207 99.1901 19.206 97.9181 19.3386L98.1255 21.3278ZM106.113 19.8339C107.387 19.4883 108.678 19.0862 109.986 18.6225L109.319 16.7373C108.057 17.1843 106.814 17.5714 105.59 17.9037L106.113 19.8339ZM113.757 17.1347C114.963 16.6102 116.186 16.0325 117.425 15.3981L116.513 13.6179C115.311 14.2336 114.127 14.7933 112.96 15.3005L113.757 17.1347ZM120.999 13.4356C122.121 12.7788 123.256 12.0752 124.407 11.3226L123.312 9.64892C122.188 10.3841 121.08 11.0702 119.988 11.7099L120.999 13.4356ZM127.716 9.05C128.789 8.27914 129.874 7.46579 130.974 6.60809L129.743 5.03127C128.664 5.87338 127.6 6.67096 126.549 7.42597L127.716 9.05ZM134.075 4.09963C134.599 3.66189 135.125 3.2142 135.654 2.75636L134.346 1.24364C133.825 1.6945 133.307 2.13516 132.792 2.56582L134.075 4.09963Z" fill="#F5A276"/>
<path d="M0.396472 28.7397C-0.0438875 29.073 -0.130661 29.7002 0.202658 30.1406C0.535977 30.5809 1.16317 30.6677 1.60353 30.3344L0.396472 28.7397ZM135.997 2.07227C136.037 1.52143 135.623 1.04253 135.072 1.00262L126.096 0.352152C125.545 0.312237 125.066 0.726423 125.026 1.27726C124.986 1.8281 125.4 2.30701 125.951 2.34692L133.93 2.92511L133.352 10.9042C133.312 11.455 133.726 11.9339 134.277 11.9738C134.828 12.0138 135.307 11.5996 135.347 11.0487L135.997 2.07227ZM3.23834 29.1173C3.68401 28.7912 3.78087 28.1654 3.45468 27.7198C3.12849 27.2741 2.50278 27.1772 2.05711 27.5034L3.23834 29.1173ZM5.31862 25.1981C4.86223 25.5091 4.74439 26.1312 5.0554 26.5876C5.36642 27.044 5.98852 27.1618 6.4449 26.8508L5.31862 25.1981ZM9.78304 24.6663C10.2509 24.3729 10.3924 23.7557 10.099 23.2878C9.80562 22.8199 9.18846 22.6784 8.72055 22.9718L9.78304 24.6663ZM12.1575 20.9138C11.6777 21.1874 11.5106 21.7981 11.7842 22.2779C12.0577 22.7576 12.6684 22.9248 13.1482 22.6512L12.1575 20.9138ZM16.6094 20.7814C17.1014 20.5305 17.2969 19.9283 17.046 19.4363C16.7952 18.9443 16.1929 18.7488 15.7009 18.9996L16.6094 20.7814ZM19.3701 17.2462C18.8656 17.471 18.6389 18.0622 18.8637 18.5667C19.0885 19.0711 19.6797 19.2979 20.1842 19.0731L19.3701 17.2462ZM23.8174 17.5754C24.3339 17.3798 24.5941 16.8026 24.3986 16.2861C24.203 15.7696 23.6258 15.5094 23.1093 15.7049L23.8174 17.5754ZM26.9287 14.3917C26.401 14.5547 26.1053 15.1147 26.2684 15.6423C26.4314 16.17 26.9913 16.4656 27.519 16.3026L26.9287 14.3917ZM31.2909 15.2727C31.8283 15.1453 32.1606 14.6064 32.0332 14.069C31.9058 13.5316 31.3668 13.1993 30.8295 13.3267L31.2909 15.2727ZM34.8059 12.5293C34.2609 12.6187 33.8915 13.133 33.9809 13.678C34.0703 14.223 34.5846 14.5924 35.1296 14.503L34.8059 12.5293ZM39.0222 14.007C39.5722 13.957 39.9775 13.4705 39.9274 12.9205C39.8773 12.3705 39.3908 11.9652 38.8408 12.0153L39.0222 14.007ZM42.8969 11.7906C42.3447 11.8018 41.9061 12.2585 41.9173 12.8107C41.9285 13.3628 42.3852 13.8014 42.9374 13.7902L42.8969 11.7906ZM46.8607 13.843C47.4124 13.8685 47.8803 13.442 47.9059 12.8903C47.9314 12.3386 47.5049 11.8707 46.9532 11.8451L46.8607 13.843ZM50.991 12.1561C50.4418 12.0976 49.9492 12.4953 49.8907 13.0445C49.8322 13.5937 50.2299 14.0863 50.7791 14.1448L50.991 12.1561ZM54.6839 14.6651C55.2294 14.7514 55.7416 14.3793 55.828 13.8338C55.9144 13.2883 55.5422 12.7761 54.9967 12.6897L54.6839 14.6651ZM58.9649 13.4038C58.4233 13.2956 57.8966 13.6469 57.7884 14.1885C57.6802 14.7301 58.0315 15.2569 58.5731 15.365L58.9649 13.4038ZM62.4483 16.2002C62.9866 16.3235 63.523 15.9872 63.6464 15.4488C63.7697 14.9105 63.4333 14.3741 62.895 14.2507L62.4483 16.2002ZM66.7931 15.1799C66.2567 15.0483 65.7152 15.3765 65.5836 15.9128C65.4521 16.4492 65.7803 16.9907 66.3166 17.1223L66.7931 15.1799ZM70.1897 18.0808C70.7258 18.2134 71.2679 17.8862 71.4005 17.3501C71.5331 16.814 71.2059 16.2719 70.6698 16.1393L70.1897 18.0808ZM74.5375 17.0762C73.9999 16.95 73.4617 17.2835 73.3354 17.8212C73.2092 18.3589 73.5427 18.8971 74.0804 19.0233L74.5375 17.0762ZM78.0013 19.8954C78.542 20.0078 79.0714 19.6605 79.1838 19.1198C79.2961 18.579 78.9489 18.0496 78.4081 17.9372L78.0013 19.8954ZM82.2906 18.6689C81.7459 18.578 81.2306 18.9459 81.1396 19.4906C81.0487 20.0354 81.4166 20.5507 81.9614 20.6416L82.2906 18.6689ZM85.964 21.2062C86.5128 21.2684 87.008 20.8739 87.0702 20.3252C87.1324 19.7764 86.7379 19.2811 86.1892 19.2189L85.964 21.2062ZM90.1012 19.539C89.5496 19.5121 89.0806 19.9375 89.0538 20.4892C89.0269 21.0408 89.4523 21.5098 90.004 21.5366L90.1012 19.539ZM94.066 21.5878C94.6182 21.5742 95.0547 21.1156 95.041 20.5634C95.0274 20.0113 94.5688 19.5748 94.0167 19.5884L94.066 21.5878ZM97.9181 19.3386C97.3688 19.3959 96.9699 19.8876 97.0272 20.4369C97.0845 20.9862 97.5762 21.3851 98.1255 21.3278L97.9181 19.3386ZM102.152 20.7419C102.694 20.6402 103.052 20.1177 102.95 19.5749C102.849 19.0321 102.326 18.6744 101.783 18.7761L102.152 20.7419ZM105.59 17.9037C105.057 18.0483 104.742 18.5976 104.886 19.1307C105.031 19.6637 105.58 19.9785 106.113 19.8339L105.59 17.9037ZM109.986 18.6225C110.507 18.4381 110.78 17.8666 110.595 17.346C110.411 16.8254 109.839 16.5529 109.319 16.7373L109.986 18.6225ZM112.96 15.3005C112.453 15.5207 112.221 16.1098 112.441 16.6163C112.662 17.1228 113.251 17.3549 113.757 17.1347L112.96 15.3005ZM117.425 15.3981C117.916 15.1464 118.111 14.5438 117.859 14.0522C117.607 13.5607 117.005 13.3662 116.513 13.6179L117.425 15.3981ZM119.988 11.7099C119.512 11.989 119.352 12.6016 119.631 13.0782C119.91 13.5547 120.523 13.7148 120.999 13.4356L119.988 11.7099ZM124.407 11.3226C124.869 11.0202 124.998 10.4005 124.696 9.9383C124.394 9.47613 123.774 9.34657 123.312 9.64892L124.407 11.3226ZM126.549 7.42597C126.101 7.7483 125.998 8.37316 126.321 8.82162C126.643 9.27008 127.268 9.37233 127.716 9.05L126.549 7.42597ZM130.974 6.60809C131.409 6.26835 131.487 5.63995 131.147 5.20453C130.807 4.7691 130.179 4.69153 129.743 5.03127L130.974 6.60809ZM132.792 2.56582C132.368 2.92026 132.312 3.55094 132.667 3.97449C133.021 4.39804 133.652 4.45407 134.075 4.09963L132.792 2.56582ZM1.60353 30.3344C2.15203 29.9192 2.69695 29.5136 3.23834 29.1173L2.05711 27.5034C1.50693 27.9061 0.953404 28.3181 0.396472 28.7397L1.60353 30.3344ZM6.4449 26.8508C7.57299 26.0821 8.68551 25.3545 9.78304 24.6663L8.72055 22.9718C7.60086 23.6739 6.46709 24.4154 5.31862 25.1981L6.4449 26.8508ZM13.1482 22.6512C14.3189 21.9836 15.4724 21.3611 16.6094 20.7814L15.7009 18.9996C14.5354 19.5939 13.3546 20.2312 12.1575 20.9138L13.1482 22.6512ZM20.1842 19.0731C21.4142 18.5249 22.6249 18.0268 23.8174 17.5754L23.1093 15.7049C21.8804 16.1702 20.6343 16.6829 19.3701 17.2462L20.1842 19.0731ZM27.519 16.3026C28.7962 15.9081 30.053 15.5662 31.2909 15.2727L30.8295 13.3267C29.548 13.6305 28.2483 13.9841 26.9287 14.3917L27.519 16.3026ZM35.1296 14.503C36.4468 14.2869 37.7436 14.1235 39.0222 14.007L38.8408 12.0153C37.5154 12.136 36.1711 12.3054 34.8059 12.5293L35.1296 14.503ZM42.9374 13.7902C44.262 13.7633 45.5689 13.7831 46.8607 13.843L46.9532 11.8451C45.6195 11.7833 44.2682 11.7628 42.8969 11.7906L42.9374 13.7902ZM50.7791 14.1448C52.0931 14.2849 53.3938 14.4608 54.6839 14.6651L54.9967 12.6897C53.6767 12.4807 52.3422 12.3001 50.991 12.1561L50.7791 14.1448ZM58.5731 15.365C59.872 15.6245 61.1626 15.9056 62.4483 16.2002L62.895 14.2507C61.5954 13.9529 60.2861 13.6677 58.9649 13.4038L58.5731 15.365ZM66.3166 17.1223C67.611 17.4397 68.897 17.7611 70.1897 18.0808L70.6698 16.1393C69.3843 15.8214 68.0891 15.4977 66.7931 15.1799L66.3166 17.1223ZM74.0804 19.0233C75.3825 19.329 76.6888 19.6227 78.0013 19.8954L78.4081 17.9372C77.1166 17.6689 75.8277 17.3791 74.5375 17.0762L74.0804 19.0233ZM81.9614 20.6416C83.285 20.8625 84.6183 21.0537 85.964 21.2062L86.1892 19.2189C84.8824 19.0709 83.584 18.8848 82.2906 18.6689L81.9614 20.6416ZM90.004 21.5366C91.3429 21.6018 92.6961 21.6217 94.066 21.5878L94.0167 19.5884C92.6986 19.621 91.3944 19.602 90.1012 19.539L90.004 21.5366ZM98.1255 21.3278C99.4503 21.1897 100.792 20.9967 102.152 20.7419L101.783 18.7761C100.478 19.0207 99.1901 19.206 97.9181 19.3386L98.1255 21.3278ZM106.113 19.8339C107.387 19.4883 108.678 19.0862 109.986 18.6225L109.319 16.7373C108.057 17.1843 106.814 17.5714 105.59 17.9037L106.113 19.8339ZM113.757 17.1347C114.963 16.6102 116.186 16.0325 117.425 15.3981L116.513 13.6179C115.311 14.2336 114.127 14.7933 112.96 15.3005L113.757 17.1347ZM120.999 13.4356C122.121 12.7788 123.256 12.0752 124.407 11.3226L123.312 9.64892C122.188 10.3841 121.08 11.0702 119.988 11.7099L120.999 13.4356ZM127.716 9.05C128.789 8.27914 129.874 7.46579 130.974 6.60809L129.743 5.03127C128.664 5.87338 127.6 6.67096 126.549 7.42597L127.716 9.05ZM134.075 4.09963C134.599 3.66189 135.125 3.2142 135.654 2.75636L134.346 1.24364C133.825 1.6945 133.307 2.13516 132.792 2.56582L134.075 4.09963Z" fill="#C28DD1"/>
</svg>
