<svg width="49" height="25" viewBox="0 0 49 25" fill="none" xmlns="http://www.w3.org/2000/svg">
<path d="M2 13C2 14.7071 2.88468 16.2722 3.60494 17.7727C4.44141 19.5154 5.08408 21.2827 6 23" stroke="#BECFBC" stroke-width="3" stroke-linecap="round"/>
<path d="M3 18.2504C3.04702 17.8191 4.74071 16.7264 5.09853 16.3617C6.42293 15.012 7.14653 13.859 7.16981 11.8899C7.17327 11.5977 6.90047 10.0321 7.41509 10.0012C8.51147 9.93551 9.68655 12.5136 10.2358 13.2509C12.3214 16.0502 14.0899 19.08 16 22" stroke="#BECFBC" stroke-width="3" stroke-linecap="round"/>
<path d="M19 21C19 20.2113 19.2744 19.2435 19.4938 18.5019C20.0982 16.4597 20.4846 14.2947 20.8765 12.1924C21.2651 10.1082 21.9406 8.17191 22.5062 6.16613C22.8197 5.05444 23.961 4.35716 24.4444 5.86996C25.138 8.04 25.4178 10.343 26.1235 12.5143C26.7062 14.3074 27.59 17.2739 29 18.4504" stroke="#BECFBC" stroke-width="3" stroke-linecap="round"/>
<path d="M25.288 3.75555C23.2492 3.17829 21.2834 2.8799 19.1314 3.04539C16.3899 3.2562 16.529 4.92627 18.215 6.79717C19.6132 8.34887 21.5977 11.1786 23.9457 10.9911C25.0834 10.9003 25.6263 8.57966 25.8818 7.72172C26.2092 6.62198 25.7527 5.56961 25.7527 4.47911" stroke="#BECFBC" stroke-width="3" stroke-linecap="round"/>
<path d="M35.1696 19C34.7423 18.8928 34.3481 15.0303 34.2933 14.4746C34.0042 11.5484 33.9799 8.59445 34.0097 5.65667C34.018 4.84814 34.0841 2.558 34.9376 2.06225C36.1772 1.34225 38.4663 7.093 38.8295 7.71248C38.9059 7.84269 41.0033 10.9508 41.2008 10.2079C41.6761 8.4195 41.1595 6.52518 41.5616 4.73867C41.9397 3.059 42.7108 4.44418 43.0694 5.30757C44.278 8.21782 45.5299 11.0939 47 13.8799" stroke="#BECFBC" stroke-width="3" stroke-linecap="round"/>
</svg>
