<svg width="46" height="55" viewBox="0 0 46 55" fill="none" xmlns="http://www.w3.org/2000/svg">
<path d="M32.0297 6.21907C38.7976 2.26415 46.9884 8.4363 45.5001 15.9913C44.8704 19.1846 42.5709 21.6561 39.5411 22.821C39.4967 22.838 39.4745 22.8703 39.4745 22.9179V26.6972C39.4745 26.7344 39.4866 26.7667 39.5108 26.7941C40.9809 28.4337 41.5367 30.1775 41.5355 32.3487C41.5339 33.7962 41.5327 35.2432 41.5319 36.6899C41.5311 37.8395 41.4911 38.6447 41.412 39.1057C41.0741 41.0808 39.7457 43.3803 37.7102 44.0258C37.6706 44.0379 37.6432 44.0633 37.6278 44.102C34.7288 51.3616 28.1534 55.5866 20.315 54.326C14.5909 53.4069 10.3539 49.3611 8.28075 44.125C8.2709 44.0997 8.25543 44.077 8.2355 44.0585C8.21557 44.0401 8.1917 44.0264 8.16571 44.0185C6.23426 43.4154 4.95672 41.2806 4.54137 39.4242C4.42673 38.9091 4.36659 38.1071 4.36094 37.0181C4.34802 34.329 4.34722 32.4847 4.35852 31.4853C4.38274 29.4388 5.36481 27.0617 6.38805 25.318C6.40662 25.2865 6.4159 25.2526 6.4159 25.2163V20.829C6.4159 20.7871 6.39653 20.7588 6.35778 20.7443C-2.1866 17.5401 -1.58113 5.78919 6.9802 3.25227C9.94942 2.37192 12.6692 3.19173 15.0402 5.04325C15.0611 5.05951 15.0876 5.06685 15.1139 5.06368C15.1402 5.0605 15.1642 5.04707 15.1807 5.0263C17.9707 1.42981 22.1423 -0.171046 26.5126 1.50005C28.989 2.44821 30.4809 3.98852 31.9255 6.19485C31.9522 6.23602 31.9869 6.2441 32.0297 6.21907ZM34.655 40.8301C35.126 40.7138 35.6382 40.6303 36.0294 40.4002C37.6084 39.4726 37.4292 37.8149 37.4147 36.1765C37.3905 33.2872 35.0788 31.0045 32.5007 30.037C31.4678 29.6483 30.3004 29.7549 29.2166 29.7609C29.1755 29.7609 29.1395 29.7746 29.1089 29.8021C27.9028 30.8871 26.1215 31.3351 24.5182 31.5374C20.9811 31.9866 17.3979 31.9321 13.8426 32.1816C12.0964 32.3039 8.53383 32.6514 8.48539 35.0866C8.47328 35.6945 8.47046 36.3024 8.47692 36.9103C8.49387 38.4627 8.4975 39.5029 9.7484 40.3324C10.1698 40.6121 10.7099 40.7029 11.2209 40.8228C11.2544 40.8306 11.2852 40.8471 11.3103 40.8707C11.3354 40.8943 11.3538 40.9242 11.3638 40.9572C13.0761 46.7637 17.8847 50.9886 24.1913 50.3565C28.88 49.8855 32.3687 46.5506 34.0386 42.2893C34.2178 41.8315 34.3938 41.3714 34.5666 40.9088C34.5827 40.8676 34.6122 40.8414 34.655 40.8301Z" fill="#FC8343"/>
</svg>
