<svg width="62" height="62" viewBox="0 0 62 62" fill="none" xmlns="http://www.w3.org/2000/svg">
<path d="M28.4296 46.4637C28.4296 46.4733 28.4333 46.4825 28.4399 46.4894C28.4465 46.4962 28.4554 46.5 28.4647 46.5H33.4828C33.5442 46.5 33.5749 46.4693 33.5749 46.408C33.574 37.3195 33.5736 28.2604 33.5736 19.2309C33.5736 18.1184 33.6152 17.3136 33.6984 16.8163C34.2372 13.5964 36.7863 10.965 40.0643 10.4359C40.5107 10.364 41.3164 10.3277 42.4813 10.3269C48.1097 10.322 53.737 10.3212 59.363 10.3244C59.3797 10.3244 59.3957 10.3311 59.4075 10.3429C59.4193 10.3547 59.4259 10.3707 59.4259 10.3874C59.4284 22.4233 59.428 34.4584 59.4247 46.4927C59.4247 48.8613 57.7573 50.9526 55.471 51.5084C55.0181 51.619 54.2153 51.6747 53.0625 51.6755C47.2112 51.678 41.3604 51.678 35.5099 51.6755C35.4688 51.6755 35.4373 51.6933 35.4155 51.7288C33.3496 55.0456 28.6367 55.1061 26.5853 51.7252C26.576 51.71 26.563 51.6974 26.5475 51.6887C26.532 51.68 26.5146 51.6755 26.4969 51.6755L18.1645 51.678C18.1404 51.678 18.1173 51.6683 18.1002 51.651C18.0832 51.6337 18.0736 51.6103 18.0736 51.5859V38.4436C18.0736 38.4122 18.0833 38.3814 18.1016 38.3556C18.1198 38.3298 18.1455 38.3102 18.1754 38.2995C21.1882 37.2327 23.1463 34.456 23.2419 31.2628C23.3255 28.4546 22.2114 25.173 20.9218 22.7039C19.8683 20.6876 17.7854 17.8589 15.2001 18.1035C13.2638 18.2851 11.6847 20.058 10.7317 21.6007C9.07921 24.2769 8.09471 27.1379 7.77826 30.1838C7.40165 33.8154 9.45419 37.0401 12.8763 38.3213C12.8912 38.3266 12.904 38.3364 12.9131 38.3494C12.9222 38.3624 12.9271 38.378 12.9272 38.394V51.5823C12.9272 51.642 12.8969 51.6719 12.8363 51.6719C11.2137 51.68 9.56923 51.6824 7.90298 51.6792C5.00279 51.6743 2.57607 49.4365 2.57486 46.4927C2.57324 34.4762 2.57284 22.4548 2.57365 10.4286C2.57365 10.3592 2.60876 10.3244 2.679 10.3244C8.58514 10.322 14.5135 10.3224 20.464 10.3257C24.3633 10.3281 27.6727 12.9631 28.3109 16.8163C28.3876 17.2805 28.426 18.0857 28.426 19.2321C28.4235 28.3085 28.4247 37.3857 28.4296 46.4637ZM54.2504 20.7288C54.2504 20.715 54.2449 20.7018 54.2352 20.692C54.2254 20.6822 54.2121 20.6768 54.1983 20.6768H38.8025C38.7887 20.6768 38.7754 20.6822 38.7657 20.692C38.7559 20.7018 38.7504 20.715 38.7504 20.7288V25.7712C38.7504 25.785 38.7559 25.7982 38.7657 25.808C38.7754 25.8177 38.7887 25.8232 38.8025 25.8232H54.1983C54.2121 25.8232 54.2254 25.8177 54.2352 25.808C54.2449 25.7982 54.2504 25.785 54.2504 25.7712V20.7288ZM54.2504 33.6471C54.2504 33.6275 54.2426 33.6087 54.2288 33.5949C54.2149 33.581 54.1961 33.5732 54.1765 33.5732H38.8243C38.8047 33.5732 38.7859 33.581 38.772 33.5949C38.7582 33.6087 38.7504 33.6275 38.7504 33.6471V38.6773C38.7504 38.6969 38.7582 38.7157 38.772 38.7296C38.7859 38.7434 38.8047 38.7512 38.8243 38.7512H54.1765C54.1961 38.7512 54.2149 38.7434 54.2288 38.7296C54.2426 38.7157 54.2504 38.6969 54.2504 38.6773V33.6471Z" fill="#FC8343"/>
</svg>
