<svg width="43" height="42" viewBox="0 0 43 42" fill="none" xmlns="http://www.w3.org/2000/svg">
<path d="M9.08316 25.7546C10.269 22.9918 8.88522 18.0258 7.63064 15.1223C6.36101 12.1841 3.95434 10.349 2 8.1084" stroke="#F49563" stroke-width="3" stroke-linecap="round"/>
<path d="M9.08316 25.7546C10.269 22.9918 8.88522 18.0258 7.63064 15.1223C6.36101 12.1841 3.95434 10.349 2 8.1084" stroke="#C28DD1" stroke-width="3" stroke-linecap="round"/>
<path d="M14.2356 18.6099C13.6191 15.1002 15.293 11.888 16.9857 8.79153C18.3889 6.22448 19.5829 3.65556 22.1165 1.99998" stroke="#F49563" stroke-width="3" stroke-linecap="round"/>
<path d="M14.2356 18.6099C13.6191 15.1002 15.293 11.888 16.9857 8.79153C18.3889 6.22448 19.5829 3.65556 22.1165 1.99998" stroke="#C28DD1" stroke-width="3" stroke-linecap="round"/>
<path d="M8.97472 39.5938C12.2781 32.3313 18.2799 26.9073 25.4013 24.198C28.4727 23.0296 31.5334 22.1403 34.8586 22.0807C36.9184 22.0439 38.9052 23.2461 40.6841 24.3104" stroke="#F49563" stroke-width="3" stroke-linecap="round"/>
<path d="M8.97472 39.5938C12.2781 32.3313 18.2799 26.9073 25.4013 24.198C28.4727 23.0296 31.5334 22.1403 34.8586 22.0807C36.9184 22.0439 38.9052 23.2461 40.6841 24.3104" stroke="#C28DD1" stroke-width="3" stroke-linecap="round"/>
</svg>
