<svg width="26" height="40" viewBox="0 0 26 40" fill="none" xmlns="http://www.w3.org/2000/svg">
<path d="M2 19.7043C3.48234 20.3445 5.34465 19.8274 6.77273 19.2655C9.79932 18.0748 11.3675 16.0099 12.5455 13.0539C13.9721 9.47352 14 5.79816 14 2" stroke="#F49563" stroke-width="3" stroke-linecap="round"/>
<path d="M2 19.7043C3.48234 20.3445 5.34465 19.8274 6.77273 19.2655C9.79932 18.0748 11.3675 16.0099 12.5455 13.0539C13.9721 9.47352 14 5.79816 14 2" stroke="#BECFBC" stroke-width="3" stroke-linecap="round"/>
<path d="M14.4044 2C13.9539 3.55057 14.0014 5.35349 14.0014 6.96252C14.0014 10.5085 14.0543 14.0089 14.4641 17.5311C14.6412 19.054 14.7562 20.3912 16.419 20.7025C18.5791 21.107 20.815 20.9817 23 20.9817" stroke="#F49563" stroke-width="3" stroke-linecap="round"/>
<path d="M14.4044 2C13.9539 3.55057 14.0014 5.35349 14.0014 6.96252C14.0014 10.5085 14.0543 14.0089 14.4641 17.5311C14.6412 19.054 14.7562 20.3912 16.419 20.7025C18.5791 21.107 20.815 20.9817 23 20.9817" stroke="#BECFBC" stroke-width="3" stroke-linecap="round"/>
<path d="M11.399 37C12.2005 34.6559 11.9746 32.15 11.959 29.7122C11.9433 27.2612 11.5453 24.9576 9.43927 23.3465C8.22036 22.414 6.73502 22.0521 5.41084 21.3088C4.61082 20.8598 3.87764 20.2797 3 20" stroke="#F49563" stroke-width="3" stroke-linecap="round"/>
<path d="M11.399 37C12.2005 34.6559 11.9746 32.15 11.959 29.7122C11.9433 27.2612 11.5453 24.9576 9.43927 23.3465C8.22036 22.414 6.73502 22.0521 5.41084 21.3088C4.61082 20.8598 3.87764 20.2797 3 20" stroke="#BECFBC" stroke-width="3" stroke-linecap="round"/>
<path d="M11 38C11 36.0456 11.6887 34.1384 12.211 32.2782C12.9025 29.8155 14.0775 27.3427 15.4938 25.2269C16.5043 23.7174 17.5155 22.6988 19.404 22.6723C20.9905 22.65 22.5103 22.6537 24 22" stroke="#F49563" stroke-width="3" stroke-linecap="round"/>
<path d="M11 38C11 36.0456 11.6887 34.1384 12.211 32.2782C12.9025 29.8155 14.0775 27.3427 15.4938 25.2269C16.5043 23.7174 17.5155 22.6988 19.404 22.6723C20.9905 22.65 22.5103 22.6537 24 22" stroke="#BECFBC" stroke-width="3" stroke-linecap="round"/>
</svg>
