<svg width="42" height="41" viewBox="0 0 42 41" fill="none" xmlns="http://www.w3.org/2000/svg">
<path d="M26.3375 39.3814C23.7062 37.8777 21.0798 36.1937 18.7818 34.2117C15.3985 31.2936 12.6286 27.6338 9.79918 24.1998C6.61082 20.3301 3.54095 16.4023 2.50078 11.3808C1.90168 8.48854 1.41743 5.37627 3.6704 3.1233C5.63909 1.15461 9.56284 2.15994 11.7174 3.21687C14.1998 4.43467 16.0211 6.21223 17.8695 8.22282C18.9521 9.4004 20.1231 10.5862 20.3959 12.2229C20.4835 12.7483 20.5325 13.4501 20.0216 13.7785C19.8155 13.911 19.2376 14.0369 19.0859 13.7551C18.5739 12.8041 19.216 11.2123 19.7526 10.4334C21.0078 8.61134 23.2381 7.89162 25.2849 7.3924C27.3212 6.89574 29.3621 6.52754 31.4371 7.05321C34.2754 7.77224 36.6952 10.6238 38.1507 13.0182C41.1607 17.9702 39.9595 24.1377 37.4957 29.0654" stroke="#F49563" stroke-width="3" stroke-linecap="round"/>
<path d="M26.3375 39.3814C23.7062 37.8777 21.0798 36.1937 18.7818 34.2117C15.3985 31.2936 12.6286 27.6338 9.79918 24.1998C6.61082 20.3301 3.54095 16.4023 2.50078 11.3808C1.90168 8.48854 1.41743 5.37627 3.6704 3.1233C5.63909 1.15461 9.56284 2.15994 11.7174 3.21687C14.1998 4.43467 16.0211 6.21223 17.8695 8.22282C18.9521 9.4004 20.1231 10.5862 20.3959 12.2229C20.4835 12.7483 20.5325 13.4501 20.0216 13.7785C19.8155 13.911 19.2376 14.0369 19.0859 13.7551C18.5739 12.8041 19.216 11.2123 19.7526 10.4334C21.0078 8.61134 23.2381 7.89162 25.2849 7.3924C27.3212 6.89574 29.3621 6.52754 31.4371 7.05321C34.2754 7.77224 36.6952 10.6238 38.1507 13.0182C41.1607 17.9702 39.9595 24.1377 37.4957 29.0654" stroke="#C28DD1" stroke-width="3" stroke-linecap="round"/>
</svg>
