<svg width="36" height="28" viewBox="0 0 36 28" fill="none" xmlns="http://www.w3.org/2000/svg">
<path d="M34 23.6763C31.2949 24.2884 29.1491 25.913 26.2101 25.9581C24.9037 25.9781 23.5339 26.057 22.2343 25.9264C20.2932 25.7312 18.5921 23.5725 17.596 22.0918C15.5947 19.117 13.7135 14.6939 13.6364 11.0635C13.5739 8.12228 18.4149 7.04954 20.8768 7.57754C23.2101 8.07796 23.0336 10.9982 22.9293 12.8382C22.7371 16.2302 19.4059 17.9501 16.4162 18.7643C5.62986 21.7018 4.43493 9.16182 2 2" stroke="#F49563" stroke-width="3" stroke-linecap="round"/>
<path d="M34 23.6763C31.2949 24.2884 29.1491 25.913 26.2101 25.9581C24.9037 25.9781 23.5339 26.057 22.2343 25.9264C20.2932 25.7312 18.5921 23.5725 17.596 22.0918C15.5947 19.117 13.7135 14.6939 13.6364 11.0635C13.5739 8.12228 18.4149 7.04954 20.8768 7.57754C23.2101 8.07796 23.0336 10.9982 22.9293 12.8382C22.7371 16.2302 19.4059 17.9501 16.4162 18.7643C5.62986 21.7018 4.43493 9.16182 2 2" stroke="#C28DD1" stroke-width="3" stroke-linecap="round"/>
</svg>
