<svg width="50" height="17" viewBox="0 0 50 17" fill="none" xmlns="http://www.w3.org/2000/svg">
<path d="M1.87134 14.9822C4.83893 11.5538 8.52083 8.86422 12.6452 6.76354C15.9847 5.06262 19.9522 3.28614 23.8331 3.43824C27.3848 3.57745 31.4435 5.87447 32.0142 9.33395C32.3434 11.3294 29.6952 12.2352 28.0293 12.5351C26.9755 12.7247 26.3187 12.8192 25.373 12.2456C23.5888 11.1634 24.9783 9.57657 26.1087 8.47104C31.533 3.16616 40.9954 -0.0545785 48.3679 2.34379" stroke="#F49563" stroke-width="3" stroke-linecap="round"/>
<path d="M1.87134 14.9822C4.83893 11.5538 8.52083 8.86422 12.6452 6.76354C15.9847 5.06262 19.9522 3.28614 23.8331 3.43824C27.3848 3.57745 31.4435 5.87447 32.0142 9.33395C32.3434 11.3294 29.6952 12.2352 28.0293 12.5351C26.9755 12.7247 26.3187 12.8192 25.373 12.2456C23.5888 11.1634 24.9783 9.57657 26.1087 8.47104C31.533 3.16616 40.9954 -0.0545785 48.3679 2.34379" stroke="#BECFBC" stroke-width="3" stroke-linecap="round"/>
</svg>
