<svg width="62" height="62" viewBox="0 0 62 62" fill="none" xmlns="http://www.w3.org/2000/svg">
<path d="M44.4726 5.92024C45.4672 7.57438 46.4589 9.23256 47.4479 10.8948C48.9082 13.3493 49.6966 15.609 49.5803 18.5334C49.5795 18.5697 49.5609 18.5879 49.5246 18.5879H31.0954C31.0752 18.5879 31.0559 18.58 31.0414 18.566C31.0269 18.552 31.0185 18.5329 31.0179 18.5128C30.9105 15.9464 31.524 13.556 32.8585 11.3416C33.9386 9.55023 35.0172 7.76732 36.0941 5.9929C36.1073 5.97091 36.1123 5.94493 36.1081 5.91963C36.1038 5.89432 36.0907 5.87135 36.0711 5.85485C35.2646 5.17349 34.9869 4.40536 35.238 3.55043C35.5686 2.42547 36.4707 2.0634 37.5521 2.06098C39.4662 2.05694 41.379 2.05654 43.2907 2.05977C45.4183 2.0634 46.2757 4.61 44.4871 5.85122C44.4605 5.86978 44.4556 5.89279 44.4726 5.92024Z" fill="#FC8343"/>
<path d="M21.3471 9.88355C23.6043 8.0623 26.7285 7.73172 29.2703 9.18363C29.3123 9.20785 29.3207 9.24054 29.2957 9.28172C28.4295 10.7219 27.7946 12.2582 27.3909 13.8905C27.3886 13.8992 27.3843 13.9073 27.3784 13.9141C27.3724 13.9208 27.365 13.926 27.3567 13.9294C27.3485 13.9327 27.3396 13.9339 27.3308 13.9331C27.322 13.9322 27.3135 13.9293 27.3061 13.9245L21.3508 9.95258C21.345 9.94895 21.3403 9.94402 21.3369 9.93817C21.3334 9.93233 21.3315 9.92576 21.3311 9.919C21.3308 9.91224 21.332 9.9055 21.3348 9.89933C21.3376 9.89316 21.3418 9.88775 21.3471 9.88355Z" fill="#FC8343"/>
<path d="M26.6743 18.5879H10.4115C10.4041 18.5879 10.3968 18.5859 10.3904 18.5823C10.3839 18.5787 10.3785 18.5735 10.3746 18.5672C10.3708 18.5609 10.3685 18.5537 10.3682 18.5463C10.3679 18.5389 10.3694 18.5316 10.3727 18.5249C11.3342 16.5842 12.307 14.6427 13.2911 12.7003C14.0733 11.1552 15.4187 10.9687 16.8052 11.8914C20.1321 14.1058 23.4319 16.3057 26.7046 18.491C26.8023 18.5556 26.7922 18.5879 26.6743 18.5879Z" fill="#FC8343"/>
<path d="M6.47441 31.0061C5.00675 31.0291 4.13851 30.1475 4.14456 28.7295C4.14941 27.5452 4.14981 26.3609 4.14577 25.1766C4.13972 23.5334 4.90745 22.7354 6.55917 22.7354C22.7704 22.7354 38.9816 22.7354 55.1928 22.7354C55.8524 22.7354 56.3259 22.7943 56.6133 22.9121C57.5178 23.2851 57.8496 24.0577 57.8496 25.0301C57.8513 26.2572 57.8529 27.4846 57.8545 28.7125C57.8569 30.1427 57.0153 31.0291 55.5174 31.0048C55.4997 31.0046 55.4826 31.0107 55.469 31.022C55.4554 31.0334 55.4464 31.0492 55.4435 31.0666C54.411 37.2723 53.3756 43.4763 52.3375 49.6787C52.019 51.5799 51.2185 53.0245 49.2447 53.567C48.8306 53.6809 48.2065 53.7378 47.3726 53.7378C36.6268 53.7337 25.8813 53.7341 15.1362 53.739C13.985 53.739 13.1826 53.678 12.7289 53.5561C11.5059 53.2276 10.6275 52.4788 10.0939 51.3098C9.91307 50.9151 9.75363 50.2983 9.61558 49.4595C8.60566 43.3273 7.58363 37.1968 6.54948 31.0678C6.54222 31.0258 6.51719 31.0052 6.47441 31.0061ZM24.7886 33.015C24.7886 32.4841 24.5777 31.975 24.2023 31.5996C23.827 31.2242 23.3178 31.0133 22.7869 31.0133H22.6828C22.1519 31.0133 21.6428 31.2242 21.2674 31.5996C20.892 31.975 20.6811 32.4841 20.6811 33.015V45.5167C20.6811 46.0476 20.892 46.5567 21.2674 46.9321C21.6428 47.3075 22.1519 47.5184 22.6828 47.5184H22.7869C23.3178 47.5184 23.827 47.3075 24.2023 46.9321C24.5777 46.5567 24.7886 46.0476 24.7886 45.5167V33.015ZM33.0533 33.015C33.0533 32.4841 32.8424 31.975 32.467 31.5996C32.0916 31.2242 31.5825 31.0133 31.0516 31.0133H30.9475C30.4166 31.0133 29.9074 31.2242 29.5321 31.5996C29.1567 31.975 28.9458 32.4841 28.9458 33.015V45.5167C28.9458 46.0476 29.1567 46.5567 29.5321 46.9321C29.9074 47.3075 30.4166 47.5184 30.9475 47.5184H31.0516C31.5825 47.5184 32.0916 47.3075 32.467 46.9321C32.8424 46.5567 33.0533 46.0476 33.0533 45.5167V33.015ZM41.3082 33.0138C41.3073 32.4827 41.0954 31.9736 40.7191 31.5986C40.3428 31.2237 39.833 31.0135 39.3018 31.0145L39.1977 31.0146C38.6665 31.0156 38.1574 31.2275 37.7825 31.6037C37.4075 31.98 37.1974 32.4898 37.1983 33.021L37.2201 45.5179C37.221 46.0491 37.433 46.5581 37.8092 46.9331C38.1855 47.3081 38.6953 47.5182 39.2265 47.5173L39.3306 47.5171C39.8618 47.5162 40.3709 47.3042 40.7459 46.928C41.1208 46.5517 41.331 46.0419 41.33 45.5107L41.3082 33.0138Z" fill="#FC8343"/>
</svg>
