<svg width="947" height="68" viewBox="0 0 947 68" fill="none" xmlns="http://www.w3.org/2000/svg">
<path d="M532.238 27.0153C535.619 27.0153 538.661 23.2244 542.233 22.8277C547.118 22.2848 551.884 20.7686 556.808 20.7686" stroke="#C28DD1" stroke-width="3" stroke-linecap="round"/>
<path d="M582.211 20.7686C585.435 20.7686 588.659 20.7686 591.882 20.7686C593.732 20.7686 596.922 20.9975 598.453 22.0179" stroke="#C28DD1" stroke-width="3" stroke-linecap="round"/>
<path d="M615.943 27.4316C617.219 27.4316 617.442 27.7646 618.442 28.2645" stroke="#C28DD1" stroke-width="3" stroke-linecap="round"/>
<path d="M638.015 34.5112C639.265 34.5112 640.579 35.2923 641.763 35.8531C644.841 37.3109 647.965 37.2786 651.249 37.9353C655.883 38.8622 661.184 39.5086 665.917 39.5086" stroke="#C28DD1" stroke-width="3" stroke-linecap="round"/>
<path d="M682.991 33.6786C690.137 33.6786 695.833 29.0977 702.981 29.0977" stroke="#C28DD1" stroke-width="3" stroke-linecap="round"/>
<path d="M721.721 23.2673C723.917 23.2673 725.894 22.5146 728.06 22.4344C729.847 22.3682 732.985 22.2021 734.631 21.509C737.014 20.5058 740.822 20.7686 743.376 20.7686C745.736 20.7686 748.096 20.7686 750.456 20.7686" stroke="#C28DD1" stroke-width="3" stroke-linecap="round"/>
<path d="M765.665 20.6573C776.472 20.406 787.297 20 798.166 20C808.627 20 818.722 22.6293 829.134 22.6293C833.261 22.6293 837.828 23.4845 841.915 24.0901C847.027 24.8473 852.269 24.7657 857.362 25.5873C866.507 27.0622 875.576 27.4709 884.642 29.5313C904.202 33.9769 924.338 38.8619 941.83 47.608" stroke="#C28DD1" stroke-width="3" stroke-linecap="round"/>
<path d="M933.912 48.6841H941.909" stroke="#C28DD1" stroke-width="3" stroke-linecap="round"/>
<path d="M944.69 46.9456C943.844 43.0891 940.719 41.5836 938.084 38.9487" stroke="#C28DD1" stroke-width="3" stroke-linecap="round"/>
<path d="M2 48.7591C16.402 50.6794 30.8272 50.6677 45.3122 51.7023C58.7432 52.6617 72.1643 52.4933 85.6086 53.0104C95.588 53.3942 105.797 54.06 115.658 52.1747C122.823 50.805 133.368 49.1143 136.37 41.2013C138.77 34.8728 133.991 30.765 129.393 27.1757C122.972 22.1629 116.062 17.7348 108.427 14.7852C85.5913 5.96213 59.6058 1.66797 35.2109 1.66797C25.4968 1.66797 10.4928 2.63115 5.99694 13.5498C4.06041 18.2527 5.55064 24.3192 8.46777 28.2294C16.2619 38.6769 29.6354 46.2714 41.2426 51.5933C60.2325 60.3001 82.7829 63.1175 103.34 64.6379C121.423 65.9752 139.546 65.7643 157.662 65.7643" stroke="#F49563" stroke-width="3" stroke-linecap="round"/>
</svg>
