<svg width="21" height="21" viewBox="0 0 21 21" fill="none" xmlns="http://www.w3.org/2000/svg">
<path d="M10.4 4.02133C12.3529 4.02133 13.6702 4.86489 14.4213 5.56978L17.3565 2.704C15.5538 1.02844 13.208 0 10.4 0C6.33246 0 2.81957 2.33422 1.10934 5.73156L4.47201 8.34311C5.31557 5.83556 7.64979 4.02133 10.4 4.02133Z" fill="white"/>
<path d="M20.3844 10.6311C20.3844 9.77599 20.3151 9.15199 20.1648 8.50488H10.4004V12.3644H16.1319C16.0164 13.3235 15.3924 14.768 14.0057 15.7387L17.2875 18.2809C19.2519 16.4667 20.3844 13.7973 20.3844 10.6311Z" fill="white"/>
<path d="M4.48356 12.4568C4.264 11.8097 4.13689 11.1163 4.13689 10.3999C4.13689 9.68345 4.264 8.99011 4.472 8.343L1.10933 5.73145C0.404444 7.14122 0 8.72433 0 10.3999C0 12.0754 0.404444 13.6586 1.10933 15.0683L4.48356 12.4568Z" fill="white"/>
<path d="M10.4 20.7999C13.208 20.7999 15.5653 19.8755 17.2871 18.2808L14.0053 15.7386C13.1271 16.351 11.9484 16.7786 10.4 16.7786C7.64977 16.7786 5.31555 14.9643 4.48355 12.4568L1.12088 15.0683C2.8311 18.4657 6.33244 20.7999 10.4 20.7999Z" fill="white"/>
</svg>
