<svg width="21" height="18" viewBox="0 0 21 18" fill="none" xmlns="http://www.w3.org/2000/svg">
<path d="M21 15.7295C21 16.6941 20.2172 17.4773 19.25 17.4775H1.74902C0.78361 17.4773 0 16.6941 0 15.7295L0.0136719 5.24316C0.0135814 5.24358 8.79341 9.91602 10.5 9.91602C12.3719 9.91529 20.9863 5.24316 20.9863 5.24316L21 15.7295ZM19.25 0C20.2172 0.000196833 21 0.783414 21 1.74805L20.9863 2.62207C20.9863 2.62207 12.2898 7.5119 10.5 7.5127C8.79382 7.5127 0.00508265 2.52925 0 2.52637V1.74805C0 0.783448 0.782737 0.000252037 1.74902 0H19.25Z" fill="#889CB9"/>
</svg>
