<svg width="184" height="221" viewBox="0 0 184 221" fill="none" xmlns="http://www.w3.org/2000/svg">
<path d="M17.3362 213.185C15.8213 207.883 12.9706 203.118 11.3722 197.849C9.5473 191.834 7.96157 185.745 6.5108 179.632C5.25753 174.35 4.83667 168.954 4.05505 163.594C3.70612 161.201 3.97277 158.042 2.90234 155.901" stroke="#F49563" stroke-width="3" stroke-linecap="round"/>
<path d="M135.062 200.105C135.062 196.563 135.062 193.021 135.062 189.48C135.062 181.349 133.221 173.639 132.005 165.624C130.904 158.364 129.877 151.154 127.945 144.073C127.614 142.857 127.154 137.964 126.041 137.408" stroke="#F49563" stroke-width="3" stroke-linecap="round"/>
<path d="M2 155.45C4.45985 149.868 8.2433 146.634 13.6774 143.873C22.1665 139.56 30.6396 135.084 40.0642 133.148C48.495 131.415 56.6532 130.395 65.2483 129.965C75.5773 129.449 85.982 129.647 96.3211 129.74C98.0255 129.755 99.9401 130.218 101.583 130.642C104.33 131.35 107.132 131.917 109.903 132.546C112.535 133.144 115.034 134.648 117.671 135.127C118.629 135.301 118.691 135.746 119.375 136.405C120.122 137.125 121.231 137.029 121.956 137.633C122.655 138.216 123.791 138.321 124.237 139.212" stroke="#F49563" stroke-width="3" stroke-linecap="round"/>
<path d="M2.25 156.908C11.6098 159.637 22.0219 159.767 31.6682 159.822C43.8916 159.89 56.1266 159.799 68.3484 159.59C73.5968 159.501 78.9019 159.469 84.1213 158.804C91.7333 157.835 99.073 156.007 106.231 153.253C110.031 151.792 112.562 150.38 115.158 147.333C118.266 143.685 122.017 141.025 126.306 139.007" stroke="#F49563" stroke-width="3" stroke-linecap="round"/>
<path d="M23.2386 153.788C23.217 149.328 23.0606 145.124 22.1539 140.772C21.6833 138.513 20.9963 136.218 20.6475 133.951C20.333 131.906 19.5508 130.295 19.5508 128.19" stroke="#C28DD1" stroke-width="3" stroke-linecap="round"/>
<path d="M33.6513 152.703C32.5925 148.688 32.858 144.636 32.1328 140.555C31.0201 134.292 28.8789 127.865 28.8789 121.465" stroke="#C28DD1" stroke-width="3" stroke-linecap="round"/>
<path d="M24.7578 154.005C27.6025 153.627 30.6461 153.617 33.435 152.92" stroke="#C28DD1" stroke-width="3" stroke-linecap="round"/>
<path d="M19.9854 126.238C19.9854 125.424 20.154 124.162 20.4674 123.418C20.8553 122.496 22.1846 122.866 22.9742 122.55C24.7453 121.841 25.3578 120.355 26.0594 118.693C26.5434 117.547 26.7107 117.78 26.9271 118.862" stroke="#C28DD1" stroke-width="3" stroke-linecap="round"/>
<path d="M21.9381 116.042C22.4024 115.165 22.8219 114.262 22.5407 113.222C22.252 112.154 21.1589 111.183 20.6365 110.197C20.0408 109.072 19.7284 108.065 19.4314 106.834C19.141 105.632 18.8946 104.065 19.1662 102.809C19.3418 101.997 19.6558 101.244 19.8773 100.447C19.9263 100.271 19.9767 99.1455 20.0942 99.1455C20.3896 99.1455 21.0315 101.735 21.0704 101.929C21.5138 104.147 22.5734 106.719 23.8905 108.522C24.1911 108.933 24.3243 108.65 24.3243 109.317C24.3243 109.872 24.5412 110.374 24.5412 110.956C24.5412 112.1 24.1074 112.974 24.1074 114.09" stroke="#C28DD1" stroke-width="3" stroke-linecap="round"/>
<path d="M55.5898 143.768C56.4066 143.672 57.2561 142.633 58.0002 142.261C59.4381 141.542 61.1681 141.382 62.7485 141.382C64.2076 141.382 65.7704 141.157 67.0871 141.815" stroke="#C28DD1" stroke-width="3" stroke-linecap="round"/>
<path d="M56.2412 141.382C56.2412 139.244 55.9778 137.121 55.7591 134.994C55.5408 132.871 54.7573 130.774 54.3009 128.691C53.7472 126.165 53.5053 123.577 52.9873 121.039C52.5417 118.855 51.6857 117.196 51.6857 114.916C51.6857 113.809 51.4688 112.773 51.4688 111.662" stroke="#C28DD1" stroke-width="3" stroke-linecap="round"/>
<path d="M67.3042 138.995C66.5376 133.821 63.8384 129.409 62.5318 124.413C61.8593 121.842 61.8432 119.079 61.881 116.435C61.9159 113.991 62.777 110.634 61.6641 108.408" stroke="#C28DD1" stroke-width="3" stroke-linecap="round"/>
<path d="M51.0352 110.578C52.4104 110.211 53.3073 108.409 54.735 108.409C56.8183 108.409 58.9972 108.262 61.0139 107.758" stroke="#C28DD1" stroke-width="3" stroke-linecap="round"/>
<path d="M56.8913 105.588C56.8246 104.988 56.1894 104.276 55.903 103.744C55.2209 102.478 54.748 100.73 54.722 99.2973C54.6734 96.6247 56.0236 94.1949 56.0236 91.4878C56.0236 90.0597 57.305 92.3424 57.4456 92.5725C58.1381 93.7056 58.6267 94.6395 58.6267 95.9951C58.6267 98.0156 59.0606 99.9916 59.0606 101.985C59.0606 102.568 57.8999 103.036 57.3251 103.419" stroke="#C28DD1" stroke-width="3" stroke-linecap="round"/>
<path d="M93.1705 146.078C93.1705 143.501 92.3028 140.861 92.3028 138.257C92.3028 135.431 91.6455 132.577 91.3868 129.76C91.0734 126.347 89.618 123.243 89.2778 119.842C89.1787 118.851 89.3623 117.95 89.0488 117.01" stroke="#C28DD1" stroke-width="3" stroke-linecap="round"/>
<path d="M104.667 143.475C104.667 137.225 100.486 131.988 99.7259 125.904C99.3849 123.176 99.8946 120.388 99.8946 117.66C99.8946 115.419 99.8946 113.177 99.8946 110.936" stroke="#C28DD1" stroke-width="3" stroke-linecap="round"/>
<path d="M97.7255 110.285C97.1279 109.968 96.4206 109.513 95.7249 109.465C95.0074 109.416 94.37 111.808 94.0377 112.454C93.3923 113.709 92.8436 114.884 92.471 116.262C92.3035 116.882 91.9889 116.792 91.4346 116.792" stroke="#C28DD1" stroke-width="3" stroke-linecap="round"/>
<path d="M91.8687 106.597C91.7861 105.853 91.1389 105.016 90.784 104.379C90.255 103.43 89.9114 102.428 89.5909 101.403C89.2901 100.44 89.4824 99.1902 89.4824 98.1848C89.4824 97.5949 89.7751 97.4142 90.085 96.9555C90.4383 96.4327 90.5153 95.713 90.7117 95.1237C91.0195 94.2003 91.5957 93.2892 91.8566 92.3759C91.9243 92.139 91.7816 90.0976 92.0012 90.1464C92.8592 90.337 94.2688 92.4474 94.8695 93.1231C95.2966 93.6036 95.3061 94.0637 95.3395 94.6657C95.391 95.592 95.7607 96.4239 95.2311 97.3773C95.03 97.7393 95.053 98.2616 94.9057 98.6669C94.6793 99.2894 94.1071 99.7756 93.7728 100.354C92.7212 102.174 92.9533 104.135 92.9533 106.163" stroke="#C28DD1" stroke-width="3" stroke-linecap="round"/>
<path d="M92.4238 146.306C93.726 144.92 94.7615 142.923 96.8241 142.923C98.483 142.923 100.086 143.238 101.663 143.769C102.66 144.104 103.876 145.098 104.967 145.037C105.425 145.012 105.662 143.698 105.813 143.346" stroke="#C28DD1" stroke-width="3" stroke-linecap="round"/>
<path d="M22.8779 212.932C29.4693 216.51 37.8181 217.052 45.1662 217.962C51.0917 218.695 57.0342 218.805 62.9968 218.79C75.1175 218.761 87.2274 217.837 99.1808 215.871C105.075 214.902 111.131 214.024 116.844 212.232C118.404 211.742 119.977 211.291 121.538 210.802C123.209 210.279 124.751 209.442 126.41 208.889C130.832 207.415 135.648 206.273 138.53 202.281C139.331 201.173 140.2 200.184 141.016 199.096C141.268 198.759 141.792 198.21 142.17 198.021" stroke="#F49563" stroke-width="3" stroke-linecap="round"/>
<path d="M15.1777 172.211C19.121 170.777 22.445 170.647 26.4145 172.087C33.7145 174.736 41.1215 177.34 48.9319 177.811C51.9291 177.992 55.0338 178.23 58.0145 177.794C62.4516 177.144 66.7577 175.825 71.2031 175.182C77.0989 174.33 82.7309 173.313 88.278 171.094C89.3143 170.679 90.1932 170.269 91.3114 170.083C92.8828 169.821 93.8697 170.493 95.0218 171.498C98.3527 174.406 102.001 175.597 105.986 173.125C109.078 171.207 113.049 169.561 114.954 166.284C115.809 164.814 116.322 163.38 116.783 161.765" stroke="#F49563" stroke-width="3" stroke-linecap="round"/>
<path d="M22.1416 185.505C24.6385 187.046 27.1015 188.322 29.9053 189.206C33.0308 190.192 36.2595 190.643 39.4891 191.132C45.593 192.057 51.7306 193.186 57.8916 193.664C60.0892 193.835 62.4425 194.074 64.6266 193.699C67.1798 193.262 69.7552 192.075 71.9507 190.727C73.4563 189.804 74.7084 188.544 76.2502 187.668C77.2807 187.082 78.4601 187.142 79.6001 186.999C81.0693 186.816 82.5219 186.707 84.0051 186.806C86.2765 186.958 88.1878 187.987 90.2829 188.758C93.4635 189.929 95.987 188.696 98.9786 187.562C102.423 186.257 106.042 185.424 109.345 183.799C110.735 183.115 112.203 182.55 113.337 181.443C115.318 179.507 116.484 176.771 117.891 174.426" stroke="#F49563" stroke-width="3" stroke-linecap="round"/>
<path d="M23.8828 201.331C28.1335 202.096 31.624 204.774 35.6998 206.009C38.3132 206.8 41.3014 207.054 44.0175 207.152C48.4855 207.313 53.0694 207.09 57.4435 206.132C64.3744 204.613 71.1444 201.955 78.3167 201.815C83.4338 201.714 88.0085 204.65 93.0617 205.217C98.0558 205.779 102.359 204.552 106.831 202.316C111.042 200.21 116.514 197.929 119.448 194.069C120.995 192.033 122.369 189.868 123.985 187.888C125.282 186.298 126.438 184.606 126.438 182.498" stroke="#F49563" stroke-width="3" stroke-linecap="round"/>
<path d="M40.0664 140.841C40.1063 140.697 40.827 139.213 41.0248 139.701C41.1177 139.93 41.1284 140.245 41.1154 140.491C41.0922 140.933 40.2232 140.133 40.17 140.077C40.0302 139.928 41.4911 139.863 41.8148 140.025" stroke="#C28DD1" stroke-width="3" stroke-linecap="round"/>
<path d="M74.8008 136.878C75.9024 136.878 77.9425 136.46 78.6213 137.551C79.0717 138.275 78.4247 138.277 77.8831 138.277C77.535 138.277 77.2625 138.123 77.1061 137.81C76.8259 137.25 77.2706 137.228 77.7148 137.228" stroke="#C28DD1" stroke-width="3" stroke-linecap="round"/>
<path d="M63.0283 152.497C64.2122 152.023 64.1759 150.259 65.5667 149.868C66.5476 149.592 68.0162 150.527 68.0404 151.59C68.0548 152.223 66.5911 151.275 66.2013 151.189C66.0183 151.148 65.3909 150.966 65.8257 150.748" stroke="#C28DD1" stroke-width="3" stroke-linecap="round"/>
<path d="M82.7263 143.755C82.7263 143.517 82.5922 142.32 82.8105 142.252C83.7792 141.954 84.2308 143.357 84.2416 144.027C84.2602 145.184 83.1925 143.781 83.1925 143.288" stroke="#F49563" stroke-width="3" stroke-linecap="round"/>
<path d="M111.051 139.559C111.515 139.849 112.787 140.497 112.787 141.236C112.787 141.419 111.026 141.085 110.818 141.074C109.891 141.026 111.284 140.878 111.284 140.375" stroke="#F49563" stroke-width="3" stroke-linecap="round"/>
<path d="M43.7959 150.981C43.9141 150.587 45.1845 150.061 45.3889 150.606C45.5161 150.945 44.5791 150.865 44.3787 150.865" stroke="#F49563" stroke-width="3" stroke-linecap="round"/>
<path d="M14.3066 151.448C14.8196 151.448 15.2727 151.543 15.2391 152.147C15.2315 152.284 14.9839 152.53 14.8376 152.426C14.7177 152.34 14.7729 152.042 14.7729 151.914" stroke="#F49563" stroke-width="3" stroke-linecap="round"/>
<path d="M81.7941 150.399C81.4999 151.562 80.9886 152.147 79.7608 152.147C79.3654 152.147 79.1133 152.246 79.1133 151.798" stroke="#F49563" stroke-width="3" stroke-linecap="round"/>
<path d="M3 60.261C3 55.3807 4.20822 50.5291 6.34731 46.125C7.31044 44.1421 7.96446 41.7934 9.48863 40.0999C11.4914 37.8746 13.0559 35.4625 14.7027 32.9289C15.9639 30.9887 16.9926 28.8881 18.6422 27.2385C20.1824 25.6983 21.9484 24.9691 23.7404 23.8783C25.3186 22.9177 27.1397 22.3818 28.8387 21.6897C29.9336 21.2436 31.5863 20.8657 32.7782 20.8657C34.3665 20.8657 34.855 21.2382 35.7264 22.4364C36.3568 23.3032 36.3701 24.6438 36.3701 25.7322C36.3701 27.166 35.9993 28.078 35.2114 29.2597C34.614 30.1558 34.1112 31.119 33.5378 32.0406C32.8688 33.1157 31.8971 34.0923 31.0273 35.0017C29.3271 36.7792 27.7256 38.5897 26.1222 40.4604C24.0333 42.8974 21.7222 45.023 19.9683 47.7472C18.7559 49.6302 17.3588 51.4277 15.9773 53.193C14.7905 54.7094 13.4046 56.0481 12.2695 57.6089C11.1095 59.2038 9.46833 60.2578 8.21408 61.6514C7.52176 62.4207 5.58756 62.8093 5.30449 61.5355C5.06688 60.4663 3.40831 60.1231 3 59.1023" stroke="#F49563" stroke-width="3" stroke-linecap="round"/>
<path d="M15.7461 67.4449C15.7461 65.8036 17.277 63.3394 18.3081 62.1021C20.2046 59.8262 21.8758 57.377 23.844 55.1628C25.4125 53.3982 27.268 51.3143 28.4916 49.3179C30.4596 46.1071 33.2736 43.6218 35.727 40.7951C36.6816 39.6953 37.8482 38.7762 38.791 37.6538C39.7874 36.4677 40.5341 34.9619 41.5848 33.8559C43.6482 31.6838 45.0596 28.8672 47.3653 26.8909C49.176 25.3389 50.4994 24.5736 52.927 24.5736C55.1344 24.5736 56.7359 24.4639 58.1539 26.479C59.1683 27.9204 59.3126 29.3642 59.3126 31.0751C59.3126 32.503 59.3995 33.6175 58.7333 34.8987C57.9364 36.4312 56.8428 37.8527 55.8366 39.2502C53.9751 41.8356 51.5017 44.0461 49.7599 46.7431C46.3677 51.9955 43.1996 57.1399 38.791 61.5485C36.7675 63.572 34.3063 65.3152 31.7231 66.5308C28.181 68.1977 24.5596 69.2917 20.8572 70.5733C19.9035 70.9034 19.0308 71.52 18.0635 71.7964C16.8562 72.1413 16.9172 70.2272 16.9048 69.2988C16.8614 66.0423 17.1365 62.7896 17.1365 59.5658" stroke="#F49563" stroke-width="3" stroke-linecap="round"/>
<path d="M22.911 66.7895C22.2525 66.0487 22.1273 63.9599 22.911 63.1762C23.4502 62.637 23.9784 62.643 24.6842 62.5405C25.5631 62.4129 26.3744 62.2729 27.2771 62.2729C27.8442 62.2729 28.405 62.4493 28.9667 62.4234C30.6704 62.3448 31.8079 60.8586 32.2789 59.4458C32.6285 58.397 32.5465 57.313 32.5465 56.2172C32.5465 55.2486 32.1022 53.2443 32.9647 52.6373C33.5863 52.1999 34.3785 52.1012 34.9554 51.7005C35.46 51.3501 35.7551 51.1318 36.394 51.1318C37.2898 51.1318 38.2032 51.1998 39.0539 50.9477C40.31 50.5756 42.3326 49.8582 42.3326 48.2712C42.3326 46.1849 42.0854 43.4797 43.9971 42.1654C44.6635 41.7072 45.2274 41.1373 46.0714 41.0529C46.4519 41.0149 46.8803 41.1301 47.234 40.9693C48.084 40.5829 48.9052 40.6447 49.6346 39.9154C50.0555 39.4944 51.4699 38.5452 51.1987 37.7992C50.9926 37.2326 50.1615 37.0708 50.1615 36.4526C50.1615 36.0564 49.9373 35.7676 49.8687 35.3904C49.6336 34.0969 51.0135 33.5221 51.9598 32.9898C52.7251 32.5593 53.628 32.0112 54.5276 32.0112" stroke="#C28DD1" stroke-width="3" stroke-linecap="round"/>
<path d="M7.25195 57.4548C7.25195 56.6506 7.30697 55.8622 7.63671 55.1128C7.97067 54.3538 8.66884 53.4794 8.75751 52.637C8.84981 51.7602 9.67618 50.815 10.2631 50.2281C10.5659 49.9253 10.9422 49.4995 11.3169 49.2914C11.5118 49.1831 11.7696 49.2306 11.9275 49.099C12.2565 48.8249 13.0418 49.1193 13.3913 48.8397C13.9042 48.4293 14.702 48.1526 14.8968 47.4512C15.0789 46.7958 15.309 46.1068 15.223 45.4187C15.1107 44.5204 15.0166 44.0165 15.4489 43.152C15.8145 42.4208 15.95 41.6591 16.5529 41.0777C17.2415 40.4137 17.9776 39.7777 18.6189 39.087C18.9999 38.6767 19.5344 38.7859 20.0492 38.7859C20.9257 38.7859 22.0481 38.3595 22.6421 37.7655C23.4355 36.972 24.3254 36.478 24.7916 35.3901C25.0149 34.8692 25.3186 34.5537 25.3186 33.9682C25.3186 33.5351 25.2288 33.1909 25.1764 32.7721C24.9577 31.0228 26.6644 29.5581 28.2628 29.2675C28.6967 29.1886 29.1037 28.9191 29.5341 28.8576C29.873 28.8092 30.2007 28.9355 30.4375 28.6987" stroke="#C28DD1" stroke-width="3" stroke-linecap="round"/>
<path d="M133.009 92.862C134.082 89.5978 134.477 86.8247 134.401 83.386C134.286 78.2006 130.978 74.1454 127.323 70.719C122.788 66.4673 117.539 63.2742 112.625 59.5218C109.678 57.2708 107.504 54.1194 107.288 50.3359C106.768 41.2319 113.542 36.2857 120.361 31.7899C124.239 29.2336 127.88 26.5691 131.442 23.5902C133.013 22.2767 135.21 20.9278 136.141 19.0649" stroke="#C28DD1" stroke-width="3" stroke-linecap="round"/>
<path d="M130.994 48.0046C140.823 46.7669 150.49 44.1764 157.899 37.0968C159.841 35.2405 162.354 33.0137 163.17 30.3421C164.043 27.4858 163.941 22.4035 163.079 19.5712C161.051 12.9073 155.219 9.67209 150.14 5.6968C149.319 5.05401 147.424 3.14324 147.424 2" stroke="#C28DD1" stroke-width="3" stroke-linecap="round"/>
<path d="M152.671 90.3595C152.671 89.052 152.323 87.7405 151.941 86.5035C151.284 84.3752 151.223 82.0132 150.291 79.9748C149.146 77.4716 147.953 74.7488 146.303 72.5405C144.964 70.7468 143.268 69.1075 142.053 67.2386C141.342 66.145 141.593 64.4948 141.644 63.2658C141.742 60.9236 143.251 58.2551 144.96 56.6494C147.237 54.509 151.228 54.3085 154.088 53.553C156.354 52.9546 158.741 52.7318 161.084 52.7643C164.018 52.8051 163.906 54.3079 164.502 56.6933C164.627 57.1912 164.702 57.9321 165.349 57.701C166.008 57.4658 166.575 56.9624 167.146 56.5764C168.245 55.8325 169.427 55.5204 170.68 55.1304C172.753 54.4857 174.857 54.0206 176.946 53.4508C178.724 52.9659 180.039 53.8245 180.948 55.3933C183.137 59.1694 180.583 64.6901 178.728 67.9543C174.872 74.7385 169.655 78.6241 162.662 81.6836" stroke="#F49563" stroke-width="3" stroke-linecap="round"/>
</svg>
