<svg width="184" height="195" viewBox="0 0 184 195" fill="none" xmlns="http://www.w3.org/2000/svg">
<path d="M51.7229 141.501C51.5799 140.584 51.2318 139.533 51.6779 138.647C52.1413 137.727 52.7243 136.839 53.3857 136.056C55.3853 133.686 57.6333 132.031 60.4767 130.756C61.9287 130.106 63.4754 129.828 64.9455 129.244C65.9891 128.83 67.1818 128.359 68.2938 128.185C69.3916 128.014 70.3942 127.5 71.4935 127.328C73.171 127.067 74.8486 126.805 76.5261 126.543C77.9417 126.322 79.3966 125.985 80.8274 125.882C82.2813 125.776 83.6964 126.376 85.1441 126.41C86.2414 126.436 87.2817 126.727 88.3572 126.922C89.1713 127.07 90.0383 127.049 90.8169 127.353C93.6511 128.459 94.7107 131.778 95.1427 134.546" stroke="#F49563" stroke-width="3" stroke-linecap="round"/>
<path d="M82.7765 168.762C82.9707 167.855 83.0216 166.748 83.7549 166.081C84.5167 165.387 85.3784 164.767 86.2763 164.271C88.991 162.773 91.6822 162.031 94.7932 161.858C96.3818 161.769 97.9256 162.063 99.5072 162.043C100.63 162.029 101.912 162.016 103.013 162.251C104.099 162.484 105.219 162.362 106.307 162.595C107.968 162.95 109.628 163.305 111.288 163.661C112.689 163.961 114.168 164.166 115.542 164.581C116.937 165.002 118.044 166.068 119.384 166.618C120.4 167.034 121.267 167.678 122.202 168.245C122.909 168.674 123.726 168.964 124.345 169.526C126.596 171.573 126.399 175.051 125.813 177.791" stroke="#F49563" stroke-width="3" stroke-linecap="round"/>
<path d="M111.617 131.141C111.979 130.286 112.237 129.209 113.083 128.692C113.962 128.154 114.925 127.707 115.9 127.39C118.849 126.429 121.631 126.208 124.719 126.623C126.296 126.836 127.757 127.415 129.314 127.694C130.419 127.891 131.681 128.12 132.718 128.558C133.741 128.991 134.864 129.083 135.889 129.516C137.452 130.178 139.016 130.84 140.579 131.501C141.899 132.059 143.313 132.54 144.583 133.206C145.875 133.883 146.761 135.138 147.974 135.93C148.892 136.531 149.623 137.326 150.434 138.059C151.048 138.613 151.796 139.053 152.298 139.721C154.123 142.155 153.274 145.534 152.183 148.114" stroke="#F49563" stroke-width="3" stroke-linecap="round"/>
<path d="M95.3245 135.709C93.6415 135.971 91.9784 135.851 90.2822 135.933C88.5577 136.017 86.889 136.602 85.157 136.531C83.9601 136.482 82.6693 136.874 81.4916 137.058C78.8887 137.464 76.2858 137.87 73.6829 138.276C66.6886 139.368 59.6677 140.261 52.6846 141.351" stroke="#F49563" stroke-width="3" stroke-linecap="round"/>
<path d="M125.567 178.941C123.902 178.585 122.391 177.878 120.778 177.348C119.138 176.81 117.37 176.76 115.778 176.074C114.678 175.6 113.332 175.505 112.166 175.256C109.59 174.704 107.014 174.153 104.438 173.602C97.5159 172.121 90.6397 170.445 83.7285 168.966" stroke="#F49563" stroke-width="3" stroke-linecap="round"/>
<path d="M151.725 149.198C150.156 148.534 148.806 147.556 147.321 146.731C145.812 145.893 144.085 145.511 142.651 144.538C141.659 143.865 140.356 143.519 139.258 143.054C136.832 142.027 134.406 141.001 131.979 139.974C125.46 137.216 119.023 134.274 112.514 131.52" stroke="#F49563" stroke-width="3" stroke-linecap="round"/>
<path d="M52.3925 142.848C52.9144 142.569 53.5785 142.442 54.1373 142.303C54.9552 142.099 55.893 141.783 56.7492 141.952C57.3697 142.075 57.9614 142.322 58.5926 142.4C59.7767 142.547 61.0339 142.182 62.145 141.833C63.4536 141.422 64.7201 140.87 66.0226 140.429C67.6009 139.895 69.2291 139.831 70.8829 139.759C71.6975 139.724 72.5533 140.225 73.3296 140.151C74.8718 140.004 76.2546 139.566 77.7732 139.172C79.3849 138.754 81.0405 138.375 82.711 138.319C84.3558 138.264 85.9486 138.542 87.5928 138.388C88.212 138.33 88.8738 138.524 89.4791 138.43C90.6567 138.246 91.6673 137.206 92.8699 136.987C94.1299 136.759 97.1509 136.837 97.7643 138.417C97.8927 138.748 97.3737 139.278 97.4274 139.7C97.4763 140.084 97.4482 140.481 97.2633 140.81C97.184 140.951 96.8621 140.921 96.7234 140.951C96.4743 141.005 96.2177 141.301 95.9868 141.434C95.4425 141.747 95.0029 142.261 94.6449 142.759C94.2824 143.264 94.1869 143.909 93.4888 144.074C91.892 144.453 90.1835 144.114 88.6299 143.672C86.49 143.065 84.4977 143.499 82.3745 144.046C81.3194 144.318 80.1194 144.563 79.0282 144.613C77.8684 144.666 77.5072 143.96 76.6301 143.453C75.593 142.853 74.5749 144.172 73.8657 144.747C72.5398 145.82 71.0353 146.365 69.3422 146.454C66.7009 146.593 63.7778 145.303 61.2817 146.546C59.9645 147.202 57.9473 148.566 56.4883 147.484C55.6027 146.827 54.709 146.937 53.6803 147.098C52.9629 147.21 52.7125 147.688 52.2234 147.167C51.8418 146.76 51.6318 146.275 51.493 145.727C51.3335 145.099 50.8465 144.203 51.3995 143.688" stroke="#C28DD1" stroke-width="3" stroke-linecap="round"/>
<path d="M82.9209 170.26C83.508 170.186 84.1735 170.305 84.7452 170.375C85.5818 170.477 86.5708 170.516 87.3098 170.981C87.8453 171.318 88.3098 171.76 88.8713 172.058C89.9246 172.619 91.229 172.728 92.3916 172.799C93.7608 172.882 95.1408 172.82 96.5148 172.874C98.1799 172.939 99.7231 173.462 101.293 173.986C102.067 174.244 102.687 175.018 103.438 175.227C104.931 175.641 106.379 175.726 107.938 175.901C109.593 176.087 111.274 176.325 112.855 176.87C114.41 177.407 115.799 178.236 117.389 178.68C117.988 178.847 118.537 179.265 119.136 179.393C120.301 179.642 121.617 179.032 122.818 179.258C124.077 179.495 126.87 180.649 126.878 182.344C126.879 182.698 126.205 183.008 126.105 183.421C126.013 183.797 125.845 184.158 125.555 184.399C125.43 184.502 125.14 184.359 125 184.338C124.748 184.299 124.402 184.484 124.139 184.525C123.519 184.623 122.925 184.946 122.412 185.283C121.893 185.625 121.573 186.193 120.862 186.098C119.236 185.881 117.761 184.953 116.468 183.986C114.687 182.653 112.671 182.347 110.493 182.098C109.41 181.975 108.202 181.775 107.165 181.431C106.063 181.066 105.978 180.278 105.34 179.49C104.586 178.559 103.164 179.427 102.296 179.71C100.674 180.238 99.074 180.21 97.4609 179.688C94.9444 178.873 92.6761 176.623 89.9005 176.891C88.4358 177.033 86.0642 177.586 85.0885 176.054C84.4963 175.124 83.6222 174.907 82.6041 174.689C81.894 174.537 81.4892 174.894 81.2189 174.233C81.008 173.716 80.9852 173.188 81.0513 172.627C81.1272 171.983 80.9927 170.972 81.6933 170.689" stroke="#C28DD1" stroke-width="3" stroke-linecap="round"/>
<path d="M111.476 132.638C112.067 132.677 112.698 132.919 113.246 133.095C114.049 133.353 115.012 133.578 115.651 134.173C116.113 134.605 116.486 135.126 116.981 135.526C117.91 136.274 119.171 136.627 120.299 136.916C121.628 137.256 122.995 137.455 124.334 137.766C125.957 138.144 127.374 138.948 128.818 139.759C129.529 140.158 129.992 141.035 130.691 141.381C132.079 142.069 133.485 142.426 134.983 142.891C136.573 143.385 138.18 143.936 139.629 144.769C141.056 145.589 142.263 146.664 143.741 147.4C144.298 147.677 144.758 148.191 145.322 148.429C146.42 148.894 147.827 148.543 148.964 148.991C150.155 149.461 152.681 151.12 152.37 152.786C152.305 153.134 151.584 153.312 151.408 153.698C151.247 154.051 151.014 154.373 150.683 154.555C150.542 154.633 150.284 154.438 150.15 154.39C149.91 154.305 149.536 154.421 149.27 154.412C148.642 154.392 147.998 154.597 147.431 154.831C146.857 155.069 146.435 155.567 145.755 155.34C144.199 154.82 142.925 153.631 141.838 152.438C140.339 150.793 138.417 150.113 136.324 149.458C135.285 149.133 134.136 148.709 133.182 148.176C132.169 147.61 132.233 146.82 131.755 145.927C131.19 144.87 129.63 145.455 128.724 145.569C127.032 145.782 125.466 145.453 123.98 144.636C121.662 143.362 119.858 140.725 117.082 140.466C115.617 140.329 113.183 140.425 112.514 138.737C112.107 137.712 111.29 137.335 110.331 136.929C109.662 136.646 109.197 136.921 109.056 136.22C108.946 135.673 109.023 135.15 109.194 134.611C109.39 133.993 109.448 132.975 110.19 132.829" stroke="#C28DD1" stroke-width="3" stroke-linecap="round"/>
<path d="M96.4497 145.042C96.1086 145.122 95.7931 145.289 95.4621 145.399C94.4689 145.729 93.3728 145.844 92.3375 145.982C89.3179 146.384 86.3123 146.881 83.2932 147.287C79.7112 147.768 76.107 148.061 72.5277 148.573C71.863 148.668 71.2077 148.784 70.5371 148.833C69.3476 148.92 68.0192 149.064 66.8707 149.405C65.4483 149.828 63.9932 150.006 62.5206 150.236C62.2061 150.285 60.6328 150.616 60.3947 150.416C60.1578 150.217 59.3071 150.24 58.9791 150.232C57.8236 150.201 56.6463 150.359 55.5155 150.294C55.1133 150.271 54.718 150.268 54.3139 150.223C53.8776 150.175 54.1986 150.625 54.2918 150.789C54.5771 151.292 54.578 151.931 54.8364 152.47C54.9538 152.715 55.0776 153.15 55.119 153.416C55.1724 153.758 55.6133 153.911 55.8894 154.105C57.2479 155.063 58.7936 155.806 60.5105 156.112C62.0271 156.382 63.5689 156.054 65.0935 156.066C67.8495 156.089 70.5544 155.369 73.2958 155.185C74.9231 155.076 76.5267 154.683 78.1449 154.485C79.4164 154.329 80.6769 154.185 81.9456 153.987C83.061 153.813 84.1763 153.666 85.2704 153.39C86.7121 153.026 88.1112 152.536 89.5477 152.171C91.6648 151.633 93.3679 150.611 95.0452 149.333C96.1535 148.489 97.0203 146.576 96.8194 145.288" stroke="#F49563" stroke-width="3" stroke-linecap="round"/>
<path d="M123.282 188.06C122.934 188.013 122.58 188.056 122.232 188.04C121.186 187.993 120.121 187.709 119.105 187.468C116.142 186.763 113.157 186.153 110.192 185.453C106.675 184.622 103.204 183.606 99.6785 182.805C99.0237 182.656 98.3703 182.53 97.7265 182.336C96.5844 181.992 95.2925 181.652 94.0979 181.56C92.6184 181.446 91.1958 181.092 89.7383 180.78C89.427 180.714 87.8395 180.46 87.6886 180.188C87.5385 179.918 86.7356 179.635 86.4324 179.51C85.3642 179.068 84.2081 178.795 83.1754 178.33C82.8081 178.165 82.44 178.02 82.0786 177.834C81.6884 177.633 81.8274 178.168 81.8556 178.355C81.9422 178.926 81.7146 179.524 81.7633 180.119C81.7854 180.39 81.7452 180.841 81.689 181.103C81.6165 181.442 81.9737 181.743 82.1619 182.023C83.0883 183.403 84.2661 184.65 85.7601 185.549C87.08 186.344 88.6373 186.588 90.0567 187.145C92.6224 188.151 95.4058 188.446 98.0317 189.255C99.5905 189.735 101.229 189.941 102.811 190.334C104.054 190.643 105.282 190.96 106.538 191.229C107.642 191.465 108.736 191.726 109.857 191.859C111.333 192.035 112.815 192.077 114.287 192.25C116.457 192.505 118.412 192.16 120.436 191.566C121.773 191.173 123.266 189.696 123.539 188.422" stroke="#F49563" stroke-width="3" stroke-linecap="round"/>
<path d="M147.762 157.723C147.43 157.611 147.074 157.586 146.735 157.505C145.717 157.262 144.725 156.783 143.772 156.354C140.994 155.104 138.178 153.942 135.398 152.696C132.1 151.218 128.883 149.567 125.571 148.116C124.956 147.846 124.338 147.599 123.743 147.287C122.686 146.735 121.481 146.157 120.325 145.841C118.894 145.451 117.563 144.836 116.191 144.255C115.897 144.131 114.386 143.583 114.289 143.287C114.193 142.993 113.457 142.565 113.183 142.385C112.217 141.75 111.133 141.264 110.207 140.612C109.877 140.381 109.543 140.17 109.223 139.919C108.878 139.648 108.913 140.199 108.906 140.388C108.883 140.966 108.547 141.51 108.483 142.104C108.453 142.373 108.329 142.809 108.224 143.056C108.089 143.375 108.384 143.738 108.516 144.048C109.166 145.578 110.087 147.024 111.385 148.189C112.532 149.218 114.015 149.751 115.304 150.566C117.635 152.037 120.313 152.851 122.739 154.14C124.18 154.905 125.75 155.416 127.229 156.1C128.392 156.638 129.539 157.18 130.722 157.681C131.761 158.12 132.787 158.583 133.862 158.925C135.279 159.376 136.726 159.697 138.14 160.144C140.222 160.802 142.208 160.832 144.307 160.629C145.694 160.496 147.439 159.327 147.947 158.127" stroke="#F49563" stroke-width="3" stroke-linecap="round"/>
<path d="M133.39 3.10323C124.05 1.02755 114.454 1.722 106.155 6.54921C102.96 8.40763 99.4566 10.562 96.7915 13.1322C88.5942 21.0376 83.751 33.5493 81.6292 44.5024C80.415 50.7703 80.7211 56.1216 84.6712 61.1382C87.3137 64.4942 90.862 67.0683 94.5575 69.1471C105.084 75.0682 118.246 80.857 130.419 81.3862C140.95 81.8441 151.478 81.4562 157.441 71.3335C160.052 66.8999 161.895 61.009 163.334 56.0524C163.927 54.0118 164.244 50.6333 163.667 48.5426C162.954 45.9583 162.907 43.4178 162.907 40.7475" stroke="#F49563" stroke-width="3" stroke-linecap="round"/>
<path d="M132.021 2.89697C133.052 2.89697 134.072 3.6438 135.109 3.8098C135.895 3.93547 136.73 4.1131 137.498 4.32256C138.771 4.66963 139.803 5.07419 140.992 5.658C142.401 6.34948 144.233 7.36893 145.105 8.67822" stroke="#F49563" stroke-width="3" stroke-linecap="round"/>
<path d="M145.562 9.49805C143.223 14.243 140.358 18.5941 137.125 22.7716C135.157 25.3144 132.669 27.6694 131.031 30.4417C130.497 31.3463 130.207 32.4075 129.646 33.318C129.339 33.8171 129.353 35.1929 128.688 35.1929" stroke="#F49563" stroke-width="3" stroke-linecap="round"/>
<path d="M163.02 39.744C158.853 39.533 154.713 38.5745 150.613 37.8557C146.742 37.1771 142.819 36.8222 138.911 36.4195C135.989 36.1184 133.048 35.6748 130.107 35.6748" stroke="#F49563" stroke-width="3" stroke-linecap="round"/>
<path d="M146.868 25.2036C149.204 23.9294 151.053 21.6355 153.082 19.9469C155.629 17.8271 157.856 15.5494 159.869 12.9171C161.188 11.1913 162.743 9.63722 163.956 7.83305C164.509 7.01129 165.317 6.20178 165.792 5.36948C166 5.00533 166.83 4.49159 167.204 4.27108C167.678 3.99263 169.182 2.97365 169.182 2.46655" stroke="#F49563" stroke-width="3" stroke-linecap="round"/>
<path d="M169.604 2.18408C171.61 2.18408 173.491 3.75752 174.916 5.00856C175.989 5.95022 177.152 6.85416 178.015 8.00564C180.157 10.8613 181.485 14.5112 181.86 18.0482C182.053 19.8762 182.173 21.6605 182.173 23.5089" stroke="#F49563" stroke-width="3" stroke-linecap="round"/>
<path d="M147.15 26.3333C151.048 25.6955 155.137 25.8128 159.076 25.5644C162.856 25.3261 166.676 25.7565 170.437 25.2035C172.992 24.8277 175.619 24.6758 178.188 24.466C179.489 24.3598 180.882 24.0737 182.174 24.0737" stroke="#F49563" stroke-width="3" stroke-linecap="round"/>
<path d="M177.225 22.0088C177.225 21.1017 177.421 19.8913 177.164 19.0064C176.994 18.421 176.499 17.854 176.098 17.4204C175.516 16.792 174.979 15.8133 174.96 14.9431C174.948 14.3635 175.475 13.7088 175.19 13.1493C174.894 12.5675 174.24 12.0701 173.735 11.6836C173.111 11.2052 172.494 10.694 171.849 10.2453C171.247 9.82734 170.599 9.36468 169.907 9.11325C169.773 9.06454 169.842 8.67027 169.842 8.56636C169.842 7.8626 170.165 7.46609 170.629 7.00227C170.927 6.70415 171.318 6.29896 171.318 5.86475" stroke="#C28DD1" stroke-width="3" stroke-linecap="round"/>
<path d="M170.515 23.3093C169.848 22.4521 169.204 21.7454 169.013 20.6573C168.951 20.3012 168.691 19.8394 169.146 19.7352C169.617 19.6276 169.847 19.5759 169.954 19.0223C170.164 17.9452 169.903 16.9488 169.237 16.0899C168.417 15.0334 167.127 14.6554 166.376 13.5139C165.782 12.6128 165.468 11.4657 165.468 10.3914" stroke="#C28DD1" stroke-width="3" stroke-linecap="round"/>
<path d="M161.79 23.6513C161.701 23.7289 161.918 22.5133 161.942 22.3015C161.979 21.9702 161.961 21.6318 161.961 21.2987C161.961 20.5923 161.896 20.1295 161.172 19.8206C160.963 19.7314 160.317 19.7322 160.183 19.6114C160.087 19.5251 160.156 18.98 160.169 18.8605C160.202 18.5581 160.425 18.2006 160.549 17.9242C160.73 17.5218 160.827 17.0638 160.934 16.6362" stroke="#C28DD1" stroke-width="3" stroke-linecap="round"/>
<path d="M116.339 23.8791C115.346 22.579 114.005 21.5563 113.154 20.1506C112.646 19.3102 112.03 18.1379 112.131 17.1242C112.235 16.0862 113.536 15.8451 114.33 15.8451C114.855 15.8451 115.228 15.9951 115.675 16.2588C115.817 16.3432 116.045 16.5876 116.045 16.3785C116.045 15.5667 116.945 14.5183 117.514 14.0053C118.973 12.6907 120.773 12.5832 122.511 13.5699C124.118 14.4817 124.943 16.492 124.373 18.2509C123.967 19.504 122.784 20.8335 121.727 21.6257" stroke="#C28DD1" stroke-width="3" stroke-linecap="round"/>
<path d="M101.151 43.6702C100.042 43.6702 98.9783 44.1054 97.8693 44.1547C96.0705 44.2346 94.5023 43.4765 93.2263 42.2006C92.2337 41.208 92.1377 40.151 92.1377 38.7986C92.1377 37.7758 93.8087 37.3609 94.5871 37.2528C95.0091 37.1942 95.6263 37.0993 96.0349 37.2583C96.088 37.2789 96.364 37.5108 96.1547 37.4978C95.8831 37.4808 96.1676 36.4578 96.2091 36.322C96.4157 35.6461 96.9471 34.9604 97.3522 34.3843C97.6587 33.9483 97.8837 33.6531 98.4354 33.6821C99.609 33.7439 100.798 34.324 101.816 34.8742C102.491 35.2392 103.152 35.7201 102.997 36.5724C102.892 37.1471 102.323 37.5022 101.935 37.8897" stroke="#C28DD1" stroke-width="3" stroke-linecap="round"/>
<path d="M127.801 69.3398C127.565 68.0063 127.08 66.912 127.235 65.5187C127.353 64.4632 128.265 64.343 129.173 64.343C130.226 64.343 130.752 64.9035 131.073 65.8997C131.132 66.0845 131.154 66.304 131.133 66.4985C131.119 66.6184 130.664 66.5965 130.784 66.5965C131.583 66.5965 132.398 66.2972 133.19 66.4223C134.304 66.5981 134.742 67.9035 134.496 68.9098C134.074 70.6376 132.365 71.3619 130.828 71.8273C129.446 72.2455 127.864 72.4661 126.43 72.6709" stroke="#C28DD1" stroke-width="3" stroke-linecap="round"/>
<path d="M121.993 53.3305C121.344 51.972 120.513 50.6643 119.951 49.269C119.786 48.8583 119.673 48.3602 119.7 47.9151C119.766 46.8642 120.438 46.9305 121.314 46.9305C122.114 46.9305 122.828 46.9988 123.598 47.2223C123.75 47.2663 124.593 47.4516 124.619 47.669C124.634 47.7996 124.619 48.3221 124.619 48.2251C124.619 47.5364 124.96 47.2909 125.658 47.1402C126.285 47.0051 127.059 46.9192 127.691 47.0673C128.591 47.2779 128.829 48.1807 128.867 49.0046C128.947 50.6996 127.65 52.6337 126.306 53.5767C125.089 54.4305 123.725 54.4446 122.322 54.7254" stroke="#C28DD1" stroke-width="3" stroke-linecap="round"/>
<path d="M145.46 56.4484C144.54 55.3383 143.267 54.2051 142.88 52.7607C142.744 52.2518 142.636 51.7598 142.547 51.2427C142.465 50.7688 142.385 50.0602 142.771 49.702C143.057 49.4357 143.465 49.4658 143.833 49.433C144.822 49.3447 145.803 49.2096 146.791 49.1094C147.263 49.0615 147.793 48.9967 148.25 49.1641C148.417 49.2253 149.009 49.4748 149.034 49.702C149.038 49.7401 148.836 49.5254 148.824 49.5151C148.691 49.3949 148.73 49.1513 148.747 48.9863C148.792 48.5324 149.285 48.3921 149.645 48.5897C150.032 48.8024 150.272 49.3887 150.415 49.7795C150.727 50.6337 150.682 51.6791 150.707 52.5783C150.728 53.374 150.533 54.1338 149.964 54.7253C149.348 55.3651 148.462 55.8402 147.675 56.2205C145.636 57.2061 143.437 57.6359 141.275 58.2535" stroke="#C28DD1" stroke-width="3" stroke-linecap="round"/>
<path d="M104.188 55.9561C103.474 55.5755 102.827 55.5658 102.05 55.7601C100.969 56.0304 99.6658 56.754 98.8637 57.5196C98.4151 57.9479 97.7273 58.6356 97.7058 59.302C97.678 60.1639 98.4303 60.4279 99.201 60.551C100.452 60.7507 101.763 60.7151 103.025 60.7151C103.322 60.7151 103.715 60.7871 103.983 60.6239C104.126 60.5367 104.254 60.138 104.347 60.2775C104.442 60.4189 104.343 60.9378 104.311 61.0843C104.187 61.6536 103.892 62.2302 103.864 62.8074C103.833 63.4545 103.844 63.9314 104.37 64.3618C105.418 65.2187 106.986 65.235 108.272 65.2917C109.276 65.336 111.367 65.5524 111.686 64.2251C111.874 63.4459 111.988 62.3165 111.609 61.5766C111.257 60.8896 110.9 60.1988 110.606 59.4843C110.204 58.5059 109.16 57.8874 108.29 57.3692C107.648 56.9864 107.056 56.4467 106.403 56.1202" stroke="#C28DD1" stroke-width="3" stroke-linecap="round"/>
<path d="M39.8463 74.3901C32.0715 74.0629 23.2747 70.7504 16.562 66.8171C13.8145 65.2072 11.635 62.6133 10.2126 59.7823C8.01731 55.413 3.67256 49.1109 4.2677 43.9481C4.76366 39.6456 13.9804 38.1027 17.2985 38.1367C21.4119 38.1788 27.0879 41.4248 30.1613 44.0624C32.3318 45.9252 29.9477 47.4907 29.2499 45.0038C27.8432 39.9905 27.2088 36.9779 32.6507 34.5475C34.6804 33.641 35.7913 32.7892 37.9304 34.0457C41.9241 36.3914 46.2714 41.5967 48.1273 45.7153C52.0687 54.4621 46.693 65.1713 44.3581 73.712" stroke="#C28DD1" stroke-width="3" stroke-linecap="round"/>
<path d="M20.4486 27.0532C17.0069 23.7357 12.7206 19.9098 8.37319 17.9301C6.37345 17.0195 3.83414 16.3434 2 15.313" stroke="#F49563" stroke-width="3" stroke-linecap="round"/>
<path d="M15.2042 22.1808C14.1641 18.9559 12.3956 15.5117 12.3625 12.0528C12.3295 8.61465 14.2477 5.10576 15.5331 2.00006" stroke="#F49563" stroke-width="3" stroke-linecap="round"/>
<path d="M46.0059 82.9668C48.167 86.3924 51.6645 89.5467 53.1348 93.3015" stroke="#F49563" stroke-width="3" stroke-linecap="round"/>
<path d="M55.8046 100.306C53.7507 98.6871 51.7315 97.1293 49.1338 96.5583C47.4981 96.1986 45.784 96.0558 44.2217 95.45" stroke="#F49563" stroke-width="3" stroke-linecap="round"/>
<path d="M56.6647 95.8355C58.5189 91.9504 56.6532 87.3015 59.1937 83.4958" stroke="#F49563" stroke-width="3" stroke-linecap="round"/>
</svg>
