<svg width="116" height="31" viewBox="0 0 116 31" fill="none" xmlns="http://www.w3.org/2000/svg">
<path d="M39.327 22.1109C38.8052 22.1392 38.2891 21.9909 37.862 21.6898C37.6836 21.5575 37.54 21.3837 37.4436 21.1835C37.3473 20.9832 37.3013 20.7626 37.3093 20.5406V12.4085C37.3051 12.3741 37.3087 12.3391 37.32 12.3063C37.3313 12.2734 37.3499 12.2437 37.3744 12.2191C37.399 12.1946 37.4287 12.176 37.4615 12.1648C37.4943 12.1534 37.5293 12.1498 37.5637 12.154H39.0375C39.2042 12.154 39.2831 12.2418 39.2831 12.4085V19.909C39.2831 20.2423 39.4323 20.409 39.7393 20.409C39.8695 20.4143 39.9997 20.3996 40.1253 20.3651C40.3008 20.3651 40.3973 20.4178 40.406 20.5757L40.5376 21.6722C40.5439 21.7043 40.5433 21.7372 40.5359 21.7689C40.5284 21.8006 40.5142 21.8304 40.4942 21.8561C40.4743 21.8819 40.449 21.9031 40.4202 21.9183C40.3914 21.9335 40.3596 21.9423 40.3271 21.9442C40.0042 22.0509 39.6669 22.1071 39.327 22.1109Z" fill="#394149"/>
<path d="M47.6174 21.1723C46.8769 21.7842 45.9463 22.1189 44.9857 22.1189C44.0251 22.1189 43.0945 21.7842 42.3539 21.1723C41.7031 20.5152 41.3379 19.6277 41.3379 18.7028C41.3379 17.7779 41.7031 16.8904 42.3539 16.2334C43.0959 15.6246 44.026 15.292 44.9857 15.292C45.9454 15.292 46.8755 15.6246 47.6174 16.2334C48.2534 16.8965 48.6084 17.7797 48.6084 18.6984C48.6084 19.6172 48.2534 20.5004 47.6174 21.1635V21.1723ZM43.74 20.0143C44.0837 20.3257 44.5307 20.498 44.9945 20.498C45.4582 20.498 45.9053 20.3257 46.2489 20.0143C46.56 19.6568 46.7312 19.1987 46.7312 18.7248C46.7312 18.2509 46.56 17.7929 46.2489 17.4352C45.9053 17.124 45.4582 16.9515 44.9945 16.9515C44.5307 16.9515 44.0837 17.124 43.74 17.4352C43.429 17.7929 43.2577 18.2509 43.2577 18.7248C43.2577 19.1987 43.429 19.6568 43.74 20.0143Z" fill="#394149"/>
<path d="M56.7226 15.514C56.8892 15.514 56.9682 15.6017 56.9682 15.7684V22.0583C56.9835 22.4829 56.9041 22.9055 56.7356 23.2954C56.5672 23.6854 56.314 24.033 55.9944 24.3128C55.2851 24.9177 54.3729 25.2312 53.4416 25.1901C52.6005 25.2197 51.7706 24.99 51.0643 24.5322C50.7627 24.3342 50.505 24.0762 50.3074 23.7744C50.1097 23.4725 49.9761 23.1333 49.9151 22.7777C49.9151 22.6022 49.9151 22.5233 50.1519 22.5233H51.6257C51.6883 22.5254 51.749 22.5456 51.8003 22.5814C51.8517 22.6172 51.8916 22.667 51.9152 22.725C52.0108 22.9914 52.2014 23.2133 52.4503 23.3479C52.7538 23.5045 53.0915 23.5829 53.4329 23.576C53.6388 23.5873 53.845 23.5574 54.0393 23.4881C54.2336 23.4188 54.4121 23.3115 54.5645 23.1724C54.7037 23.027 54.812 22.8548 54.8829 22.6663C54.9538 22.4779 54.9857 22.277 54.9768 22.0759V21.5232C54.4492 21.9113 53.8069 22.112 53.1521 22.0934C52.6939 22.1101 52.237 22.034 51.8088 21.8697C51.3807 21.7053 50.9902 21.4562 50.6607 21.1372C50.0283 20.4829 49.6748 19.6085 49.6748 18.6984C49.6748 17.7885 50.0283 16.914 50.6607 16.2597C50.9918 15.9435 51.3828 15.6968 51.8107 15.5341C52.2386 15.3714 52.6947 15.2959 53.1521 15.3122C53.8259 15.2944 54.4854 15.5081 55.0207 15.9175V15.7772C55.0167 15.7436 55.0202 15.7095 55.031 15.6773C55.0417 15.6453 55.0596 15.616 55.0831 15.5916C55.1066 15.5673 55.1353 15.5485 55.1669 15.5366C55.1987 15.5246 55.2326 15.52 55.2663 15.5228L56.7226 15.514ZM53.3188 20.5319C53.5448 20.5389 53.7696 20.4962 53.9773 20.4067C54.1849 20.3173 54.3705 20.1834 54.5207 20.0143C54.8123 19.6377 54.9706 19.1748 54.9706 18.6984C54.9706 18.2221 54.8123 17.7592 54.5207 17.3826C54.371 17.2159 54.1866 17.0838 53.9805 16.9959C53.7744 16.908 53.5516 16.8664 53.3276 16.8737C53.099 16.8666 52.8716 16.9091 52.6611 16.9985C52.4505 17.0879 52.2619 17.2219 52.1082 17.3913C51.7851 17.7516 51.6152 18.2237 51.6345 18.7072C51.6187 19.186 51.7849 19.6531 52.0994 20.0143C52.2535 20.1833 52.4422 20.317 52.6526 20.4064C52.8631 20.4957 53.0903 20.5385 53.3188 20.5319Z" fill="#394149"/>
<path d="M64.5394 21.1722C63.7974 21.7809 62.8674 22.1136 61.9077 22.1136C60.948 22.1136 60.0179 21.7809 59.2759 21.1722C58.6395 20.5076 58.2842 19.623 58.2842 18.7027C58.2842 17.7826 58.6395 16.8979 59.2759 16.2333C60.0186 15.6261 60.9484 15.2944 61.9077 15.2944C62.8669 15.2944 63.7967 15.6261 64.5394 16.2333C65.1753 16.8964 65.5304 17.7796 65.5304 18.6983C65.5304 19.6171 65.1753 20.5003 64.5394 21.1634V21.1722ZM60.6532 20.0142C60.8214 20.1742 61.0196 20.2992 61.2365 20.3821C61.4533 20.4649 61.6844 20.5039 61.9164 20.4967C62.147 20.5027 62.3765 20.4632 62.5918 20.3804C62.807 20.2976 63.0038 20.1732 63.1709 20.0142C63.4769 19.6542 63.6449 19.1972 63.6449 18.7247C63.6449 18.2522 63.4769 17.7951 63.1709 17.4351C63.0038 17.2762 62.807 17.1518 62.5918 17.069C62.3765 16.9862 62.147 16.9467 61.9164 16.9526C61.6844 16.9455 61.4533 16.9845 61.2365 17.0673C61.0196 17.1501 60.8214 17.2752 60.6532 17.4351C60.3473 17.7951 60.1793 18.2522 60.1793 18.7247C60.1793 19.1972 60.3473 19.6542 60.6532 20.0142Z" fill="#394149"/>
<path d="M68.6979 14.0225C68.4661 14.2255 68.1683 14.3374 67.8601 14.3374C67.552 14.3374 67.2543 14.2255 67.0224 14.0225C66.9173 13.9233 66.8335 13.8036 66.7762 13.6709C66.719 13.5382 66.6895 13.3951 66.6895 13.2505C66.6895 13.106 66.719 12.963 66.7762 12.8301C66.8335 12.6974 66.9173 12.5778 67.0224 12.4785C67.2567 12.2806 67.5535 12.1721 67.8601 12.1721C68.1668 12.1721 68.4636 12.2806 68.6979 12.4785C68.8031 12.5778 68.8869 12.6974 68.9441 12.8301C69.0014 12.963 69.0308 13.106 69.0308 13.2505C69.0308 13.3951 69.0014 13.5382 68.9441 13.6709C68.8869 13.8036 68.8031 13.9233 68.6979 14.0225ZM68.8821 22.1108C68.3607 22.1364 67.8455 21.9883 67.4171 21.6897C67.2414 21.5555 67.1003 21.3811 67.0057 21.1811C66.911 20.9812 66.8656 20.7616 66.8732 20.5405V15.7682C66.869 15.7339 66.8726 15.6988 66.8839 15.666C66.8952 15.6332 66.9138 15.6035 66.9383 15.5789C66.9629 15.5544 66.9926 15.5358 67.0254 15.5245C67.0583 15.5132 67.0932 15.5096 67.1276 15.5138H68.6014C68.7681 15.5138 68.8471 15.6016 68.8471 15.7682V19.9089C68.8471 20.2422 68.9962 20.4089 69.2945 20.4089C69.4275 20.4137 69.5605 20.3989 69.6892 20.365C69.8647 20.365 69.9612 20.4177 69.9699 20.5756L70.1015 21.6721C70.1078 21.7042 70.1072 21.7371 70.0998 21.7688C70.0923 21.8005 70.0781 21.8303 70.0581 21.856C70.0382 21.8818 70.0129 21.903 69.9841 21.9182C69.9553 21.9334 69.9235 21.9423 69.891 21.9441C69.5653 22.0514 69.2251 22.1076 68.8821 22.1108Z" fill="#394149"/>
<path d="M75.5227 15.3034C75.9831 15.2853 76.4423 15.3598 76.8733 15.5225C77.3043 15.6853 77.6983 15.933 78.0317 16.2509C78.652 16.9167 78.997 17.7928 78.997 18.7028C78.997 19.6128 78.652 20.489 78.0317 21.1547C77.6999 21.4755 77.3064 21.7256 76.8752 21.8899C76.4439 22.0543 75.9839 22.1295 75.5227 22.1109C74.8658 22.1256 74.222 21.9254 73.6893 21.5407V24.7076C73.6893 24.8743 73.6015 24.9532 73.4349 24.9532H71.9611C71.9275 24.9595 71.8928 24.9575 71.8601 24.9474C71.8275 24.9373 71.7977 24.9194 71.7735 24.8951C71.7494 24.8709 71.7314 24.8413 71.7213 24.8086C71.7111 24.7759 71.7092 24.7413 71.7154 24.7076V17.5141C71.7258 17.4438 71.7195 17.372 71.6972 17.3045C71.6748 17.237 71.6369 17.1756 71.5867 17.1253C71.5364 17.0751 71.4751 17.0372 71.4075 17.0149C71.3401 16.9925 71.2682 16.9863 71.1979 16.9965H70.9084C70.7154 16.9965 70.6189 16.9264 70.6189 16.786V15.7508C70.6143 15.6868 70.6319 15.6231 70.6686 15.5705C70.7053 15.5178 70.759 15.4792 70.8206 15.4613C71.1241 15.3511 71.4452 15.2976 71.7681 15.3034C72.09 15.2749 72.4131 15.3433 72.696 15.4995C72.9789 15.6558 73.2087 15.893 73.3559 16.1807C73.6385 15.8949 73.9764 15.6697 74.3489 15.5188C74.7215 15.368 75.1209 15.2947 75.5227 15.3034ZM74.1542 20.0143C74.3106 20.1778 74.4985 20.3079 74.7066 20.3968C74.9147 20.4856 75.1386 20.5314 75.3648 20.5314C75.5911 20.5314 75.815 20.4856 76.023 20.3968C76.2311 20.3079 76.419 20.1778 76.5754 20.0143C76.9049 19.6468 77.078 19.1653 77.0579 18.6721C77.0809 18.1785 76.9074 17.6959 76.5754 17.3299C76.419 17.1665 76.2311 17.0364 76.023 16.9475C75.815 16.8585 75.5911 16.8128 75.3648 16.8128C75.1386 16.8128 74.9147 16.8585 74.7066 16.9475C74.4985 17.0364 74.3106 17.1665 74.1542 17.3299C73.8351 17.7024 73.6689 18.182 73.6893 18.6721C73.6714 19.1619 73.8373 19.6406 74.1542 20.0143Z" fill="#394149"/>
<path d="M83.1374 22.111C82.3499 22.1434 81.569 21.955 80.8828 21.5671C80.6076 21.4013 80.3732 21.1756 80.1969 20.9068C80.0208 20.638 79.9074 20.333 79.8652 20.0144C79.8652 19.8389 79.9266 19.7512 80.1196 19.7512H81.4092C81.4705 19.7537 81.5301 19.7729 81.5811 19.807C81.6322 19.841 81.6729 19.8885 81.6987 19.9442C81.8829 20.4179 82.3654 20.6548 83.1374 20.6548C83.4067 20.6672 83.6748 20.6128 83.9181 20.4969C84.0022 20.459 84.0742 20.399 84.1267 20.3233C84.1793 20.2476 84.2103 20.159 84.2164 20.067C84.2164 19.8389 84.076 19.681 83.7953 19.5758C83.4624 19.465 83.1182 19.3914 82.7689 19.3564C82.3553 19.3096 81.9451 19.2364 81.5408 19.1371C81.1476 19.0482 80.7901 18.8434 80.5144 18.5494C80.352 18.3495 80.2325 18.1184 80.1632 17.8704C80.094 17.6224 80.0766 17.3627 80.1119 17.1077C80.1474 16.8526 80.2348 16.6075 80.3689 16.3877C80.5031 16.1679 80.681 15.9781 80.8916 15.8299C81.5239 15.4271 82.2658 15.2309 83.0146 15.2685C83.7395 15.244 84.4568 15.4233 85.0849 15.786C85.3381 15.9295 85.556 16.1275 85.7229 16.3657C85.8899 16.604 86.0015 16.8765 86.0499 17.1633C86.0499 17.3388 85.9709 17.4265 85.813 17.4265H84.5147C84.46 17.4297 84.4056 17.4164 84.3587 17.3882C84.3118 17.3601 84.2744 17.3183 84.2515 17.2686C84.1647 17.0609 84.0014 16.8944 83.7953 16.8036C83.5628 16.6821 83.3032 16.6216 83.0409 16.6282C82.7838 16.6142 82.5273 16.6656 82.2952 16.7773C82.2135 16.8089 82.1431 16.8642 82.093 16.9361C82.043 17.008 82.0156 17.0933 82.0145 17.1809C82.0201 17.3009 82.0641 17.4159 82.1399 17.509C82.2157 17.6022 82.3193 17.6685 82.4356 17.6984C82.7724 17.8255 83.1227 17.9137 83.4795 17.9616C83.8898 18.0157 84.2969 18.0918 84.6989 18.1897C85.0921 18.2787 85.4496 18.4834 85.7253 18.7775C85.8728 18.9395 85.9867 19.1291 86.0605 19.3354C86.1343 19.5416 86.1664 19.7605 86.1551 19.9793C86.1627 20.2826 86.0915 20.5826 85.9485 20.8501C85.8055 21.1176 85.5956 21.3435 85.3393 21.5057C84.6839 21.9265 83.9159 22.1376 83.1374 22.111Z" fill="#394149"/>
<path d="M95.4277 21.6722C95.433 21.7034 95.4312 21.7352 95.4242 21.7658C95.4163 21.7965 95.4032 21.8253 95.3839 21.8507C95.3654 21.876 95.3418 21.8973 95.3146 21.9134C95.2874 21.9294 95.2575 21.9399 95.226 21.9442C94.9058 22.0487 94.5715 22.105 94.2347 22.1109C93.9013 22.1454 93.5644 22.0933 93.2574 21.9596C92.9495 21.8259 92.6819 21.6151 92.4802 21.3476C91.8608 21.8804 91.059 22.1538 90.2432 22.1109C89.8642 22.1283 89.4861 22.0663 89.1326 21.9288C88.779 21.7914 88.458 21.5814 88.1904 21.3126C87.9246 21.0309 87.7186 20.6984 87.5844 20.3351C87.4503 19.9718 87.3909 19.5852 87.4096 19.1984V15.7683C87.4096 15.6016 87.4886 15.5139 87.6553 15.5139H89.1291C89.2957 15.5139 89.3747 15.6016 89.3747 15.7683V18.9352C89.3589 19.3298 89.4931 19.7156 89.7519 20.0142C89.8809 20.1511 90.0379 20.2586 90.2116 20.3298C90.3853 20.4009 90.573 20.4339 90.7607 20.4265C90.9529 20.435 91.145 20.4052 91.3257 20.3389C91.5064 20.2727 91.6722 20.1712 91.8134 20.0405C91.9468 19.9028 92.0512 19.7391 92.1187 19.5595C92.1872 19.38 92.217 19.1884 92.2082 18.9966V15.7683C92.2082 15.6016 92.2872 15.5139 92.4538 15.5139H93.9452C94.1118 15.5139 94.1908 15.6016 94.1908 15.7683V19.9002C94.1908 20.2423 94.3399 20.409 94.6294 20.409C94.7654 20.4142 94.9014 20.3995 95.033 20.3651C95.0663 20.3558 95.1014 20.3542 95.1347 20.3603C95.1689 20.3663 95.2005 20.38 95.2286 20.4003C95.2567 20.4206 95.2795 20.4469 95.2961 20.4772C95.3119 20.5076 95.3207 20.5413 95.3225 20.5757L95.4277 21.6722Z" fill="#394149"/>
<path d="M109.367 21.6722C109.375 21.7036 109.376 21.7364 109.37 21.7682C109.363 21.7998 109.349 21.8298 109.33 21.8558C109.311 21.8818 109.286 21.9032 109.257 21.9184C109.229 21.9338 109.198 21.9426 109.165 21.9441C108.839 22.0502 108.499 22.1064 108.156 22.1108C107.634 22.1378 107.12 21.9896 106.691 21.6897C106.506 21.5613 106.356 21.3893 106.254 21.1888C106.151 20.9884 106.099 20.7656 106.104 20.5405V18.479C106.122 18.0856 105.99 17.6999 105.735 17.4C105.612 17.2629 105.46 17.1548 105.29 17.0835C105.12 17.0122 104.937 16.9795 104.753 16.9877C104.587 16.9814 104.422 17.0129 104.269 17.0798C104.118 17.1466 103.983 17.2472 103.875 17.3737C103.644 17.6676 103.525 18.035 103.542 18.4088V21.6459C103.542 21.8126 103.463 21.9003 103.296 21.9003H101.814C101.78 21.9046 101.745 21.9009 101.712 21.8897C101.679 21.8784 101.649 21.8598 101.624 21.8352C101.6 21.8107 101.581 21.7809 101.57 21.7481C101.559 21.7153 101.555 21.6804 101.559 21.6459V18.479C101.579 18.0899 101.457 17.7069 101.217 17.4C101.11 17.271 100.976 17.1672 100.824 17.096C100.673 17.0248 100.508 16.9878 100.34 16.9877C100.161 16.9805 99.9831 17.0111 99.8164 17.0777C99.6497 17.1442 99.4997 17.2451 99.3751 17.3737C99.1242 17.6582 98.9953 18.03 99.0155 18.4088V21.6459C99.0199 21.6804 99.0163 21.7153 99.0049 21.7481C98.9935 21.7809 98.9751 21.8107 98.9505 21.8352C98.926 21.8598 98.8962 21.8784 98.8637 21.8897C98.8304 21.9009 98.7953 21.9046 98.7611 21.9003H97.3311C97.1645 21.9003 97.0855 21.8126 97.0855 21.6459V17.514C97.096 17.4437 97.0899 17.3719 97.0671 17.3044C97.0452 17.2369 97.0074 17.1755 96.9566 17.1252C96.9066 17.075 96.8451 17.0371 96.7776 17.0148C96.71 16.9924 96.6381 16.9862 96.5679 16.9964H96.2784C96.0854 16.9964 95.9889 16.9263 95.9889 16.7859V15.7507C95.9846 15.6867 96.0021 15.623 96.0389 15.5704C96.0758 15.5177 96.1293 15.4791 96.1907 15.4613C96.4942 15.351 96.8153 15.2975 97.1381 15.3033C97.4478 15.2769 97.7592 15.3387 98.0356 15.4815C98.3119 15.6243 98.5417 15.8423 98.6997 16.1104C98.9953 15.83 99.3462 15.6135 99.7295 15.4746C100.113 15.3357 100.521 15.2775 100.928 15.3033C101.324 15.284 101.717 15.3582 102.079 15.5198C102.44 15.6814 102.758 15.9258 103.007 16.2332C103.297 15.9177 103.654 15.6707 104.052 15.5098C104.449 15.349 104.877 15.2785 105.305 15.3033C105.688 15.2855 106.07 15.3471 106.428 15.4846C106.786 15.622 107.112 15.8321 107.384 16.1016C107.651 16.3828 107.857 16.7152 107.992 17.0786C108.126 17.442 108.185 17.829 108.165 18.2158V19.9089C108.165 20.2423 108.314 20.409 108.595 20.409C108.731 20.4153 108.867 20.4005 108.999 20.3651C109.18 20.3651 109.277 20.4353 109.288 20.5756L109.367 21.6722Z" fill="#394149"/>
<path d="M6.5003 14.3734C7.14751 11.7721 8.64643 9.46204 10.7584 7.81118C12.8704 6.16028 15.474 5.26343 18.1546 5.26343C20.8352 5.26343 23.4388 6.16028 25.5508 7.81118C27.6628 9.46204 29.1617 11.7721 29.8089 14.3734H28.7562C26.9804 14.3473 25.241 14.878 23.7822 15.8911C23.698 15.952 23.6101 16.0078 23.519 16.0578H23.3962C23.3051 16.0078 23.2172 15.952 23.133 15.8911C21.6613 14.9014 19.928 14.3729 18.1546 14.3729C16.3811 14.3729 14.6479 14.9014 13.1762 15.8911C13.092 15.952 13.0041 16.0078 12.913 16.0578H12.7902C12.6991 16.0078 12.6112 15.952 12.527 15.8911C11.0682 14.878 9.32882 14.3473 7.553 14.3734H6.5003ZM26.8613 19.8738C27.4017 19.453 28.0715 19.2328 28.7562 19.251H30.1686V16.435H28.7562C27.5501 16.4204 26.3717 16.7958 25.3963 17.5052C24.8474 17.9099 24.1834 18.1282 23.5014 18.1282C22.8195 18.1282 22.1555 17.9099 21.6066 17.5052C20.6064 16.809 19.417 16.4358 18.1985 16.4358C16.9799 16.4358 15.7905 16.809 14.7903 17.5052C14.2414 17.9099 13.5774 18.1282 12.8955 18.1282C12.2135 18.1282 11.5495 17.9099 11.0006 17.5052C10.0132 16.7867 8.81782 16.4108 7.59686 16.435H6.14062V19.251H7.553C8.2377 19.2328 8.90748 19.453 9.44787 19.8738C10.4462 20.5705 11.6342 20.944 12.8516 20.944C14.069 20.944 15.257 20.5705 16.2553 19.8738C16.7964 19.4543 17.4657 19.2343 18.1502 19.251C18.8352 19.2313 19.5054 19.4517 20.0451 19.8738C21.0452 20.5701 22.2346 20.9433 23.4532 20.9433C24.6718 20.9433 25.8612 20.5701 26.8613 19.8738ZM26.8613 24.9092C27.4017 24.4884 28.0715 24.2682 28.7562 24.2864H30.1686V21.4704H28.7562C27.5501 21.4558 26.3717 21.8312 25.3963 22.5406C24.8474 22.9453 24.1834 23.1637 23.5014 23.1637C22.8195 23.1637 22.1555 22.9453 21.6066 22.5406C20.6064 21.8445 19.417 21.4713 18.1985 21.4713C16.9799 21.4713 15.7905 21.8445 14.7903 22.5406C14.2414 22.9453 13.5774 23.1637 12.8955 23.1637C12.2135 23.1637 11.5495 22.9453 11.0006 22.5406C10.0132 21.8222 8.81782 21.4463 7.59686 21.4704H6.14062V24.2864H7.553C8.2377 24.2682 8.90748 24.4884 9.44787 24.9092C10.4462 25.6059 11.6342 25.9795 12.8516 25.9795C14.069 25.9795 15.257 25.6059 16.2553 24.9092C16.7964 24.4897 17.4657 24.2697 18.1502 24.2864C18.8352 24.2667 19.5054 24.4871 20.0451 24.9092C21.0452 25.6055 22.2346 25.9787 23.4532 25.9787C24.6718 25.9787 25.8612 25.6055 26.8613 24.9092Z" fill="#394149"/>
</svg>
