<svg width="128" height="31" viewBox="0 0 128 31" fill="none" xmlns="http://www.w3.org/2000/svg">
<g clip-path="url(#clip0_42_457)">
<path d="M37.8506 21.6817H46.8377V18.9858H41.0448V8.83105H37.8506V21.6817Z" fill="#394149"/>
<path d="M52.162 19.8843C50.8807 19.8843 50.213 18.7699 50.213 17.0985C50.213 15.427 50.8807 14.2947 52.162 14.2947C53.4433 14.2947 54.129 15.427 54.129 17.0985C54.129 18.7699 53.4433 19.8843 52.162 19.8843ZM52.18 21.9691C55.1577 21.9691 57.1067 19.8663 57.1067 17.0985C57.1067 14.3306 55.1577 12.2278 52.18 12.2278C49.2204 12.2278 47.2354 14.3306 47.2354 17.0985C47.2354 19.8663 49.2204 21.9691 52.18 21.9691Z" fill="#394149"/>
<path d="M62.2609 24.8629C63.6324 24.8629 64.8415 24.5574 65.6536 23.8385C66.3935 23.1735 66.8807 22.167 66.8807 20.7831V12.4796H64.0655V13.4681H64.0294C63.488 12.6952 62.6579 12.21 61.4307 12.21C59.1389 12.21 57.5508 14.1151 57.5508 16.811C57.5508 19.6328 59.4817 21.1785 61.5571 21.1785C62.6759 21.1785 63.3797 20.7292 63.9211 20.1181H63.9933V21.0347C63.9933 22.149 63.47 22.796 62.2248 22.796C61.2503 22.796 60.763 22.3827 60.6006 21.8974H57.7493C58.038 23.8205 59.7163 24.8629 62.2609 24.8629ZM62.2428 19.0037C61.142 19.0037 60.4201 18.1051 60.4201 16.7212C60.4201 15.3193 61.142 14.4206 62.2428 14.4206C63.47 14.4206 64.1196 15.4631 64.1196 16.7032C64.1196 17.9973 63.5241 19.0037 62.2428 19.0037Z" fill="#394149"/>
<path d="M72.6688 19.8843C71.3875 19.8843 70.7198 18.7699 70.7198 17.0985C70.7198 15.427 71.3875 14.2947 72.6688 14.2947C73.9501 14.2947 74.6359 15.427 74.6359 17.0985C74.6359 18.7699 73.9501 19.8843 72.6688 19.8843ZM72.6869 21.9691C75.6645 21.9691 77.6132 19.8663 77.6132 17.0985C77.6132 14.3306 75.6645 12.2278 72.6869 12.2278C69.7273 12.2278 67.7422 14.3306 67.7422 17.0985C67.7422 19.8663 69.7273 21.9691 72.6869 21.9691Z" fill="#394149"/>
<path d="M78.4727 21.6817H81.4142V12.4796H78.4727V21.6817ZM78.4727 11.2035H81.4142V8.83105H78.4727V11.2035Z" fill="#394149"/>
<path d="M82.6904 24.7192H85.632V20.7292H85.6681C86.2456 21.502 87.0937 21.9693 88.2848 21.9693C90.703 21.9693 92.3091 20.0641 92.3091 17.0806C92.3091 14.3128 90.8113 12.21 88.357 12.21C87.0937 12.21 86.1914 12.7671 85.5598 13.5939H85.5057V12.4796H82.6904V24.7192ZM87.5268 19.7047C86.2636 19.7047 85.5417 18.6802 85.5417 17.1885C85.5417 15.6967 86.1914 14.5644 87.4727 14.5644C88.736 14.5644 89.3315 15.6069 89.3315 17.1885C89.3315 18.7521 88.6457 19.7047 87.5268 19.7047Z" fill="#394149"/>
<path d="M97.098 21.9693C99.5162 21.9693 101.303 20.9269 101.303 18.9139C101.303 16.5594 99.3899 16.146 97.7657 15.8764C96.5927 15.6608 95.546 15.5709 95.546 14.9239C95.546 14.3487 96.1055 14.0792 96.8273 14.0792C97.6394 14.0792 98.1988 14.3308 98.3071 15.1575H101.014C100.87 13.3423 99.4621 12.21 96.8454 12.21C94.6618 12.21 92.8571 13.2164 92.8571 15.1575C92.8571 17.3143 94.5715 17.7456 96.1777 18.0152C97.4048 18.2309 98.5237 18.3208 98.5237 19.1475C98.5237 19.7406 97.9643 20.0642 97.08 20.0642C96.1055 20.0642 95.4919 19.6148 95.3836 18.6982H92.6045C92.6947 20.7291 94.3911 21.9693 97.098 21.9693Z" fill="#394149"/>
<path d="M105.299 21.9512C106.58 21.9512 107.392 21.448 108.06 20.5494H108.114V21.6817H110.93V12.4795H107.988V17.6198C107.988 18.7161 107.374 19.471 106.364 19.471C105.425 19.471 104.974 18.9138 104.974 17.9073V12.4795H102.051V18.5184C102.051 20.5673 103.17 21.9512 105.299 21.9512Z" fill="#394149"/>
<path d="M112.209 21.6817H115.151V16.5235C115.151 15.4271 115.692 14.6543 116.612 14.6543C117.497 14.6543 117.912 15.2294 117.912 16.2179V21.6817H120.853V16.5235C120.853 15.4271 121.377 14.6543 122.315 14.6543C123.199 14.6543 123.614 15.2294 123.614 16.2179V21.6817H126.556V15.6967C126.556 13.6298 125.509 12.21 123.416 12.21C122.225 12.21 121.232 12.7132 120.51 13.8275H120.474C120.005 12.839 119.085 12.21 117.876 12.21C116.54 12.21 115.656 12.839 115.078 13.7916H115.024V12.4796H112.209V21.6817Z" fill="#394149"/>
<path d="M19.903 1.48037L16.9456 0.691162L14.4534 9.95441L12.2034 1.59149L9.24603 2.3807L11.677 11.4162L5.62199 5.38584L3.45704 7.54199L10.0986 14.1566L1.82758 11.9494L1.03516 14.8947L10.0723 17.3064C9.96886 16.8619 9.91411 16.3988 9.91411 15.923C9.91411 12.5549 12.6557 9.82448 16.0375 9.82448C19.4194 9.82448 22.161 12.5549 22.161 15.923C22.161 16.3958 22.1069 16.856 22.0047 17.2979L30.2178 19.4896L31.0102 16.5443L21.9371 14.123L30.2087 11.9156L29.4163 8.97031L20.3435 11.3914L26.3985 5.36108L24.2336 3.20493L17.6841 9.7278L19.903 1.48037Z" fill="#394149"/>
<path d="M21.997 17.3323C21.7434 18.3999 21.2081 19.359 20.4736 20.1274L26.4237 26.0533L28.5886 23.8971L21.997 17.3323Z" fill="#394149"/>
<path d="M20.413 20.1895C19.6696 20.9456 18.7302 21.5099 17.6768 21.8007L19.8419 29.8481L22.7992 29.0588L20.413 20.1895Z" fill="#394149"/>
<path d="M17.5666 21.83C17.0779 21.9551 16.5656 22.0216 16.0376 22.0216C15.472 22.0216 14.9243 21.9452 14.4044 21.8022L12.2373 29.857L15.1946 30.6461L17.5666 21.83Z" fill="#394149"/>
<path d="M14.3004 21.7725C13.263 21.4672 12.3403 20.8958 11.6121 20.1375L5.64746 26.0779L7.81241 28.234L14.3004 21.7725Z" fill="#394149"/>
<path d="M11.562 20.085C10.8463 19.3219 10.325 18.3756 10.0768 17.3245L1.83691 19.5234L2.62934 22.4687L11.562 20.085Z" fill="#394149"/>
</g>
<defs>
<clipPath id="clip0_42_457">
<rect width="126.324" height="30.7038" fill="white" transform="translate(0.796875)"/>
</clipPath>
</defs>
</svg>
