<svg width="44" height="43" viewBox="0 0 44 43" fill="none" xmlns="http://www.w3.org/2000/svg">
<path d="M19.2871 1.5038C20.8193 0.0897088 23.1807 0.0897088 24.7129 1.5038L25.8581 2.56074C26.7752 3.40719 28.0349 3.77705 29.264 3.56082L30.7989 3.2908C32.8523 2.92955 34.8389 4.20623 35.3633 6.2242L35.7553 7.7325C36.0692 8.94041 36.9289 9.93258 38.0799 10.4152L39.517 11.0178C41.4398 11.8241 42.4208 13.9721 41.771 15.9533L41.2853 17.4341C40.8963 18.62 41.0831 19.9194 41.7905 20.9477L42.6737 22.2316C43.8553 23.9495 43.5192 26.2868 41.9015 27.6022L40.6923 28.5853C39.724 29.3726 39.1786 30.5668 39.2177 31.8143L39.2666 33.3719C39.3319 35.4559 37.7855 37.2405 35.7134 37.4724L34.1647 37.6458C32.9244 37.7846 31.82 38.4943 31.1785 39.5649L30.3774 40.9017C29.3057 42.6901 27.04 43.3554 25.1715 42.4303L23.7749 41.7388C22.6564 41.185 21.3436 41.185 20.2251 41.7388L18.8285 42.4303C16.96 43.3554 14.6943 42.6901 13.6226 40.9016L12.8215 39.5649C12.18 38.4943 11.0756 37.7846 9.8353 37.6458L8.28657 37.4724C6.21451 37.2405 4.66811 35.4559 4.73344 33.3719L4.78228 31.8143C4.82139 30.5668 4.27602 29.3726 3.30767 28.5853L2.09851 27.6022C0.480756 26.2868 0.144692 23.9495 1.32634 22.2316L2.20954 20.9477C2.91685 19.9194 3.10369 18.62 2.71472 17.4341L2.22903 15.9533C1.57922 13.9721 2.56018 11.8241 4.48298 11.0178L5.92014 10.4152C7.07108 9.93258 7.9308 8.94041 8.24471 7.7325L8.63669 6.2242C9.16113 4.20623 11.1477 2.92955 13.2011 3.2908L14.736 3.56082C15.9651 3.77705 17.2248 3.40719 18.1419 2.56074L19.2871 1.5038Z" fill="#FBD5D2"/>
</svg>
