<svg width="147" height="38" viewBox="0 0 147 38" fill="none" xmlns="http://www.w3.org/2000/svg">
<path d="M26.4531 8.30529C26.457 8.3134 26.4589 8.32232 26.4585 8.3313C26.4582 8.34028 26.4557 8.34904 26.4512 8.35683C26.4467 8.36462 26.4404 8.3712 26.4328 8.37601C26.4252 8.38082 26.4166 8.38372 26.4076 8.38444C25.7177 8.43984 25.0734 8.63441 24.4745 8.96814C24.4203 8.99799 24.3803 9.0483 24.3633 9.10803C24.3462 9.16776 24.3535 9.23201 24.3835 9.2867C24.7159 9.90007 25.165 10.4119 25.7309 10.8221C25.8127 10.8815 25.8055 10.929 25.7092 10.9646C25.1565 11.1624 24.6882 11.4856 24.3043 11.9341C24.2595 11.9855 24.2397 12.0456 24.245 12.1142C24.3162 13.0204 25.5667 13.7881 26.3601 14.2135C26.4248 14.2478 26.4406 14.2979 26.4076 14.3639C26.1267 14.9113 25.9281 15.489 25.8121 16.0971C25.5766 17.3397 27.8817 17.589 28.6019 17.5435C28.6797 17.5383 28.7088 17.5732 28.689 17.6484L28.2913 19.1047C28.2613 19.2162 28.2733 19.3349 28.3251 19.4381C28.3769 19.5414 28.4649 19.622 28.5722 19.6646C30.0879 20.2608 31.5336 20.1204 32.9094 19.2432C32.9622 19.2089 33.007 19.2175 33.044 19.2689C33.838 20.3637 34.8781 21.1387 36.1643 21.5938C36.2394 21.6202 36.2981 21.5997 36.3404 21.5325L37.1892 20.2068C37.1979 20.1929 37.2095 20.1812 37.2232 20.1722C37.2369 20.1633 37.2525 20.1574 37.2688 20.155C37.2851 20.1526 37.3017 20.1536 37.3177 20.1581C37.3337 20.1626 37.3485 20.1704 37.3613 20.181C38.1541 20.8551 39.0742 21.2007 40.1215 21.2178C40.1888 21.2178 40.2442 21.1921 40.2877 21.1407C40.7923 20.5313 40.7013 19.5162 40.7804 18.7564C40.7883 18.672 40.8318 18.6463 40.911 18.6793C41.6391 18.9761 42.3923 19.073 43.1706 18.9701C43.2677 18.9568 43.3583 18.9136 43.4296 18.8466C43.5009 18.7795 43.5494 18.692 43.5683 18.5962C43.7833 17.5145 43.472 16.634 42.6344 15.9547C42.6149 15.939 42.6003 15.9181 42.5926 15.8943C42.5848 15.8705 42.5841 15.845 42.5906 15.8209C42.5971 15.7967 42.6106 15.775 42.6292 15.7583C42.6479 15.7417 42.671 15.7309 42.6957 15.7271C43.1429 15.6618 45.3352 14.9377 44.5952 14.1541C43.908 13.4299 43.0908 12.8885 42.1437 12.5297C42.1258 12.5229 42.1102 12.5111 42.0988 12.4957C42.0873 12.4804 42.0805 12.4621 42.079 12.443C42.0776 12.424 42.0816 12.4049 42.0906 12.388C42.0996 12.3711 42.1132 12.3571 42.1298 12.3476C42.6047 12.0825 43.6395 11.5384 43.9007 11.0675C43.9324 11.0107 43.9357 10.952 43.9106 10.8914C43.3645 9.56766 41.006 9.24119 39.6704 9.3045C39.5952 9.30714 39.553 9.27153 39.5438 9.19766C39.4785 8.67728 39.3677 7.2586 38.7602 6.85891C38.2379 6.51265 37.0368 7.07854 36.5026 7.31004C36.4912 7.31509 36.4789 7.3177 36.4665 7.31771C36.4541 7.31772 36.4418 7.31513 36.4304 7.31009C36.419 7.30506 36.4088 7.2977 36.4005 7.28849C36.3921 7.27928 36.3858 7.26842 36.3819 7.25662C35.8318 5.6658 34.5715 4.166 33.1152 6.22971C33.102 6.24777 33.0845 6.26231 33.0643 6.27202C33.0442 6.28173 33.022 6.2863 32.9998 6.28532C32.9776 6.28434 32.9561 6.27783 32.9372 6.26639C32.9183 6.25495 32.9026 6.23894 32.8916 6.21982C32.6542 5.8109 32.3468 5.46596 31.9696 5.18499C31.9133 5.14318 31.843 5.12495 31.7735 5.13418C31.7041 5.14342 31.6409 5.1794 31.5976 5.23446L30.8002 6.24949C30.7553 6.30753 30.7032 6.31479 30.6439 6.27126C30.3095 6.02987 28.4397 4.98911 28.321 5.81419C28.2682 6.18486 28.2233 6.55156 28.1864 6.91431C28.1848 6.92908 28.1801 6.94335 28.1727 6.95613C28.1652 6.96892 28.1551 6.97992 28.143 6.98838C28.131 6.99684 28.1173 7.00255 28.103 7.00514C28.0886 7.00772 28.0739 7.00711 28.0598 7.00335C27.3804 6.82791 26.6899 6.76394 25.9882 6.81142C25.9621 6.81347 25.9369 6.82178 25.9148 6.83563C25.8927 6.84948 25.8743 6.86845 25.8612 6.89088C25.8482 6.91331 25.8408 6.93853 25.8398 6.96434C25.8389 6.99015 25.8443 7.01577 25.8556 7.03897L26.4531 8.30529Z" stroke="#828448" stroke-width="0.395727"/>
<path d="M70.2898 16.4337C70.2651 16.4337 70.2415 16.4239 70.224 16.4064C70.2066 16.389 70.1968 16.3653 70.1968 16.3407V14.6133C70.1968 14.5887 70.2066 14.565 70.224 14.5476C70.2415 14.5301 70.2651 14.5203 70.2898 14.5203H79.255C79.2797 14.5203 79.3033 14.5105 79.3207 14.4931C79.3382 14.4756 79.348 14.452 79.348 14.4273V9.91209C79.348 9.88742 79.3382 9.86377 79.3207 9.84633C79.3033 9.82889 79.2797 9.81909 79.255 9.81909L65.5906 9.82305C65.5783 9.82305 65.5662 9.82545 65.555 9.83013C65.5437 9.8348 65.5334 9.84165 65.5248 9.85029C65.5162 9.85892 65.5093 9.86917 65.5046 9.88046C65.5 9.89174 65.4976 9.90383 65.4976 9.91604V28.5251C65.4976 28.5373 65.5 28.5494 65.5046 28.5607C65.5093 28.572 65.5162 28.5822 65.5248 28.5908C65.5334 28.5995 65.5437 28.6063 65.555 28.611C65.5662 28.6157 65.5783 28.6181 65.5906 28.6181H79.5023C79.527 28.6181 79.5506 28.6083 79.5681 28.5908C79.5855 28.5734 79.5953 28.5497 79.5953 28.5251V24.0118C79.5953 23.9872 79.5855 23.9635 79.5681 23.9461C79.5506 23.9286 79.527 23.9188 79.5023 23.9188H70.3056C70.2934 23.9188 70.2813 23.9164 70.27 23.9117C70.2588 23.9071 70.2485 23.9002 70.2399 23.8916C70.2312 23.883 70.2244 23.8727 70.2197 23.8614C70.215 23.8501 70.2126 23.838 70.2126 23.8258L70.1889 21.2417C70.1889 21.2171 70.1987 21.1934 70.2161 21.176C70.2336 21.1585 70.2572 21.1487 70.2819 21.1487H78.9582C78.9829 21.1487 79.0065 21.1389 79.024 21.1215C79.0414 21.1041 79.0512 21.0804 79.0512 21.0557V16.5484C79.0512 16.5238 79.0414 16.5001 79.024 16.4827C79.0065 16.4652 78.9829 16.4554 78.9582 16.4554L70.2898 16.4337Z" stroke="#828448" stroke-width="0.395727"/>
<path d="M87.0643 21.2557C87.0643 21.2273 87.0755 21.2002 87.0956 21.1801C87.1156 21.1601 87.1428 21.1488 87.1711 21.1488H93.5859C93.6142 21.1488 93.6414 21.1601 93.6614 21.1801C93.6814 21.2002 93.6927 21.2273 93.6927 21.2557V28.5113C93.6927 28.5396 93.7039 28.5668 93.724 28.5869C93.744 28.6069 93.7712 28.6182 93.7995 28.6182H98.2851C98.3134 28.6182 98.3406 28.6069 98.3607 28.5869C98.3807 28.5668 98.3919 28.5396 98.3919 28.5113V9.92008C98.3919 9.89174 98.3807 9.86456 98.3607 9.84453C98.3406 9.82449 98.3134 9.81323 98.2851 9.81323L93.8035 9.8251C93.7752 9.8251 93.748 9.83636 93.7279 9.8564C93.7079 9.87643 93.6967 9.90361 93.6967 9.93195L93.6848 16.3427C93.6848 16.3711 93.6735 16.3982 93.6535 16.4183C93.6334 16.4383 93.6063 16.4496 93.5779 16.4496H87.1711C87.1428 16.4496 87.1156 16.4383 87.0956 16.4183C87.0755 16.3982 87.0643 16.3711 87.0643 16.3427V9.92205C87.0643 9.89372 87.053 9.86654 87.033 9.8465C87.0129 9.82647 86.9858 9.81521 86.9574 9.81521L82.4719 9.8251C82.4435 9.8251 82.4164 9.83636 82.3963 9.8564C82.3763 9.87643 82.365 9.90361 82.365 9.93195V16.3427C82.365 16.3711 82.3538 16.3982 82.3337 16.4183C82.3137 16.4383 82.2865 16.4496 82.2582 16.4496H81.0868C81.0585 16.4496 81.0313 16.4608 81.0113 16.4809C80.9912 16.5009 80.98 16.5281 80.98 16.5564V21.042C80.98 21.0703 80.9912 21.0975 81.0113 21.1175C81.0313 21.1376 81.0585 21.1488 81.0868 21.1488H82.2582C82.2865 21.1488 82.3137 21.1601 82.3337 21.1801C82.3538 21.2002 82.365 21.2273 82.365 21.2557V28.5113C82.365 28.5396 82.3763 28.5668 82.3963 28.5869C82.4164 28.6069 82.4435 28.6182 82.4719 28.6182H86.9574C86.9858 28.6182 87.0129 28.6069 87.033 28.5869C87.053 28.5668 87.0643 28.5396 87.0643 28.5113V21.2557Z" stroke="#828448" stroke-width="0.395727"/>
<path d="M54.5258 14.5836C54.532 14.565 54.544 14.5489 54.56 14.5375C54.576 14.5261 54.5952 14.5201 54.6148 14.5203H58.2317C58.244 14.5203 58.2561 14.5227 58.2673 14.5274C58.2786 14.5321 58.2889 14.5389 58.2975 14.5475C58.3061 14.5562 58.313 14.5664 58.3177 14.5777C58.3223 14.589 58.3247 14.6011 58.3247 14.6133V28.5251C58.3247 28.5497 58.3345 28.5734 58.352 28.5908C58.3694 28.6083 58.3931 28.6181 58.4177 28.6181H63.1684C63.1931 28.6181 63.2168 28.6083 63.2342 28.5908C63.2516 28.5734 63.2614 28.5497 63.2614 28.5251L63.3129 9.91405C63.3129 9.88938 63.3031 9.86573 63.2856 9.84829C63.2682 9.83085 63.2445 9.82105 63.2199 9.82105H51.1858C51.1662 9.82086 51.147 9.82688 51.131 9.83825C51.115 9.84963 51.1031 9.86577 51.0968 9.88437L44.7988 28.4954C44.7941 28.5094 44.7928 28.5244 44.795 28.5391C44.7972 28.5538 44.803 28.5677 44.8117 28.5797C44.8204 28.5917 44.8319 28.6014 44.8451 28.6081C44.8584 28.6148 44.873 28.6182 44.8878 28.6181H49.6841C49.7037 28.6182 49.7229 28.6122 49.7388 28.6009C49.7548 28.5895 49.7668 28.5733 49.7731 28.5547L54.5258 14.5836Z" stroke="#828448" stroke-width="0.395727"/>
<path d="M109.868 14.6054C109.868 14.5828 109.877 14.5612 109.893 14.5452C109.909 14.5293 109.931 14.5203 109.953 14.5203H114.631C114.653 14.5203 114.675 14.5113 114.691 14.4954C114.707 14.4794 114.716 14.4578 114.716 14.4352V9.90612C114.716 9.88356 114.707 9.86192 114.691 9.84597C114.675 9.83001 114.653 9.82104 114.631 9.82104H100.406C100.384 9.82104 100.362 9.83001 100.346 9.84597C100.33 9.86192 100.321 9.88356 100.321 9.90612V14.4352C100.321 14.4578 100.33 14.4794 100.346 14.4954C100.362 14.5113 100.384 14.5203 100.406 14.5203H105.064C105.087 14.5203 105.108 14.5293 105.124 14.5452C105.14 14.5612 105.149 14.5828 105.149 14.6054L105.167 28.533C105.167 28.5555 105.176 28.5772 105.192 28.5931C105.208 28.6091 105.229 28.6181 105.252 28.6181H109.783C109.806 28.6181 109.827 28.6091 109.843 28.5931C109.859 28.5772 109.868 28.5555 109.868 28.533V14.6054Z" stroke="#828448" stroke-width="0.395727"/>
<path d="M113.034 22.9948C113.034 23.0072 113.036 23.0194 113.041 23.0308C113.046 23.0423 113.053 23.0526 113.062 23.0613C113.071 23.0699 113.081 23.0767 113.093 23.0813C113.104 23.0858 113.117 23.088 113.129 23.0878L114.494 23.0739C114.509 23.0738 114.524 23.0772 114.537 23.0839C114.55 23.0905 114.562 23.1003 114.57 23.1123C114.579 23.1243 114.585 23.1382 114.587 23.1529C114.589 23.1676 114.588 23.1825 114.583 23.1966L112.787 28.4954C112.782 28.5094 112.781 28.5244 112.783 28.5391C112.785 28.5538 112.791 28.5677 112.799 28.5797C112.808 28.5917 112.82 28.6014 112.833 28.6081C112.846 28.6148 112.861 28.6182 112.876 28.6181H117.391C117.411 28.6182 117.43 28.6122 117.446 28.6009C117.462 28.5895 117.474 28.5733 117.48 28.5547L119.318 23.1313C119.324 23.1127 119.336 23.0966 119.352 23.0852C119.368 23.0738 119.387 23.0678 119.407 23.068L124.635 23.1353C124.654 23.1353 124.672 23.1413 124.688 23.1522C124.703 23.1632 124.715 23.1787 124.722 23.1966L126.548 28.5547C126.554 28.5733 126.566 28.5895 126.582 28.6009C126.598 28.6122 126.617 28.6182 126.637 28.6181H131.148C131.163 28.6179 131.177 28.6143 131.19 28.6074C131.203 28.6006 131.215 28.5909 131.223 28.5789C131.232 28.5669 131.237 28.5531 131.239 28.5386C131.241 28.5241 131.24 28.5093 131.235 28.4954L124.951 9.88437C124.945 9.86577 124.933 9.84963 124.917 9.83825C124.901 9.82688 124.882 9.82086 124.862 9.82105H119.172C119.152 9.82086 119.133 9.82688 119.117 9.83825C119.101 9.84963 119.089 9.86577 119.083 9.88437L116.231 18.3153C116.225 18.3339 116.213 18.3501 116.197 18.3614C116.181 18.3728 116.162 18.3788 116.142 18.3786H113.127C113.115 18.3786 113.103 18.381 113.091 18.3857C113.08 18.3904 113.07 18.3972 113.061 18.4059C113.053 18.4145 113.046 18.4248 113.041 18.436C113.036 18.4473 113.034 18.4594 113.034 18.4716V22.9948Z" stroke="#828448" stroke-width="0.395727"/>
<path d="M32.3691 27.0273C32.358 27.0379 32.3438 27.0446 32.3286 27.0465C32.3134 27.0484 32.298 27.0453 32.2847 27.0378C32.2714 27.0302 32.2608 27.0186 32.2547 27.0046C32.2485 26.9906 32.247 26.9749 32.2504 26.96C32.4245 26.2457 33.9322 19.6984 32.9013 19.7756C32.8328 19.7795 32.7945 19.8158 32.7866 19.8844C32.5373 21.8769 31.8349 23.7843 31.2155 25.6937C31.2109 25.7098 31.2012 25.724 31.1878 25.7341C31.1744 25.7442 31.1581 25.7496 31.1413 25.7496C31.1246 25.7496 31.1083 25.7442 31.0949 25.7341C31.0815 25.724 31.0718 25.7098 31.0672 25.6937C30.6061 24.2493 29.1776 23.0047 27.9251 22.2785C26.1799 21.2694 24.3655 21.5227 23.0062 23.0067C22.3196 23.7566 23.7601 24.2057 24.0549 24.9655C25.3232 28.2283 28.4831 26.3981 30.5151 28.2718C30.5718 28.3246 30.5943 28.3892 30.5824 28.4657C30.3192 30.2307 30.2717 32.8781 32.3513 33.3629C32.3826 33.37 32.4153 33.3683 32.4456 33.3578C32.476 33.3473 32.5028 33.3286 32.5228 33.3038C32.5429 33.2789 32.5555 33.249 32.5591 33.2174C32.5627 33.1859 32.5572 33.154 32.5432 33.1254C32.2161 32.4421 32.0123 31.7232 31.9318 30.9687C31.9239 30.8988 31.9476 30.8421 32.003 30.7985C33.8194 29.3502 36.2492 30.4186 37.8717 28.7328C38.4593 28.1214 38.4692 27.4091 39.3497 26.8789C39.7771 26.6236 39.9473 26.3466 39.512 25.9667C36.9991 23.7784 34.4091 24.9774 32.3691 27.0273Z" stroke="#037163" stroke-width="0.395727"/>
<path d="M38.861 14.9656L39.2884 14.6984C39.353 14.6589 39.3636 14.6081 39.3201 14.5461L38.9461 14.0158C38.9052 13.9591 38.9072 13.903 38.952 13.8476L39.2053 13.537C39.2594 13.471 39.2548 13.4104 39.1914 13.355L38.6374 12.8722C38.5939 12.8326 38.5754 12.7838 38.582 12.7258L38.6473 12.2093C38.6579 12.1289 38.6236 12.0807 38.5444 12.0649C38.0063 11.9488 37.7081 11.6276 37.6501 11.1013C37.6395 11.0037 37.5848 10.9509 37.4859 10.943C36.9226 10.9021 36.5282 10.6317 36.3027 10.1318C36.267 10.0526 36.2064 10.0177 36.1206 10.0269C35.5521 10.0942 35.0977 9.90818 34.7573 9.46893C34.7138 9.4122 34.6564 9.39044 34.5852 9.40363L33.8254 9.54609C33.7463 9.5606 33.679 9.53818 33.6236 9.47882C33.2582 9.08045 32.8836 9.05935 32.4997 9.4155C32.4522 9.46035 32.3968 9.47222 32.3335 9.45112L31.5816 9.2117C31.4919 9.18268 31.4299 9.21302 31.3956 9.30272C31.2321 9.73934 30.9115 9.85146 30.434 9.63909C30.3351 9.59424 30.2744 9.62524 30.252 9.73208L30.1412 10.2564C30.1293 10.3079 30.0983 10.3395 30.0482 10.3514L29.4704 10.4859C29.3873 10.5044 29.359 10.5539 29.3853 10.6343L29.5377 11.0795C29.5654 11.1626 29.5417 11.226 29.4665 11.2695L29.0549 11.5089C28.9876 11.5485 28.9758 11.6006 29.0193 11.6652L29.3755 12.2054C29.4137 12.2634 29.4111 12.3195 29.3675 12.3736L29.0806 12.7198C29.012 12.8016 29.0272 12.8623 29.1261 12.9019C29.605 13.0958 29.7929 13.4374 29.6901 13.9268C29.6742 14.002 29.6993 14.0587 29.7652 14.0969L30.4459 14.4966C30.5132 14.5349 30.556 14.5923 30.5745 14.6688L30.6912 15.1496C30.711 15.2314 30.7631 15.2749 30.8476 15.2802C31.4069 15.3145 31.7993 15.5789 32.0248 16.0736C32.0605 16.1501 32.1205 16.1897 32.2049 16.1923L32.8618 16.2081C32.9304 16.2095 32.9904 16.2319 33.0419 16.2754L33.6236 16.776C33.6843 16.8275 33.7529 16.842 33.8294 16.8195L34.3438 16.6711C34.4084 16.6527 34.4698 16.6599 34.5278 16.6929L35.2342 17.0807C35.312 17.1229 35.3839 17.115 35.4499 17.057C35.8218 16.7285 36.2235 16.7153 36.6548 17.0174C36.73 17.0702 36.7953 17.0596 36.8507 16.9857L37.1535 16.5762C37.1891 16.5261 37.2379 16.501 37.2999 16.501L38.0043 16.497C38.0926 16.497 38.1355 16.4528 38.1329 16.3645C38.1157 15.9054 38.3492 15.7168 38.8333 15.7986C38.9441 15.817 38.9837 15.7722 38.952 15.664L38.7957 15.1417C38.772 15.0665 38.7937 15.0078 38.861 14.9656Z" stroke="#828448" stroke-width="0.395727"/>
<path d="M120.958 18.2996C120.955 18.3085 120.954 18.318 120.956 18.3274C120.957 18.3368 120.96 18.3457 120.966 18.3534C120.971 18.3612 120.978 18.3675 120.987 18.3719C120.995 18.3763 121.004 18.3787 121.014 18.3787H123.016C123.026 18.3787 123.035 18.3763 123.043 18.3719C123.052 18.3675 123.059 18.3612 123.064 18.3534C123.07 18.3457 123.073 18.3368 123.075 18.3274C123.076 18.318 123.075 18.3085 123.072 18.2996L122.07 15.3396C122.066 15.3284 122.059 15.3187 122.049 15.3119C122.039 15.3051 122.027 15.3015 122.015 15.3015C122.003 15.3015 121.991 15.3051 121.981 15.3119C121.972 15.3187 121.964 15.3284 121.96 15.3396L120.958 18.2996Z" stroke="#828448" stroke-width="0.395727"/>
<path d="M24.239 23.4064C26.4946 23.6755 28.3684 24.5263 29.9829 26.1132C29.9945 26.1268 30.011 26.1353 30.0288 26.1368C30.0466 26.1383 30.0643 26.1326 30.0779 26.1211C30.0915 26.1095 30.1 26.093 30.1015 26.0752C30.103 26.0574 30.0974 26.0397 30.0858 26.0261C28.8195 24.1662 27.0532 23.2395 24.787 23.2461C24.5997 23.2461 24.4144 23.2751 24.231 23.3332C24.1229 23.3675 24.1255 23.3919 24.239 23.4064Z" stroke="#037163" stroke-width="0.395727"/>
<path d="M32.3986 28.7783C34.0824 27.3438 36.1857 26.5998 38.3583 26.3564C38.4203 26.3498 38.442 26.3168 38.4236 26.2575C38.413 26.2206 38.3847 26.2008 38.3385 26.1981C35.9384 26.0656 33.7698 26.6433 32.3531 28.7367C32.3496 28.7429 32.3484 28.7502 32.3495 28.7572C32.3507 28.7642 32.3542 28.7707 32.3594 28.7755C32.3647 28.7803 32.3714 28.7832 32.3785 28.7837C32.3857 28.7842 32.3927 28.7823 32.3986 28.7783Z" stroke="#037163" stroke-width="0.395727"/>
<path d="M140.733 37.5712H0.637866C0.614252 37.5712 0.591606 37.5618 0.574908 37.5451C0.55821 37.5284 0.548828 37.5058 0.548828 37.4822V0.511401C0.548828 0.487787 0.55821 0.465141 0.574908 0.448443C0.591606 0.431745 0.614252 0.422363 0.637866 0.422363H140.59C140.609 0.42268 140.627 0.428757 140.642 0.439751C140.657 0.450744 140.668 0.466106 140.674 0.4837L146.995 19.1739C147.001 19.1919 147.001 19.2113 146.995 19.2293L140.816 37.5099C140.81 37.5275 140.799 37.5428 140.784 37.5538C140.769 37.5648 140.751 37.5709 140.733 37.5712ZM26.4531 8.30524C26.457 8.31334 26.4588 8.32227 26.4585 8.33125C26.4581 8.34022 26.4556 8.34899 26.4511 8.35678C26.4467 8.36456 26.4404 8.37115 26.4328 8.37596C26.4252 8.38077 26.4165 8.38366 26.4076 8.38438C25.7177 8.43978 25.0733 8.63435 24.4745 8.96808C24.4203 8.99794 24.3803 9.04825 24.3632 9.10797C24.3461 9.1677 24.3534 9.23196 24.3834 9.28664C24.7158 9.90001 25.165 10.4118 25.7309 10.8221C25.8127 10.8814 25.8054 10.9289 25.7091 10.9645C25.1564 11.1624 24.6881 11.4856 24.3043 11.934C24.2594 11.9855 24.2397 12.0455 24.2449 12.1141C24.3162 13.0203 25.5667 13.788 26.3601 14.2134C26.4247 14.2477 26.4406 14.2979 26.4076 14.3638C26.1266 14.9112 25.9281 15.489 25.812 16.0971C25.5765 17.3397 27.8817 17.589 28.6019 17.5435C28.6797 17.5382 28.7087 17.5732 28.6889 17.6483L28.2912 19.1046C28.2612 19.2162 28.2733 19.3348 28.3251 19.4381C28.3769 19.5413 28.4648 19.6219 28.5722 19.6646C30.0878 20.2608 31.5336 20.1203 32.9094 19.2431C32.9621 19.2088 33.007 19.2174 33.0439 19.2688C33.838 20.3637 34.8781 21.1386 36.1642 21.5937C36.2394 21.6201 36.2981 21.5997 36.3403 21.5324L37.1891 20.2067C37.1978 20.1929 37.2094 20.1811 37.2232 20.1722C37.2369 20.1633 37.2524 20.1574 37.2687 20.1549C37.285 20.1525 37.3017 20.1536 37.3177 20.1581C37.3336 20.1626 37.3485 20.1704 37.3613 20.181C38.1541 20.855 39.0741 21.2006 40.1215 21.2178C40.1888 21.2178 40.2442 21.1921 40.2877 21.1406C40.7922 20.5312 40.7012 19.5162 40.7804 18.7564C40.7883 18.672 40.8318 18.6462 40.9109 18.6792C41.6391 18.976 42.3923 19.073 43.1706 18.9701C43.2677 18.9567 43.3582 18.9135 43.4295 18.8465C43.5008 18.7795 43.5493 18.6919 43.5683 18.5961C43.7833 17.5145 43.472 16.634 42.6343 15.9546C42.6148 15.939 42.6003 15.918 42.5925 15.8942C42.5848 15.8705 42.5841 15.8449 42.5906 15.8208C42.5971 15.7967 42.6105 15.7749 42.6292 15.7583C42.6478 15.7416 42.671 15.7308 42.6957 15.7271C43.1429 15.6618 45.3352 14.9376 44.5952 14.1541C43.9079 13.4299 43.0907 12.8884 42.1436 12.5296C42.1258 12.5228 42.1102 12.511 42.0987 12.4957C42.0873 12.4804 42.0804 12.4621 42.079 12.443C42.0775 12.4239 42.0815 12.4048 42.0905 12.3879C42.0995 12.371 42.1131 12.357 42.1298 12.3476C42.6047 12.0824 43.6395 11.5383 43.9007 11.0674C43.9323 11.0107 43.9356 10.952 43.9106 10.8913C43.3645 9.56761 41.0059 9.24113 39.6703 9.30445C39.5952 9.30708 39.5529 9.27147 39.5437 9.1976C39.4784 8.67722 39.3676 7.25854 38.7602 6.85886C38.2378 6.51259 37.0368 7.07848 36.5026 7.30998C36.4912 7.31503 36.4789 7.31765 36.4665 7.31766C36.454 7.31766 36.4417 7.31507 36.4304 7.31004C36.419 7.30501 36.4088 7.29765 36.4005 7.28844C36.3921 7.27923 36.3858 7.26837 36.3819 7.25656C35.8318 5.66574 34.5714 4.16594 33.1151 6.22965C33.1019 6.24771 33.0844 6.26225 33.0643 6.27196C33.0442 6.28167 33.022 6.28624 32.9998 6.28526C32.9776 6.28428 32.956 6.27777 32.9371 6.26633C32.9182 6.2549 32.9026 6.23889 32.8916 6.21976C32.6541 5.81084 32.3468 5.4659 31.9695 5.18493C31.9133 5.14312 31.8429 5.12489 31.7735 5.13413C31.704 5.14337 31.6409 5.17934 31.5975 5.2344L30.8001 6.24944C30.7553 6.30748 30.7032 6.31473 30.6438 6.2712C30.3094 6.02981 28.4396 4.98905 28.3209 5.81414C28.2682 6.1848 28.2233 6.55151 28.1864 6.91426C28.1848 6.92902 28.1801 6.94329 28.1726 6.95608C28.1651 6.96886 28.155 6.97986 28.143 6.98832C28.1309 6.99678 28.1173 7.0025 28.1029 7.00508C28.0885 7.00767 28.0738 7.00706 28.0597 7.00329C27.3804 6.82786 26.6899 6.76388 25.9881 6.81137C25.9621 6.81342 25.9369 6.82173 25.9148 6.83558C25.8927 6.84942 25.8743 6.86839 25.8612 6.89082C25.8481 6.91326 25.8408 6.93848 25.8398 6.96429C25.8388 6.9901 25.8442 7.01572 25.8555 7.03891L26.4531 8.30524ZM70.2897 16.4335C70.265 16.4335 70.2414 16.4237 70.2239 16.4062C70.2065 16.3888 70.1967 16.3651 70.1967 16.3405V14.6131C70.1967 14.5885 70.2065 14.5648 70.2239 14.5474C70.2414 14.5299 70.265 14.5201 70.2897 14.5201H79.2549C79.2795 14.5201 79.3032 14.5103 79.3206 14.4929C79.3381 14.4754 79.3479 14.4518 79.3479 14.4271V9.91189C79.3479 9.88722 79.3381 9.86357 79.3206 9.84613C79.3032 9.82869 79.2795 9.81889 79.2549 9.81889L65.5904 9.82285C65.5782 9.82285 65.5661 9.82525 65.5548 9.82993C65.5436 9.8346 65.5333 9.84145 65.5247 9.85009C65.516 9.85872 65.5092 9.86897 65.5045 9.88026C65.4998 9.89154 65.4974 9.90363 65.4974 9.91584V28.5249C65.4974 28.5371 65.4998 28.5492 65.5045 28.5605C65.5092 28.5718 65.516 28.582 65.5247 28.5906C65.5333 28.5993 65.5436 28.6061 65.5548 28.6108C65.5661 28.6155 65.5782 28.6179 65.5904 28.6179H79.5022C79.5269 28.6179 79.5505 28.6081 79.568 28.5906C79.5854 28.5732 79.5952 28.5495 79.5952 28.5249V24.0116C79.5952 23.987 79.5854 23.9633 79.568 23.9459C79.5505 23.9284 79.5269 23.9186 79.5022 23.9186H70.3055C70.2933 23.9186 70.2812 23.9162 70.2699 23.9116C70.2587 23.9069 70.2484 23.9 70.2398 23.8914C70.2311 23.8828 70.2243 23.8725 70.2196 23.8612C70.2149 23.8499 70.2125 23.8378 70.2125 23.8256L70.1888 21.2415C70.1888 21.2169 70.1986 21.1932 70.216 21.1758C70.2335 21.1583 70.2571 21.1485 70.2818 21.1485H78.9581C78.9827 21.1485 79.0064 21.1387 79.0238 21.1213C79.0413 21.1039 79.0511 21.0802 79.0511 21.0555V16.5482C79.0511 16.5236 79.0413 16.4999 79.0238 16.4825C79.0064 16.465 78.9827 16.4552 78.9581 16.4552L70.2897 16.4335ZM87.0645 21.2554C87.0645 21.2271 87.0758 21.1999 87.0958 21.1798C87.1159 21.1598 87.143 21.1485 87.1714 21.1485H93.5861C93.6144 21.1485 93.6416 21.1598 93.6617 21.1798C93.6817 21.1999 93.693 21.2271 93.693 21.2554V28.511C93.693 28.5394 93.7042 28.5665 93.7242 28.5866C93.7443 28.6066 93.7715 28.6179 93.7998 28.6179H98.2854C98.3137 28.6179 98.3409 28.6066 98.3609 28.5866C98.381 28.5665 98.3922 28.5394 98.3922 28.511V9.9198C98.3922 9.89146 98.381 9.86429 98.3609 9.84425C98.3409 9.82421 98.3137 9.81296 98.2854 9.81296L93.8038 9.82483C93.7754 9.82483 93.7482 9.83608 93.7282 9.85612C93.7082 9.87616 93.6969 9.90333 93.6969 9.93167L93.685 16.3424C93.685 16.3708 93.6738 16.398 93.6537 16.418C93.6337 16.438 93.6065 16.4493 93.5782 16.4493H87.1714C87.143 16.4493 87.1159 16.438 87.0958 16.418C87.0758 16.398 87.0645 16.3708 87.0645 16.3424V9.92178C87.0645 9.89344 87.0533 9.86626 87.0332 9.84623C87.0132 9.82619 86.986 9.81493 86.9577 9.81493L82.4721 9.82483C82.4438 9.82483 82.4166 9.83608 82.3966 9.85612C82.3765 9.87616 82.3653 9.90333 82.3653 9.93167V16.3424C82.3653 16.3708 82.354 16.398 82.334 16.418C82.314 16.438 82.2868 16.4493 82.2584 16.4493H81.0871C81.0587 16.4493 81.0316 16.4605 81.0115 16.4806C80.9915 16.5006 80.9802 16.5278 80.9802 16.5561V21.0417C80.9802 21.07 80.9915 21.0972 81.0115 21.1172C81.0316 21.1373 81.0587 21.1485 81.0871 21.1485H82.2584C82.2868 21.1485 82.314 21.1598 82.334 21.1798C82.354 21.1999 82.3653 21.2271 82.3653 21.2554V28.511C82.3653 28.5394 82.3765 28.5665 82.3966 28.5866C82.4166 28.6066 82.4438 28.6179 82.4721 28.6179H86.9577C86.986 28.6179 87.0132 28.6066 87.0332 28.5866C87.0533 28.5665 87.0645 28.5394 87.0645 28.511V21.2554ZM54.5259 14.5834C54.5322 14.5648 54.5442 14.5487 54.5602 14.5373C54.5762 14.526 54.5953 14.5199 54.615 14.5201H58.2319C58.2441 14.5201 58.2562 14.5225 58.2675 14.5272C58.2788 14.5319 58.289 14.5387 58.2977 14.5474C58.3063 14.556 58.3131 14.5662 58.3178 14.5775C58.3225 14.5888 58.3249 14.6009 58.3249 14.6131V28.5249C58.3249 28.5495 58.3347 28.5732 58.3521 28.5906C58.3696 28.6081 58.3932 28.6179 58.4179 28.6179H63.1686C63.1933 28.6179 63.2169 28.6081 63.2343 28.5906C63.2518 28.5732 63.2616 28.5495 63.2616 28.5249L63.313 9.91387C63.313 9.8892 63.3032 9.86555 63.2858 9.84811C63.2683 9.83067 63.2447 9.82087 63.22 9.82087H51.186C51.1664 9.82068 51.1472 9.8267 51.1312 9.83807C51.1152 9.84945 51.1032 9.86559 51.097 9.88419L44.799 28.4952C44.7942 28.5093 44.7929 28.5243 44.7952 28.5389C44.7974 28.5536 44.8031 28.5675 44.8118 28.5795C44.8206 28.5915 44.832 28.6013 44.8453 28.6079C44.8585 28.6146 44.8732 28.618 44.888 28.6179H49.6842C49.7038 28.6181 49.723 28.6121 49.739 28.6007C49.755 28.5893 49.767 28.5732 49.7732 28.5546L54.5259 14.5834ZM109.868 14.6052C109.868 14.5826 109.877 14.561 109.893 14.545C109.909 14.5291 109.931 14.5201 109.953 14.5201H114.631C114.653 14.5201 114.675 14.5112 114.691 14.4952C114.707 14.4792 114.716 14.4576 114.716 14.435V9.90595C114.716 9.88338 114.707 9.86174 114.691 9.84579C114.675 9.82983 114.653 9.82087 114.631 9.82087H100.406C100.384 9.82087 100.362 9.82983 100.346 9.84579C100.33 9.86174 100.321 9.88338 100.321 9.90595V14.435C100.321 14.4576 100.33 14.4792 100.346 14.4952C100.362 14.5112 100.384 14.5201 100.406 14.5201H105.064C105.087 14.5201 105.108 14.5291 105.124 14.545C105.14 14.561 105.149 14.5826 105.149 14.6052L105.167 28.5328C105.167 28.5554 105.176 28.577 105.192 28.593C105.208 28.6089 105.23 28.6179 105.252 28.6179H109.783C109.806 28.6179 109.827 28.6089 109.843 28.593C109.859 28.577 109.868 28.5554 109.868 28.5328V14.6052ZM113.034 22.9946C113.034 23.007 113.037 23.0192 113.041 23.0307C113.046 23.0421 113.053 23.0524 113.062 23.0611C113.071 23.0697 113.081 23.0765 113.093 23.0811C113.104 23.0857 113.117 23.0879 113.129 23.0876L114.494 23.0738C114.509 23.0736 114.524 23.077 114.537 23.0837C114.55 23.0904 114.562 23.1001 114.57 23.1121C114.579 23.1241 114.585 23.138 114.587 23.1527C114.589 23.1674 114.588 23.1824 114.583 23.1964L112.787 28.4952C112.782 28.5093 112.781 28.5243 112.783 28.5389C112.785 28.5536 112.791 28.5675 112.8 28.5795C112.808 28.5915 112.82 28.6013 112.833 28.6079C112.846 28.6146 112.861 28.618 112.876 28.6179H117.391C117.411 28.6181 117.43 28.6121 117.446 28.6007C117.462 28.5893 117.474 28.5732 117.48 28.5546L119.318 23.1311C119.324 23.1125 119.336 23.0964 119.352 23.085C119.368 23.0736 119.388 23.0676 119.407 23.0678L124.635 23.1351C124.654 23.1352 124.672 23.1411 124.688 23.1521C124.704 23.163 124.715 23.1785 124.722 23.1964L126.548 28.5546C126.554 28.5732 126.566 28.5893 126.582 28.6007C126.598 28.6121 126.618 28.6181 126.637 28.6179H131.148C131.163 28.6177 131.178 28.6141 131.191 28.6073C131.204 28.6005 131.215 28.5907 131.223 28.5787C131.232 28.5667 131.237 28.5529 131.239 28.5384C131.242 28.5239 131.24 28.5091 131.236 28.4952L124.951 9.88419C124.945 9.86559 124.933 9.84945 124.917 9.83807C124.901 9.8267 124.882 9.82068 124.862 9.82087H119.172C119.152 9.82068 119.133 9.8267 119.117 9.83807C119.101 9.84945 119.089 9.86559 119.083 9.88419L116.232 18.3151C116.225 18.3337 116.213 18.3499 116.197 18.3613C116.181 18.3726 116.162 18.3786 116.143 18.3785H113.127C113.115 18.3785 113.103 18.3809 113.091 18.3855C113.08 18.3902 113.07 18.3971 113.061 18.4057C113.053 18.4143 113.046 18.4246 113.041 18.4359C113.036 18.4471 113.034 18.4592 113.034 18.4715V22.9946ZM32.3692 27.0271C32.3581 27.0377 32.3439 27.0444 32.3287 27.0463C32.3135 27.0482 32.2981 27.0451 32.2848 27.0376C32.2715 27.03 32.2609 27.0184 32.2548 27.0044C32.2486 26.9904 32.2471 26.9747 32.2505 26.9598C32.4246 26.2455 33.9323 19.6982 32.9015 19.7754C32.8329 19.7793 32.7946 19.8156 32.7867 19.8842C32.5374 21.8767 31.835 23.7841 31.2157 25.6935C31.211 25.7096 31.2013 25.7238 31.1879 25.7339C31.1745 25.744 31.1582 25.7494 31.1415 25.7494C31.1247 25.7494 31.1084 25.744 31.095 25.7339C31.0816 25.7238 31.0719 25.7096 31.0673 25.6935C30.6062 24.2491 29.1777 23.0045 27.9252 22.2783C26.18 21.2692 24.3656 21.5225 23.0063 23.0065C22.3197 23.7564 23.7602 24.2055 24.055 24.9653C25.3233 28.2281 28.4832 26.3979 30.5152 28.2716C30.5719 28.3244 30.5944 28.389 30.5825 28.4655C30.3193 30.2305 30.2718 32.8779 32.3514 33.3626C32.3827 33.3698 32.4154 33.368 32.4457 33.3576C32.4761 33.3471 32.5029 33.3284 32.5229 33.3036C32.543 33.2787 32.5556 33.2488 32.5592 33.2172C32.5628 33.1857 32.5573 33.1538 32.5433 33.1252C32.2162 32.4419 32.0124 31.723 31.9319 30.9685C31.924 30.8986 31.9477 30.8419 32.0031 30.7983C33.8195 29.35 36.2493 30.4184 37.8718 28.7326C38.4594 28.1212 38.4693 27.4089 39.3498 26.8787C39.7772 26.6234 39.9474 26.3464 39.5121 25.9665C36.9992 23.7781 34.4092 24.9772 32.3692 27.0271Z" fill="#053490"/>
<path d="M38.7957 15.1417L38.952 15.664C38.9837 15.7722 38.9441 15.817 38.8333 15.7986C38.3492 15.7168 38.1157 15.9054 38.1329 16.3645C38.1355 16.4528 38.0926 16.497 38.0043 16.497L37.2999 16.501C37.2379 16.501 37.1891 16.5261 37.1535 16.5762L36.8507 16.9857C36.7953 17.0596 36.73 17.0702 36.6548 17.0174C36.2235 16.7153 35.8218 16.7285 35.4499 17.057C35.3839 17.115 35.312 17.1229 35.2342 17.0807L34.5278 16.6929C34.4698 16.6599 34.4084 16.6527 34.3438 16.6711L33.8294 16.8195C33.7529 16.842 33.6843 16.8275 33.6236 16.776L33.0419 16.2754C32.9904 16.2319 32.9304 16.2095 32.8618 16.2081L32.2049 16.1923C32.1205 16.1897 32.0605 16.1501 32.0248 16.0736C31.7993 15.5789 31.4069 15.3145 30.8476 15.2802C30.7631 15.2749 30.711 15.2314 30.6912 15.1496L30.5745 14.6688C30.556 14.5923 30.5132 14.5349 30.4459 14.4966L29.7652 14.0969C29.6993 14.0587 29.6742 14.002 29.6901 13.9268C29.7929 13.4374 29.605 13.0958 29.1261 12.9019C29.0272 12.8623 29.012 12.8016 29.0806 12.7198L29.3675 12.3736C29.4111 12.3195 29.4137 12.2634 29.3755 12.2054L29.0193 11.6652C28.9758 11.6006 28.9876 11.5485 29.0549 11.5089L29.4665 11.2695C29.5417 11.226 29.5654 11.1626 29.5377 11.0795L29.3853 10.6343C29.359 10.5539 29.3873 10.5044 29.4704 10.4859L30.0482 10.3514C30.0983 10.3395 30.1293 10.3079 30.1412 10.2564L30.252 9.73208C30.2744 9.62524 30.3351 9.59424 30.434 9.63909C30.9115 9.85146 31.2321 9.73934 31.3956 9.30272C31.4299 9.21302 31.4919 9.18268 31.5816 9.2117L32.3335 9.45112C32.3968 9.47222 32.4522 9.46035 32.4997 9.4155C32.8836 9.05935 33.2582 9.08045 33.6236 9.47882C33.679 9.53818 33.7463 9.5606 33.8254 9.54609L34.5852 9.40363C34.6564 9.39044 34.7138 9.4122 34.7573 9.46893C35.0977 9.90818 35.5521 10.0942 36.1206 10.0269C36.2064 10.0177 36.267 10.0526 36.3027 10.1318C36.5282 10.6317 36.9226 10.9021 37.4859 10.943C37.5848 10.9509 37.6395 11.0037 37.6501 11.1013C37.7081 11.6276 38.0063 11.9488 38.5444 12.0649C38.6236 12.0807 38.6579 12.1289 38.6473 12.2093L38.582 12.7258C38.5754 12.7838 38.5939 12.8326 38.6374 12.8722L39.1915 13.355C39.2548 13.4104 39.2594 13.471 39.2053 13.537L38.952 13.8476C38.9072 13.903 38.9052 13.9591 38.9461 14.0158L39.3201 14.5461C39.3636 14.6081 39.353 14.6589 39.2884 14.6984L38.861 14.9656C38.7937 15.0078 38.772 15.0665 38.7957 15.1417Z" fill="#053490"/>
<path d="M120.958 18.2994L121.96 15.3393C121.964 15.3281 121.972 15.3185 121.981 15.3117C121.991 15.3049 122.003 15.3013 122.015 15.3013C122.027 15.3013 122.039 15.3049 122.049 15.3117C122.059 15.3185 122.066 15.3281 122.07 15.3393L123.072 18.2994C123.075 18.3083 123.076 18.3178 123.075 18.3272C123.073 18.3365 123.07 18.3454 123.064 18.3532C123.059 18.3609 123.052 18.3673 123.043 18.3717C123.035 18.3761 123.026 18.3784 123.016 18.3785H121.014C121.004 18.3784 120.995 18.3761 120.987 18.3717C120.978 18.3673 120.971 18.3609 120.966 18.3532C120.96 18.3454 120.957 18.3365 120.956 18.3272C120.954 18.3178 120.955 18.3083 120.958 18.2994Z" fill="#053490"/>
<path d="M29.9829 26.1129C28.3684 24.5261 26.4946 23.6752 24.239 23.4062C24.1255 23.3916 24.1229 23.3672 24.231 23.3329C24.4144 23.2749 24.5997 23.2459 24.787 23.2459C27.0532 23.2393 28.8195 24.1659 30.0858 26.0259C30.0974 26.0395 30.103 26.0572 30.1015 26.075C30.1 26.0928 30.0915 26.1093 30.0779 26.1208C30.0643 26.1324 30.0466 26.138 30.0288 26.1365C30.011 26.1351 29.9945 26.1266 29.9829 26.1129Z" fill="#053490"/>
<path d="M38.3583 26.3562C36.1857 26.5995 34.0824 27.3435 32.3986 28.778C32.3927 28.782 32.3857 28.784 32.3785 28.7835C32.3714 28.783 32.3647 28.7801 32.3594 28.7753C32.3542 28.7704 32.3507 28.764 32.3495 28.757C32.3484 28.7499 32.3496 28.7427 32.3531 28.7365C33.7698 26.6431 35.9384 26.0653 38.3385 26.1979C38.3847 26.2005 38.413 26.2203 38.4236 26.2572C38.442 26.3166 38.4203 26.3496 38.3583 26.3562Z" fill="#053490"/>
<path d="M26.4531 8.30529L25.8556 7.03897C25.8443 7.01577 25.8389 6.99015 25.8398 6.96434C25.8408 6.93853 25.8482 6.91331 25.8612 6.89088C25.8743 6.86845 25.8927 6.84948 25.9148 6.83563C25.9369 6.82178 25.9621 6.81347 25.9882 6.81142C26.6899 6.76394 27.3804 6.82791 28.0598 7.00335C28.0739 7.00711 28.0886 7.00772 28.103 7.00514C28.1173 7.00255 28.131 6.99684 28.143 6.98838C28.1551 6.97992 28.1652 6.96892 28.1727 6.95613C28.1801 6.94335 28.1848 6.92908 28.1864 6.91431C28.2233 6.55156 28.2682 6.18486 28.321 5.81419C28.4397 4.98911 30.3095 6.02987 30.6439 6.27126C30.7032 6.31479 30.7553 6.30753 30.8002 6.24949L31.5976 5.23446C31.6409 5.1794 31.7041 5.14342 31.7735 5.13418C31.843 5.12495 31.9133 5.14318 31.9696 5.18499C32.3468 5.46596 32.6542 5.8109 32.8916 6.21982C32.9026 6.23894 32.9183 6.25495 32.9372 6.26639C32.9561 6.27783 32.9776 6.28434 32.9998 6.28532C33.022 6.2863 33.0442 6.28173 33.0643 6.27202C33.0845 6.26231 33.102 6.24777 33.1152 6.22971C34.5715 4.166 35.8318 5.6658 36.3819 7.25662C36.3858 7.26842 36.3921 7.27928 36.4005 7.28849C36.4088 7.2977 36.419 7.30506 36.4304 7.31009C36.4418 7.31513 36.4541 7.31772 36.4665 7.31771C36.4789 7.3177 36.4912 7.31509 36.5026 7.31004C37.0368 7.07854 38.2379 6.51265 38.7602 6.85891C39.3677 7.2586 39.4785 8.67728 39.5438 9.19766C39.553 9.27153 39.5952 9.30714 39.6704 9.3045C41.006 9.24119 43.3645 9.56766 43.9106 10.8914C43.9357 10.952 43.9324 11.0107 43.9007 11.0675C43.6395 11.5384 42.6047 12.0825 42.1298 12.3476C42.1132 12.3571 42.0996 12.3711 42.0906 12.388C42.0816 12.4049 42.0776 12.424 42.079 12.443C42.0805 12.4621 42.0873 12.4804 42.0988 12.4957C42.1102 12.5111 42.1258 12.5229 42.1437 12.5297C43.0908 12.8885 43.908 13.4299 44.5952 14.1541C45.3352 14.9377 43.1429 15.6618 42.6957 15.7271C42.671 15.7309 42.6479 15.7417 42.6292 15.7583C42.6106 15.775 42.5971 15.7967 42.5906 15.8209C42.5841 15.845 42.5848 15.8705 42.5926 15.8943C42.6003 15.9181 42.6149 15.939 42.6344 15.9547C43.472 16.634 43.7833 17.5145 43.5683 18.5962C43.5494 18.692 43.5009 18.7795 43.4296 18.8466C43.3583 18.9136 43.2677 18.9568 43.1706 18.9701C42.3923 19.073 41.6391 18.9761 40.911 18.6793C40.8319 18.6463 40.7883 18.672 40.7804 18.7564C40.7013 19.5162 40.7923 20.5313 40.2877 21.1407C40.2442 21.1921 40.1888 21.2178 40.1215 21.2178C39.0742 21.2007 38.1541 20.8551 37.3613 20.181C37.3485 20.1704 37.3337 20.1626 37.3177 20.1581C37.3017 20.1536 37.2851 20.1526 37.2688 20.155C37.2525 20.1574 37.2369 20.1633 37.2232 20.1722C37.2095 20.1812 37.1979 20.1929 37.1892 20.2068L36.3404 21.5325C36.2981 21.5997 36.2394 21.6202 36.1643 21.5938C34.8781 21.1387 33.838 20.3637 33.044 19.2689C33.007 19.2175 32.9622 19.2089 32.9094 19.2432C31.5336 20.1204 30.0879 20.2608 28.5722 19.6646C28.4649 19.622 28.3769 19.5414 28.3251 19.4381C28.2733 19.3349 28.2613 19.2162 28.2913 19.1047L28.689 17.6484C28.7088 17.5732 28.6797 17.5383 28.6019 17.5435C27.8817 17.589 25.5766 17.3397 25.8121 16.0971C25.9281 15.489 26.1267 14.9113 26.4076 14.3639C26.4406 14.2979 26.4248 14.2478 26.3601 14.2135C25.5667 13.7881 24.3162 13.0204 24.245 12.1142C24.2397 12.0456 24.2595 11.9855 24.3043 11.9341C24.6882 11.4856 25.1565 11.1624 25.7092 10.9646C25.8055 10.929 25.8127 10.8815 25.7309 10.8221C25.165 10.4119 24.7159 9.90007 24.3835 9.2867C24.3535 9.23201 24.3462 9.16776 24.3633 9.10803C24.3803 9.0483 24.4203 8.99799 24.4745 8.96814C25.0734 8.63441 25.7177 8.43984 26.4076 8.38444C26.4166 8.38372 26.4252 8.38082 26.4328 8.37601C26.4404 8.3712 26.4467 8.36462 26.4512 8.35683C26.4557 8.34904 26.4582 8.34028 26.4585 8.3313C26.4589 8.32232 26.457 8.3134 26.4531 8.30529ZM38.8611 14.9654L39.2885 14.6983C39.3532 14.6587 39.3637 14.6079 39.3202 14.5459L38.9462 14.0156C38.9053 13.9589 38.9073 13.9028 38.9521 13.8474L39.2054 13.5368C39.2595 13.4708 39.2549 13.4102 39.1916 13.3548L38.6375 12.872C38.594 12.8324 38.5756 12.7836 38.5821 12.7256L38.6474 12.2091C38.658 12.1287 38.6237 12.0805 38.5446 12.0647C38.0064 11.9486 37.7083 11.6274 37.6502 11.1011C37.6397 11.0035 37.5849 10.9507 37.486 10.9428C36.9227 10.9019 36.5283 10.6315 36.3028 10.1316C36.2671 10.0524 36.2065 10.0175 36.1207 10.0267C35.5522 10.094 35.0978 9.90799 34.7575 9.46873C34.7139 9.41201 34.6565 9.39024 34.5853 9.40343L33.8255 9.5459C33.7464 9.56041 33.6791 9.53798 33.6237 9.47862C33.2583 9.08026 32.8837 9.05915 32.4998 9.41531C32.4523 9.46015 32.3969 9.47203 32.3336 9.45092L31.5817 9.21151C31.492 9.18249 31.43 9.21283 31.3958 9.30252C31.2322 9.73914 30.9116 9.85126 30.4341 9.63889C30.3352 9.59404 30.2745 9.62504 30.2521 9.73189L30.1413 10.2562C30.1294 10.3077 30.0984 10.3393 30.0483 10.3512L29.4705 10.4857C29.3874 10.5042 29.3591 10.5537 29.3855 10.6341L29.5378 11.0793C29.5655 11.1624 29.5418 11.2258 29.4666 11.2693L29.055 11.5087C28.9878 11.5483 28.9759 11.6004 29.0194 11.665L29.3756 12.2052C29.4138 12.2632 29.4112 12.3193 29.3677 12.3734L29.0808 12.7196C29.0122 12.8014 29.0273 12.8621 29.1263 12.9017C29.6051 13.0956 29.7931 13.4372 29.6902 13.9266C29.6743 14.0018 29.6994 14.0585 29.7654 14.0968L30.446 14.4964C30.5133 14.5347 30.5562 14.5921 30.5746 14.6686L30.6914 15.1494C30.7111 15.2312 30.7633 15.2747 30.8477 15.28C31.407 15.3143 31.7994 15.5787 32.025 16.0734C32.0606 16.1499 32.1206 16.1895 32.205 16.1921L32.8619 16.208C32.9305 16.2093 32.9905 16.2317 33.042 16.2752L33.6237 16.7758C33.6844 16.8273 33.753 16.8418 33.8295 16.8193L34.3439 16.6709C34.4085 16.6525 34.4699 16.6597 34.5279 16.6927L35.2343 17.0805C35.3121 17.1227 35.384 17.1148 35.45 17.0568C35.822 16.7283 36.2236 16.7151 36.655 17.0172C36.7301 17.07 36.7954 17.0594 36.8508 16.9856L37.1536 16.576C37.1892 16.5259 37.238 16.5008 37.3 16.5008L38.0044 16.4968C38.0928 16.4968 38.1356 16.4526 38.133 16.3643C38.1159 15.9052 38.3493 15.7166 38.8334 15.7984C38.9442 15.8168 38.9838 15.772 38.9521 15.6638L38.7958 15.1415C38.7721 15.0663 38.7939 15.0076 38.8611 14.9654Z" fill="#FFD300"/>
<path d="M70.2898 16.4337L78.9582 16.4554C78.9829 16.4554 79.0065 16.4652 79.024 16.4827C79.0414 16.5001 79.0512 16.5238 79.0512 16.5484V21.0557C79.0512 21.0804 79.0414 21.1041 79.024 21.1215C79.0065 21.1389 78.9829 21.1487 78.9582 21.1487H70.2819C70.2572 21.1487 70.2336 21.1585 70.2161 21.176C70.1987 21.1934 70.1889 21.2171 70.1889 21.2417L70.2126 23.8258C70.2126 23.838 70.215 23.8501 70.2197 23.8614C70.2244 23.8727 70.2312 23.883 70.2399 23.8916C70.2485 23.9002 70.2588 23.9071 70.27 23.9117C70.2813 23.9164 70.2934 23.9188 70.3056 23.9188H79.5023C79.527 23.9188 79.5506 23.9286 79.5681 23.9461C79.5855 23.9635 79.5953 23.9872 79.5953 24.0118V28.5251C79.5953 28.5497 79.5855 28.5734 79.5681 28.5908C79.5506 28.6083 79.527 28.6181 79.5023 28.6181H65.5906C65.5783 28.6181 65.5662 28.6157 65.555 28.611C65.5437 28.6063 65.5334 28.5995 65.5248 28.5908C65.5162 28.5822 65.5093 28.572 65.5046 28.5607C65.5 28.5494 65.4976 28.5373 65.4976 28.5251V9.91604C65.4976 9.90383 65.5 9.89174 65.5046 9.88046C65.5093 9.86917 65.5162 9.85892 65.5248 9.85029C65.5334 9.84165 65.5437 9.8348 65.555 9.83013C65.5662 9.82545 65.5783 9.82305 65.5906 9.82305L79.255 9.81909C79.2797 9.81909 79.3033 9.82889 79.3207 9.84633C79.3382 9.86377 79.348 9.88742 79.348 9.91209V14.4273C79.348 14.452 79.3382 14.4756 79.3207 14.4931C79.3033 14.5105 79.2797 14.5203 79.255 14.5203H70.2898C70.2651 14.5203 70.2415 14.5301 70.224 14.5476C70.2066 14.565 70.1968 14.5887 70.1968 14.6133V16.3407C70.1968 16.3653 70.2066 16.389 70.224 16.4064C70.2415 16.4239 70.2651 16.4337 70.2898 16.4337Z" fill="#FFD300"/>
<path d="M87.0648 21.2557V28.5113C87.0648 28.5396 87.0535 28.5668 87.0335 28.5869C87.0134 28.6069 86.9863 28.6182 86.9579 28.6182H82.4724C82.444 28.6182 82.4168 28.6069 82.3968 28.5869C82.3768 28.5668 82.3655 28.5396 82.3655 28.5113V21.2557C82.3655 21.2273 82.3543 21.2002 82.3342 21.1801C82.3142 21.1601 82.287 21.1488 82.2587 21.1488H81.0873C81.059 21.1488 81.0318 21.1376 81.0118 21.1175C80.9917 21.0975 80.9805 21.0703 80.9805 21.042V16.5564C80.9805 16.5281 80.9917 16.5009 81.0118 16.4809C81.0318 16.4608 81.059 16.4496 81.0873 16.4496H82.2587C82.287 16.4496 82.3142 16.4383 82.3342 16.4183C82.3543 16.3982 82.3655 16.3711 82.3655 16.3427V9.93195C82.3655 9.90361 82.3768 9.87643 82.3968 9.8564C82.4168 9.83636 82.444 9.8251 82.4724 9.8251L86.9579 9.81521C86.9863 9.81521 87.0134 9.82647 87.0335 9.8465C87.0535 9.86654 87.0648 9.89372 87.0648 9.92205V16.3427C87.0648 16.3711 87.076 16.3982 87.0961 16.4183C87.1161 16.4383 87.1433 16.4496 87.1716 16.4496H93.5784C93.6068 16.4496 93.6339 16.4383 93.654 16.4183C93.674 16.3982 93.6853 16.3711 93.6853 16.3427L93.6971 9.93195C93.6971 9.90361 93.7084 9.87643 93.7284 9.8564C93.7485 9.83636 93.7757 9.8251 93.804 9.8251L98.2856 9.81323C98.3139 9.81323 98.3411 9.82449 98.3611 9.84453C98.3812 9.86456 98.3924 9.89174 98.3924 9.92008V28.5113C98.3924 28.5396 98.3812 28.5668 98.3611 28.5869C98.3411 28.6069 98.3139 28.6182 98.2856 28.6182H93.8C93.7717 28.6182 93.7445 28.6069 93.7245 28.5869C93.7044 28.5668 93.6932 28.5396 93.6932 28.5113V21.2557C93.6932 21.2273 93.6819 21.2002 93.6619 21.1801C93.6419 21.1601 93.6147 21.1488 93.5863 21.1488H87.1716C87.1433 21.1488 87.1161 21.1601 87.0961 21.1801C87.076 21.2002 87.0648 21.2273 87.0648 21.2557Z" fill="#FFD300"/>
<path d="M54.5258 14.5836L49.7731 28.5547C49.7668 28.5733 49.7548 28.5895 49.7388 28.6009C49.7229 28.6122 49.7037 28.6182 49.6841 28.6181H44.8878C44.873 28.6182 44.8584 28.6148 44.8451 28.6081C44.8319 28.6014 44.8204 28.5917 44.8117 28.5797C44.803 28.5677 44.7972 28.5538 44.795 28.5391C44.7928 28.5244 44.7941 28.5094 44.7988 28.4954L51.0968 9.88437C51.1031 9.86577 51.115 9.84963 51.131 9.83825C51.147 9.82688 51.1662 9.82086 51.1858 9.82105H63.2199C63.2445 9.82105 63.2682 9.83085 63.2856 9.84829C63.3031 9.86573 63.3129 9.88938 63.3129 9.91405L63.2614 28.5251C63.2614 28.5497 63.2516 28.5734 63.2342 28.5908C63.2168 28.6083 63.1931 28.6181 63.1684 28.6181H58.4177C58.3931 28.6181 58.3694 28.6083 58.352 28.5908C58.3345 28.5734 58.3247 28.5497 58.3247 28.5251V14.6133C58.3247 14.6011 58.3223 14.589 58.3177 14.5777C58.313 14.5664 58.3061 14.5562 58.2975 14.5475C58.2889 14.5389 58.2786 14.5321 58.2673 14.5274C58.2561 14.5227 58.244 14.5203 58.2317 14.5203H54.6148C54.5952 14.5201 54.576 14.5261 54.56 14.5375C54.544 14.5489 54.532 14.565 54.5258 14.5836Z" fill="#FFD300"/>
<path d="M109.868 14.6054V28.533C109.868 28.5555 109.859 28.5772 109.843 28.5931C109.827 28.6091 109.806 28.6181 109.783 28.6181H105.252C105.229 28.6181 105.208 28.6091 105.192 28.5931C105.176 28.5772 105.167 28.5555 105.167 28.533L105.149 14.6054C105.149 14.5828 105.14 14.5612 105.124 14.5452C105.108 14.5293 105.087 14.5203 105.064 14.5203H100.406C100.384 14.5203 100.362 14.5113 100.346 14.4954C100.33 14.4794 100.321 14.4578 100.321 14.4352V9.90612C100.321 9.88356 100.33 9.86192 100.346 9.84597C100.362 9.83001 100.384 9.82104 100.406 9.82104H114.631C114.653 9.82104 114.675 9.83001 114.691 9.84597C114.707 9.86192 114.716 9.88356 114.716 9.90612V14.4352C114.716 14.4578 114.707 14.4794 114.691 14.4954C114.675 14.5113 114.653 14.5203 114.631 14.5203H109.953C109.931 14.5203 109.909 14.5293 109.893 14.5452C109.877 14.5612 109.868 14.5828 109.868 14.6054Z" fill="#FFD300"/>
<path d="M113.034 22.9948V18.4716C113.034 18.4594 113.036 18.4473 113.041 18.436C113.046 18.4248 113.053 18.4145 113.061 18.4059C113.07 18.3972 113.08 18.3904 113.091 18.3857C113.103 18.381 113.115 18.3786 113.127 18.3786H116.142C116.162 18.3788 116.181 18.3728 116.197 18.3614C116.213 18.3501 116.225 18.3339 116.231 18.3153L119.083 9.88437C119.089 9.86577 119.101 9.84963 119.117 9.83825C119.133 9.82688 119.152 9.82086 119.172 9.82105H124.862C124.882 9.82086 124.901 9.82688 124.917 9.83825C124.933 9.84963 124.945 9.86577 124.951 9.88437L131.235 28.4954C131.24 28.5093 131.241 28.5241 131.239 28.5386C131.237 28.5531 131.232 28.5669 131.223 28.5789C131.215 28.5909 131.203 28.6006 131.19 28.6074C131.177 28.6143 131.163 28.6179 131.148 28.6181H126.637C126.617 28.6182 126.598 28.6122 126.582 28.6009C126.566 28.5895 126.554 28.5733 126.548 28.5547L124.722 23.1966C124.715 23.1787 124.703 23.1632 124.688 23.1522C124.672 23.1413 124.654 23.1353 124.635 23.1353L119.407 23.068C119.387 23.0678 119.368 23.0738 119.352 23.0852C119.336 23.0966 119.324 23.1127 119.318 23.1313L117.48 28.5547C117.474 28.5733 117.462 28.5895 117.446 28.6009C117.43 28.6122 117.411 28.6182 117.391 28.6181H112.876C112.861 28.6182 112.846 28.6148 112.833 28.6081C112.82 28.6014 112.808 28.5917 112.799 28.5797C112.791 28.5677 112.785 28.5538 112.783 28.5391C112.781 28.5244 112.782 28.5094 112.787 28.4954L114.583 23.1966C114.588 23.1825 114.589 23.1676 114.587 23.1529C114.585 23.1382 114.579 23.1243 114.57 23.1123C114.562 23.1003 114.55 23.0905 114.537 23.0839C114.524 23.0772 114.509 23.0738 114.494 23.0739L113.129 23.0878C113.117 23.088 113.104 23.0858 113.093 23.0813C113.081 23.0767 113.071 23.0699 113.062 23.0613C113.053 23.0526 113.046 23.0423 113.041 23.0308C113.036 23.0194 113.034 23.0072 113.034 22.9948ZM120.958 18.2995C120.955 18.3084 120.954 18.3179 120.956 18.3273C120.957 18.3367 120.96 18.3456 120.966 18.3533C120.971 18.3611 120.978 18.3674 120.987 18.3718C120.995 18.3762 121.004 18.3785 121.014 18.3786H123.016C123.026 18.3785 123.035 18.3762 123.043 18.3718C123.052 18.3674 123.059 18.3611 123.064 18.3533C123.07 18.3456 123.073 18.3367 123.074 18.3273C123.076 18.3179 123.075 18.3084 123.072 18.2995L122.07 15.3395C122.066 15.3283 122.058 15.3186 122.049 15.3118C122.039 15.305 122.027 15.3014 122.015 15.3014C122.003 15.3014 121.991 15.305 121.981 15.3118C121.971 15.3186 121.964 15.3283 121.96 15.3395L120.958 18.2995Z" fill="#FFD300"/>
<path d="M32.3691 27.027C34.4091 24.9772 36.9991 23.7781 39.512 25.9665C39.9473 26.3464 39.7771 26.6234 39.3497 26.8786C38.4692 27.4089 38.4593 28.1212 37.8717 28.7326C36.2492 30.4184 33.8194 29.3499 32.003 30.7983C31.9476 30.8418 31.9239 30.8985 31.9318 30.9685C32.0123 31.723 32.2161 32.4419 32.5432 33.1252C32.5572 33.1537 32.5627 33.1856 32.5591 33.2172C32.5555 33.2488 32.5429 33.2787 32.5228 33.3035C32.5028 33.3284 32.476 33.3471 32.4456 33.3576C32.4153 33.368 32.3826 33.3698 32.3513 33.3626C30.2717 32.8778 30.3192 30.2304 30.5824 28.4655C30.5943 28.389 30.5718 28.3243 30.5151 28.2716C28.4831 26.3978 25.3232 28.2281 24.0549 24.9653C23.7601 24.2055 22.3196 23.7563 23.0062 23.0064C24.3655 21.5225 26.1799 21.2692 27.9251 22.2783C29.1776 23.0045 30.6061 24.249 31.0672 25.6934C31.0718 25.7096 31.0815 25.7237 31.0949 25.7338C31.1083 25.7439 31.1246 25.7494 31.1413 25.7494C31.1581 25.7494 31.1744 25.7439 31.1878 25.7338C31.2012 25.7237 31.2109 25.7096 31.2155 25.6934C31.8349 23.784 32.5373 21.8766 32.7866 19.8842C32.7945 19.8156 32.8328 19.7793 32.9013 19.7753C33.9322 19.6982 32.4245 26.2455 32.2504 26.9597C32.247 26.9747 32.2485 26.9903 32.2547 27.0043C32.2608 27.0184 32.2714 27.03 32.2847 27.0376C32.298 27.0451 32.3134 27.0482 32.3286 27.0463C32.3438 27.0444 32.358 27.0376 32.3691 27.027ZM24.2389 23.4061C26.4945 23.6752 28.3683 24.526 29.9829 26.1129C29.9944 26.1265 30.0109 26.135 30.0287 26.1365C30.0465 26.138 30.0642 26.1324 30.0778 26.1208C30.0915 26.1093 30.1 26.0928 30.1015 26.075C30.1029 26.0572 30.0973 26.0395 30.0858 26.0258C28.8194 24.1659 27.0532 23.2393 24.787 23.2459C24.5997 23.2459 24.4143 23.2749 24.231 23.3329C24.1228 23.3672 24.1254 23.3916 24.2389 23.4061ZM32.3988 28.7781C34.0826 27.3436 36.1859 26.5996 38.3584 26.3563C38.4204 26.3497 38.4422 26.3167 38.4237 26.2573C38.4132 26.2204 38.3848 26.2006 38.3386 26.198C35.9385 26.0654 33.77 26.6432 32.3533 28.7366C32.3498 28.7428 32.3485 28.75 32.3497 28.7571C32.3508 28.7641 32.3543 28.7705 32.3596 28.7753C32.3648 28.7802 32.3716 28.783 32.3787 28.7835C32.3858 28.784 32.3929 28.7821 32.3988 28.7781Z" fill="#00AD36"/>
</svg>
