<svg width="145" height="42" viewBox="0 0 145 42" fill="none" xmlns="http://www.w3.org/2000/svg">
<path d="M12.8097 22.0629C12.8129 20.2343 12.8161 18.4041 12.8312 16.5756C12.8468 14.6509 14.3543 13.036 16.2909 13.036C21.75 13.0349 27.2104 13.0349 32.672 13.036C32.6917 13.036 32.7016 13.0262 32.7016 13.0065V9.46747C32.7016 9.44814 32.6919 9.43848 32.6726 9.43848C27.2711 9.43848 21.8697 9.43866 16.4683 9.43901C16.0174 9.43901 15.66 9.45637 15.3962 9.49109C12.086 9.92541 9.58924 12.5732 9.25537 15.8685C9.23028 16.1183 9.21791 16.4757 9.21827 16.9406C9.22114 19.8826 9.22167 22.8247 9.21988 25.7667C9.21988 25.7828 9.22777 25.79 9.24354 25.7882C9.73924 25.7338 10.0991 25.6708 10.3231 25.5992C11.5452 25.2089 12.4624 24.2356 12.7387 22.9798C12.7853 22.7665 12.8089 22.4609 12.8097 22.0629Z" stroke="#EF858A" stroke-width="0.147733"/>
<path d="M53.2127 19.7034C53.2147 19.7011 53.2174 19.6995 53.2203 19.6987C53.2232 19.698 53.2263 19.6981 53.2292 19.6992C53.232 19.7002 53.2345 19.7021 53.2363 19.7046C53.238 19.7071 53.239 19.71 53.239 19.713V28.873C53.239 28.8909 53.248 28.8999 53.2659 28.8999H57.3116C57.3295 28.8999 57.3385 28.8909 57.3385 28.873V13.385C57.3385 13.3675 57.3297 13.3587 57.3122 13.3587C56.9401 13.3582 53.3073 13.3345 53.2788 13.3705C51.9039 15.1425 50.5312 16.9122 49.1606 18.6796C49.159 18.6816 49.157 18.6832 49.1547 18.6843C49.1524 18.6854 49.1499 18.686 49.1474 18.686C49.1448 18.686 49.1423 18.6854 49.14 18.6843C49.1378 18.6832 49.1358 18.6816 49.1342 18.6796L45.0224 13.3802C45.0109 13.3651 44.9957 13.3576 44.9767 13.3576L40.981 13.3571C40.9631 13.3571 40.9541 13.3662 40.9541 13.3845V28.873C40.9541 28.8909 40.9631 28.8999 40.981 28.8999H45.0267C45.0446 28.8999 45.0536 28.8909 45.0536 28.873V19.7222C45.0535 19.7183 45.0546 19.7144 45.0568 19.7112C45.059 19.708 45.0622 19.7055 45.0658 19.7041C45.0695 19.7028 45.0735 19.7026 45.0773 19.7036C45.081 19.7046 45.0844 19.7068 45.0869 19.7098L49.1288 24.5298C49.141 24.5448 49.1534 24.5448 49.1659 24.5298L53.2127 19.7034Z" stroke="#EF858A" stroke-width="0.147733"/>
<path d="M80.8873 16.9858C80.8873 16.9811 80.8892 16.9766 80.8925 16.9733C80.8958 16.9699 80.9003 16.9681 80.905 16.9681L86.6088 16.9697C86.6135 16.9697 86.618 16.9678 86.6213 16.9645C86.6247 16.9612 86.6265 16.9567 86.6265 16.952V13.3754C86.6265 13.3707 86.6247 13.3662 86.6213 13.3629C86.618 13.3595 86.6135 13.3577 86.6088 13.3577H76.819C76.8143 13.3577 76.8098 13.3595 76.8065 13.3629C76.8031 13.3662 76.8013 13.3707 76.8013 13.3754V28.8822C76.8013 28.8845 76.8017 28.8868 76.8026 28.889C76.8035 28.8911 76.8048 28.8931 76.8065 28.8947C76.8081 28.8964 76.8101 28.8977 76.8122 28.8986C76.8144 28.8994 76.8167 28.8999 76.819 28.8999H80.8696C80.8719 28.8999 80.8742 28.8994 80.8763 28.8986C80.8785 28.8977 80.8804 28.8964 80.8821 28.8947C80.8837 28.8931 80.885 28.8911 80.8859 28.889C80.8868 28.8868 80.8873 28.8845 80.8873 28.8822V16.9858Z" stroke="#EF858A" stroke-width="0.147733"/>
<path d="M98.9704 22.8199C98.9755 22.8199 98.9804 22.8219 98.9841 22.8256C98.9877 22.8292 98.9897 22.8341 98.9897 22.8392L98.9924 28.8806C98.9924 28.8857 98.9945 28.8906 98.9981 28.8942C99.0017 28.8979 99.0066 28.8999 99.0118 28.8999H103.072C103.077 28.8999 103.082 28.8979 103.086 28.8942C103.089 28.8906 103.091 28.8857 103.091 28.8806V13.377C103.091 13.3719 103.089 13.367 103.086 13.3633C103.082 13.3597 103.077 13.3577 103.072 13.3577H99.0145C99.0093 13.3577 99.0044 13.3597 99.0008 13.3633C98.9971 13.367 98.9951 13.3719 98.9951 13.377L98.9822 19.1461C98.9822 19.1513 98.9802 19.1562 98.9765 19.1598C98.9729 19.1634 98.968 19.1655 98.9628 19.1655L92.9225 19.1628C92.9174 19.1628 92.9125 19.1608 92.9088 19.1571C92.9052 19.1535 92.9032 19.1486 92.9032 19.1435V13.377C92.9032 13.3719 92.9011 13.367 92.8975 13.3633C92.8939 13.3597 92.889 13.3577 92.8838 13.3577H88.8231C88.8179 13.3577 88.813 13.3597 88.8094 13.3633C88.8058 13.367 88.8037 13.3719 88.8037 13.377V28.8806C88.8037 28.8857 88.8058 28.8906 88.8094 28.8942C88.813 28.8979 88.8179 28.8999 88.8231 28.8999H92.8838C92.889 28.8999 92.8939 28.8979 92.8975 28.8942C92.9011 28.8906 92.9032 28.8857 92.9032 28.8806V22.8392C92.9032 22.8341 92.9052 22.8292 92.9088 22.8256C92.9125 22.8219 92.9174 22.8199 92.9225 22.8199H98.9704Z" stroke="#EF858A" stroke-width="0.147733"/>
<path d="M109.532 28.8999C109.534 28.9 109.537 28.8994 109.54 28.8982C109.542 28.8969 109.544 28.8952 109.546 28.8929L116.016 20.1066C116.018 20.1035 116.021 20.1011 116.025 20.0999C116.029 20.0988 116.033 20.0988 116.036 20.1C116.04 20.1012 116.043 20.1035 116.045 20.1066C116.047 20.1098 116.048 20.1135 116.048 20.1173V28.8822C116.048 28.8845 116.049 28.8868 116.05 28.889C116.051 28.8911 116.052 28.8931 116.053 28.8947C116.055 28.8964 116.057 28.8977 116.059 28.8986C116.061 28.8994 116.064 28.8999 116.066 28.8999H120.143C120.146 28.8999 120.148 28.8994 120.15 28.8986C120.152 28.8977 120.154 28.8964 120.156 28.8947C120.158 28.8931 120.159 28.8911 120.16 28.889C120.161 28.8868 120.161 28.8845 120.161 28.8822V13.3754C120.161 13.3707 120.159 13.3662 120.156 13.3629C120.153 13.3595 120.148 13.3577 120.143 13.3577H116.623C116.62 13.3577 116.617 13.3583 116.615 13.3597C116.612 13.361 116.61 13.3629 116.608 13.3652L110.234 22.0785C110.232 22.0816 110.229 22.0839 110.225 22.0851C110.221 22.0863 110.217 22.0863 110.214 22.0852C110.21 22.0841 110.207 22.0818 110.205 22.0788C110.203 22.0757 110.202 22.0721 110.202 22.0683V13.3754C110.202 13.3707 110.2 13.3662 110.196 13.3629C110.193 13.3595 110.188 13.3577 110.184 13.3577H106.12C106.115 13.3577 106.111 13.3595 106.107 13.3629C106.104 13.3662 106.102 13.3707 106.102 13.3754V28.8822C106.102 28.8845 106.103 28.8868 106.103 28.889C106.104 28.8911 106.106 28.8931 106.107 28.8947C106.109 28.8964 106.111 28.8977 106.113 28.8986C106.115 28.8994 106.117 28.8999 106.12 28.8999H109.532Z" stroke="#EF858A" stroke-width="0.147733"/>
<path d="M122.083 16.9477C122.083 16.953 122.086 16.958 122.089 16.9617C122.093 16.9655 122.098 16.9675 122.103 16.9675L126.849 16.9686C126.854 16.9686 126.859 16.9707 126.863 16.9744C126.866 16.9782 126.868 16.9832 126.868 16.9885V28.88C126.868 28.8853 126.871 28.8904 126.874 28.8941C126.878 28.8978 126.883 28.8999 126.888 28.8999H130.961C130.967 28.8999 130.972 28.8978 130.976 28.8941C130.979 28.8904 130.981 28.8853 130.981 28.88V16.9939C130.981 16.9912 130.982 16.9887 130.983 16.9863C130.984 16.9838 130.985 16.9817 130.987 16.9798C130.989 16.978 130.991 16.9765 130.994 16.9755C130.996 16.9745 130.999 16.974 131.001 16.974L135.773 16.9665C135.779 16.9665 135.784 16.9644 135.787 16.9607C135.791 16.9569 135.793 16.9519 135.793 16.9466V13.3775C135.793 13.3723 135.791 13.3672 135.787 13.3635C135.784 13.3598 135.779 13.3577 135.773 13.3577H122.103C122.098 13.3577 122.093 13.3598 122.089 13.3635C122.086 13.3672 122.083 13.3723 122.083 13.3775V16.9477Z" stroke="#EF858A" stroke-width="0.147733"/>
<path d="M62.9764 28.8994C62.98 28.8994 62.9835 28.8983 62.9865 28.8963C62.9895 28.8943 62.9918 28.8914 62.9931 28.8881L63.8334 26.7369C63.8347 26.7335 63.837 26.7307 63.84 26.7287C63.843 26.7266 63.8465 26.7256 63.8501 26.7256H70.1963C70.1999 26.7256 70.2034 26.7266 70.2064 26.7287C70.2094 26.7307 70.2117 26.7335 70.213 26.7369L71.056 28.8886C71.0573 28.892 71.0596 28.8948 71.0626 28.8969C71.0655 28.8989 71.0691 28.8999 71.0727 28.8999H75.2318C75.2347 28.8999 75.2376 28.8992 75.2401 28.8979C75.2427 28.8966 75.2449 28.8946 75.2465 28.8922C75.2482 28.8899 75.2492 28.8871 75.2496 28.8842C75.2499 28.8814 75.2495 28.8784 75.2485 28.8757L68.9603 13.3689C68.959 13.3657 68.9568 13.3629 68.9539 13.3609C68.9511 13.3589 68.9477 13.3577 68.9442 13.3577H65.1694C65.1659 13.3577 65.1625 13.3589 65.1597 13.3609C65.1568 13.3629 65.1546 13.3657 65.1533 13.3689L58.8635 28.8768C58.8625 28.8795 58.8621 28.8824 58.8624 28.8853C58.8628 28.8882 58.8638 28.8909 58.8654 28.8933C58.8671 28.8957 58.8693 28.8976 58.8719 28.899C58.8744 28.9003 58.8773 28.901 58.8802 28.901L62.9764 28.8994Z" stroke="#EF858A" stroke-width="0.147733"/>
<path d="M29.0159 26.439C28.7396 27.787 27.653 28.8667 26.3116 29.148C26.0754 29.1974 25.719 29.2221 25.2423 29.2221C19.9078 29.2221 14.5759 29.2221 9.24656 29.2221C9.23957 29.2221 9.23287 29.2248 9.22793 29.2298C9.22299 29.2347 9.22021 29.2414 9.22021 29.2484V32.8046C9.22021 32.8228 9.22935 32.832 9.24763 32.832C14.5688 32.8334 19.8901 32.8332 25.2116 32.8314C25.6887 32.8314 26.0467 32.8196 26.2858 32.796C29.682 32.4588 32.3347 29.7885 32.6664 26.4019C32.6901 26.1621 32.7019 25.8049 32.7019 25.3303C32.7016 22.3876 32.7014 19.4443 32.7014 16.5005C32.7014 16.4823 32.6923 16.474 32.674 16.4758C32.2403 16.5241 31.9397 16.5709 31.7724 16.6159C30.11 17.0648 29.0901 18.4402 29.088 20.1356C29.0858 21.8804 29.0851 23.6253 29.0858 25.3701C29.0858 25.855 29.0625 26.2113 29.0159 26.439Z" stroke="#EF858A" stroke-width="0.147733"/>
<path d="M20.9457 23.6929C20.9475 23.695 20.9497 23.6967 20.9522 23.6979C20.9547 23.6991 20.9574 23.6997 20.9602 23.6997C20.963 23.6997 20.9657 23.6991 20.9682 23.6979C20.9708 23.6967 20.973 23.695 20.9747 23.6929L23.0581 21.2061C23.0605 21.2032 23.0638 21.201 23.0676 21.2C23.0713 21.1989 23.0752 21.1991 23.0789 21.2004C23.0825 21.2017 23.0857 21.204 23.0879 21.2072C23.0902 21.2103 23.0914 21.2141 23.0914 21.2179V25.7942C23.0914 25.7992 23.0934 25.8039 23.0969 25.8075C23.1004 25.811 23.1052 25.813 23.1102 25.813H25.9086C25.9136 25.813 25.9184 25.811 25.9219 25.8075C25.9254 25.8039 25.9274 25.7992 25.9274 25.7942V16.6648C25.9274 16.6623 25.9269 16.6599 25.926 16.6576C25.925 16.6553 25.9237 16.6532 25.9219 16.6515C25.9202 16.6498 25.9181 16.6484 25.9158 16.6474C25.9135 16.6465 25.9111 16.646 25.9086 16.646H23.2511C23.2482 16.646 23.2453 16.6467 23.2427 16.648C23.2401 16.6493 23.2378 16.6512 23.236 16.6535L20.9742 19.5692C20.9724 19.5716 20.9702 19.5735 20.9676 19.5748C20.9649 19.5761 20.9621 19.5767 20.9591 19.5767C20.9562 19.5767 20.9533 19.5761 20.9507 19.5748C20.9481 19.5735 20.9458 19.5716 20.9441 19.5692L18.6844 16.6535C18.6827 16.6512 18.6804 16.6493 18.6778 16.648C18.6752 16.6467 18.6723 16.646 18.6694 16.646H16.0134C16.011 16.646 16.0085 16.6465 16.0062 16.6474C16.004 16.6484 16.0019 16.6498 16.0001 16.6515C15.9984 16.6532 15.997 16.6553 15.9961 16.6576C15.9951 16.6599 15.9946 16.6623 15.9946 16.6648V25.7942C15.9946 25.7966 15.9951 25.7991 15.9961 25.8014C15.997 25.8036 15.9984 25.8057 16.0001 25.8075C16.0019 25.8092 16.004 25.8106 16.0062 25.8115C16.0085 25.8125 16.011 25.813 16.0134 25.813H18.8118C18.8143 25.813 18.8168 25.8125 18.819 25.8115C18.8213 25.8106 18.8234 25.8092 18.8251 25.8075C18.8269 25.8057 18.8283 25.8036 18.8292 25.8014C18.8302 25.7991 18.8307 25.7966 18.8307 25.7942V21.2206C18.8307 21.2168 18.8319 21.213 18.8341 21.2099C18.8364 21.2067 18.8395 21.2043 18.8432 21.2031C18.8468 21.2018 18.8508 21.2016 18.8545 21.2027C18.8582 21.2037 18.8615 21.2058 18.864 21.2088L20.9457 23.6929Z" stroke="#EF858A" stroke-width="0.147733"/>
<path d="M65.1396 23.4072C65.1384 23.4099 65.138 23.4129 65.1383 23.4159C65.1386 23.4189 65.1396 23.4217 65.1412 23.4242C65.1429 23.4267 65.1451 23.4287 65.1477 23.4302C65.1503 23.4316 65.1533 23.4324 65.1562 23.4324H68.8982C68.9012 23.4324 68.9041 23.4316 68.9067 23.4302C68.9093 23.4287 68.9116 23.4267 68.9132 23.4242C68.9149 23.4217 68.9159 23.4189 68.9162 23.4159C68.9164 23.4129 68.916 23.4099 68.9148 23.4072L67.0444 18.6124C67.0431 18.6089 67.0408 18.6058 67.0377 18.6037C67.0346 18.6015 67.031 18.6003 67.0272 18.6003C67.0234 18.6003 67.0198 18.6015 67.0167 18.6037C67.0136 18.6058 67.0113 18.6089 67.01 18.6124L65.1396 23.4072Z" stroke="#EF858A" stroke-width="0.147733"/>
<path d="M12.8312 16.5756C12.8161 18.4041 12.8129 20.2343 12.8097 22.0629C12.8089 22.4609 12.7853 22.7665 12.7387 22.9798C12.4624 24.2356 11.5452 25.2089 10.3231 25.5992C10.0991 25.6708 9.73924 25.7338 9.24354 25.7882C9.22777 25.79 9.21988 25.7828 9.21988 25.7667C9.22167 22.8247 9.22114 19.8826 9.21827 16.9406C9.21791 16.4757 9.23028 16.1183 9.25537 15.8685C9.58924 12.5732 12.086 9.92541 15.3962 9.49109C15.66 9.45637 16.0174 9.43901 16.4683 9.43901C21.8697 9.43866 27.2711 9.43848 32.6726 9.43848C32.6919 9.43848 32.7016 9.44814 32.7016 9.46747V13.0065C32.7016 13.0262 32.6917 13.036 32.672 13.036C27.2104 13.0349 21.75 13.0349 16.2909 13.036C14.3543 13.036 12.8468 14.6509 12.8312 16.5756Z" fill="#E20C15"/>
<path d="M53.2127 19.7034L49.1659 24.5298C49.1534 24.5448 49.141 24.5448 49.1288 24.5298L45.0869 19.7098C45.0844 19.7068 45.081 19.7046 45.0773 19.7036C45.0735 19.7026 45.0695 19.7028 45.0658 19.7041C45.0622 19.7055 45.059 19.708 45.0568 19.7112C45.0546 19.7144 45.0535 19.7183 45.0536 19.7222V28.873C45.0536 28.8909 45.0446 28.8999 45.0267 28.8999H40.981C40.9631 28.8999 40.9541 28.8909 40.9541 28.873V13.3845C40.9541 13.3662 40.9631 13.3571 40.981 13.3571L44.9767 13.3576C44.9957 13.3576 45.0109 13.3651 45.0224 13.3802L49.1342 18.6796C49.1358 18.6816 49.1378 18.6832 49.14 18.6843C49.1423 18.6854 49.1448 18.686 49.1474 18.686C49.1499 18.686 49.1524 18.6854 49.1547 18.6843C49.157 18.6832 49.159 18.6816 49.1606 18.6796C50.5312 16.9122 51.9039 15.1425 53.2788 13.3705C53.3073 13.3345 56.9401 13.3582 57.3122 13.3587C57.3297 13.3587 57.3385 13.3675 57.3385 13.385V28.873C57.3385 28.8909 57.3295 28.8999 57.3116 28.8999H53.2659C53.248 28.8999 53.239 28.8909 53.239 28.873V19.713C53.239 19.71 53.238 19.7071 53.2363 19.7046C53.2345 19.7021 53.232 19.7002 53.2292 19.6992C53.2263 19.6981 53.2232 19.698 53.2203 19.6987C53.2174 19.6995 53.2147 19.7011 53.2127 19.7034Z" fill="#E20C15"/>
<path d="M80.8873 16.9858V28.8822C80.8873 28.8845 80.8868 28.8868 80.8859 28.889C80.885 28.8911 80.8837 28.8931 80.8821 28.8947C80.8804 28.8964 80.8785 28.8977 80.8763 28.8986C80.8742 28.8994 80.8719 28.8999 80.8696 28.8999H76.819C76.8167 28.8999 76.8144 28.8994 76.8122 28.8986C76.8101 28.8977 76.8081 28.8964 76.8065 28.8947C76.8048 28.8931 76.8035 28.8911 76.8026 28.889C76.8017 28.8868 76.8013 28.8845 76.8013 28.8822V13.3754C76.8013 13.3707 76.8031 13.3662 76.8065 13.3629C76.8098 13.3595 76.8143 13.3577 76.819 13.3577H86.6088C86.6135 13.3577 86.618 13.3595 86.6213 13.3629C86.6247 13.3662 86.6265 13.3707 86.6265 13.3754V16.952C86.6265 16.9567 86.6247 16.9612 86.6213 16.9645C86.618 16.9678 86.6135 16.9697 86.6088 16.9697L80.905 16.9681C80.9003 16.9681 80.8958 16.9699 80.8925 16.9733C80.8892 16.9766 80.8873 16.9811 80.8873 16.9858Z" fill="#E20C15"/>
<path d="M98.9704 22.8199H92.9225C92.9174 22.8199 92.9125 22.8219 92.9088 22.8256C92.9052 22.8292 92.9032 22.8341 92.9032 22.8392V28.8806C92.9032 28.8857 92.9011 28.8906 92.8975 28.8942C92.8939 28.8979 92.889 28.8999 92.8838 28.8999H88.8231C88.8179 28.8999 88.813 28.8979 88.8094 28.8942C88.8058 28.8906 88.8037 28.8857 88.8037 28.8806V13.377C88.8037 13.3719 88.8058 13.367 88.8094 13.3633C88.813 13.3597 88.8179 13.3577 88.8231 13.3577H92.8838C92.889 13.3577 92.8939 13.3597 92.8975 13.3633C92.9011 13.367 92.9032 13.3719 92.9032 13.377V19.1435C92.9032 19.1486 92.9052 19.1535 92.9088 19.1571C92.9125 19.1608 92.9174 19.1628 92.9225 19.1628L98.9628 19.1655C98.968 19.1655 98.9729 19.1634 98.9765 19.1598C98.9802 19.1562 98.9822 19.1513 98.9822 19.1461L98.9951 13.377C98.9951 13.3719 98.9971 13.367 99.0008 13.3633C99.0044 13.3597 99.0093 13.3577 99.0145 13.3577H103.072C103.077 13.3577 103.082 13.3597 103.086 13.3633C103.089 13.367 103.091 13.3719 103.091 13.377V28.8806C103.091 28.8857 103.089 28.8906 103.086 28.8942C103.082 28.8979 103.077 28.8999 103.072 28.8999H99.0118C99.0066 28.8999 99.0017 28.8979 98.9981 28.8942C98.9945 28.8906 98.9924 28.8857 98.9924 28.8806L98.9897 22.8392C98.9897 22.8341 98.9877 22.8292 98.9841 22.8256C98.9804 22.8219 98.9755 22.8199 98.9704 22.8199Z" fill="#E20C15"/>
<path d="M109.532 28.8999H106.12C106.117 28.8999 106.115 28.8994 106.113 28.8986C106.111 28.8977 106.109 28.8964 106.107 28.8947C106.106 28.8931 106.104 28.8911 106.103 28.889C106.103 28.8868 106.102 28.8845 106.102 28.8822V13.3754C106.102 13.3707 106.104 13.3662 106.107 13.3629C106.111 13.3595 106.115 13.3577 106.12 13.3577H110.184C110.188 13.3577 110.193 13.3595 110.196 13.3629C110.2 13.3662 110.202 13.3707 110.202 13.3754V22.0683C110.202 22.0721 110.203 22.0757 110.205 22.0788C110.207 22.0818 110.21 22.0841 110.214 22.0852C110.217 22.0863 110.221 22.0863 110.225 22.0851C110.229 22.0839 110.232 22.0816 110.234 22.0785L116.608 13.3652C116.61 13.3629 116.612 13.361 116.615 13.3597C116.617 13.3583 116.62 13.3577 116.623 13.3577H120.143C120.148 13.3577 120.153 13.3595 120.156 13.3629C120.159 13.3662 120.161 13.3707 120.161 13.3754V28.8822C120.161 28.8845 120.161 28.8868 120.16 28.889C120.159 28.8911 120.158 28.8931 120.156 28.8947C120.154 28.8964 120.152 28.8977 120.15 28.8986C120.148 28.8994 120.146 28.8999 120.143 28.8999H116.066C116.064 28.8999 116.061 28.8994 116.059 28.8986C116.057 28.8977 116.055 28.8964 116.053 28.8947C116.052 28.8931 116.051 28.8911 116.05 28.889C116.049 28.8868 116.048 28.8845 116.048 28.8822V20.1173C116.048 20.1135 116.047 20.1098 116.045 20.1066C116.043 20.1035 116.04 20.1012 116.036 20.1C116.033 20.0988 116.029 20.0988 116.025 20.0999C116.021 20.1011 116.018 20.1035 116.016 20.1066L109.546 28.8929C109.544 28.8952 109.542 28.8969 109.54 28.8982C109.537 28.8994 109.534 28.9 109.532 28.8999Z" fill="#E20C15"/>
<path d="M122.083 16.9477V13.3775C122.083 13.3723 122.086 13.3672 122.089 13.3635C122.093 13.3598 122.098 13.3577 122.103 13.3577H135.773C135.779 13.3577 135.784 13.3598 135.787 13.3635C135.791 13.3672 135.793 13.3723 135.793 13.3775V16.9466C135.793 16.9519 135.791 16.9569 135.787 16.9607C135.784 16.9644 135.779 16.9665 135.773 16.9665L131.001 16.974C130.999 16.974 130.996 16.9745 130.994 16.9755C130.991 16.9765 130.989 16.978 130.987 16.9798C130.985 16.9817 130.984 16.9838 130.983 16.9863C130.982 16.9887 130.981 16.9912 130.981 16.9939V28.88C130.981 28.8853 130.979 28.8904 130.976 28.8941C130.972 28.8978 130.967 28.8999 130.961 28.8999H126.888C126.883 28.8999 126.878 28.8978 126.874 28.8941C126.871 28.8904 126.868 28.8853 126.868 28.88V16.9885C126.868 16.9832 126.866 16.9782 126.863 16.9744C126.859 16.9707 126.854 16.9686 126.849 16.9686L122.103 16.9675C122.098 16.9675 122.093 16.9655 122.089 16.9617C122.086 16.958 122.083 16.953 122.083 16.9477Z" fill="#E20C15"/>
<path d="M62.9764 28.8994L58.8802 28.901C58.8773 28.901 58.8744 28.9003 58.8719 28.899C58.8693 28.8976 58.8671 28.8957 58.8654 28.8933C58.8638 28.8909 58.8628 28.8882 58.8624 28.8853C58.8621 28.8824 58.8625 28.8795 58.8635 28.8768L65.1533 13.3689C65.1546 13.3657 65.1568 13.3629 65.1597 13.3609C65.1625 13.3589 65.1659 13.3577 65.1694 13.3577H68.9442C68.9477 13.3577 68.9511 13.3589 68.9539 13.3609C68.9568 13.3629 68.959 13.3657 68.9603 13.3689L75.2485 28.8757C75.2495 28.8784 75.2499 28.8814 75.2496 28.8842C75.2492 28.8871 75.2482 28.8899 75.2465 28.8922C75.2449 28.8946 75.2427 28.8966 75.2401 28.8979C75.2376 28.8992 75.2347 28.8999 75.2318 28.8999H71.0727C71.0691 28.8999 71.0655 28.8989 71.0626 28.8969C71.0596 28.8948 71.0573 28.892 71.056 28.8886L70.213 26.7369C70.2117 26.7335 70.2094 26.7307 70.2064 26.7287C70.2034 26.7266 70.1999 26.7256 70.1963 26.7256H63.8501C63.8465 26.7256 63.843 26.7266 63.84 26.7287C63.837 26.7307 63.8347 26.7335 63.8334 26.7369L62.9931 28.8881C62.9918 28.8914 62.9895 28.8943 62.9865 28.8963C62.9835 28.8983 62.98 28.8994 62.9764 28.8994ZM65.1399 23.4072C65.1387 23.41 65.1383 23.413 65.1386 23.416C65.1388 23.4189 65.1399 23.4218 65.1415 23.4243C65.1431 23.4268 65.1454 23.4288 65.148 23.4302C65.1506 23.4317 65.1535 23.4324 65.1565 23.4325H68.8985C68.9015 23.4324 68.9044 23.4317 68.907 23.4302C68.9096 23.4288 68.9119 23.4268 68.9135 23.4243C68.9151 23.4218 68.9162 23.4189 68.9164 23.416C68.9167 23.413 68.9163 23.41 68.9151 23.4072L67.0447 18.6125C67.0434 18.609 67.0411 18.6059 67.038 18.6037C67.0349 18.6016 67.0313 18.6004 67.0275 18.6004C67.0237 18.6004 67.0201 18.6016 67.017 18.6037C67.0139 18.6059 67.0116 18.609 67.0103 18.6125L65.1399 23.4072Z" fill="#E20C15"/>
<path d="M29.0858 25.3701C29.0851 23.6253 29.0858 21.8804 29.088 20.1356C29.0901 18.4402 30.11 17.0648 31.7724 16.6159C31.9397 16.5709 32.2403 16.5241 32.674 16.4758C32.6923 16.474 32.7014 16.4823 32.7014 16.5005C32.7014 19.4443 32.7016 22.3876 32.7019 25.3303C32.7019 25.8049 32.6901 26.1621 32.6664 26.4019C32.3347 29.7885 29.682 32.4588 26.2858 32.796C26.0467 32.8196 25.6887 32.8314 25.2116 32.8314C19.8901 32.8332 14.5688 32.8334 9.24763 32.832C9.22935 32.832 9.22021 32.8228 9.22021 32.8046V29.2484C9.22021 29.2414 9.22299 29.2347 9.22793 29.2298C9.23287 29.2248 9.23957 29.2221 9.24656 29.2221C14.5759 29.2221 19.9078 29.2221 25.2423 29.2221C25.719 29.2221 26.0754 29.1974 26.3116 29.148C27.653 28.8667 28.7396 27.787 29.0159 26.439C29.0625 26.2113 29.0858 25.855 29.0858 25.3701Z" fill="#E20C15"/>
<path d="M20.9457 23.6929L18.864 21.2088C18.8615 21.2058 18.8582 21.2037 18.8545 21.2027C18.8508 21.2016 18.8468 21.2018 18.8432 21.2031C18.8395 21.2043 18.8364 21.2067 18.8341 21.2099C18.8319 21.213 18.8307 21.2168 18.8307 21.2206V25.7942C18.8307 25.7966 18.8302 25.7991 18.8292 25.8014C18.8283 25.8036 18.8269 25.8057 18.8251 25.8075C18.8234 25.8092 18.8213 25.8106 18.819 25.8115C18.8168 25.8125 18.8143 25.813 18.8118 25.813H16.0134C16.011 25.813 16.0085 25.8125 16.0062 25.8115C16.004 25.8106 16.0019 25.8092 16.0001 25.8075C15.9984 25.8057 15.997 25.8036 15.9961 25.8014C15.9951 25.7991 15.9946 25.7966 15.9946 25.7942V16.6648C15.9946 16.6623 15.9951 16.6599 15.9961 16.6576C15.997 16.6553 15.9984 16.6532 16.0001 16.6515C16.0019 16.6498 16.004 16.6484 16.0062 16.6474C16.0085 16.6465 16.011 16.646 16.0134 16.646H18.6694C18.6723 16.646 18.6752 16.6467 18.6778 16.648C18.6804 16.6493 18.6827 16.6512 18.6844 16.6535L20.9441 19.5692C20.9458 19.5716 20.9481 19.5735 20.9507 19.5748C20.9533 19.5761 20.9562 19.5767 20.9591 19.5767C20.9621 19.5767 20.9649 19.5761 20.9676 19.5748C20.9702 19.5735 20.9724 19.5716 20.9742 19.5692L23.236 16.6535C23.2378 16.6512 23.2401 16.6493 23.2427 16.648C23.2453 16.6467 23.2482 16.646 23.2511 16.646H25.9086C25.9111 16.646 25.9135 16.6465 25.9158 16.6474C25.9181 16.6484 25.9202 16.6498 25.9219 16.6515C25.9237 16.6532 25.925 16.6553 25.926 16.6576C25.9269 16.6599 25.9274 16.6623 25.9274 16.6648V25.7942C25.9274 25.7992 25.9254 25.8039 25.9219 25.8075C25.9184 25.811 25.9136 25.813 25.9086 25.813H23.1102C23.1052 25.813 23.1004 25.811 23.0969 25.8075C23.0934 25.8039 23.0914 25.7992 23.0914 25.7942V21.2179C23.0914 21.2141 23.0902 21.2103 23.0879 21.2072C23.0857 21.204 23.0825 21.2017 23.0789 21.2004C23.0752 21.1991 23.0713 21.1989 23.0676 21.2C23.0638 21.201 23.0605 21.2032 23.0581 21.2061L20.9747 23.6929C20.973 23.695 20.9708 23.6967 20.9682 23.6979C20.9657 23.6991 20.963 23.6997 20.9602 23.6997C20.9574 23.6997 20.9547 23.6991 20.9522 23.6979C20.9497 23.6967 20.9475 23.695 20.9457 23.6929Z" fill="#E20C15"/>
</svg>
