<svg width="152" height="35" viewBox="0 0 152 35" fill="none" xmlns="http://www.w3.org/2000/svg">
<path d="M9.70567 19.3219H2.72668C2.71345 19.3219 2.70036 19.3193 2.68814 19.3143C2.67592 19.3092 2.66482 19.3018 2.65547 19.2924C2.64612 19.2831 2.6387 19.272 2.63364 19.2598C2.62858 19.2475 2.62598 19.2344 2.62598 19.2212C2.64036 14.4667 4.63462 10.0385 8.08096 6.81063C15.3683 -0.0155163 27.0354 0.87012 33.2105 8.71137C37.9076 14.6762 38.5477 23.6395 32.6594 29.1754C27.2476 34.2626 18.6223 34.1278 13.4811 28.6467C11.0756 26.0824 9.82765 22.9846 9.73714 19.3534C9.73714 19.345 9.73382 19.337 9.72792 19.3311C9.72202 19.3252 9.71402 19.3219 9.70567 19.3219ZM29.7462 19.3246C29.7462 18.4822 29.5803 17.6479 29.2579 16.8696C28.9355 16.0913 28.4629 15.3841 27.8672 14.7884C27.2715 14.1926 26.5643 13.7201 25.786 13.3977C25.0077 13.0753 24.1734 12.9094 23.331 12.9094C21.6296 12.9094 19.9978 13.5853 18.7947 14.7884C17.5916 15.9914 16.9157 17.6232 16.9157 19.3246C16.9157 21.026 17.5916 22.6578 18.7947 23.8609C19.9978 25.064 21.6296 25.7399 23.331 25.7399C24.1734 25.7399 25.0077 25.5739 25.786 25.2515C26.5643 24.9291 27.2715 24.4566 27.8672 23.8609C28.4629 23.2652 28.9355 22.558 29.2579 21.7796C29.5803 21.0013 29.7462 20.1671 29.7462 19.3246Z" fill="#FF486F"/>
<path d="M50.069 22.4321C46.7773 23.3213 46.8726 28.8176 50.274 29.5019C51.9211 29.8336 53.3292 29.1036 53.9981 27.5715C54.0069 27.5509 54.0217 27.5334 54.0405 27.5211C54.0594 27.5088 54.0815 27.5022 54.1042 27.5022L57.7034 27.5049C57.7699 27.5049 57.7954 27.5373 57.7798 27.602C56.0814 34.7375 45.6785 34.6053 44.1626 27.4708C43.1502 22.7 46.7917 18.6773 51.619 19.0343C54.757 19.2663 56.9221 21.2147 57.7798 24.2249C57.805 24.3118 57.7723 24.3556 57.6818 24.3562L54.0359 24.3571C54.0208 24.3571 54.006 24.3525 53.9935 24.344C53.981 24.3355 53.9713 24.3235 53.9658 24.3094C53.3436 22.7198 51.7 21.9915 50.069 22.4321Z" fill="#FF486F"/>
<path d="M132.445 31.2166C130.921 32.7739 129.084 33.2438 126.935 32.6264C126.374 32.4652 125.835 32.2023 125.317 31.8379C122.778 30.0504 121.833 26.6455 122.72 23.735C123.575 20.927 126.035 18.806 129.071 19.0353C130.407 19.1366 131.523 19.6806 132.418 20.6672C132.423 20.6732 132.431 20.6773 132.439 20.6792C132.447 20.681 132.455 20.6805 132.463 20.6776C132.471 20.6747 132.477 20.6695 132.482 20.6629C132.486 20.6562 132.489 20.6483 132.489 20.6402V19.4147C132.489 19.3902 132.499 19.3666 132.516 19.3492C132.533 19.3319 132.557 19.3221 132.581 19.3221H136.04C136.052 19.3221 136.064 19.3268 136.072 19.3353C136.081 19.3437 136.085 19.3551 136.085 19.3671V32.5842C136.085 32.5961 136.081 32.6075 136.072 32.616C136.064 32.6244 136.052 32.6291 136.04 32.6291H132.556C132.538 32.6291 132.521 32.622 132.509 32.6094C132.496 32.5967 132.489 32.5796 132.489 32.5617V31.2337C132.489 31.2287 132.487 31.2239 132.484 31.2198C132.482 31.2157 132.478 31.2125 132.473 31.2107C132.468 31.2089 132.463 31.2085 132.458 31.2095C132.453 31.2106 132.448 31.213 132.445 31.2166ZM128.104 22.5913C125.407 23.6972 125.372 28.129 128.053 29.2772C129.102 29.7268 130.384 29.6297 131.331 28.9931C132.982 27.8818 133.154 25.2401 132.104 23.6927C131.26 22.4484 129.506 22.0168 128.104 22.5913Z" fill="#FF486F"/>
<path d="M69.4605 20.6232V19.3896C69.4605 19.3446 69.483 19.3222 69.5279 19.3222H73.0912C73.1283 19.3222 73.1469 19.341 73.1469 19.3788L73.146 32.4503C73.146 32.4933 73.1293 32.5346 73.0994 32.5654C73.0695 32.5961 73.0287 32.6139 72.986 32.6148C71.9052 32.6352 70.8029 32.64 69.679 32.6292C69.5381 32.628 69.4665 32.5591 69.4641 32.4224C69.4575 32.0334 69.4572 31.6431 69.4632 31.2517C69.4631 31.2429 69.4602 31.2342 69.4549 31.2271C69.4496 31.22 69.4422 31.2147 69.4337 31.212C69.4253 31.2094 69.4162 31.2094 69.4078 31.2122C69.3993 31.2149 69.392 31.2203 69.3868 31.2275C69.2996 31.3506 69.2159 31.4774 69.1 31.5772C66.0339 34.2449 61.5824 32.5662 60.0818 29.0839C58.8545 26.2355 59.2968 22.907 61.5626 20.7077C63.7313 18.6029 67.2568 18.3142 69.4021 20.6457C69.441 20.6882 69.4605 20.6807 69.4605 20.6232ZM66.3648 22.3477C61.7379 22.5006 62.1039 29.9921 66.8099 29.538C70.9935 29.1343 70.6869 22.2048 66.3648 22.3477Z" fill="#FF486F"/>
<path d="M98.0518 32.611C94.6909 31.6759 92.6139 28.3995 93.077 24.9793C93.8089 19.5764 100.346 17.1542 104.508 20.623C105.759 21.6666 106.543 22.9616 106.86 24.5081C107.932 29.7347 103.15 34.0298 98.0518 32.611ZM98.2155 28.9498C100.001 30.107 102.541 29.2546 103.133 27.1677C103.603 25.5125 103.104 23.6 101.501 22.7719C100.172 22.0859 98.5203 22.4087 97.5438 23.5479C96.2131 25.0998 96.4496 27.8052 98.2155 28.9498Z" fill="#FF486F"/>
<path d="M79.5459 24.9892C79.5357 24.9904 79.5306 24.9961 79.5306 25.0063V32.5841C79.5306 32.596 79.5258 32.6074 79.5174 32.6159C79.509 32.6243 79.4975 32.629 79.4856 32.629H75.979C75.9671 32.629 75.9557 32.6243 75.9472 32.6159C75.9388 32.6074 75.9341 32.596 75.9341 32.5841V19.367C75.9341 19.3551 75.9388 19.3436 75.9472 19.3352C75.9557 19.3268 75.9671 19.322 75.979 19.322H78.9668C78.998 19.322 79.0232 19.3343 79.0424 19.3589L83.324 24.7878C83.3384 24.8064 83.353 24.8064 83.368 24.7878C84.7785 23.0093 86.1904 21.2336 87.6038 19.4605C87.6326 19.4245 87.6748 19.3865 87.7306 19.3463C87.7528 19.3301 87.7776 19.322 87.8052 19.322H90.7921C90.837 19.322 90.8595 19.3445 90.8595 19.3895V32.4501C90.8595 32.4972 90.8409 32.5423 90.8077 32.5757C90.7745 32.609 90.7295 32.6279 90.6824 32.6281C89.5993 32.6311 88.5044 32.6305 87.3979 32.6263C87.254 32.6257 87.1818 32.5574 87.1812 32.4213C87.1746 29.9805 87.1701 27.5397 87.1677 25.0989C87.1677 25.0731 87.1635 25.053 87.1551 25.0386C87.1519 25.0329 87.1473 25.0281 87.1417 25.0246C87.1362 25.0211 87.1298 25.0189 87.1233 25.0184C87.1167 25.0179 87.1102 25.019 87.1041 25.0215C87.0981 25.0241 87.0927 25.0281 87.0886 25.0332L83.4364 29.6565C83.4295 29.6652 83.4209 29.6721 83.411 29.6769C83.4011 29.6817 83.3903 29.6842 83.3793 29.6842C83.3683 29.6842 83.3574 29.6817 83.3476 29.6769C83.3377 29.6721 83.329 29.6652 83.3222 29.6565C82.9796 29.2286 79.6115 24.9784 79.5459 24.9892Z" fill="#FF486F"/>
<path d="M113.046 24.6035C113.194 24.453 113.342 24.2876 113.492 24.1072C114.755 22.5834 116.021 21.0621 117.291 19.5432C117.321 19.5066 117.362 19.4446 117.414 19.3571C117.428 19.3337 117.448 19.322 117.475 19.322H121.739C121.746 19.3221 121.753 19.3241 121.759 19.328C121.765 19.3319 121.77 19.3374 121.773 19.3439C121.776 19.3504 121.777 19.3576 121.776 19.3648C121.775 19.3719 121.772 19.3786 121.768 19.3841L116.362 25.775C116.325 25.8188 116.326 25.8613 116.366 25.9027L122.706 32.5481C122.713 32.5549 122.717 32.5633 122.718 32.5724C122.72 32.5814 122.719 32.5907 122.715 32.5992C122.712 32.6077 122.706 32.6149 122.698 32.62C122.69 32.6252 122.681 32.628 122.672 32.6281C121.24 32.6293 119.806 32.6299 118.373 32.6299C118.166 32.6299 118.033 32.5904 117.883 32.4312C116.283 30.7229 114.675 29.0173 113.061 27.3143C113.054 27.3072 113.045 27.3022 113.036 27.3001C113.027 27.298 113.017 27.2988 113.008 27.3024C112.999 27.306 112.991 27.3122 112.986 27.3203C112.98 27.3284 112.978 27.3379 112.978 27.3476V32.5841C112.978 32.596 112.973 32.6074 112.965 32.6159C112.956 32.6243 112.945 32.629 112.933 32.629H109.426C109.414 32.629 109.403 32.6243 109.395 32.6159C109.386 32.6074 109.381 32.596 109.381 32.5841V19.367C109.381 19.3551 109.386 19.3436 109.395 19.3352C109.403 19.3268 109.414 19.322 109.426 19.322H112.933C112.945 19.322 112.956 19.3268 112.965 19.3352C112.973 19.3436 112.978 19.3551 112.978 19.367V24.5756C112.978 24.5836 112.98 24.5914 112.984 24.5981C112.989 24.6048 112.995 24.6099 113.002 24.613C113.01 24.616 113.018 24.6167 113.026 24.615C113.034 24.6133 113.041 24.6093 113.046 24.6035Z" fill="#FF486F"/>
<path d="M145.706 22.5202C145.707 25.8278 145.707 29.1356 145.705 32.4438C145.705 32.5703 145.638 32.6308 145.503 32.6254C144.76 32.5967 143.674 32.6272 142.25 32.6236C142.095 32.6236 142.017 32.5505 142.017 32.4043C142.019 29.147 142.02 25.8895 142.021 22.6317C142.021 22.6103 142.017 22.5892 142.008 22.5694C142 22.5497 141.988 22.5317 141.973 22.5166C141.958 22.5015 141.94 22.4895 141.92 22.4813C141.901 22.4732 141.879 22.469 141.858 22.469H138.37C138.361 22.469 138.351 22.4651 138.344 22.4582C138.337 22.4512 138.333 22.4419 138.333 22.4321V19.3778C138.333 19.3406 138.352 19.322 138.39 19.322H149.528C149.54 19.322 149.551 19.3268 149.559 19.3352C149.568 19.3436 149.573 19.3551 149.573 19.367V22.2577C149.573 22.2882 149.581 22.3161 149.599 22.3413L149.648 22.4141C149.673 22.4507 149.663 22.469 149.619 22.469H145.757C145.723 22.469 145.706 22.486 145.706 22.5202Z" fill="#FF486F"/>
</svg>
