<svg width="178" height="71" viewBox="0 0 178 71" fill="none" xmlns="http://www.w3.org/2000/svg">
<path d="M18.6223 42.4567C19.9568 43.1873 21.4523 43.5926 23.0234 43.6497C24.5946 43.7067 26.2107 43.4142 27.7794 42.789C29.3481 42.1638 30.8388 41.2181 32.1662 40.0058C33.4936 38.7935 34.6319 37.3384 35.516 35.7237C37.3014 32.4625 37.9431 28.7487 37.3 25.3994C36.6568 22.0501 34.7814 19.3395 32.0864 17.864C30.752 17.1335 29.2565 16.7281 27.6853 16.6711C26.1141 16.614 24.498 16.9065 22.9293 17.5317C21.3606 18.1569 19.8699 19.1027 18.5425 20.3149C17.2151 21.5272 16.0768 22.9823 15.1928 24.5971C13.4073 27.8582 12.7656 31.572 13.4088 34.9213C14.0519 38.2707 15.9273 40.9812 18.6223 42.4567Z" stroke="#BBDD99" stroke-width="0.211905"/>
<path d="M20.3818 23.1282C23.1578 20.4423 26.758 19.2631 30.584 20.0439C30.8415 20.0958 31.5863 20.3194 31.7993 20.2187C31.8115 20.2129 31.8221 20.2041 31.83 20.193C31.8379 20.182 31.8428 20.1691 31.8443 20.1556C31.8458 20.1421 31.8438 20.1285 31.8385 20.116C31.8332 20.1035 31.8248 20.0925 31.8141 20.0842C30.0712 18.7142 27.6872 18.1834 25.5671 18.4727C17.6292 19.5544 12.3284 29.319 15.6638 36.546C15.7803 36.7992 16.54 38.2031 16.8716 38.0505C16.9015 38.0366 16.9249 38.0116 16.9367 37.981C16.9486 37.9504 16.9481 37.9164 16.9352 37.8863C15.0874 33.5253 16.0039 28.6144 18.7957 24.8923C18.799 24.8874 18.8041 24.8839 18.8098 24.8826C18.8156 24.8812 18.8217 24.8821 18.8268 24.8851C18.8319 24.8881 18.8357 24.8929 18.8374 24.8985C18.8391 24.9042 18.8386 24.9103 18.836 24.9156C18.3613 26.044 18.3793 27.3737 19.1401 28.3389C19.8648 29.2575 21.0737 29.4853 22.1491 29.0531C23.5106 28.5074 24.4176 27.0823 24.4515 25.6403C24.5034 23.391 22.4204 22.0401 20.403 23.1568C20.3246 23.2006 20.3176 23.1911 20.3818 23.1282Z" stroke="#EEB388" stroke-width="0.211905"/>
<path d="M20.3419 35.3075C23.4919 32.1512 27.2797 28.338 30.7104 24.7589C31.0823 24.3711 30.8905 23.9155 30.3851 23.8276C30.0874 23.7756 28.7566 23.4885 28.5744 23.6739C25.1161 27.2057 21.6571 30.7374 18.1974 34.2692C17.7853 34.6898 18.0396 35.103 18.5672 35.1941C18.9327 35.2577 20.0791 35.5713 20.3419 35.3075Z" stroke="#EEB388" stroke-width="0.211905"/>
<path d="M25.8171 36.7466C26.1678 36.9291 26.5573 37.0285 26.9634 37.0392C27.3696 37.0499 27.7844 36.9717 28.1843 36.8089C28.5841 36.6461 28.9612 36.4021 29.2938 36.0906C29.6265 35.7792 29.9083 35.4065 30.1231 34.9938C30.557 34.1603 30.6919 33.2145 30.4979 32.3644C30.304 31.5144 29.7973 30.8297 29.0891 30.4611C28.7385 30.2786 28.349 30.1791 27.9428 30.1684C27.5367 30.1577 27.1218 30.236 26.722 30.3988C26.3221 30.5615 25.9451 30.8056 25.6125 31.1171C25.2798 31.4285 24.998 31.8012 24.7831 32.2139C24.3493 33.0474 24.2144 33.9932 24.4083 34.8433C24.6023 35.6933 25.109 36.3779 25.8171 36.7466Z" stroke="#EEB388" stroke-width="0.211905"/>
<path d="M34.7269 32.1182C31.9351 35.1368 28.6855 38.5018 25.0725 41.3202C25.0524 41.336 25.0381 41.3582 25.0321 41.3831C25.026 41.408 25.0285 41.4342 25.0391 41.4576C25.0497 41.4809 25.0679 41.5 25.0907 41.5118C25.1135 41.5236 25.1395 41.5274 25.1647 41.5225C29.923 40.5965 33.3474 36.5915 34.9261 32.239C34.9356 32.2132 34.9358 32.1848 34.9268 32.1588C34.9177 32.1328 34.8998 32.1108 34.8763 32.0965C34.8527 32.0823 34.825 32.0766 34.7977 32.0806C34.7705 32.0845 34.7454 32.0978 34.7269 32.1182Z" stroke="#EEB388" stroke-width="0.211905"/>
<path d="M21.0251 27.1752C21.2576 27.2659 21.5283 27.2305 21.7775 27.0769C22.0268 26.9233 22.2343 26.664 22.3543 26.3561C22.4138 26.2037 22.45 26.0439 22.4608 25.8859C22.4717 25.7278 22.457 25.5747 22.4176 25.4351C22.3783 25.2956 22.315 25.1724 22.2314 25.0726C22.1478 24.9728 22.0455 24.8983 21.9304 24.8535C21.6979 24.7628 21.4272 24.7982 21.178 24.9518C20.9287 25.1054 20.7212 25.3647 20.6012 25.6726C20.5417 25.825 20.5055 25.9848 20.4947 26.1428C20.4838 26.3009 20.4985 26.454 20.5379 26.5936C20.5772 26.7331 20.6405 26.8563 20.7241 26.9561C20.8077 27.0559 20.91 27.1304 21.0251 27.1752Z" stroke="#EEB388" stroke-width="0.211905"/>
<path d="M26.9564 34.8692C27.0825 34.9183 27.2202 34.9342 27.3616 34.9159C27.503 34.8976 27.6453 34.8455 27.7804 34.7624C27.9155 34.6794 28.0408 34.5672 28.1491 34.4321C28.2574 34.297 28.3465 34.1417 28.4115 33.9752C28.5426 33.6387 28.5672 33.2766 28.4798 32.9685C28.3925 32.6604 28.2003 32.4315 27.9455 32.3322C27.8194 32.283 27.6817 32.2671 27.5403 32.2854C27.3989 32.3038 27.2566 32.3559 27.1215 32.4389C26.9864 32.5219 26.8611 32.6342 26.7528 32.7693C26.6446 32.9044 26.5554 33.0596 26.4905 33.2262C26.3593 33.5626 26.3347 33.9247 26.4221 34.2328C26.5095 34.541 26.7017 34.7699 26.9564 34.8692Z" stroke="#EEB388" stroke-width="0.211905"/>
<path d="M20.403 23.1568C22.4204 22.0401 24.5034 23.391 24.4515 25.6403C24.4176 27.0823 23.5106 28.5074 22.1491 29.0531C21.0737 29.4853 19.8648 29.2575 19.1401 28.3389C18.3793 27.3737 18.3613 26.044 18.836 24.9156C18.8386 24.9103 18.8391 24.9042 18.8374 24.8985C18.8357 24.8929 18.8319 24.8881 18.8268 24.8851C18.8217 24.8821 18.8156 24.8812 18.8098 24.8826C18.8041 24.8839 18.799 24.8874 18.7957 24.8923C16.0039 28.6144 15.0874 33.5253 16.9352 37.8863C16.9481 37.9164 16.9486 37.9504 16.9367 37.981C16.9249 38.0116 16.9015 38.0366 16.8716 38.0505C16.54 38.2031 15.7803 36.7992 15.6638 36.546C12.3284 29.319 17.6292 19.5544 25.5671 18.4727C27.6872 18.1834 30.0712 18.7142 31.8141 20.0842C31.8248 20.0925 31.8332 20.1035 31.8385 20.116C31.8438 20.1285 31.8458 20.1421 31.8443 20.1556C31.8428 20.1691 31.8379 20.182 31.83 20.193C31.8221 20.2041 31.8115 20.2129 31.7993 20.2187C31.5863 20.3194 30.8415 20.0958 30.584 20.0439C26.758 19.2631 23.1578 20.4423 20.3818 23.1282C20.3176 23.1911 20.3246 23.2006 20.403 23.1568ZM21.0248 27.1752C21.2573 27.2659 21.5279 27.2305 21.7772 27.0769C22.0264 26.9233 22.2339 26.664 22.354 26.3561C22.4134 26.2037 22.4496 26.0439 22.4604 25.8858C22.4713 25.7278 22.4566 25.5747 22.4173 25.4351C22.3779 25.2956 22.3146 25.1724 22.231 25.0726C22.1474 24.9728 22.0451 24.8983 21.93 24.8535C21.6975 24.7628 21.4269 24.7982 21.1776 24.9518C20.9283 25.1054 20.7208 25.3647 20.6008 25.6726C20.5414 25.825 20.5052 25.9848 20.4943 26.1428C20.4834 26.3009 20.4981 26.454 20.5375 26.5935C20.5769 26.7331 20.6402 26.8563 20.7238 26.9561C20.8074 27.0559 20.9097 27.1303 21.0248 27.1752Z" fill="#DD6611"/>
<path d="M30.7099 24.7589C27.2792 28.338 23.4914 32.1512 20.3414 35.3075C20.0787 35.5713 18.9323 35.2577 18.5667 35.1941C18.0391 35.103 17.7848 34.6898 18.1969 34.2692C21.6566 30.7374 25.1156 27.2057 28.5739 23.6739C28.7562 23.4885 30.0869 23.7756 30.3846 23.8276C30.89 23.9155 31.0818 24.3711 30.7099 24.7589Z" fill="#DD6611"/>
<path d="M56.1799 31.6023C54.6414 30.2779 52.3486 30.0554 50.7636 31.3766C49.4423 32.4785 49.0853 34.4662 49.6352 36.0544C50.7201 39.1885 54.7039 39.4279 56.6778 37.0302C56.7011 37.002 56.7266 36.9995 56.7541 37.0228C57.6469 37.7532 58.2555 38.2974 58.5797 38.6556C59.084 39.2139 58.8276 39.8592 58.2978 40.2851C55.2178 42.7601 50.0611 42.5239 47.3498 39.6949C43.5419 35.7207 45.2657 29.0107 50.6174 27.4956C53.2323 26.756 56.2614 27.1544 58.4133 28.9344C59.2567 29.6326 58.9611 30.2111 58.2438 30.832C57.755 31.2544 57.2722 31.6835 56.7954 32.1194C56.7644 32.1476 56.7322 32.1487 56.699 32.1225C56.5062 31.9657 56.325 31.7263 56.1799 31.6023Z" fill="#DD6611"/>
<path d="M156.953 34.3286C157.09 30.0863 160.371 27.3432 164.458 27.1662C168.969 26.9713 172.848 29.9549 172.784 34.6984C172.703 40.6805 166.185 43.4638 161.214 41.2102C158.497 39.978 156.855 37.3981 156.953 34.3286ZM161.663 32.1916C160.462 34.1602 160.913 37.1554 163.118 38.2351C164.861 39.0901 166.988 38.5741 168.053 36.916C169.214 35.1063 168.872 32.4098 167.032 31.1522C165.347 30.0005 162.762 30.3914 161.663 32.1916Z" fill="#DD6611"/>
<path d="M79.9663 35.6784L85.7142 27.5031C85.7295 27.4809 85.7501 27.4629 85.7741 27.4505C85.7981 27.4381 85.8248 27.4318 85.8519 27.4321C86.5039 27.4427 87.1622 27.4463 87.8269 27.4427C88.9828 27.4364 89.5285 27.8115 89.5295 28.9949C89.5302 33.1928 89.5302 37.392 89.5295 41.5927C89.5295 41.6056 89.5243 41.618 89.515 41.6271C89.5056 41.6363 89.493 41.6414 89.4797 41.6414C88.5544 41.6365 87.6249 41.6375 86.6911 41.6446C85.9982 41.6499 85.622 41.1943 85.6188 40.5056C85.6075 38.2043 85.6051 35.8995 85.6114 33.5912C85.6114 33.5672 85.6032 33.544 85.5881 33.5255C85.4875 33.3994 85.4885 33.4852 85.4345 33.5615C83.5478 36.2209 81.6746 38.8888 79.8148 41.5651C79.7994 41.5877 79.7787 41.6061 79.7545 41.6188C79.7303 41.6316 79.7034 41.6382 79.676 41.6382C78.7733 41.6404 77.8723 41.6407 76.9731 41.6393C76.3395 41.6372 75.9698 41.3956 75.9687 40.7451C75.9673 36.3283 75.9669 31.909 75.9676 27.4872C75.9676 27.4807 75.969 27.4743 75.9715 27.4683C75.9741 27.4624 75.9779 27.4569 75.9826 27.4524C75.9873 27.4479 75.9929 27.4443 75.9991 27.4419C76.0053 27.4395 76.0119 27.4384 76.0185 27.4385C76.6782 27.447 77.3415 27.4459 78.0083 27.4353C79.4535 27.412 79.8826 27.6949 79.8847 29.139C79.8889 31.304 79.8896 33.4753 79.8868 35.653C79.8866 35.6624 79.8894 35.6716 79.8948 35.6793C79.9003 35.687 79.908 35.6927 79.917 35.6955C79.926 35.6984 79.9356 35.6983 79.9445 35.6952C79.9534 35.6921 79.961 35.6862 79.9663 35.6784Z" fill="#DD6611"/>
<path d="M117.668 34.3095C117.664 34.3168 117.662 34.3249 117.662 34.3331C117.662 34.3414 117.664 34.3495 117.668 34.3569C117.672 34.3642 117.677 34.3706 117.684 34.3754C117.691 34.3803 117.698 34.3834 117.706 34.3847C118.562 34.5076 119.213 34.9381 119.657 35.6763C120.843 37.6463 122.03 39.6053 123.217 41.5534C123.222 41.5619 123.225 41.5716 123.225 41.5816C123.225 41.5915 123.223 41.6014 123.218 41.6101C123.213 41.6188 123.206 41.6261 123.197 41.6312C123.188 41.6364 123.178 41.6391 123.168 41.6393H118.78C118.744 41.6393 118.718 41.6241 118.7 41.5937C117.827 40.0786 116.945 38.5737 116.054 37.0791C115.496 36.1446 114.923 35.7112 113.851 35.5809C113.741 35.5675 113.687 35.6162 113.687 35.7271V41.5884C113.687 41.5949 113.685 41.6014 113.683 41.6075C113.68 41.6135 113.677 41.619 113.672 41.6236C113.668 41.6282 113.662 41.6319 113.656 41.6344C113.651 41.6369 113.644 41.6382 113.638 41.6382C112.772 41.641 111.904 41.641 111.034 41.6382C109.634 41.6329 109.69 40.8393 109.685 39.6993C109.666 35.7197 109.666 31.7398 109.683 27.7595C109.683 27.6889 109.684 27.6415 109.686 27.6175C109.696 27.5073 109.756 27.4515 109.866 27.4501C110.632 27.4409 111.38 27.4377 112.111 27.4406C113.254 27.4459 113.689 27.786 113.688 28.9229C113.686 30.2508 113.686 31.5462 113.688 32.8092C113.688 32.8368 113.694 32.864 113.705 32.8891C113.716 32.9142 113.733 32.9366 113.754 32.9547C113.775 32.9729 113.799 32.9864 113.825 32.9943C113.852 33.0023 113.88 33.0046 113.907 33.001C115.796 32.7477 116.318 31.845 117.349 30.1763C117.897 29.2891 118.44 28.398 118.978 27.5031C118.996 27.472 119.023 27.4561 119.059 27.4554C120.438 27.4229 121.372 27.4215 121.862 27.4512C122.602 27.4967 122.77 28.1791 122.421 28.7332C121.569 30.0894 120.701 31.436 119.819 32.7732C119.235 33.6579 118.758 34.1421 117.747 34.265C117.707 34.2692 117.681 34.284 117.668 34.3095Z" fill="#DD6611"/>
<path d="M128.671 35.6105L134.391 27.4914C134.412 27.4624 134.44 27.4476 134.476 27.4469C135.085 27.4377 135.692 27.4335 136.298 27.4342C137.596 27.4352 138.253 27.7234 138.257 29.1697C138.269 33.3046 138.272 37.4396 138.265 41.5746C138.265 41.6148 138.245 41.635 138.205 41.635C137.279 41.642 136.362 41.6456 135.454 41.6456C134.748 41.6466 134.25 41.1497 134.247 40.4388C134.239 38.1551 134.238 35.8666 134.243 33.573C134.243 33.5581 134.238 33.5435 134.229 33.5318C134.219 33.52 134.206 33.5118 134.191 33.5084C134.164 33.5021 134.14 33.5137 134.118 33.5434C131.183 37.6967 129.336 40.3176 128.577 41.4061C128.472 41.5566 128.418 41.6371 128.215 41.6381C127.362 41.6403 126.496 41.6095 125.645 41.6625C125.154 41.6936 124.821 41.4665 124.648 40.9812C124.544 40.692 124.599 40.3529 124.599 40.1008C124.6 35.8987 124.6 31.6934 124.6 27.485C124.599 27.4794 124.6 27.4737 124.603 27.4685C124.605 27.4632 124.608 27.4584 124.612 27.4544C124.616 27.4503 124.62 27.4471 124.626 27.4449C124.631 27.4427 124.636 27.4416 124.642 27.4416C125.404 27.4423 126.168 27.4419 126.934 27.4405C127.842 27.4395 128.519 27.6386 128.519 28.6526C128.519 30.9193 128.521 33.223 128.522 35.5639C128.522 35.5812 128.527 35.5981 128.538 35.6121C128.548 35.6261 128.562 35.6364 128.579 35.6416C128.596 35.6468 128.613 35.6466 128.63 35.641C128.647 35.6354 128.661 35.6247 128.671 35.6105Z" fill="#DD6611"/>
<path d="M150.77 32.7688V27.4955C150.77 27.4812 150.776 27.4675 150.786 27.4573C150.796 27.4472 150.81 27.4415 150.824 27.4415C151.614 27.4422 152.41 27.4418 153.212 27.4404C154.116 27.4394 154.795 27.6407 154.795 28.6515C154.796 32.963 154.797 37.2781 154.796 41.5967C154.796 41.608 154.792 41.6188 154.783 41.6267C154.775 41.6346 154.764 41.6391 154.753 41.6391C153.911 41.6384 153.068 41.6388 152.223 41.6402C151.424 41.6412 150.824 41.4622 150.8 40.5754C150.761 39.1203 150.754 37.6631 150.779 36.2038C150.78 36.1943 150.778 36.185 150.774 36.1763C150.771 36.1675 150.766 36.1596 150.759 36.1529C150.752 36.1462 150.745 36.1408 150.736 36.1372C150.727 36.1336 150.718 36.1317 150.709 36.1317C148.992 36.1282 147.266 36.1268 145.532 36.1275C145.366 36.1275 145.282 36.2098 145.281 36.3743C145.266 38.1127 145.258 39.8535 145.258 41.5967C145.258 41.608 145.254 41.6188 145.246 41.6267C145.238 41.6346 145.227 41.6391 145.216 41.6391C144.326 41.6384 143.433 41.6388 142.539 41.6402C141.403 41.6412 141.236 40.9112 141.235 39.9439C141.234 35.7941 141.234 31.6411 141.234 27.4849C141.234 27.4794 141.235 27.4739 141.238 27.4687C141.24 27.4636 141.243 27.4589 141.247 27.455C141.251 27.451 141.256 27.4479 141.261 27.4458C141.266 27.4436 141.272 27.4426 141.278 27.4426C142.01 27.4411 142.746 27.4411 143.486 27.4426C144.64 27.4447 145.255 27.5633 145.258 28.8666C145.261 30.1027 145.262 31.343 145.26 32.5876C145.26 32.6879 145.306 32.7571 145.398 32.7953C145.49 32.8327 145.621 32.8521 145.79 32.8535C147.43 32.8648 149.069 32.8574 150.709 32.8313C150.749 32.8306 150.77 32.8097 150.77 32.7688Z" fill="#DD6611"/>
<path d="M69.035 34.338C69.0356 34.3493 69.04 34.3599 69.0473 34.3684C69.0545 34.3768 69.0644 34.3825 69.0752 34.3846C70.0457 34.5563 70.5278 34.9875 71.0629 35.8553C72.234 37.7582 73.3942 39.6667 74.5434 41.5809C74.5667 41.6198 74.5558 41.6392 74.5106 41.6392H70.1411C70.1137 41.6392 70.0868 41.6319 70.063 41.6181C70.0392 41.6044 70.0193 41.5846 70.0055 41.5608C69.1035 40.0068 68.1838 38.4532 67.2465 36.8999C66.7739 36.1166 66.0782 35.6808 65.1592 35.5925C65.1459 35.5912 65.1325 35.5926 65.1198 35.5968C65.1071 35.601 65.0954 35.6078 65.0855 35.6168C65.0756 35.6258 65.0678 35.6368 65.0624 35.649C65.057 35.6613 65.0543 35.6745 65.0543 35.6878V41.5894C65.0543 41.6032 65.0489 41.6164 65.0391 41.6261C65.0294 41.6358 65.0162 41.6413 65.0024 41.6413C64.0658 41.6364 63.1263 41.6371 62.1841 41.6434C61.3121 41.6487 61.0313 41.1518 61.0303 40.3529C61.0274 36.0675 61.0271 31.7824 61.0292 27.4977C61.0292 27.4831 61.035 27.4691 61.0453 27.4588C61.0557 27.4484 61.0697 27.4426 61.0843 27.4426C61.9319 27.4412 62.7785 27.4409 63.624 27.4416C64.9865 27.4437 65.0522 28.2712 65.0533 29.3752C65.054 30.5414 65.0543 31.7083 65.0543 32.8759C65.0542 32.8925 65.0577 32.909 65.0644 32.9243C65.0711 32.9395 65.081 32.9532 65.0933 32.9645C65.1057 32.9758 65.1203 32.9844 65.1362 32.9897C65.1521 32.9951 65.169 32.9971 65.1857 32.9956C66.3907 32.8896 67.3104 32.3306 67.9447 31.3184C68.6956 30.1218 69.4393 28.9207 70.1761 27.7149C70.2269 27.6309 70.2855 27.5539 70.3519 27.484C70.3774 27.4564 70.4088 27.4426 70.4462 27.4426C71.0745 27.4405 73.1597 27.2848 73.611 27.5814C74.3633 28.0762 73.6068 28.9419 73.2752 29.4631C72.6712 30.4104 72.0638 31.3551 71.4528 32.2974C70.7238 33.4194 70.3604 34.0519 69.1282 34.2533C69.0639 34.2639 69.0328 34.2921 69.035 34.338Z" fill="#DD6611"/>
<path d="M106.009 38.4404C106.924 38.4521 107.831 38.5368 107.843 39.6991C107.86 41.2877 107.865 42.8583 107.857 44.4108C107.857 44.4758 107.825 44.5076 107.76 44.5062C106.945 44.4899 106.152 44.4924 105.379 44.5136C105.041 44.5228 104.794 44.4832 104.636 44.3949C103.945 44.005 104.141 42.4687 104.157 41.7652C104.159 41.6811 104.117 41.6391 104.033 41.6391C101.136 41.6377 98.2199 41.6391 95.2836 41.6433C94.4593 41.6455 96.0338 44.4924 93.7717 44.5019C92.9799 44.5055 92.1898 44.5037 91.4016 44.4966C91.3542 44.4959 91.3306 44.4719 91.3306 44.4246V38.5209C91.3306 38.5167 91.3314 38.5124 91.3332 38.5085C91.3349 38.5046 91.3374 38.501 91.3405 38.4981C91.3437 38.4951 91.3475 38.4928 91.3516 38.4913C91.3557 38.4897 91.3601 38.489 91.3645 38.4891C92.2312 38.5262 92.9453 38.3292 93.35 37.4868C93.8332 36.4792 93.9656 35.3593 94.1044 34.2722C94.382 32.096 94.3587 29.7905 94.4 27.593C94.4021 27.4913 94.4537 27.4404 94.5547 27.4404C97.8032 27.4411 101.082 27.4425 104.39 27.4447C105.967 27.4457 105.942 28.483 105.946 29.7958C105.955 32.6522 105.956 35.5136 105.949 38.38C105.949 38.3958 105.955 38.4111 105.966 38.4223C105.978 38.4336 105.993 38.4401 106.009 38.4404ZM101.859 30.6179L97.9356 30.6243C97.8918 30.6243 97.8689 30.6466 97.8668 30.6911C97.7788 32.4785 97.7555 34.0243 97.443 35.9961C97.3102 36.8359 97.052 37.6182 96.6684 38.3429C96.6621 38.3552 96.659 38.3688 96.6594 38.3826C96.6599 38.3964 96.6639 38.4098 96.671 38.4216C96.6781 38.4334 96.6881 38.4432 96.7001 38.45C96.7121 38.4568 96.7256 38.4605 96.7394 38.4605H101.893C101.902 38.4605 101.91 38.4571 101.916 38.4509C101.922 38.4448 101.926 38.4364 101.926 38.4277V30.6858C101.926 30.6405 101.904 30.6179 101.859 30.6179Z" fill="#DD6611"/>
<path d="M25.8171 36.7466C25.109 36.3779 24.6023 35.6933 24.4083 34.8433C24.2144 33.9932 24.3493 33.0474 24.7831 32.2139C24.998 31.8012 25.2798 31.4285 25.6125 31.1171C25.9451 30.8056 26.3221 30.5615 26.722 30.3988C27.1218 30.236 27.5367 30.1577 27.9428 30.1684C28.349 30.1791 28.7385 30.2786 29.0891 30.4611C29.7973 30.8297 30.304 31.5144 30.4979 32.3644C30.6919 33.2145 30.557 34.1603 30.1231 34.9938C29.9083 35.4065 29.6265 35.7792 29.2938 36.0906C28.9612 36.4021 28.5841 36.6461 28.1843 36.8089C27.7844 36.9717 27.3696 37.0499 26.9634 37.0392C26.5573 37.0285 26.1678 36.9291 25.8171 36.7466ZM26.9565 34.8691C27.0826 34.9183 27.2203 34.9342 27.3617 34.9159C27.5031 34.8976 27.6454 34.8454 27.7805 34.7624C27.9156 34.6794 28.0409 34.5671 28.1491 34.4321C28.2574 34.297 28.3466 34.1417 28.4115 33.9751C28.5427 33.6387 28.5673 33.2766 28.4799 32.9685C28.3925 32.6604 28.2003 32.4315 27.9456 32.3322C27.8195 32.283 27.6818 32.2671 27.5404 32.2854C27.399 32.3037 27.2567 32.3559 27.1216 32.4389C26.9864 32.5219 26.8612 32.6342 26.7529 32.7693C26.6446 32.9043 26.5555 33.0596 26.4905 33.2262C26.3594 33.5626 26.3348 33.9247 26.4221 34.2328C26.5095 34.5409 26.7017 34.7698 26.9565 34.8691Z" fill="#DD6611"/>
<path d="M25.0725 41.3202C28.6855 38.5018 31.9351 35.1368 34.7269 32.1182C34.7454 32.0978 34.7705 32.0845 34.7977 32.0806C34.825 32.0766 34.8527 32.0823 34.8763 32.0965C34.8998 32.1108 34.9177 32.1328 34.9268 32.1588C34.9358 32.1848 34.9356 32.2132 34.9261 32.239C33.3474 36.5915 29.923 40.5965 25.1647 41.5225C25.1395 41.5274 25.1135 41.5236 25.0907 41.5118C25.0679 41.5 25.0497 41.4809 25.0391 41.4576C25.0285 41.4342 25.026 41.408 25.0321 41.3831C25.0381 41.3582 25.0524 41.336 25.0725 41.3202Z" fill="#DD6611"/>
<path d="M18.6223 42.4567C15.9273 40.9812 14.0519 38.2707 13.4088 34.9213C12.7656 31.572 13.4073 27.8582 15.1928 24.5971C16.0768 22.9823 17.2151 21.5272 18.5425 20.3149C19.8699 19.1027 21.3606 18.1569 22.9293 17.5317C24.498 16.9065 26.1141 16.614 27.6853 16.6711C29.2565 16.7281 30.752 17.1335 32.0864 17.864C34.7814 19.3395 36.6568 22.0501 37.3 25.3994C37.9431 28.7487 37.3014 32.4625 35.516 35.7237C34.6319 37.3384 33.4936 38.7935 32.1662 40.0058C30.8388 41.2181 29.3481 42.1638 27.7794 42.789C26.2107 43.4142 24.5946 43.7067 23.0234 43.6497C21.4523 43.5926 19.9568 43.1873 18.6223 42.4567ZM20.382 23.1283C23.158 20.4424 26.7582 19.2632 30.5842 20.044C30.8416 20.0959 31.5865 20.3195 31.7994 20.2188C31.8117 20.213 31.8223 20.2042 31.8302 20.1931C31.8381 20.1821 31.843 20.1692 31.8445 20.1557C31.846 20.1422 31.844 20.1286 31.8387 20.1161C31.8334 20.1036 31.825 20.0926 31.8143 20.0843C30.0714 18.7143 27.6874 18.1835 25.5673 18.4728C17.6294 19.5545 12.3286 29.3191 15.664 36.5461C15.7805 36.7993 16.5402 38.2032 16.8718 38.0506C16.9017 38.0367 16.9251 38.0117 16.9369 37.9811C16.9488 37.9505 16.9482 37.9165 16.9354 37.8864C15.0876 33.5254 16.0041 28.6145 18.7959 24.8924C18.7992 24.8875 18.8042 24.884 18.81 24.8827C18.8158 24.8813 18.8218 24.8822 18.827 24.8852C18.8321 24.8882 18.8359 24.893 18.8376 24.8986C18.8393 24.9043 18.8388 24.9104 18.8362 24.9157C18.3615 26.0441 18.3795 27.3738 19.1403 28.339C19.865 29.2576 21.0739 29.4854 22.1493 29.0532C23.5108 28.5075 24.4177 27.0824 24.4516 25.6404C24.5036 23.3911 22.4205 22.0402 20.4032 23.1569C20.3248 23.2007 20.3177 23.1912 20.382 23.1283ZM20.3418 35.3075C23.4917 32.1512 27.2795 28.338 30.7103 24.7589C31.0821 24.3711 30.8904 23.9155 30.385 23.8276C30.0873 23.7757 28.7565 23.4885 28.5743 23.674C25.116 27.2057 21.657 30.7374 18.1973 34.2692C17.7851 34.6898 18.0394 35.103 18.5671 35.1942C18.9326 35.2577 20.079 35.5713 20.3418 35.3075ZM25.8173 36.7465C26.1679 36.9291 26.5574 37.0285 26.9636 37.0392C27.3697 37.0499 27.7846 36.9716 28.1844 36.8089C28.5843 36.6461 28.9613 36.402 29.294 36.0906C29.6266 35.7792 29.9084 35.4064 30.1233 34.9937C30.5572 34.1602 30.692 33.2144 30.4981 32.3644C30.3042 31.5144 29.7974 30.8297 29.0893 30.4611C28.7386 30.2786 28.3491 30.1791 27.943 30.1684C27.5368 30.1577 27.122 30.236 26.7221 30.3988C26.3223 30.5615 25.9453 30.8056 25.6126 31.117C25.2799 31.4285 24.9981 31.8012 24.7833 32.2139C24.3494 33.0474 24.2146 33.9932 24.4085 34.8432C24.6024 35.6933 25.1092 36.3779 25.8173 36.7465ZM34.7269 32.1184C31.9351 35.1369 28.6855 38.502 25.0725 41.3203C25.0524 41.3362 25.0381 41.3583 25.032 41.3832C25.026 41.4082 25.0285 41.4344 25.0391 41.4577C25.0497 41.4811 25.0679 41.5002 25.0907 41.5119C25.1134 41.5237 25.1395 41.5275 25.1647 41.5227C29.923 40.5967 33.3474 36.5917 34.9261 32.2391C34.9356 32.2133 34.9358 32.185 34.9267 32.159C34.9177 32.133 34.8998 32.111 34.8763 32.0967C34.8527 32.0824 34.8249 32.0768 34.7977 32.0807C34.7705 32.0847 34.7454 32.098 34.7269 32.1184Z" fill="white"/>
<path d="M20.6009 25.6727C20.3509 26.3138 20.5407 26.9866 21.0248 27.1753C21.509 27.3641 22.1041 26.9973 22.354 26.3562C22.604 25.7151 22.4142 25.0423 21.9301 24.8535C21.4459 24.6648 20.8508 25.0315 20.6009 25.6727Z" fill="white"/>
<path d="M26.4907 33.2261C26.2176 33.9266 26.4262 34.6622 26.9566 34.869C27.4871 35.0759 28.1385 34.6756 28.4117 33.975C28.6848 33.2745 28.4762 32.5389 27.9458 32.3321C27.4153 32.1252 26.7638 32.5255 26.4907 33.2261Z" fill="white"/>
<path d="M39.0679 21.8283C43.6355 30.0067 39.479 40.5988 31.6396 44.8581C28.1453 46.7557 23.8479 47.1763 20.1893 45.5044C19.0655 44.9909 17.994 44.3901 16.9747 43.7021C13.046 41.0523 11.248 36.2622 11.5404 31.6522C11.8046 27.4762 13.3074 23.8025 16.0487 20.631C19.3512 16.8104 24.1996 14.5207 29.2769 15.2465C31.1522 15.5146 32.9079 16.3855 34.5586 17.3592C36.4403 18.4696 38.0042 19.9233 39.0679 21.8283ZM18.6225 42.4567C19.9569 43.1873 21.4524 43.5927 23.0236 43.6497C24.5948 43.7067 26.2108 43.4143 27.7796 42.789C29.3483 42.1638 30.8389 41.2181 32.1664 40.0058C33.4938 38.7935 34.632 37.3385 35.5161 35.7237C37.3015 32.4625 37.9433 28.7487 37.3001 25.3994C36.6569 22.0501 34.7816 19.3395 32.0865 17.864C30.7521 17.1335 29.2566 16.7281 27.6854 16.6711C26.1143 16.614 24.4982 16.9065 22.9294 17.5317C21.3607 18.1569 19.8701 19.1027 18.5427 20.3149C17.2152 21.5272 16.077 22.9823 15.1929 24.5971C13.4075 27.8583 12.7657 31.572 13.4089 34.9213C14.0521 38.2707 15.9274 40.9812 18.6225 42.4567Z" fill="#77BB33"/>
</svg>
