<svg width="147" height="38" fill="none" xmlns="http://www.w3.org/2000/svg"><path d="M26.453 8.305a.054.054 0 01-.002.052.056.056 0 01-.043.027c-.69.056-1.335.25-1.934.584a.236.236 0 00-.091.319 4.552 4.552 0 001.348 1.535c.082.06.074.107-.022.143a3.27 3.27 0 00-1.405.97.236.236 0 00-.059.18c.071.905 1.322 1.673 2.115 2.098.065.035.08.085.048.15a6.406 6.406 0 00-.596 1.734c-.235 1.243 2.07 1.492 2.79 1.447.078-.006.107.03.087.104l-.398 1.457a.47.47 0 00.281.56c1.516.596 2.962.455 4.337-.422.053-.034.098-.025.135.026a6.405 6.405 0 003.12 2.325c.075.026.134.006.176-.062l.85-1.325a.113.113 0 01.128-.049.12.12 0 01.043.023 4.245 4.245 0 002.76 1.037.208.208 0 00.167-.077c.504-.61.413-1.625.492-2.385.008-.084.052-.11.131-.077a4.37 4.37 0 002.26.291.472.472 0 00.397-.374c.215-1.081-.096-1.962-.934-2.641a.128.128 0 01.062-.228c.447-.065 2.64-.79 1.9-1.573a6.517 6.517 0 00-2.452-1.624.1.1 0 01-.065-.087.101.101 0 01.05-.095c.476-.266 1.51-.81 1.772-1.28a.193.193 0 00.01-.177c-.547-1.323-2.905-1.65-4.24-1.586-.076.002-.118-.033-.127-.107-.066-.52-.176-1.94-.784-2.34-.522-.345-1.723.22-2.257.452a.09.09 0 01-.121-.053c-.55-1.591-1.81-3.091-3.267-1.027a.136.136 0 01-.178.036.13.13 0 01-.045-.046 3.415 3.415 0 00-.922-1.035.27.27 0 00-.372.05L30.8 6.248c-.045.059-.097.066-.156.022-.334-.241-2.204-1.282-2.323-.457-.053.37-.098.738-.135 1.1a.106.106 0 01-.043.074.1.1 0 01-.083.015 6.482 6.482 0 00-2.072-.192.162.162 0 00-.127.08.159.159 0 00-.005.148l.597 1.266zm43.837 8.129a.093.093 0 01-.093-.093v-1.728a.093.093 0 01.093-.093h8.965a.093.093 0 00.093-.093V9.912a.093.093 0 00-.093-.093l-13.664.004a.092.092 0 00-.086.057.094.094 0 00-.007.036v18.61a.094.094 0 00.027.065.092.092 0 00.066.027h13.911a.093.093 0 00.093-.093v-4.513a.093.093 0 00-.093-.093h-9.196a.093.093 0 01-.093-.093l-.024-2.584a.093.093 0 01.093-.093h8.676a.093.093 0 00.093-.093v-4.508a.093.093 0 00-.093-.093l-8.668-.021zm16.774 4.822a.107.107 0 01.107-.107h6.415a.107.107 0 01.107.107v7.255a.107.107 0 00.106.107h4.486a.107.107 0 00.107-.107V9.921a.107.107 0 00-.107-.108l-4.481.012a.107.107 0 00-.107.107l-.012 6.41a.107.107 0 01-.107.108H87.17a.107.107 0 01-.107-.107v-6.42a.107.107 0 00-.107-.108l-4.485.01a.107.107 0 00-.107.107v6.41a.107.107 0 01-.107.108h-1.171a.106.106 0 00-.107.106v4.486a.106.106 0 00.107.107h1.171a.107.107 0 01.107.107v7.255a.107.107 0 00.107.107h4.485a.107.107 0 00.107-.107v-7.255zm-32.538-6.672a.093.093 0 01.089-.064h3.617a.092.092 0 01.066.027.095.095 0 01.027.066v13.912a.093.093 0 00.093.093h4.75a.093.093 0 00.093-.093l.052-18.61a.093.093 0 00-.093-.094H51.186a.093.093 0 00-.09.063L44.8 28.495a.094.094 0 00.013.085.093.093 0 00.076.038h4.796a.094.094 0 00.09-.063l4.752-13.971zm55.342.021a.085.085 0 01.085-.085h4.678a.085.085 0 00.085-.085V9.906a.085.085 0 00-.085-.085h-14.225a.086.086 0 00-.085.085v4.53a.085.085 0 00.085.084h4.658a.085.085 0 01.085.085l.018 13.928a.085.085 0 00.085.085h4.531a.085.085 0 00.085-.085V14.605z" stroke="#828448" stroke-width=".396"/><path d="M113.034 22.995a.089.089 0 00.028.066.092.092 0 00.067.027l1.365-.014a.093.093 0 01.089.123l-1.796 5.298a.093.093 0 00.089.123h4.515a.091.091 0 00.089-.063l1.838-5.424a.093.093 0 01.089-.063l5.228.067a.093.093 0 01.087.062l1.826 5.358a.091.091 0 00.089.063h4.511a.09.09 0 00.042-.01.09.09 0 00.033-.03.086.086 0 00.016-.04.09.09 0 00-.004-.043l-6.284-18.61a.093.093 0 00-.089-.063h-5.69a.093.093 0 00-.089.062l-2.852 8.431a.093.093 0 01-.089.063h-3.015a.098.098 0 00-.036.008.1.1 0 00-.03.02.111.111 0 00-.02.03.087.087 0 00-.007.036v4.523z" stroke="#828448" stroke-width=".396"/><path d="M32.37 27.027a.071.071 0 01-.12-.067c.175-.714 1.682-7.262.651-7.184-.068.003-.107.04-.114.108-.25 1.993-.952 3.9-1.572 5.81a.077.077 0 01-.148 0c-.46-1.445-1.89-2.69-3.142-3.415-1.745-1.01-3.56-.756-4.919.728-.686.75.754 1.199 1.049 1.958 1.268 3.263 4.428 1.433 6.46 3.307.057.053.08.117.067.194-.263 1.765-.31 4.412 1.77 4.897a.172.172 0 00.17-.06.168.168 0 00.021-.178 6.574 6.574 0 01-.611-2.156.178.178 0 01.071-.17c1.816-1.449 4.246-.38 5.869-2.066.587-.612.597-1.324 1.478-1.854.427-.255.597-.532.162-.912-2.513-2.189-5.103-.99-7.143 1.06z" stroke="#037163" stroke-width=".396"/><path d="M38.861 14.966l.427-.268c.065-.04.076-.09.032-.152l-.374-.53c-.04-.057-.039-.113.006-.168l.253-.311c.054-.066.05-.127-.014-.182l-.554-.483a.163.163 0 01-.055-.146l.065-.517c.01-.08-.023-.128-.103-.144-.538-.116-.836-.437-.894-.964-.01-.097-.065-.15-.164-.158-.563-.04-.958-.311-1.183-.811-.036-.08-.097-.114-.182-.105-.569.067-1.023-.119-1.364-.558a.164.164 0 00-.172-.065l-.76.142a.209.209 0 01-.201-.067c-.366-.399-.74-.42-1.124-.063a.155.155 0 01-.166.035l-.752-.24c-.09-.028-.152.002-.186.092-.164.436-.485.548-.962.336-.099-.045-.16-.014-.182.093l-.11.524a.117.117 0 01-.094.095l-.578.135c-.083.018-.111.068-.085.148l.153.445c.027.084.004.147-.072.19l-.411.24c-.067.04-.08.092-.036.156l.357.54c.038.058.035.114-.009.169l-.286.346c-.069.082-.054.142.045.182.479.194.667.535.564 1.025a.146.146 0 00.075.17l.68.4a.26.26 0 01.13.172l.116.48c.02.082.072.126.157.131.559.035.951.299 1.177.794a.192.192 0 00.18.118l.657.016a.28.28 0 01.18.067l.582.501a.21.21 0 00.205.044l.515-.149a.23.23 0 01.184.022l.706.388c.078.042.15.034.216-.024.372-.328.773-.342 1.205-.04.075.053.14.043.196-.031l.303-.41a.17.17 0 01.146-.075l.704-.004c.089 0 .132-.044.129-.133-.017-.459.216-.647.7-.565.111.018.15-.027.119-.135l-.156-.522c-.024-.075-.002-.134.065-.176zm82.097 3.334a.052.052 0 00-.002.027.05.05 0 00.01.026.051.051 0 00.021.019.055.055 0 00.027.007h2.002a.06.06 0 00.027-.007.051.051 0 00.021-.019.062.062 0 00.011-.026.065.065 0 00-.003-.027l-1.002-2.96a.056.056 0 00-.021-.028.06.06 0 00-.068 0 .062.062 0 00-.021.028l-1.002 2.96z" stroke="#828448" stroke-width=".396"/><path d="M24.239 23.406c2.256.27 4.13 1.12 5.744 2.707a.068.068 0 00.095.008.068.068 0 00.008-.095c-1.266-1.86-3.033-2.787-5.299-2.78a1.83 1.83 0 00-.556.087c-.108.035-.106.059.008.073zm8.16 5.372c1.683-1.434 3.787-2.178 5.96-2.422.061-.006.083-.04.065-.099-.011-.036-.04-.056-.085-.059-2.4-.132-4.57.445-5.986 2.539a.032.032 0 00.006.039.032.032 0 00.04.002z" stroke="#037163" stroke-width=".396"/><path d="M140.733 37.571H.638a.089.089 0 01-.09-.089V.512a.089.089 0 01.09-.09H140.59a.09.09 0 01.084.062l6.321 18.69a.088.088 0 010 .055l-6.179 18.28a.09.09 0 01-.083.062zM26.453 8.305a.056.056 0 01-.045.08c-.69.055-1.335.25-1.934.583a.233.233 0 00-.09.319 4.554 4.554 0 001.347 1.535c.082.06.074.107-.022.143a3.271 3.271 0 00-1.405.969.236.236 0 00-.06.18c.072.906 1.323 1.674 2.116 2.1.065.034.08.084.048.15a6.407 6.407 0 00-.596 1.733c-.236 1.243 2.07 1.492 2.79 1.447.078-.006.107.03.087.104l-.398 1.457a.471.471 0 00.281.56c1.516.596 2.962.455 4.337-.422.053-.034.098-.026.135.026a6.405 6.405 0 003.12 2.325c.075.026.134.006.176-.062l.85-1.325a.112.112 0 01.079-.052.118.118 0 01.092.026 4.246 4.246 0 002.76 1.037.208.208 0 00.167-.077c.504-.61.413-1.625.492-2.385.008-.084.052-.11.13-.077a4.37 4.37 0 002.26.291.472.472 0 00.398-.374c.215-1.081-.096-1.962-.934-2.641a.129.129 0 01.062-.228c.447-.065 2.64-.79 1.9-1.573a6.518 6.518 0 00-2.452-1.624.102.102 0 01-.065-.087.1.1 0 01.05-.095c.476-.266 1.51-.81 1.772-1.28a.193.193 0 00.01-.177c-.547-1.323-2.905-1.65-4.24-1.587-.076.003-.118-.033-.127-.106-.066-.52-.176-1.94-.784-2.34-.522-.345-1.723.22-2.257.452a.09.09 0 01-.121-.053c-.55-1.591-1.81-3.091-3.267-1.027a.137.137 0 01-.115.055.132.132 0 01-.108-.065 3.415 3.415 0 00-.923-1.035.27.27 0 00-.372.05L30.8 6.248c-.045.058-.097.066-.156.022-.335-.241-2.204-1.282-2.323-.457-.053.37-.098.738-.135 1.1a.105.105 0 01-.043.074.1.1 0 01-.083.015 6.482 6.482 0 00-2.072-.192.162.162 0 00-.127.08.158.158 0 00-.006.148l.598 1.266zm43.837 8.128a.093.093 0 01-.093-.093v-1.727a.093.093 0 01.093-.093h8.965a.093.093 0 00.093-.093V9.912a.093.093 0 00-.093-.093l-13.665.004a.093.093 0 00-.093.093v18.609a.093.093 0 00.093.093h13.912a.093.093 0 00.093-.093v-4.513a.093.093 0 00-.093-.093h-9.197a.094.094 0 01-.065-.028.092.092 0 01-.027-.065l-.024-2.585a.093.093 0 01.093-.093h8.676a.093.093 0 00.093-.093v-4.507a.093.093 0 00-.093-.093l-8.668-.021zm16.774 4.822a.107.107 0 01.107-.107h6.415a.107.107 0 01.107.107v7.256a.107.107 0 00.107.107h4.485a.107.107 0 00.107-.107V9.92a.107.107 0 00-.107-.107l-4.481.012a.107.107 0 00-.107.107l-.012 6.41a.107.107 0 01-.107.107h-6.407a.107.107 0 01-.107-.107v-6.42a.107.107 0 00-.106-.107l-4.486.01a.107.107 0 00-.107.107v6.41a.107.107 0 01-.107.107h-1.17a.107.107 0 00-.108.107v4.486a.107.107 0 00.107.106h1.171a.107.107 0 01.107.107v7.256a.107.107 0 00.107.107h4.486a.107.107 0 00.106-.107v-7.256zm-32.538-6.672a.093.093 0 01.089-.063h3.617a.093.093 0 01.093.093v13.912a.093.093 0 00.093.093h4.75a.093.093 0 00.094-.093l.051-18.611a.093.093 0 00-.093-.093H51.186a.093.093 0 00-.089.063l-6.298 18.611a.091.091 0 00.013.084.093.093 0 00.076.039h4.796a.093.093 0 00.09-.063l4.752-13.972zm55.342.022a.085.085 0 01.085-.085h4.678a.086.086 0 00.085-.085V9.906a.085.085 0 00-.085-.085h-14.225a.086.086 0 00-.085.085v4.529a.085.085 0 00.085.085h4.658a.085.085 0 01.085.085l.018 13.928a.085.085 0 00.085.085h4.531a.085.085 0 00.085-.085V14.605zm3.166 8.39a.11.11 0 00.007.036.095.095 0 00.088.057l1.365-.014a.092.092 0 01.076.038.093.093 0 01.013.084l-1.796 5.3a.093.093 0 00.089.122h4.515a.093.093 0 00.089-.063l1.838-5.424a.091.091 0 01.034-.046.095.095 0 01.055-.017l5.228.067a.094.094 0 01.087.061l1.826 5.359a.091.091 0 00.034.046.095.095 0 00.055.017h4.511a.087.087 0 00.075-.04.086.086 0 00.016-.04.09.09 0 00-.003-.043l-6.285-18.61a.093.093 0 00-.089-.063h-5.69a.093.093 0 00-.089.062l-2.851 8.431a.1.1 0 01-.035.046.093.093 0 01-.054.017h-3.016a.1.1 0 00-.036.008.101.101 0 00-.03.02.11.11 0 00-.02.03.087.087 0 00-.007.035v4.524zm-80.665 4.032a.071.071 0 01-.118-.067c.174-.715 1.681-7.262.65-7.185-.068.004-.106.04-.114.11-.25 1.992-.952 3.9-1.571 5.808a.078.078 0 01-.075.056.077.077 0 01-.074-.055c-.46-1.445-1.89-2.69-3.142-3.416-1.745-1.009-3.56-.755-4.919.729-.686.75.754 1.198 1.049 1.958 1.268 3.263 4.428 1.433 6.46 3.307.057.052.08.117.067.194-.263 1.764-.31 4.412 1.77 4.897a.172.172 0 00.17-.06.168.168 0 00.021-.178 6.574 6.574 0 01-.611-2.157.178.178 0 01.071-.17c1.816-1.448 4.246-.38 5.869-2.065.587-.612.597-1.324 1.478-1.854.427-.256.597-.533.162-.913-2.513-2.188-5.103-.989-7.143 1.061z" fill="#053490"/><path d="M38.796 15.142l.156.522c.032.108-.008.153-.119.135-.484-.082-.717.106-.7.566.002.088-.04.132-.129.132l-.704.004a.17.17 0 00-.146.075l-.303.41c-.056.074-.121.084-.196.031-.431-.302-.833-.288-1.205.04a.174.174 0 01-.216.024l-.706-.388a.23.23 0 00-.184-.022l-.515.149a.21.21 0 01-.205-.044l-.582-.5a.28.28 0 00-.18-.068l-.657-.016a.192.192 0 01-.18-.118c-.226-.495-.618-.76-1.177-.794-.085-.005-.137-.049-.157-.13l-.116-.481a.26.26 0 00-.13-.172l-.68-.4c-.066-.038-.09-.095-.075-.17.103-.49-.085-.831-.564-1.025-.099-.04-.114-.1-.045-.182l.287-.346c.043-.055.046-.11.008-.169l-.357-.54c-.043-.064-.031-.116.036-.156l.412-.24c.075-.043.098-.106.07-.19l-.152-.445c-.026-.08.002-.13.085-.148l.578-.135a.117.117 0 00.093-.095l.111-.524c.022-.107.083-.138.182-.093.477.212.798.1.962-.336.034-.09.096-.12.186-.091l.752.24c.063.02.118.008.166-.037.384-.356.758-.335 1.124.064.055.06.122.082.201.067l.76-.142a.164.164 0 01.172.065c.34.44.795.625 1.364.558.085-.01.146.026.182.105.225.5.62.77 1.183.811.099.008.154.06.164.158.058.527.356.848.894.964.08.016.114.064.103.144l-.065.517a.163.163 0 00.055.146l.554.483c.064.055.068.116.014.182l-.253.31c-.045.056-.047.112-.006.169l.374.53c.044.062.033.113-.032.152l-.427.268c-.067.042-.089.1-.065.176zm82.162 3.158l1.002-2.96a.062.062 0 01.021-.028.06.06 0 01.068 0c.01.007.017.016.021.027l1.002 2.96a.065.065 0 01.003.028.063.063 0 01-.011.026.052.052 0 01-.021.019.056.056 0 01-.027.006h-2.002a.056.056 0 01-.027-.006.052.052 0 01-.021-.019.05.05 0 01-.01-.026.052.052 0 01.002-.028zm-90.975 7.813c-1.615-1.587-3.488-2.438-5.744-2.707-.114-.014-.116-.039-.008-.073.183-.058.369-.087.556-.087 2.266-.007 4.033.92 5.299 2.78a.067.067 0 01-.008.095.067.067 0 01-.095-.008zm8.375.243c-2.172.243-4.276.987-5.96 2.422a.032.032 0 01-.039-.003.032.032 0 01-.006-.039c1.417-2.093 3.585-2.67 5.986-2.538.046.003.074.022.085.06.018.059-.004.092-.066.098z" fill="#053490"/><path d="M26.453 8.305l-.597-1.266a.158.158 0 01.059-.203.162.162 0 01.073-.025 6.482 6.482 0 012.072.192.1.1 0 00.083-.015.103.103 0 00.043-.074c.037-.362.082-.73.135-1.1.119-.825 1.988.216 2.323.457.06.044.111.037.156-.022l.798-1.015a.269.269 0 01.372-.049c.377.281.684.626.922 1.035a.13.13 0 00.108.065.135.135 0 00.115-.055c1.456-2.064 2.717-.564 3.267 1.027a.088.088 0 00.085.06.09.09 0 00.036-.007c.534-.231 1.735-.797 2.257-.451.608.4.718 1.818.784 2.339.009.074.051.11.126.107 1.336-.064 3.694.263 4.24 1.586a.191.191 0 01-.01.177c-.26.47-1.295 1.014-1.77 1.28a.102.102 0 00-.031.148.1.1 0 00.045.034c.947.359 1.764.9 2.451 1.624.74.784-1.452 1.508-1.9 1.573a.13.13 0 00-.104.094.128.128 0 00.043.134c.838.679 1.15 1.56.934 2.641a.468.468 0 01-.397.374 4.37 4.37 0 01-2.26-.29c-.08-.034-.123-.008-.13.076-.08.76.011 1.775-.493 2.385a.208.208 0 01-.166.077 4.245 4.245 0 01-2.76-1.037.119.119 0 00-.093-.026.114.114 0 00-.08.052l-.849 1.325c-.042.068-.1.088-.176.062a6.405 6.405 0 01-3.12-2.325c-.037-.051-.082-.06-.135-.026-1.375.877-2.821 1.018-4.337.422a.47.47 0 01-.28-.56l.397-1.457c.02-.075-.01-.11-.087-.104-.72.045-3.025-.204-2.79-1.447a6.406 6.406 0 01.596-1.733c.033-.066.017-.116-.048-.15-.793-.426-2.044-1.194-2.115-2.1a.236.236 0 01.06-.18 3.27 3.27 0 011.404-.97c.096-.035.104-.082.022-.142a4.552 4.552 0 01-1.348-1.535.236.236 0 01.091-.319 4.698 4.698 0 011.934-.584.055.055 0 00.045-.079zm12.408 6.66l.428-.267c.064-.04.075-.09.031-.152l-.374-.53c-.04-.057-.039-.113.006-.169l.253-.31c.055-.066.05-.127-.013-.182l-.554-.483a.163.163 0 01-.056-.146l.065-.517c.011-.08-.023-.128-.102-.144-.539-.116-.837-.438-.895-.964-.01-.098-.065-.15-.164-.158-.563-.041-.958-.311-1.183-.811-.036-.08-.096-.114-.182-.105-.569.067-1.023-.119-1.364-.558a.165.165 0 00-.172-.066l-.76.143a.209.209 0 01-.201-.067c-.366-.399-.74-.42-1.124-.064a.155.155 0 01-.166.036l-.752-.24c-.09-.029-.152.002-.186.092-.164.436-.484.548-.962.336-.099-.045-.16-.014-.182.093l-.11.524a.117.117 0 01-.094.095l-.577.135c-.084.018-.112.068-.085.148l.152.445c.027.083.004.147-.071.19l-.412.24c-.067.04-.08.091-.036.156l.357.54c.038.058.035.114-.008.168l-.287.347c-.069.081-.054.142.045.182.48.194.667.535.564 1.025a.146.146 0 00.075.17l.681.4a.26.26 0 01.129.172l.116.48c.02.082.072.126.157.131.559.034.951.299 1.177.793a.192.192 0 00.18.12l.657.015a.28.28 0 01.18.067l.582.5a.21.21 0 00.206.044l.514-.148a.23.23 0 01.184.022l.706.387c.078.043.15.035.216-.023.372-.329.774-.342 1.205-.04.075.053.14.042.196-.031l.303-.41a.17.17 0 01.146-.075l.704-.004c.089 0 .132-.044.129-.133-.017-.459.216-.647.7-.566.111.019.15-.026.12-.134l-.157-.522c-.024-.076-.002-.134.065-.177zm31.429 1.469l8.668.021a.093.093 0 01.093.093v4.508a.093.093 0 01-.093.093h-8.676a.093.093 0 00-.093.093l.024 2.584a.093.093 0 00.093.093h9.196a.093.093 0 01.093.093v4.513a.093.093 0 01-.093.093H65.591a.092.092 0 01-.066-.027.093.093 0 01-.027-.066V9.916a.094.094 0 01.027-.066.092.092 0 01.066-.027l13.664-.004a.093.093 0 01.093.093v4.515a.093.093 0 01-.093.093H70.29a.093.093 0 00-.093.093v1.728a.093.093 0 00.093.093zm16.775 4.822v7.255a.107.107 0 01-.107.107h-4.486a.107.107 0 01-.106-.107v-7.255a.107.107 0 00-.107-.107h-1.172a.106.106 0 01-.106-.107v-4.486a.106.106 0 01.106-.106h1.172a.107.107 0 00.106-.107V9.932a.107.107 0 01.107-.107l4.486-.01a.107.107 0 01.107.107v6.42a.107.107 0 00.107.108h6.406a.107.107 0 00.107-.107l.012-6.411a.107.107 0 01.107-.107l4.482-.012a.107.107 0 01.106.107v18.591a.107.107 0 01-.106.107H93.8a.107.107 0 01-.107-.107v-7.255a.107.107 0 00-.107-.107h-6.414a.107.107 0 00-.107.107zm-32.539-6.672l-4.753 13.97a.094.094 0 01-.089.064h-4.796a.093.093 0 01-.09-.123l6.299-18.61a.093.093 0 01.089-.064H63.22a.093.093 0 01.093.093l-.052 18.611a.093.093 0 01-.093.093h-4.75a.093.093 0 01-.093-.093V14.613a.094.094 0 00-.028-.066.093.093 0 00-.065-.027h-3.617a.093.093 0 00-.09.064zm55.342.021v13.928a.085.085 0 01-.085.085h-4.531a.085.085 0 01-.085-.085l-.018-13.928a.085.085 0 00-.085-.085h-4.658a.085.085 0 01-.085-.085V9.906a.085.085 0 01.085-.085h14.225a.086.086 0 01.085.085v4.53a.085.085 0 01-.085.084h-4.678a.085.085 0 00-.085.085z" fill="#FFD300"/><path d="M113.034 22.995v-4.523c0-.013.002-.025.007-.036a.111.111 0 01.02-.03.1.1 0 01.03-.02.098.098 0 01.036-.007h3.015a.093.093 0 00.089-.064l2.852-8.43a.093.093 0 01.089-.063h5.69a.093.093 0 01.089.062l6.284 18.611a.09.09 0 01.004.044.086.086 0 01-.016.04.09.09 0 01-.033.028.09.09 0 01-.042.011h-4.511a.091.091 0 01-.089-.063l-1.826-5.358a.093.093 0 00-.087-.061l-5.228-.068a.093.093 0 00-.089.063l-1.838 5.424a.091.091 0 01-.089.063h-4.515a.093.093 0 01-.043-.01.1.1 0 01-.034-.028.093.093 0 01-.012-.084l1.796-5.3a.093.093 0 00-.089-.122l-1.365.014a.094.094 0 01-.095-.093zm7.924-4.696a.052.052 0 00-.002.028.05.05 0 00.01.026.051.051 0 00.021.019.056.056 0 00.027.007h2.002a.06.06 0 00.027-.007.051.051 0 00.021-.019.05.05 0 00.01-.026.052.052 0 00-.002-.028l-1.002-2.96a.062.062 0 00-.021-.027.06.06 0 00-.068 0 .056.056 0 00-.021.027l-1.002 2.96z" fill="#FFD300"/><path d="M32.37 27.027c2.04-2.05 4.63-3.249 7.142-1.06.435.38.265.656-.162.912-.88.53-.89 1.242-1.478 1.854-1.623 1.685-4.053.617-5.869 2.065a.178.178 0 00-.071.17 6.56 6.56 0 00.611 2.157.166.166 0 01-.02.178.17.17 0 01-.172.06c-2.08-.485-2.032-3.133-1.769-4.898a.207.207 0 00-.067-.193c-2.032-1.874-5.192-.044-6.46-3.307-.295-.76-1.735-1.209-1.049-1.959 1.36-1.483 3.174-1.737 4.92-.728 1.252.727 2.68 1.971 3.141 3.415a.077.077 0 00.074.056.077.077 0 00.075-.056c.619-1.909 1.321-3.816 1.57-5.809.008-.068.047-.105.115-.109 1.031-.077-.477 6.47-.65 7.185a.071.071 0 00.118.067zm-8.131-3.62c2.255.268 4.13 1.119 5.744 2.706a.067.067 0 00.103-.087c-1.267-1.86-3.033-2.787-5.299-2.78-.187 0-.373.029-.556.087-.108.034-.106.059.008.073zm8.16 5.371c1.684-1.434 3.787-2.178 5.96-2.422.061-.006.083-.04.065-.099-.01-.037-.04-.056-.085-.059-2.4-.133-4.569.445-5.986 2.539a.031.031 0 00-.003.02.031.031 0 00.01.018.032.032 0 00.04.003z" fill="#00AD36"/></svg>