<svg width="145" height="42" fill="none" xmlns="http://www.w3.org/2000/svg"><path d="M12.81 22.063c.003-1.829.006-3.659.021-5.487.016-1.925 1.523-3.54 3.46-3.54h16.381c.02 0 .03-.01.03-.03V9.468c0-.019-.01-.029-.03-.029l-16.204.001c-.45 0-.808.017-1.072.052-3.31.434-5.807 3.082-6.14 6.377-.026.25-.038.608-.038 1.073.003 2.942.004 5.884.002 8.826 0 .016.008.023.024.021.495-.054.855-.117 1.08-.189 1.221-.39 2.138-1.363 2.415-2.62.046-.212.07-.518.07-.916zm40.403-2.36a.016.016 0 01.007-.004.015.015 0 01.019.014v9.16c0 .018.009.027.027.027h4.046c.018 0 .027-.01.027-.027V13.385c0-.018-.01-.026-.027-.026-.372 0-4.005-.024-4.033.011a26023.892 26023.892 0 00-4.124 5.314.017.017 0 01-.015 0 .017.017 0 01-.006-.004l-4.112-5.3a.055.055 0 00-.045-.022H40.98c-.018 0-.027.008-.027.026v15.489c0 .018.01.027.027.027h4.046c.018 0 .027-.01.027-.027v-9.15a.019.019 0 01.012-.019.02.02 0 01.021.006l4.042 4.82c.012.015.024.015.037 0l4.047-4.827zm27.674-2.717a.018.018 0 01.018-.018l5.704.002a.018.018 0 00.017-.018v-3.577a.017.017 0 00-.005-.012.017.017 0 00-.012-.005h-9.79a.017.017 0 00-.013.005.017.017 0 00-.005.012v15.507c0 .002 0 .005.002.007 0 .002.002.004.004.006a.017.017 0 00.012.005h4.05l.007-.001a.017.017 0 00.01-.01l.001-.007V16.986zM98.97 22.82a.02.02 0 01.02.02l.002 6.04a.02.02 0 00.02.02h4.06a.02.02 0 00.014-.006.022.022 0 00.005-.013V13.377a.022.022 0 00-.005-.014.021.021 0 00-.014-.005h-4.058a.02.02 0 00-.019.019l-.013 5.77c0 .004-.002.01-.005.013a.02.02 0 01-.014.006l-6.04-.003a.02.02 0 01-.02-.02v-5.766a.02.02 0 00-.02-.02h-4.06a.02.02 0 00-.02.02v15.504a.02.02 0 00.02.019h4.06c.006 0 .01-.002.014-.006a.02.02 0 00.006-.013v-6.042a.02.02 0 01.02-.02h6.047zm10.562 6.08a.02.02 0 00.008-.002.029.029 0 00.006-.005l6.47-8.786a.016.016 0 01.009-.007.018.018 0 01.011 0 .016.016 0 01.009.007.02.02 0 01.003.01v8.765l.002.007a.06.06 0 00.003.006.026.026 0 00.006.004h4.091a.026.026 0 00.006-.004.015.015 0 00.004-.006l.001-.007V13.375a.019.019 0 00-.005-.012.017.017 0 00-.013-.005h-3.52c-.003 0-.006 0-.008.002a.02.02 0 00-.007.005l-6.374 8.713a.016.016 0 01-.009.007.018.018 0 01-.011 0 .016.016 0 01-.009-.006.02.02 0 01-.003-.01v-8.694a.016.016 0 00-.006-.012.017.017 0 00-.012-.005h-4.064a.02.02 0 00-.013.005.019.019 0 00-.005.012v15.507l.001.007.004.006a.026.026 0 00.006.004h3.419zm12.551-11.952c0 .005.003.01.006.014a.02.02 0 00.014.006h4.746a.02.02 0 01.014.006.023.023 0 01.005.014V28.88c0 .005.003.01.006.014a.02.02 0 00.014.006h4.073a.021.021 0 00.015-.006.023.023 0 00.005-.014V16.994a.02.02 0 01.002-.008.017.017 0 01.011-.01.018.018 0 01.007-.002l4.772-.008a.018.018 0 00.014-.005.02.02 0 00.006-.014v-3.57a.019.019 0 00-.006-.014.018.018 0 00-.014-.005h-13.67a.02.02 0 00-.014.005.024.024 0 00-.006.014v3.57zM62.976 28.9a.018.018 0 00.017-.012l.84-2.151a.017.017 0 01.007-.008.017.017 0 01.01-.003h6.346c.004 0 .007 0 .01.003a.017.017 0 01.007.008l.843 2.152a.018.018 0 00.007.008.018.018 0 00.01.003h4.159c.003 0 .006 0 .008-.002a.017.017 0 00.007-.006.017.017 0 00.002-.016L68.96 13.369a.018.018 0 00-.016-.011H65.17a.018.018 0 00-.016.011l-6.29 15.508a.019.019 0 000 .008c0 .003 0 .006.002.008a.018.018 0 00.015.008l4.096-.002zm-33.96-2.461a3.523 3.523 0 01-2.704 2.709c-.237.05-.593.074-1.07.074H9.247a.026.026 0 00-.026.026v3.557c0 .018.008.027.027.027h15.964c.477 0 .835-.012 1.074-.036a7.102 7.102 0 006.38-6.394c.024-.24.036-.597.036-1.072V16.5c0-.018-.01-.026-.028-.024a7.005 7.005 0 00-.902.14c-1.662.449-2.682 1.824-2.684 3.52-.002 1.744-.003 3.49-.002 5.234 0 .485-.023.841-.07 1.069z" stroke="#EF858A" stroke-width=".148"/><path d="M20.946 23.693a.02.02 0 00.006.005.018.018 0 00.016 0 .018.018 0 00.007-.005l2.083-2.487a.018.018 0 01.01-.006.018.018 0 01.01 0 .018.018 0 01.01.007.018.018 0 01.003.01v4.577c0 .005.002.01.006.014a.019.019 0 00.013.005h2.799a.019.019 0 00.018-.019v-9.13a.018.018 0 00-.005-.013.02.02 0 00-.006-.004.02.02 0 00-.007-.001H23.25a.019.019 0 00-.015.008l-2.262 2.915a.019.019 0 01-.006.006.02.02 0 01-.009.002c-.003 0-.006 0-.008-.002a.018.018 0 01-.007-.006l-2.26-2.915a.019.019 0 00-.015-.008h-2.656a.02.02 0 00-.007.001.018.018 0 00-.01.01.018.018 0 00-.001.008v9.13l.001.006a.02.02 0 00.004.007.02.02 0 00.013.005h2.799c.002 0 .005 0 .007-.002a.018.018 0 00.01-.01.018.018 0 00.002-.007v-4.573a.019.019 0 01.024-.018.019.019 0 01.009.006l2.082 2.484zm44.194-.286a.017.017 0 00-.002.009c0 .003.002.006.003.008a.018.018 0 00.015.008h3.742a.018.018 0 00.015-.008.018.018 0 00.002-.017l-1.87-4.795a.018.018 0 00-.007-.008.018.018 0 00-.021 0 .018.018 0 00-.007.008l-1.87 4.795z" stroke="#EF858A" stroke-width=".148"/><path d="M12.831 16.576c-.015 1.828-.018 3.658-.021 5.487-.001.398-.025.704-.071.917-.277 1.256-1.194 2.229-2.416 2.62-.224.07-.584.134-1.08.188-.015.002-.023-.005-.023-.021.002-2.942.001-5.884-.002-8.826 0-.465.012-.823.037-1.072.334-3.296 2.831-5.944 6.141-6.378a8.638 8.638 0 011.072-.052h16.205c.019 0 .029.01.029.028v3.54c0 .02-.01.029-.03.029H16.291c-1.937 0-3.444 1.615-3.46 3.54zm40.382 3.127l-4.047 4.827c-.013.015-.025.015-.037 0l-4.042-4.82a.02.02 0 00-.021-.006.019.019 0 00-.012.018v9.151c0 .018-.01.027-.027.027H40.98c-.018 0-.027-.01-.027-.027V13.384c0-.018.01-.027.027-.027h3.996c.019 0 .034.008.045.023l4.112 5.3a.017.017 0 00.02.005 26023.892 26023.892 0 014.124-5.314c.03-.036 3.662-.013 4.034-.012.018 0 .027.008.027.026v15.488c0 .018-.01.027-.027.027h-4.046c-.018 0-.027-.01-.027-.027v-9.16a.015.015 0 00-.026-.01zm27.674-2.717v11.896a.018.018 0 01-.01.017.019.019 0 01-.007 0h-4.051a.017.017 0 01-.013-.005.017.017 0 01-.005-.012V13.375a.017.017 0 01.018-.018h9.79c.005 0 .009.003.012.006a.017.017 0 01.005.012v3.577c0 .005-.001.01-.005.012a.018.018 0 01-.012.006l-5.704-.002a.018.018 0 00-.018.018zM98.97 22.82h-6.047a.02.02 0 00-.02.02v6.04a.02.02 0 01-.02.02h-4.06a.02.02 0 01-.02-.02V13.378a.02.02 0 01.02-.02h4.06a.02.02 0 01.02.02v5.766a.02.02 0 00.02.02l6.04.003a.02.02 0 00.02-.02l.012-5.769a.02.02 0 01.02-.02h4.057c.005 0 .01.003.014.006a.022.022 0 01.005.014v15.504c0 .005-.002.01-.005.013a.02.02 0 01-.014.006h-4.06a.02.02 0 01-.02-.02l-.002-6.04a.02.02 0 00-.02-.02zm10.562 6.08h-3.412l-.007-.001a.026.026 0 01-.006-.004l-.004-.006-.001-.007V13.375c0-.004.002-.009.005-.012a.02.02 0 01.013-.005h4.064c.004 0 .009.002.012.005a.016.016 0 01.006.012v8.693a.02.02 0 00.003.01.016.016 0 00.009.007.018.018 0 00.011 0 .016.016 0 00.009-.007l6.374-8.713a.02.02 0 01.007-.005.014.014 0 01.008-.002h3.52c.005 0 .01.002.013.005a.019.019 0 01.005.012v15.507l-.001.007a.015.015 0 01-.004.006.026.026 0 01-.006.004.017.017 0 01-.007 0h-4.084a.026.026 0 01-.006-.004.06.06 0 01-.003-.006.017.017 0 01-.002-.007v-8.765a.02.02 0 00-.003-.01.016.016 0 00-.009-.007.018.018 0 00-.011 0 .016.016 0 00-.009.007l-6.47 8.786a.029.029 0 01-.006.005.02.02 0 01-.008.002zm12.551-11.952v-3.57c0-.006.003-.01.006-.014a.02.02 0 01.014-.006h13.67a.02.02 0 01.014.005.019.019 0 01.006.014v3.57a.02.02 0 01-.006.014.018.018 0 01-.014.006l-4.772.007c-.002 0-.005 0-.007.002a.017.017 0 00-.011.01.02.02 0 00-.002.008V28.88c0 .005-.002.01-.005.014a.021.021 0 01-.015.006h-4.073a.02.02 0 01-.014-.006.024.024 0 01-.006-.014V16.988a.023.023 0 00-.005-.014.02.02 0 00-.014-.005l-4.746-.002a.02.02 0 01-.014-.005.023.023 0 01-.006-.014zM62.976 28.9l-4.096.001a.018.018 0 01-.015-.008.019.019 0 01-.003-.008c0-.003 0-.006.002-.008l6.29-15.508a.018.018 0 01.015-.011h3.775c.004 0 .007 0 .01.003a.018.018 0 01.006.008l6.289 15.507a.017.017 0 01-.002.017.017.017 0 01-.007.005.018.018 0 01-.008.002h-4.16a.018.018 0 01-.01-.003.018.018 0 01-.006-.008l-.843-2.152a.017.017 0 00-.007-.008.017.017 0 00-.01-.003H63.85a.017.017 0 00-.01.003.017.017 0 00-.007.008l-.84 2.151a.018.018 0 01-.017.011zm2.164-5.493a.018.018 0 00-.001.009.018.018 0 00.009.014.018.018 0 00.008.003h3.742a.014.014 0 00.009-.003.018.018 0 00.01-.014c0-.003 0-.006-.002-.009l-1.87-4.794a.019.019 0 00-.007-.01.019.019 0 00-.01-.003.019.019 0 00-.011.004.019.019 0 00-.007.009l-1.87 4.794zM29.086 25.37c0-1.745 0-3.49.002-5.234.002-1.696 1.022-3.071 2.684-3.52.168-.045.468-.092.902-.14.018-.002.027.006.027.024v8.83c0 .475-.01.832-.035 1.072a7.102 7.102 0 01-6.38 6.394c-.24.024-.597.035-1.074.035-5.322.002-10.643.002-15.964.001-.019 0-.028-.01-.028-.027v-3.557a.026.026 0 01.027-.026h15.995c.477 0 .833-.025 1.07-.074a3.523 3.523 0 002.704-2.709c.047-.228.07-.584.07-1.069z" fill="#E20C15"/><path d="M20.946 23.693l-2.082-2.484a.019.019 0 00-.01-.006.018.018 0 00-.01 0 .019.019 0 00-.012.018v4.573l-.003.007a.019.019 0 01-.017.012h-2.799c-.002 0-.005 0-.007-.002a.02.02 0 01-.006-.003.02.02 0 01-.005-.014v-9.13l.001-.006a.018.018 0 01.01-.01.02.02 0 01.007-.002h2.656a.019.019 0 01.015.008l2.26 2.915a.018.018 0 00.015.008.02.02 0 00.009-.002.019.019 0 00.006-.006l2.262-2.915a.019.019 0 01.015-.008h2.658a.02.02 0 01.007.001.02.02 0 01.006.005.018.018 0 01.005.013v9.13a.018.018 0 01-.005.012.019.019 0 01-.013.006H23.11a.019.019 0 01-.019-.019v-4.576a.018.018 0 00-.003-.01.018.018 0 00-.01-.008.018.018 0 00-.01 0 .018.018 0 00-.01.006l-2.083 2.487a.018.018 0 01-.007.005.018.018 0 01-.016 0 .02.02 0 01-.006-.005z" fill="#E20C15"/></svg>