<svg width="152" height="35" fill="none" xmlns="http://www.w3.org/2000/svg"><path d="M9.706 19.322h-6.98a.102.102 0 01-.07-.03.1.1 0 01-.03-.07c.014-4.755 2.009-9.184 5.455-12.411 7.287-6.827 18.954-5.94 25.13 1.9 4.697 5.965 5.337 14.929-.552 20.464-5.411 5.088-14.037 4.953-19.178-.528-2.405-2.565-3.653-5.662-3.744-9.294a.031.031 0 00-.031-.031zm20.04.003a6.415 6.415 0 10-12.83 0 6.415 6.415 0 0012.83 0zm20.323 3.107c-3.292.89-3.196 6.386.205 7.07 1.647.332 3.055-.398 3.724-1.93a.114.114 0 01.106-.07l3.6.003c.066 0 .091.032.076.097-1.699 7.135-12.102 7.003-13.617-.131-1.013-4.771 2.629-8.794 7.456-8.437 3.138.232 5.303 2.18 6.16 5.19.026.088-.007.132-.097.132l-3.646.001a.076.076 0 01-.07-.048c-.622-1.59-2.266-2.318-3.897-1.877zm82.376 8.785c-1.524 1.557-3.361 2.027-5.51 1.41a5.395 5.395 0 01-1.618-.79c-2.539-1.787-3.484-5.192-2.597-8.102.855-2.808 3.315-4.929 6.351-4.7 1.336.102 2.452.646 3.347 1.632a.042.042 0 00.045.01.041.041 0 00.019-.014.045.045 0 00.007-.023v-1.225a.092.092 0 01.092-.093h3.459c.012 0 .024.005.032.013.009.009.013.02.013.032v13.217a.045.045 0 01-.045.045h-3.484a.065.065 0 01-.047-.02.066.066 0 01-.02-.047v-1.328a.024.024 0 00-.005-.014.02.02 0 00-.011-.01.028.028 0 00-.015 0 .024.024 0 00-.013.007zm-4.341-8.626c-2.697 1.106-2.732 5.538-.051 6.686 1.049.45 2.331.353 3.278-.284 1.651-1.111 1.823-3.753.773-5.3-.844-1.245-2.598-1.676-4-1.102zM69.46 20.623V19.39c0-.045.023-.068.068-.068h3.563c.037 0 .056.019.056.057l-.001 13.071a.165.165 0 01-.16.165c-1.08.02-2.183.025-3.307.014-.14-.001-.213-.07-.215-.207a32.595 32.595 0 010-1.17.042.042 0 00-.077-.024c-.087.123-.171.25-.287.35-3.066 2.667-7.518.988-9.018-2.494-1.227-2.849-.785-6.177 1.48-8.376 2.17-2.105 5.695-2.394 7.84-.062.039.042.058.035.058-.023zm-3.095 1.725c-4.627.153-4.261 7.644.445 7.19 4.183-.404 3.877-7.333-.445-7.19zm31.687 10.263c-3.361-.935-5.438-4.211-4.975-7.632.732-5.403 7.269-7.825 11.431-4.356 1.251 1.044 2.035 2.339 2.352 3.885 1.072 5.227-3.71 9.522-8.808 8.103zm.163-3.661c1.786 1.157 4.326.305 4.918-1.782.47-1.655-.029-3.568-1.632-4.396a3.265 3.265 0 00-3.957.776c-1.33 1.552-1.094 4.257.672 5.402zm-18.669-3.96c-.01 0-.015.006-.015.016v7.578a.045.045 0 01-.045.045h-3.507a.045.045 0 01-.032-.013.045.045 0 01-.013-.032V19.367a.045.045 0 01.045-.045h2.988a.09.09 0 01.075.037l4.282 5.429c.014.018.029.018.044 0 1.41-1.779 2.822-3.554 4.236-5.328a.646.646 0 01.127-.114.123.123 0 01.074-.024h2.987c.045 0 .067.023.067.068v13.06a.178.178 0 01-.177.178 500.32 500.32 0 01-3.284-.002c-.144 0-.216-.069-.217-.205-.006-2.44-.01-4.881-.013-7.322a.12.12 0 00-.013-.06.04.04 0 00-.067-.005l-3.652 4.623a.073.073 0 01-.114 0c-.342-.428-3.71-4.679-3.776-4.668z" fill="#FF486F"/><path d="M113.046 24.604a8.02 8.02 0 00.446-.497c1.263-1.524 2.529-3.045 3.799-4.564a1.55 1.55 0 00.123-.186.067.067 0 01.061-.035h4.264a.038.038 0 01.034.022c.003.006.004.014.003.02a.044.044 0 01-.008.02l-5.406 6.391c-.037.044-.036.086.004.128l6.34 6.645a.04.04 0 01.012.024.041.041 0 01-.003.027.041.041 0 01-.017.021.049.049 0 01-.026.008l-4.299.002c-.207 0-.34-.04-.49-.199a1192.03 1192.03 0 00-4.822-5.117.053.053 0 00-.025-.014.047.047 0 00-.05.02.045.045 0 00-.008.028v5.236a.047.047 0 01-.013.032.046.046 0 01-.032.013h-3.507a.042.042 0 01-.031-.013.044.044 0 01-.014-.032V19.367c0-.012.005-.023.014-.032a.042.042 0 01.031-.013h3.507c.012 0 .023.005.032.013.008.009.013.02.013.032v5.209c0 .008.002.015.006.022a.046.046 0 00.018.015.042.042 0 00.024.002.036.036 0 00.02-.011zm32.66-2.084c.001 3.308.001 6.616-.001 9.924 0 .126-.067.187-.202.181-.743-.028-1.829.002-3.253-.001-.155 0-.233-.074-.233-.22l.004-9.772a.15.15 0 00-.013-.063.161.161 0 00-.15-.1h-3.488a.038.038 0 01-.026-.01.037.037 0 01-.011-.027v-3.054c0-.037.019-.056.057-.056h11.138c.012 0 .023.005.031.013.009.009.014.02.014.032v2.89c0 .031.008.06.026.084l.049.073c.025.037.015.055-.029.055h-3.862c-.034 0-.051.017-.051.051z" fill="#FF486F"/></svg>