<svg width="178" height="71" fill="none" xmlns="http://www.w3.org/2000/svg"><path d="M18.622 42.457a9.868 9.868 0 004.401 1.193c1.572.057 3.188-.236 4.756-.861 1.57-.625 3.06-1.57 4.387-2.783a16.612 16.612 0 003.35-4.282c1.785-3.261 2.427-6.975 1.784-10.325-.643-3.349-2.519-6.06-5.214-7.535a9.867 9.867 0 00-4.4-1.193c-1.572-.057-3.188.236-4.757.86-1.568.626-3.06 1.572-4.386 2.784a16.608 16.608 0 00-3.35 4.282c-1.786 3.261-2.427 6.975-1.784 10.324.643 3.35 2.518 6.06 5.213 7.536z" stroke="#BD9" stroke-width=".212"/><path d="M20.382 23.128c2.776-2.686 6.376-3.865 10.202-3.084.258.052 1.002.275 1.215.175a.08.08 0 00.015-.135c-1.743-1.37-4.127-1.9-6.247-1.611-7.938 1.081-13.239 10.846-9.903 18.073.116.253.876 1.657 1.208 1.505a.127.127 0 00.063-.165c-1.848-4.36-.931-9.272 1.86-12.994a.023.023 0 01.041.024c-.475 1.128-.457 2.458.304 3.423.725.919 1.934 1.146 3.01.714 1.36-.546 2.268-1.97 2.302-3.413.051-2.249-2.032-3.6-4.049-2.483-.078.044-.085.034-.021-.029z" stroke="#EEB388" stroke-width=".212"/><path d="M20.342 35.307c3.15-3.156 6.938-6.969 10.368-10.548.372-.388.18-.843-.325-.931-.298-.052-1.628-.34-1.81-.154L18.196 34.269c-.412.42-.157.834.37.925.366.064 1.512.377 1.775.113zm5.475 1.44c.35.182.74.282 1.146.292.407.01.821-.067 1.221-.23.4-.163.777-.407 1.11-.718a4.14 4.14 0 00.83-1.097c.433-.834.568-1.78.374-2.63-.194-.85-.7-1.534-1.409-1.903a2.623 2.623 0 00-1.146-.293 3.029 3.029 0 00-1.221.23c-.4.163-.777.408-1.11.72a4.094 4.094 0 00-.829 1.096c-.434.833-.569 1.78-.375 2.63.194.85.701 1.534 1.41 1.903zm8.91-4.629c-2.792 3.019-6.041 6.384-9.654 9.202a.114.114 0 00.092.203c4.758-.927 8.182-4.931 9.761-9.284a.12.12 0 00-.05-.142.119.119 0 00-.15.021zm-13.702-4.943c.233.09.503.055.753-.098.249-.154.456-.413.576-.72a1.6 1.6 0 00.107-.471 1.328 1.328 0 00-.043-.45.972.972 0 00-.187-.363.745.745 0 00-.3-.22c-.233-.09-.504-.055-.753.099a1.47 1.47 0 00-.577.72c-.06.153-.095.313-.106.47-.011.159.003.312.043.452.04.14.102.262.186.362a.76.76 0 00.301.22z" stroke="#EEB388" stroke-width=".212"/><path d="M26.956 34.87a.82.82 0 00.406.046c.141-.018.283-.07.418-.154a1.45 1.45 0 00.37-.33 1.75 1.75 0 00.262-.457 1.61 1.61 0 00.068-1.007c-.088-.308-.28-.537-.535-.636a.819.819 0 00-.405-.047 1.06 1.06 0 00-.418.154 1.47 1.47 0 00-.37.33c-.107.135-.197.29-.261.457a1.609 1.609 0 00-.069 1.007c.087.308.28.537.534.636z" stroke="#EEB388" stroke-width=".212"/><path d="M20.403 23.157c2.017-1.117 4.1.234 4.049 2.483-.034 1.442-.941 2.867-2.303 3.413-1.075.432-2.284.204-3.009-.714-.76-.965-.779-2.295-.304-3.423a.024.024 0 00-.01-.03.023.023 0 00-.031.007c-2.791 3.721-3.708 8.632-1.86 12.993.013.03.014.064.002.095a.127.127 0 01-.065.07c-.332.152-1.092-1.252-1.208-1.505-3.336-7.227 1.965-16.992 9.903-18.073 2.12-.29 4.504.241 6.247 1.611a.08.08 0 01-.015.135c-.213.1-.957-.123-1.215-.175-3.826-.78-7.426.398-10.202 3.084-.064.063-.057.073.021.029zm.622 4.018c.232.09.503.055.752-.098.25-.154.457-.413.577-.72.06-.153.096-.313.106-.471a1.33 1.33 0 00-.043-.45.974.974 0 00-.186-.363.745.745 0 00-.301-.22c-.232-.09-.503-.055-.752.099a1.47 1.47 0 00-.577.72 1.6 1.6 0 00-.107.47c-.01.159.004.312.044.451.039.14.102.263.186.363.083.1.186.174.3.22z" fill="#D61"/><path d="M30.71 24.759c-3.43 3.579-7.219 7.392-10.369 10.548-.262.264-1.409-.05-1.774-.113-.528-.091-.782-.504-.37-.925l10.377-10.595c.182-.186 1.513.102 1.81.154.506.088.698.543.326.93zm25.47 6.843c-1.539-1.324-3.831-1.547-5.416-.225-1.322 1.101-1.679 3.09-1.129 4.677 1.085 3.134 5.069 3.374 7.043.976.023-.028.049-.03.076-.007.893.73 1.502 1.274 1.826 1.633.504.558.248 1.203-.282 1.63-3.08 2.474-8.237 2.238-10.948-.591-3.808-3.974-2.084-10.684 3.267-12.2 2.615-.739 5.644-.34 7.796 1.44.844.698.548 1.276-.17 1.897-.488.422-.97.851-1.448 1.287-.03.029-.063.03-.096.004-.193-.157-.374-.397-.52-.52zm100.773 2.727c.137-4.243 3.418-6.986 7.505-7.163 4.511-.195 8.39 2.789 8.326 7.532-.081 5.983-6.599 8.766-11.57 6.512-2.717-1.232-4.359-3.812-4.261-6.881zm4.71-2.137c-1.201 1.968-.75 4.963 1.455 6.043 1.743.855 3.87.34 4.935-1.319 1.161-1.81.819-4.506-1.021-5.764-1.685-1.152-4.27-.76-5.369 1.04zm-81.697 3.486l5.748-8.175a.164.164 0 01.138-.07c.652.01 1.31.013 1.975.01 1.156-.007 1.701.368 1.703 1.552v12.598a.048.048 0 01-.015.034.05.05 0 01-.035.014c-.926-.005-1.855-.003-2.789.004-.693.005-1.069-.45-1.072-1.14a905.091 905.091 0 01-.008-6.914.104.104 0 00-.023-.066c-.1-.126-.1-.04-.153.037-1.887 2.659-3.76 5.327-5.62 8.003a.167.167 0 01-.139.073c-.903.002-1.804.003-2.703.001-.633-.002-1.003-.243-1.004-.894-.002-4.417-.002-8.836-.001-13.258a.05.05 0 01.015-.035.05.05 0 01.035-.014c.66.009 1.323.008 1.99-.003 1.446-.023 1.875.26 1.877 1.704.004 2.165.005 4.336.002 6.514 0 .01.002.019.008.026a.043.043 0 00.072 0zm37.702-1.368a.049.049 0 000 .047.052.052 0 00.016.018.052.052 0 00.022.01c.856.123 1.507.553 1.951 1.291a1289.81 1289.81 0 003.56 5.877.057.057 0 01.001.057.056.056 0 01-.021.021.06.06 0 01-.029.008h-4.388a.087.087 0 01-.08-.045 352.49 352.49 0 00-2.646-4.515c-.558-.934-1.131-1.368-2.203-1.498-.11-.014-.164.035-.164.146v5.861a.063.063 0 01-.004.02.052.052 0 01-.027.026.043.043 0 01-.018.004c-.866.003-1.734.003-2.604 0-1.4-.005-1.344-.799-1.349-1.939a1319.992 1319.992 0 01.001-12.081c.01-.11.07-.166.18-.168.766-.01 1.514-.012 2.245-.01 1.143.006 1.578.346 1.577 1.483-.002 1.328-.002 2.623 0 3.886a.2.2 0 00.017.08.195.195 0 00.202.112c1.889-.253 2.411-1.156 3.442-2.825.548-.887 1.091-1.778 1.629-2.673a.09.09 0 01.081-.048c1.379-.032 2.313-.033 2.803-.004.74.046.908.728.559 1.282a216.775 216.775 0 01-2.602 4.04c-.584.885-1.061 1.37-2.072 1.492-.04.004-.066.019-.079.044zm11.003 1.3l5.72-8.119a.102.102 0 01.085-.044c.609-.01 1.216-.014 1.822-.013 1.298.001 1.955.29 1.959 1.736.012 4.135.015 8.27.008 12.405 0 .04-.02.06-.06.06-.926.007-1.843.01-2.751.01-.706.002-1.204-.495-1.207-1.206-.008-2.284-.009-4.572-.004-6.866a.068.068 0 00-.014-.041.07.07 0 00-.038-.024c-.027-.006-.051.006-.073.035a2132.316 2132.316 0 00-5.541 7.863c-.105.15-.159.231-.362.232-.853.002-1.719-.029-2.57.025-.491.03-.824-.196-.997-.682-.104-.289-.049-.628-.049-.88l.001-12.616a.024.024 0 01.003-.017.04.04 0 01.009-.014.036.036 0 01.014-.01.038.038 0 01.016-.002c.762 0 1.526 0 2.292-.002.908 0 1.585.199 1.585 1.213l.003 6.91c0 .018.005.035.016.05a.082.082 0 00.133-.002zm22.099-2.841v-5.273a.054.054 0 01.054-.054c.79 0 1.586 0 2.388-.002.904 0 1.583.2 1.583 1.211.001 4.312.002 8.627.001 12.946a.039.039 0 01-.013.03.043.043 0 01-.03.012l-2.53.001c-.799.001-1.399-.178-1.423-1.065a99.52 99.52 0 01-.021-4.371.052.052 0 00-.005-.028.07.07 0 00-.065-.045 2964.93 2964.93 0 00-5.177-.004c-.166 0-.25.083-.251.247-.015 1.739-.023 3.48-.023 5.223a.042.042 0 01-.042.042l-2.677.001c-1.136.001-1.303-.729-1.304-1.696l-.001-12.46c0-.005.001-.01.004-.015a.039.039 0 01.009-.014.044.044 0 01.031-.012 406.27 406.27 0 012.208 0c1.154.002 1.769.12 1.772 1.424.003 1.236.004 2.476.002 3.72 0 .1.046.17.138.208.092.038.223.057.392.058 1.64.012 3.279.004 4.919-.022.04 0 .061-.021.061-.062zm-81.735 1.569a.05.05 0 00.04.047c.97.171 1.453.602 1.988 1.47a608.768 608.768 0 013.48 5.726c.024.039.013.058-.032.058h-4.37a.156.156 0 01-.136-.078 318.181 318.181 0 00-2.758-4.661c-.473-.783-1.169-1.22-2.088-1.307a.096.096 0 00-.105.095v5.901a.052.052 0 01-.052.052c-.936-.005-1.876-.004-2.818.002-.872.006-1.153-.491-1.154-1.29-.003-4.285-.003-8.57 0-12.855a.055.055 0 01.054-.055c.848-.002 1.694-.002 2.54-.001 1.363.002 1.428.83 1.43 1.933v3.5a.119.119 0 00.082.115.12.12 0 00.05.006c1.205-.106 2.124-.665 2.759-1.678.75-1.196 1.494-2.397 2.231-3.603.05-.084.11-.161.176-.231a.123.123 0 01.094-.041c.629-.003 2.714-.158 3.165.138.752.495-.004 1.36-.336 1.882a440.5 440.5 0 01-1.822 2.834c-.73 1.122-1.093 1.755-2.325 1.956-.064.01-.095.04-.093.085zm36.974 4.102c.915.012 1.822.097 1.834 1.26.017 1.588.022 3.158.014 4.71 0 .066-.032.098-.097.096a50.217 50.217 0 00-2.381.008c-.338.009-.585-.03-.743-.12-.691-.389-.495-1.925-.479-2.629.002-.084-.04-.126-.124-.126-2.897-.001-5.813 0-8.75.004-.824.002.75 2.85-1.511 2.859-.792.003-1.582.002-2.37-.005-.048-.001-.071-.025-.071-.072V38.52c0-.004 0-.009.002-.013a.032.032 0 01.019-.017.033.033 0 01.013-.002c.866.037 1.58-.16 1.985-1.002.483-1.008.616-2.128.754-3.215.278-2.176.255-4.481.296-6.679.002-.102.054-.153.155-.153 3.248.001 6.527.002 9.835.005 1.577 0 1.552 1.038 1.556 2.35.009 2.857.01 5.719.003 8.585a.06.06 0 00.017.042.064.064 0 00.043.018zm-4.15-7.822l-3.923.006c-.044 0-.067.023-.07.067-.087 1.787-.11 3.333-.423 5.305a7.474 7.474 0 01-.775 2.347.082.082 0 00.003.079.08.08 0 00.068.039h5.154a.034.034 0 00.033-.033v-7.742c0-.046-.022-.068-.067-.068zm-76.042 6.129c-.708-.37-1.215-1.054-1.409-1.904-.194-.85-.059-1.796.375-2.63.215-.412.497-.785.83-1.096.332-.311.71-.556 1.109-.718a3.02 3.02 0 011.22-.23c.407.01.796.11 1.147.292.708.369 1.215 1.053 1.409 1.903.194.85.059 1.796-.375 2.63a4.091 4.091 0 01-.83 1.097 3.639 3.639 0 01-1.109.718c-.4.163-.814.24-1.22.23a2.623 2.623 0 01-1.147-.292zm1.14-1.878c.126.05.263.065.405.047.141-.018.283-.07.419-.154a1.45 1.45 0 00.368-.33 1.72 1.72 0 00.262-.457c.132-.336.156-.698.069-1.007-.088-.308-.28-.537-.534-.636a.819.819 0 00-.406-.047 1.06 1.06 0 00-.418.154 1.45 1.45 0 00-.37.33c-.107.135-.197.29-.261.457a1.61 1.61 0 00-.069 1.007c.087.308.28.537.534.636zm-1.884 6.451c3.613-2.818 6.862-6.183 9.654-9.202a.118.118 0 01.2.04.12.12 0 010 .081c-1.58 4.353-5.004 8.358-9.762 9.284a.114.114 0 01-.126-.065.114.114 0 01.034-.138z" fill="#D61"/><path d="M18.622 42.457c-2.695-1.476-4.57-4.186-5.213-7.536-.643-3.349-.002-7.063 1.784-10.324a16.608 16.608 0 013.35-4.282c1.327-1.212 2.818-2.158 4.386-2.783 1.569-.625 3.185-.918 4.756-.86a9.867 9.867 0 014.401 1.192c2.695 1.476 4.57 4.186 5.214 7.535.643 3.35.001 7.063-1.784 10.325a16.612 16.612 0 01-3.35 4.282c-1.327 1.212-2.818 2.158-4.387 2.783-1.568.625-3.184.918-4.756.86a9.868 9.868 0 01-4.4-1.192zm1.76-19.329c2.776-2.686 6.376-3.865 10.202-3.084.258.052 1.003.276 1.215.175a.08.08 0 00.015-.135c-1.743-1.37-4.127-1.9-6.247-1.611-7.938 1.082-13.238 10.846-9.903 18.073.117.253.876 1.657 1.208 1.505a.127.127 0 00.063-.165c-1.847-4.36-.93-9.272 1.86-12.994a.023.023 0 01.015-.01.023.023 0 01.017.003.024.024 0 01.01.03c-.476 1.13-.457 2.459.303 3.424.725.919 1.934 1.146 3.01.714 1.36-.546 2.268-1.97 2.302-3.413.052-2.249-2.032-3.6-4.049-2.483-.078.044-.085.034-.021-.029zm-.04 12.18c3.15-3.157 6.938-6.97 10.368-10.55.372-.387.18-.842-.325-.93-.298-.052-1.629-.34-1.81-.154L18.196 34.269c-.412.42-.158.834.37.925.366.064 1.512.377 1.775.113zm5.475 1.438c.35.183.74.282 1.147.293a3.03 3.03 0 001.22-.23c.4-.163.777-.407 1.11-.718.333-.312.614-.685.83-1.097.433-.834.568-1.78.374-2.63-.194-.85-.7-1.534-1.409-1.903a2.623 2.623 0 00-1.146-.293 3.029 3.029 0 00-1.22.23 3.64 3.64 0 00-1.11.719 4.093 4.093 0 00-.83 1.097c-.434.833-.568 1.78-.375 2.63.194.85.701 1.534 1.41 1.902zm8.91-4.628c-2.792 3.019-6.041 6.384-9.654 9.202a.115.115 0 00-.034.138.114.114 0 00.126.065c4.758-.926 8.182-4.931 9.761-9.284a.118.118 0 00-.2-.12z" fill="#fff"/><path d="M20.6 25.673c-.25.64-.06 1.314.425 1.502.484.19 1.08-.178 1.329-.819.25-.64.06-1.314-.424-1.503-.484-.188-1.08.178-1.33.82zm5.89 7.553c-.272.7-.064 1.436.467 1.643.53.207 1.181-.193 1.455-.894.273-.7.064-1.436-.466-1.643-.53-.207-1.182.194-1.455.894z" fill="#fff"/><path d="M39.068 21.828c4.568 8.179.411 18.77-7.428 23.03-3.495 1.898-7.792 2.318-11.45.646a22.306 22.306 0 01-3.215-1.802c-3.929-2.65-5.727-7.44-5.435-12.05.265-4.176 1.767-7.85 4.509-11.021 3.302-3.82 8.15-6.11 13.228-5.385 1.875.269 3.63 1.14 5.282 2.113 1.881 1.11 3.445 2.564 4.509 4.47zM18.623 42.457a9.866 9.866 0 004.4 1.193c1.572.057 3.188-.236 4.757-.861 1.568-.625 3.059-1.57 4.386-2.783a16.61 16.61 0 003.35-4.282c1.785-3.261 2.427-6.975 1.784-10.325-.643-3.349-2.518-6.06-5.213-7.535a9.867 9.867 0 00-4.402-1.193c-1.57-.057-3.187.236-4.756.86-1.568.626-3.059 1.572-4.386 2.784a16.609 16.609 0 00-3.35 4.282c-1.785 3.261-2.427 6.975-1.784 10.324.643 3.35 2.518 6.06 5.213 7.536z" fill="#7B3"/></svg>