<svg width="297" height="139" fill="none" xmlns="http://www.w3.org/2000/svg"><path d="M162.278 109.166c.423.022.77.139 1.042.349.292.226.439.512.441.858l.052 11.858c-.021.204-.182.395-.481.571-.32.162-.608.236-.866.224-.422-.022-.823-.185-1.2-.487-.375-.286-.549-.622-.521-1.009l.178-4.431c-1.146.351-2.725.782-4.738 1.294-.076.869-.144 1.627-.202 2.275-.027.278-.013.586.042.923l.153.768c.049.302-.014.531-.189.687-.157.153-.536.288-1.137.405-.585.095-1.039.106-1.362.031-.322-.075-.516-.317-.583-.725-.032-.195.029-1.272.183-3.229.136-1.955.348-4.505.635-7.651l-.743-.699a.258.258 0 01-.11-.173c-.029-.177.143-.351.516-.522.37-.188.902-.339 1.594-.452.408-.067.726-.018.953.145.243.143.399.318.469.525.088.204.195.524.321.959-.11 1.331-.21 2.559-.3 3.686l1.914-.505 1.434-.425 1.279-.374.195-4.16c.012-.258.119-.439.321-.545.181-.121.417-.178.71-.171zm14.426 9.235c.111.455.242.862.392 1.221-.019.112-.161.245-.428.398-.248.15-.471.241-.666.273-.639.104-1.117.082-1.433-.067-.295-.134-.473-.387-.534-.76a5.494 5.494 0 01-.068-1.083c-.303.597-.808 1.135-1.513 1.615-.69.459-1.267.727-1.728.802-1.19.195-2.24.011-3.153-.551-.894-.564-1.466-1.61-1.716-3.137a8.568 8.568 0 01.35-4.213 8.261 8.261 0 012.349-3.529c1.079-.979 2.356-1.588 3.83-1.829.284-.047.67-.028 1.157.056.485.067.989.249 1.511.546a4.392 4.392 0 011.425 1.189c.142-.023.323.02.541.13.219.11.34.237.363.379.026.159.025.323-.002.492l-.677 8.068zm-2.417-7.261a1.939 1.939 0 00-.801-.881c-.345-.217-.642-.305-.89-.264-.817.133-1.542.552-2.174 1.257a6.67 6.67 0 00-1.382 2.414c-.305.925-.395 1.769-.27 2.532.122.746.311 1.344.567 1.794.256.45.641.634 1.156.549.444-.072.928-.288 1.453-.647a5.308 5.308 0 001.37-1.318c.386-.537.61-1.066.671-1.586l.3-3.85zm24.485-1.379c.223 1.367.018 2.622-.615 3.764-.616 1.14-1.51 2.079-2.684 2.818a10.159 10.159 0 01-3.81 1.444 7.165 7.165 0 01-2.409-.017c-.807-.141-1.488-.404-2.043-.787-.558-.401-.883-.885-.976-1.453-.067-.409.007-.74.22-.993.214-.254.543-.417.987-.49a1.37 1.37 0 01.723.073c.251.087.576.234.974.442.479.25.892.438 1.241.563.363.105.749.124 1.157.057.906-.148 1.682-.475 2.328-.982.664-.51 1.142-1.098 1.434-1.766.307-.688.411-1.334.312-1.938-.099-.603-.414-1.08-.945-1.431-.534-.368-1.22-.548-2.057-.539-.234.239-.454.403-.658.491a2.794 2.794 0 01-.706.197 2.31 2.31 0 01-1.282-.146c-.41-.169-.644-.432-.702-.787-.067-.408.095-.754.486-1.037.389-.3 1.037-.68 1.947-1.138 1.149-.553 2.029-1.079 2.64-1.58.608-.519.876-1.164.804-1.937-.064-.39-.31-.669-.738-.836-.431-.185-.931-.23-1.499-.138-1.172.192-2.13.686-2.875 1.482-.219.218-.367.434-.441.647-.075.212-.12.438-.135.678-.043.299-.125.522-.246.669-.104.145-.352.249-.742.313-.568.093-1.006.037-1.313-.168-.307-.205-.502-.565-.586-1.08-.096-.586.133-1.243.689-1.972.573-.732 1.359-1.389 2.357-1.972a9.714 9.714 0 013.309-1.17c1.491-.243 2.709-.096 3.654.442.945.538 1.511 1.384 1.7 2.538.134.817-.091 1.674-.673 2.571-.568.877-1.37 1.601-2.407 2.171 1.006.018 1.819.313 2.442.886a3.581 3.581 0 011.138 2.111zm9.264 5.512c-1.208.198-2.294.074-3.26-.369a5.603 5.603 0 01-2.354-2.021c-.606-.922-1.007-1.978-1.201-3.167a9.353 9.353 0 01-.119-1.895c.072-3.019.718-5.531 1.94-7.536 1.221-2.004 3.173-3.226 5.854-3.664 1.669-.273 3.025.052 4.069.975 1.041.905 1.729 2.379 2.063 4.421a16.668 16.668 0 01-.057 5.669c-.346 1.898-1.095 3.56-2.247 4.988-1.137 1.408-2.7 2.274-4.688 2.599zm-.494-2.517c1.065-.174 1.944-.819 2.637-1.935.71-1.119 1.174-2.461 1.392-4.028.235-1.57.232-3.092-.009-4.565-.328-2.006-1.326-2.873-2.995-2.6-.976.16-1.804.787-2.481 1.882-.681 1.078-1.155 2.358-1.423 3.842-.253 1.463-.28 2.799-.083 4.006.206 1.26.557 2.178 1.052 2.754.51.554 1.147.769 1.91.644zm17.32-.235c-1.207.198-2.294.075-3.259-.369a5.583 5.583 0 01-2.354-2.021c-.607-.922-1.007-1.977-1.202-3.167a9.352 9.352 0 01-.118-1.895c.071-3.019.718-5.53 1.939-7.535 1.222-2.005 3.173-3.226 5.854-3.665 1.669-.272 3.026.052 4.07.975 1.041.906 1.729 2.38 2.062 4.42a16.668 16.668 0 01-.057 5.67c-.346 1.898-1.095 3.561-2.247 4.989-1.137 1.407-2.699 2.273-4.688 2.598zm-.493-2.516c1.065-.175 1.944-.82 2.636-1.935.711-1.119 1.175-2.462 1.392-4.029.236-1.57.233-3.091-.008-4.565-.328-2.006-1.327-2.873-2.995-2.6-.977.16-1.804.787-2.482 1.882-.68 1.078-1.154 2.359-1.422 3.842-.253 1.464-.281 2.799-.083 4.006.206 1.261.556 2.179 1.052 2.754.509.555 1.146.769 1.91.645zm17.32-.235c-1.208.197-2.294.074-3.26-.369a5.598 5.598 0 01-2.354-2.022c-.606-.921-1.007-1.977-1.201-3.166a9.358 9.358 0 01-.119-1.895c.072-3.02.718-5.531 1.94-7.536 1.222-2.004 3.173-3.226 5.854-3.664 1.669-.273 3.025.052 4.069.975 1.042.905 1.729 2.379 2.063 4.42a16.672 16.672 0 01-.057 5.67c-.346 1.897-1.095 3.56-2.247 4.988-1.137 1.407-2.7 2.274-4.688 2.599zm-.494-2.517c1.065-.174 1.944-.819 2.637-1.935.71-1.119 1.174-2.462 1.392-4.028a14.68 14.68 0 00-.008-4.566c-.329-2.006-1.327-2.872-2.996-2.6-.976.16-1.803.788-2.481 1.883-.681 1.077-1.155 2.358-1.423 3.842-.252 1.463-.28 2.798-.083 4.006.206 1.26.557 2.178 1.052 2.753.51.555 1.147.77 1.91.645zm13.708-1.421c0 .109-.081 1.116-.244 3.02-.142 1.919-.262 3.133-.362 3.641-.039.207-.229.384-.569.531-.338.164-.586.26-.746.286-.391.064-.731-.008-1.02-.216-.307-.205-.51-.555-.609-1.049l.614-7.948c.255-2.904.452-5.378.591-7.425-.018-.106-.126-.38-.326-.821-.1-.276-.196-.533-.29-.773-.094-.24-.16-.42-.198-.542-.003-.237.145-.452.441-.646a2.45 2.45 0 01.897-.366c.426-.07.868.013 1.326.248.475.232.774.557.897.974l.034.706c.636-1.125 1.576-1.789 2.818-1.992 1.012-.166 1.923-.06 2.732.319.824.357 1.5.921 2.027 1.692.524.752.867 1.626 1.03 2.62a9.35 9.35 0 01-.158 3.881 6.83 6.83 0 01-1.851 3.229c-.914.878-2.098 1.437-3.554 1.675-.462.075-1.081.022-1.859-.161-.78-.201-1.32-.495-1.621-.883zm.273-3.518a3.12 3.12 0 00.021.462c.09.441.296.808.617 1.102.34.291.712.503 1.116.638.402.116.727.154.976.114.781-.128 1.417-.533 1.907-1.215.505-.702.846-1.514 1.023-2.436.175-.94.197-1.81.066-2.609-.122-.745-.434-1.369-.935-1.87-.486-.522-1.031-.734-1.635-.635-.675.11-1.209.352-1.604.727-.379.354-.795.877-1.247 1.57l-.305 4.152zm18.567.491c-.511.667-1.029 1.18-1.553 1.54-.522.377-1.138.623-1.848.739-1.172.192-2.137-.024-2.895-.647-.741-.627-1.209-1.544-1.407-2.751a4.922 4.922 0 01-.032-1.198l.648-7.242c.043-.408.183-.723.42-.944.252-.242.689-.413 1.31-.515.923-.15 1.427.031 1.511.546.035.213.028.56-.021 1.042l-.617 7.429c-.018.222-.01.439.025.653.061.372.208.658.441.857.233.199.562.264.989.194.55-.09 1.119-.347 1.705-.771a5.94 5.94 0 001.433-1.438l.162-2.186a163.8 163.8 0 01.419-4.8c.079-.741.233-1.359.462-1.852.244-.514.704-.826 1.378-.936.941-.154 1.458.053 1.551.621.015.089.007.209-.023.36a4.22 4.22 0 00-.028.332l-.282 3.792c-.29 4.022-.489 6.597-.596 7.726-.171 1.851-.467 3.331-.887 4.438-.421 1.108-1.039 1.957-1.854 2.546-.797.586-1.879.991-3.246 1.214-.87.142-1.61.136-2.218-.02-.591-.159-1.049-.394-1.374-.705-.306-.315-.484-.623-.533-.924-.143-.87.265-1.384 1.224-1.541.267-.043.488-.025.665.056.195.077.398.199.607.365.307.205.577.353.811.442.251.087.572.098.962.034.302-.049.619-.229.951-.538.332-.31.633-.76.901-1.351.267-.59.452-1.304.552-2.141l.287-2.426zm13.348-3.74c.452-.804.776-1.778.972-2.921.195-1.145.209-2.231.041-3.261-.259-1.58-1.045-2.263-2.359-2.048-.728.119-1.337.574-1.827 1.365-.491.791-.831 1.722-1.02 2.792-.187 1.088-.208 2.076-.062 2.963.084.515.276.967.577 1.355.303.406.653.705 1.048.895.378.193.736.263 1.073.207.568-.093 1.087-.542 1.557-1.348zm2.262-15.93c.657-.107 1.199-.086 1.624.063.425.15.667.402.725.757.044.266-.004.474-.144.625-.139.15-.37.297-.693.441-.699.297-1.744.65-3.135 1.06-1.821.571-3.013.976-3.575 1.213 1.904.272 3.362.772 4.374 1.5.313.131.614.3.903.508 1.018.764 1.669 2.015 1.954 3.755.2 1.225.071 2.55-.389 3.974a9.832 9.832 0 01-2.154 3.715c-.997 1.038-2.117 1.659-3.36 1.862-1.562.256-2.865-.078-3.91-1.001-1.044-.923-1.701-2.21-1.971-3.861a8.282 8.282 0 01.345-4.076 8.245 8.245 0 012.26-3.405 7.88 7.88 0 011.049-.773l-.456-.117c-.97-.242-1.691-.47-2.163-.685-.47-.197-.734-.472-.792-.828-.084-.514.022-.924.319-1.227.297-.304.818-.627 1.565-.967.781-.347 2.007-.82 3.677-1.422 1.673-.583 2.989-.953 3.947-1.11z" fill="#C28DD1"/><path d="M47.508 28.762c-2.292-.238 3.905-2.837 4.036-2.89 14.748-6.11 30.684-10.405 46.53-14.036C116.4 7.638 134.83 4.788 153.768 3.34c24.585-1.881 51.366-2.52 75.323 3.134 21.538 5.083 39.608 16.956 44.639 35.418C276.002 50.228 276 58.508 276 67" stroke="#C28DD1" stroke-width="3" stroke-linecap="round"/><path d="M1.87 125.197c5.596 1.357 10.933 3.478 16.647 4.364 3.879.602 7.854.842 11.775 1.016 17.995.8 36.014-.496 53.936-1.616 11.936-.746 23.532-2.509 35.165-5.241a195.32 195.32 0 0011.314-3.002c1.693-.506 4.114-.466 5.403-1.755m43.97-63.592c-.386-6.576-2.033-14.089-.144-20.597 1.85-6.37 7.815-10.816 13.849-13.026 1.613-.59 3.334-.452 5.021-.452 2.279 0 2.016 3.308 2.016 4.794 0 1.56.201 3.285-.021 4.836-.111.778-1.599 2.417-.843 2.201 2.344-.67 4.362-1.891 6.873-2.284 2.907-.454 5.856-.832 8.806-.658 1.323.078.79 4.062.721 5-.19 2.566-2.079 4.8-3.149 7.037-3.337 6.978-10.744 13.075-17.943 15.742-3.956 1.465-7.865 4.074-12.222 4.074" stroke="#F49563" stroke-width="3" stroke-linecap="round"/></svg>