<svg width="449" height="133" fill="none" xmlns="http://www.w3.org/2000/svg"><path d="M223 50.545c13.062-1.375 17.92-6.694 19.152-18.605.527-5.093 2.857-10.254 2.502-15.4-.352-5.107-4.065-9.624-4.065-14.54M271 51.249c15.317-14.965 35.451-25.313 54.995-33.81 9.789-4.256 20.174-6.886 30.409-9.81 5.486-1.568 10.872-3.518 16.612-3.518M320 62.506c9.903-7.13 21.961-12.573 33.771-15.635 7.864-2.039 15.252-2.074 23.373-1.954 13.936.205 27.325 6.898 40.572 10.71 9.388 2.7 19.295 5.274 28.924 6.879M356 78.688c13.393 0 24.625 6.028 35.725 13.21 6.023 3.898 7.677 9.57 10.71 15.635" stroke="#C28DD1" stroke-width="4" stroke-linecap="round"/><path d="M227.348 109.025c-2.215.896-3.973 1.653-5.273 2.272a29.72 29.72 0 00-.52 1.525c-.225.731-.438 1.35-.64 1.855a7.526 7.526 0 01-.671 1.337c-.287.45-.536.782-.747.994a1.432 1.432 0 01-.765.418c-.527.117-1.017.106-1.472-.033-.441-.161-.688-.364-.743-.61.028-.043.135-.472.323-1.287.185-.833.627-1.917 1.326-3.251-.031-.14-.113-.306-.248-.498-.134-.191-.205-.304-.213-.339-.113-.51.55-1.301 1.989-2.375a87.977 87.977 0 011.945-4.576 241.519 241.519 0 012.643-5.421 4.2 4.2 0 011.104-1.378c.483-.401.996-.662 1.541-.783.562-.124.995-.165 1.299-.121.305.043.511.144.62.304.127.157.225.393.295.71.047.542.09.947.131 1.214.207 2.184.409 4.055.606 5.614.212 1.538.484 3.062.819 4.573.307 1.388.65 2.647 1.029 3.78.041.433-.058.86-.297 1.281-.242.404-.574.652-.995.746-.808.178-1.389.095-1.742-.251-.335-.349-.61-1.007-.823-1.973-.156-.703-.329-1.945-.521-3.727zm-3.862-1.218c.301-.14.766-.326 1.397-.558l2.037-.782c-.382-2.477-.586-4.274-.612-5.392-.506.959-1.447 3.203-2.822 6.732zm21.97-9.034c.093.09.233.262.418.516.171.275.275.492.31.65.019.088.022.142.008.164-.064.125-.247.257-.547.397-.301.14-.502.231-.604.272l-.181.178-.229.217c-.193.208-.357.383-.492.523-.453.45-.891.888-1.313 1.313a314.833 314.833 0 01-2.235 2.263c.128.414.587.985 1.374 1.714.792.746 1.615 1.43 2.471 2.051.856.621 1.355.917 1.495.885.158-.034.39.053.694.262.286.213.453.424.5.635.042.193-.053.344-.288.451-.168.074-.453.201-.855.382a5.665 5.665 0 01-1.077.377c-.281.062-.508.076-.682.04-.435-.051-1.091-.394-1.969-1.029a24.389 24.389 0 01-2.576-2.277c-.85-.843-1.452-1.604-1.804-2.281-.061 2.39-.112 4.032-.154 4.925-.046.877-.112 1.453-.198 1.73-.082.295-.22.463-.413.506l-.732.19c-1.159.256-1.868-.075-2.127-.995.161-.938.25-1.704.266-2.297.099-2.215.183-4.251.251-6.108l.028-1.499a42.595 42.595 0 01-.563-2.169c.002-.24.155-.467.457-.682.321-.218.621-.358.902-.42.439-.097.938-.051 1.496.139s.892.493 1.003.911l-.108 3.257-.027.006-.009.583c.268-.539.767-1.239 1.497-2.1a25.416 25.416 0 012.371-2.404c.814-.733 1.491-1.214 2.029-1.444.141-.031.405-.044.794-.037.405.002.679.07.819.205zm13.262 7.071c1.141.079 2.097.402 2.867.969.903.666 1.356 1.671 1.358 3.016-.022 1.313-.404 2.337-1.144 3.072-.754.756-1.685 1.128-2.793 1.115-.851-.014-1.27-.493-1.258-1.435a1.935 1.935 0 01.259-1.08c.166-.331.396-.502.688-.511.387.08.713.183.981.308.257-.002.533-.128.828-.377.299-.232.449-.514.449-.845.012-.445-.298-.764-.93-.956a6.327 6.327 0 00-1.917-.294 7.423 7.423 0 00-.852.023c-1.093.223-1.697.071-1.814-.456l-.063-1.036a15.44 15.44 0 01-1.494 1.491c-.586.517-1.099.824-1.538.921-2.6.575-4.088.011-4.465-1.693-.641-2.898-.467-6.235.522-10.01.121-.45.277-.789.466-1.015.207-.23.601-.41 1.18-.537.615-.136 1.091-.15 1.429-.04.351.088.552.246.602.475.012.052-.05.232-.185.538a5.745 5.745 0 00-.349.796c-1.041 3.123-1.272 5.993-.693 8.61a.853.853 0 00.398.548c.214.137.392.19.532.158.387-.085.996-.413 1.828-.984.849-.575 1.477-1.11 1.883-1.605l.055-2.251c.069-2.687.118-4.338.148-4.952.038-.746.157-1.37.359-1.876.215-.527.656-.864 1.324-1.012.931-.206 1.458-.028 1.583.535a1.06 1.06 0 01-.004.36c-.008.13-.011.242-.009.333l-.109 4.502-.122 5.195zm15.67-1.173c-.004.314-.118.551-.34.711-.219.177-.53.311-.934.4-1.212.268-1.878.13-1.999-.414l-.063-1.037a15.46 15.46 0 01-1.495 1.492c-.585.516-1.098.823-1.537.92-2.6.575-4.088.011-4.465-1.693-.641-2.898-.467-6.235.522-10.01.121-.45.277-.789.466-1.015.207-.23.6-.409 1.18-.537.615-.136 1.091-.15 1.428-.04.352.088.552.247.603.475.012.053-.05.232-.185.538a5.745 5.745 0 00-.349.796c-1.041 3.123-1.272 5.993-.693 8.611.051.228.183.41.398.547.214.137.392.19.532.159.387-.086.996-.414 1.827-.985.85-.575 1.478-1.11 1.884-1.605l.055-2.25c.069-2.688.118-4.338.148-4.953.038-.745.157-1.37.359-1.876.215-.526.656-.864 1.324-1.011.931-.206 1.458-.028 1.583.534a1.06 1.06 0 01-.004.36c-.008.13-.011.242-.009.334l-.109 4.501c-.093 3.577-.136 5.926-.127 7.048zm6.545-8.91c.3.192.643.245 1.03.16.703-.156 1.214-.426 1.534-.81.027-.964.048-1.826.064-2.585a1.085 1.085 0 00-.441-.372c-.375-.193-.746-.25-1.115-.168a2.238 2.238 0 00-1.394.944c-.35.502-.442 1.13-.274 1.885.097.44.295.755.596.946zm4.994-6.66c.325.057.533.287.622.692.043.193.042 1.27-.003 3.234-.044 1.963-.114 4.52-.209 7.674l.781.656a.263.263 0 01.12.167c.039.176-.123.359-.487.55-.359.209-.881.389-1.566.54-.404.089-.733.061-.986-.086a1.196 1.196 0 01-.497-.498c-.086-.22-.202-.536-.348-.946.017-1.09.033-2.098.05-3.023-.27.115-.552.214-.846.298l-.015.058c-.086.443-.334 1.115-.742 2.016-.405.919-.829 1.75-1.273 2.493-.444.743-.758 1.153-.944 1.231-.335.148-.794.157-1.375.028-.586-.147-.934-.346-1.045-.598-.085-.221-.052-.486.101-.796.148-.328.478-.88.988-1.656.725-1.137 1.301-1.946 1.729-2.427l.263-.308a3.907 3.907 0 01-1.073-.48c-.927-.606-1.518-1.489-1.774-2.648-.175-.79-.075-1.587.3-2.388.362-.78.922-1.457 1.679-2.03a6.529 6.529 0 012.606-1.212 4.255 4.255 0 011.561-.069c.191-.134.533-.256 1.024-.365.58-.128 1.033-.164 1.359-.107z" fill="#F49563"/><path d="M1.787 128.53c1.484-2.803 4.806-3.791 7.59-4.851 4.72-1.798 8.939-2.591 13.84-3.304 2.104-.306 4.526-.776 6.667-.387 2.107.383 4.43 3.783 6.31 4.911 5.226 3.136 8.404-.328 13.274-2.798 8.255-4.186 16.048-5.355 25.299-3.75 5.349.928 10.982.719 16.25 1.935 4.291.99 8.04 2.825 12.56 2.887 5.523.075 9.789-1.945 15.061-3.185 7.292-1.716 14.649-1.637 22.084-1.637 6.645 0 12.935.074 19.376 1.935 2.393.691 4.324 2.195 6.578 3.184 2.079.913 4.469 1.288 6.666 1.846 12.313 3.124 25.382-2.846 36.847-6.429" stroke="#F5A276" stroke-width="3" stroke-linecap="round"/></svg>