<svg width="268" height="185" fill="none" xmlns="http://www.w3.org/2000/svg"><path d="M125 178c-1.259-3.98-3.629-7.557-4.958-11.512-1.518-4.515-2.836-9.085-4.042-13.675-1.042-3.964-1.392-8.015-2.042-12.038-.29-1.796-.068-4.168-.958-5.775m101 34v-8.134c0-6.225-1.225-12.128-2.033-18.264-.733-5.558-1.416-11.078-2.7-16.499-.221-.931-.527-4.677-1.267-5.103m-96 13c1.912-4.107 4.852-6.486 9.075-8.517 6.598-3.173 13.183-6.466 20.508-7.891a134.196 134.196 0 0119.572-2.341c8.028-.38 16.114-.234 24.15-.166 1.324.011 2.812.352 4.089.664 2.135.521 4.313.938 6.466 1.401 2.046.44 3.988 1.546 6.037 1.899.745.128.793.455 1.325.94.581.529 1.442.459 2.006.903.543.429 1.426.506 1.772 1.162" stroke="#F49563" stroke-width="3" stroke-linecap="round"/><path d="M113 135.745c7.243 2.096 15.3 2.196 22.765 2.238 9.459.052 18.927-.018 28.385-.178 4.061-.069 8.167-.093 12.206-.604a73.54 73.54 0 0017.109-4.262c2.941-1.122 4.9-2.206 6.909-4.546 2.404-2.801 5.307-4.843 8.626-6.393" stroke="#F49563" stroke-width="3" stroke-linecap="round"/><path d="M130 133c-.018-3.31-.145-6.431-.882-9.661-.383-1.677-.942-3.38-1.226-5.063-.256-1.517-.892-2.714-.892-4.276m10 18c-.666-2.956-.499-5.939-.955-8.944-.699-4.612-2.045-9.344-2.045-14.056m-4 24c2.295-.348 4.75-.357 7-1m-10-20c0-.588.121-1.5.347-2.038.28-.666 1.237-.399 1.806-.627 1.276-.512 1.717-1.586 2.222-2.787.349-.829.469-.66.625.122m-3.896-2.67c.338-.675.644-1.369.439-2.17-.21-.822-1.006-1.568-1.387-2.327-.434-.866-.661-1.64-.877-2.587-.212-.926-.391-2.13-.193-3.097.127-.625.356-1.204.517-1.818.036-.135.073-1.001.158-1.001.215 0 .683 1.992.711 2.142.323 1.706 1.095 3.685 2.054 5.072.219.317.316.099.316.612 0 .427.158.814.158 1.261 0 .88-.316 1.552-.316 2.411M154 126c.639-.079 1.304-.936 1.887-1.243 1.125-.594 2.48-.727 3.717-.727 1.142 0 2.365-.185 3.396.359m-9-.389c0-1.655-.221-3.297-.404-4.943-.183-1.643-.84-3.266-1.222-4.878-.464-1.955-.667-3.958-1.101-5.923-.374-1.689-1.091-2.974-1.091-4.738 0-.857-.182-1.658-.182-2.518m13 21c-.544-3.891-2.458-7.209-3.385-10.965-.477-1.934-.488-4.011-.461-6 .025-1.837.635-4.361-.154-6.035m-9 2c1.103-.39 1.822-2.308 2.966-2.308 1.67 0 3.417-.156 5.034-.692m-2.999-2c-.062-.412-.647-.9-.911-1.266-.629-.87-1.065-2.07-1.089-3.053-.045-1.834 1.2-3.502 1.2-5.36 0-.98 1.181.586 1.311.744.638.778 1.088 1.419 1.088 2.35 0 1.387.4 2.743.4 4.111 0 .401-1.07.722-1.6.985M183 128c0-2.039-.842-4.128-.842-6.189 0-2.235-.638-4.493-.889-6.722-.304-2.701-1.717-5.157-2.047-7.848-.096-.784.082-1.497-.222-2.241m13 21c0-4.802-3.306-8.825-3.907-13.5-.27-2.096.133-4.238.133-6.333V101m-2.226-.441c-.475-.215-1.037-.526-1.59-.558-.57-.034-1.077 1.597-1.341 2.038-.513.855-.949 1.656-1.245 2.596-.133.423-.383.362-.824.362m.607-7.997c-.054-.542-.479-1.153-.712-1.618-.348-.692-.574-1.423-.784-2.17-.198-.703-.071-1.615-.071-2.348 0-.43.192-.562.395-.897.232-.381.283-.906.412-1.336.202-.673.581-1.338.752-2.004.044-.173-.049-1.662.095-1.626.563.139 1.489 1.678 1.883 2.17.281.351.287.687.309 1.126.034.676.277 1.283-.071 1.978-.132.264-.117.645-.214.94-.148.455-.524.81-.744 1.231-.69 1.328-.538 2.759-.538 4.237" stroke="#C28DD1" stroke-width="3" stroke-linecap="round"/><path d="M182 128c.973-1.229 1.746-3 3.287-3 1.239 0 2.436.279 3.614.75.744.297 1.653 1.179 2.467 1.125.342-.023.519-1.188.632-1.5" stroke="#C28DD1" stroke-width="3" stroke-linecap="round"/><path d="M129 178.487c5.028 2.756 11.397 3.173 17.002 3.874 4.52.565 9.054.649 13.602.638 9.246-.023 18.484-.734 27.603-2.249 4.496-.746 9.116-1.422 13.474-2.803 1.19-.377 2.39-.725 3.581-1.101 1.274-.403 2.45-1.048 3.716-1.474 3.373-1.136 7.047-2.015 9.246-5.09.61-.854 1.273-1.616 1.896-2.454.192-.259.592-.683.88-.828m-97-19.299c2.988-1.057 5.507-1.152 8.516-.091 5.532 1.953 11.145 3.873 17.064 4.221 2.271.133 4.624.309 6.883-.013 3.363-.48 6.626-1.452 9.995-1.926 4.468-.628 8.736-1.378 12.94-3.014.785-.306 1.451-.608 2.299-.746 1.191-.193 1.939.303 2.812 1.044 2.524 2.144 5.289 3.022 8.309 1.199 2.343-1.414 5.352-2.627 6.796-5.043.648-1.084 1.036-2.141 1.386-3.332m-71 17.965c1.878 1.109 3.73 2.026 5.838 2.662 2.35.709 4.778 1.032 7.207 1.384 4.59.665 9.205 1.477 13.838 1.821 1.652.122 3.422.294 5.064.025 1.92-.314 3.857-1.168 5.508-2.137 1.132-.664 2.073-1.57 3.233-2.199.774-.421 1.661-.378 2.519-.481 1.104-.132 2.197-.211 3.312-.139 1.708.109 3.145.849 4.721 1.403 2.391.842 4.289-.044 6.539-.859 2.589-.939 5.311-1.537 7.795-2.706 1.045-.492 2.149-.898 3.001-1.694 1.49-1.392 2.367-3.359 3.425-5.045" stroke="#F49563" stroke-width="3" stroke-linecap="round"/><path d="M130 169.486c3.274.589 5.963 2.648 9.103 3.598 2.013.609 4.315.804 6.407.879 3.442.124 6.973-.047 10.342-.784 5.339-1.168 10.555-3.213 16.079-3.321 3.942-.077 7.466 2.181 11.359 2.617 3.847.432 7.162-.512 10.606-2.231 3.245-1.62 7.46-3.375 9.719-6.344 1.192-1.566 2.251-3.231 3.495-4.754 1-1.223 1.89-2.525 1.89-4.146" stroke="#F49563" stroke-width="3" stroke-linecap="round"/><path d="M142 124c.046-.116.87-1.315 1.096-.921.107.185.119.44.104.638-.027.357-1.021-.289-1.081-.334-.16-.121 1.511-.173 1.881-.042m25-3.288c.832 0 2.373-.283 2.886.456.34.49-.149.491-.558.491-.263 0-.469-.104-.587-.316-.211-.379.124-.394.46-.394M160 132c.709-.354.687-1.671 1.519-1.964.587-.206 1.466.493 1.481 1.287.009.472-.868-.235-1.101-.3-.109-.03-.485-.166-.225-.329" stroke="#C28DD1" stroke-width="3" stroke-linecap="round"/><path d="M174.026 126.365c0-.211-.086-1.269.054-1.329.623-.263.913.978.92 1.57.012 1.023-.674-.218-.674-.653M196.241 123c.203.168.759.542.759.968 0 .106-.77-.087-.861-.093-.405-.028.204-.113.204-.404M145 131h.726M123 131v.465m50-.465h-1M2 166.379c0-3.763.941-7.505 2.608-10.901.75-1.529 1.26-3.34 2.448-4.646 1.56-1.716 2.779-3.576 4.062-5.53.983-1.496 1.784-3.116 3.07-4.388 1.2-1.187 2.575-1.75 3.972-2.591 1.23-.741 2.648-1.154 3.972-1.688.853-.344 2.14-.635 3.07-.635 1.237 0 1.617.287 2.296 1.211.492.669.502 1.702.502 2.542 0 1.105-.289 1.809-.903 2.72-.465.691-.857 1.434-1.304 2.144-.521.829-1.278 1.583-1.956 2.284a103.394 103.394 0 00-3.822 4.209c-1.627 1.879-3.428 3.519-4.794 5.619-.945 1.452-2.034 2.838-3.11 4.2-.925 1.169-2.004 2.201-2.889 3.405-.904 1.23-2.182 2.043-3.16 3.117-.539.593-2.046.893-2.266-.089-.186-.825-1.478-1.089-1.796-1.876m10 6.168c0-1.25 1.16-3.127 1.94-4.069 1.437-1.734 2.703-3.599 4.193-5.285 1.188-1.344 2.594-2.932 3.52-4.452 1.49-2.446 3.622-4.339 5.48-6.492.724-.838 1.607-1.538 2.321-2.392.755-.904 1.32-2.051 2.116-2.893 1.563-1.655 2.632-3.8 4.378-5.305 1.372-1.182 2.374-1.765 4.213-1.765 1.672 0 2.885-.084 3.959 1.451.768 1.098.877 2.198.877 3.501 0 1.087.066 1.936-.439 2.912-.603 1.167-1.431 2.25-2.194 3.314-1.41 1.97-3.283 3.653-4.602 5.708-2.57 4-4.969 7.918-8.308 11.276a19.358 19.358 0 01-5.353 3.795c-2.683 1.27-5.426 2.103-8.23 3.079-.722.252-1.383.721-2.116.932-.914.262-.868-1.195-.877-1.903-.033-2.48.175-4.957.175-7.413" stroke="#F49563" stroke-width="3" stroke-linecap="round"/><path d="M17.421 172c-.512-.575-.609-2.197 0-2.805.42-.419.83-.414 1.379-.494.683-.099 1.314-.207 2.015-.207.441 0 .877.137 1.314.116 1.324-.061 2.209-1.214 2.575-2.311.272-.815.208-1.656.208-2.507 0-.752-.345-2.308.325-2.779.483-.34 1.099-.416 1.548-.727.392-.272.621-.442 1.118-.442.696 0 1.406.053 2.068-.143.976-.289 2.549-.846 2.549-2.078 0-1.619-.193-3.72 1.294-4.74.518-.356.956-.798 1.612-.864.296-.029.629.06.904-.064.66-.3 1.3-.252 1.866-.819.327-.326 1.427-1.063 1.216-1.642-.16-.44-.806-.566-.806-1.046 0-.308-.175-.532-.228-.825-.183-1.004.89-1.45 1.626-1.863.595-.334 1.297-.76 1.996-.76M5 165c0-.643.043-1.274.299-1.873.259-.607.801-1.307.87-1.98.071-.702.713-1.458 1.169-1.927.235-.242.527-.583.818-.749.151-.087.351-.049.474-.154.255-.219.865.016 1.136-.208.399-.328 1.018-.549 1.17-1.11.14-.524.32-1.075.252-1.626-.087-.718-.16-1.121.176-1.813.284-.585.389-1.194.857-1.659.534-.531 1.106-1.04 1.604-1.592.296-.328.71-.241 1.11-.241.68 0 1.552-.341 2.013-.816.616-.635 1.307-1.03 1.669-1.9.173-.417.409-.669.409-1.137 0-.347-.07-.622-.11-.957-.17-1.399 1.155-2.571 2.396-2.803.336-.063.653-.279.987-.328.263-.039.517.062.701-.127m208.831-77c.743-2.256 1.017-4.172.964-6.549-.08-3.583-2.371-6.386-4.902-8.754-3.14-2.938-6.775-5.145-10.177-7.738-2.042-1.556-3.547-3.733-3.696-6.348-.361-6.292 4.33-9.71 9.052-12.817 2.685-1.767 5.207-3.608 7.674-5.667 1.087-.907 2.609-1.84 3.254-3.127" stroke="#C28DD1" stroke-width="3" stroke-linecap="round"/><path d="M232 34c6.296-.86 12.488-2.663 17.234-7.587 1.245-1.291 2.854-2.84 3.377-4.699.559-1.986.494-5.522-.058-7.492-1.299-4.635-5.035-6.885-8.289-9.65-.526-.448-1.739-1.777-1.739-2.572" stroke="#C28DD1" stroke-width="3" stroke-linecap="round"/><path d="M245.734 63c0-.904-.243-1.811-.509-2.666-.457-1.472-.5-3.106-1.148-4.515-.797-1.731-1.627-3.614-2.775-5.141-.933-1.24-2.113-2.374-2.959-3.667-.494-.756-.32-1.897-.284-2.747.068-1.62 1.119-3.465 2.307-4.575 1.585-1.48 4.363-1.619 6.354-2.142 1.576-.413 3.238-.567 4.869-.545 2.042.028 1.963 1.067 2.378 2.717.087.344.14.857.59.697.458-.163.853-.51 1.25-.778.766-.514 1.588-.73 2.46-1 1.443-.445 2.907-.767 4.361-1.161 1.237-.335 2.153.258 2.785 1.343 1.523 2.611-.254 6.43-1.545 8.686-2.683 4.692-6.314 7.379-11.181 9.495" stroke="#F49563" stroke-width="3" stroke-linecap="round"/></svg>